<?xml version="1.0" encoding="utf-8" standalone="no"?>
<!DOCTYPE svg PUBLIC "-//W3C//DTD SVG 1.1//EN"
  "http://www.w3.org/Graphics/SVG/1.1/DTD/svg11.dtd">
<svg xmlns:xlink="http://www.w3.org/1999/xlink" width="864pt" height="280.8pt" viewBox="0 0 864 280.8" xmlns="http://www.w3.org/2000/svg" version="1.1">
 <metadata>
  <rdf:RDF xmlns:dc="http://purl.org/dc/elements/1.1/" xmlns:cc="http://creativecommons.org/ns#" xmlns:rdf="http://www.w3.org/1999/02/22-rdf-syntax-ns#">
   <cc:Work>
    <dc:type rdf:resource="http://purl.org/dc/dcmitype/StillImage"/>
    <dc:date>2025-10-13T11:28:16.167473</dc:date>
    <dc:format>image/svg+xml</dc:format>
    <dc:creator>
     <cc:Agent>
      <dc:title>Matplotlib v3.10.0, https://matplotlib.org/</dc:title>
     </cc:Agent>
    </dc:creator>
   </cc:Work>
  </rdf:RDF>
 </metadata>
 <defs>
  <style type="text/css">*{stroke-linejoin: round; stroke-linecap: butt}</style>
 </defs>
 <g id="figure_1">
  <g id="patch_1">
   <path d="M 0 280.8 
L 864 280.8 
L 864 0 
L 0 0 
z
" style="fill: #ffffff"/>
  </g>
  <g id="axes_1">
   <g id="patch_2">
    <path d="M 10.8 268.978378 
L 853.2 268.978378 
L 853.2 10.8 
L 10.8 10.8 
z
" style="fill: #ffffff"/>
   </g>
   <g id="matplotlib.axis_1"/>
   <g id="matplotlib.axis_2"/>
   <g id="LineCollection_1">
    <path d="M 10.8 63.133455 
L 853.2 63.133455 
" clip-path="url(#p1e17062fad)" style="fill: none; stroke: #000000; stroke-width: 3"/>
   </g>
   <g id="LineCollection_2">
    <path d="M 10.8 132.911395 
L 853.2 132.911395 
" clip-path="url(#p1e17062fad)" style="fill: none; stroke: #000000; stroke-width: 3"/>
   </g>
   <g id="LineCollection_3">
    <path d="M 10.8 202.689335 
L 853.2 202.689335 
" clip-path="url(#p1e17062fad)" style="fill: none; stroke: #000000; stroke-width: 3"/>
   </g>
   <g id="LineCollection_4">
    <path d="M 10.8 220.13382 
L 853.2 220.13382 
" clip-path="url(#p1e17062fad)" style="fill: none; stroke: #00008b; stroke-width: 3"/>
   </g>
   <g id="LineCollection_5">
    <path d="M 10.8 75.344595 
L 10.8 50.922316 
" style="fill: none; stroke: #000000; stroke-width: 2"/>
    <path d="M 432 75.344595 
L 432 50.922316 
" style="fill: none; stroke: #000000; stroke-width: 2"/>
    <path d="M 853.2 75.344595 
L 853.2 50.922316 
" style="fill: none; stroke: #000000; stroke-width: 2"/>
   </g>
   <g id="LineCollection_6">
    <path d="M 10.8 145.122535 
L 10.8 120.700256 
" style="fill: none; stroke: #000000; stroke-width: 2"/>
    <path d="M 221.4 145.122535 
L 221.4 120.700256 
" style="fill: none; stroke: #000000; stroke-width: 2"/>
    <path d="M 432 145.122535 
L 432 120.700256 
" style="fill: none; stroke: #000000; stroke-width: 2"/>
    <path d="M 642.6 145.122535 
L 642.6 120.700256 
" style="fill: none; stroke: #000000; stroke-width: 2"/>
    <path d="M 853.2 145.122535 
L 853.2 120.700256 
" style="fill: none; stroke: #000000; stroke-width: 2"/>
   </g>
   <g id="LineCollection_7">
    <path d="M 10.8 202.689335 
L 10.8 190.478196 
" style="fill: none; stroke: #000000; stroke-width: 2"/>
    <path d="M 116.1 202.689335 
L 116.1 190.478196 
" style="fill: none; stroke: #000000; stroke-width: 2"/>
    <path d="M 221.4 202.689335 
L 221.4 190.478196 
" style="fill: none; stroke: #000000; stroke-width: 2"/>
    <path d="M 326.7 202.689335 
L 326.7 190.478196 
" style="fill: none; stroke: #000000; stroke-width: 2"/>
    <path d="M 432 202.689335 
L 432 190.478196 
" style="fill: none; stroke: #000000; stroke-width: 2"/>
    <path d="M 537.3 202.689335 
L 537.3 190.478196 
" style="fill: none; stroke: #000000; stroke-width: 2"/>
    <path d="M 642.6 202.689335 
L 642.6 190.478196 
" style="fill: none; stroke: #000000; stroke-width: 2"/>
    <path d="M 747.9 202.689335 
L 747.9 190.478196 
" style="fill: none; stroke: #000000; stroke-width: 2"/>
    <path d="M 853.2 202.689335 
L 853.2 190.478196 
" style="fill: none; stroke: #000000; stroke-width: 2"/>
   </g>
   <g id="LineCollection_8">
    <path d="M 10.8 232.34496 
L 10.8 220.13382 
" style="fill: none; stroke: #00008b; stroke-width: 2"/>
    <path d="M 83.07792 232.34496 
L 83.07792 220.13382 
" style="fill: none; stroke: #00008b; stroke-width: 2"/>
    <path d="M 94.45032 232.34496 
L 94.45032 220.13382 
" style="fill: none; stroke: #00008b; stroke-width: 2"/>
    <path d="M 121.07016 232.34496 
L 121.07016 220.13382 
" style="fill: none; stroke: #00008b; stroke-width: 2"/>
    <path d="M 151.0596 232.34496 
L 151.0596 220.13382 
" style="fill: none; stroke: #00008b; stroke-width: 2"/>
    <path d="M 251.89488 232.34496 
L 251.89488 220.13382 
" style="fill: none; stroke: #00008b; stroke-width: 2"/>
    <path d="M 268.65864 232.34496 
L 268.65864 220.13382 
" style="fill: none; stroke: #00008b; stroke-width: 2"/>
    <path d="M 287.1072 232.34496 
L 287.1072 220.13382 
" style="fill: none; stroke: #00008b; stroke-width: 2"/>
    <path d="M 321.30864 232.34496 
L 321.30864 220.13382 
" style="fill: none; stroke: #00008b; stroke-width: 2"/>
    <path d="M 386.67888 232.34496 
L 386.67888 220.13382 
" style="fill: none; stroke: #00008b; stroke-width: 2"/>
    <path d="M 387.68976 232.34496 
L 387.68976 220.13382 
" style="fill: none; stroke: #00008b; stroke-width: 2"/>
    <path d="M 393.08112 232.34496 
L 393.08112 220.13382 
" style="fill: none; stroke: #00008b; stroke-width: 2"/>
    <path d="M 430.23096 232.34496 
L 430.23096 220.13382 
" style="fill: none; stroke: #00008b; stroke-width: 2"/>
    <path d="M 455.83992 232.34496 
L 455.83992 220.13382 
" style="fill: none; stroke: #00008b; stroke-width: 2"/>
    <path d="M 516.07152 232.34496 
L 516.07152 220.13382 
" style="fill: none; stroke: #00008b; stroke-width: 2"/>
    <path d="M 580.76784 232.34496 
L 580.76784 220.13382 
" style="fill: none; stroke: #00008b; stroke-width: 2"/>
    <path d="M 600.98544 232.34496 
L 600.98544 220.13382 
" style="fill: none; stroke: #00008b; stroke-width: 2"/>
    <path d="M 604.2708 232.34496 
L 604.2708 220.13382 
" style="fill: none; stroke: #00008b; stroke-width: 2"/>
    <path d="M 660.88008 232.34496 
L 660.88008 220.13382 
" style="fill: none; stroke: #00008b; stroke-width: 2"/>
    <path d="M 714.28824 232.34496 
L 714.28824 220.13382 
" style="fill: none; stroke: #00008b; stroke-width: 2"/>
    <path d="M 789.51456 232.34496 
L 789.51456 220.13382 
" style="fill: none; stroke: #00008b; stroke-width: 2"/>
    <path d="M 815.46048 232.34496 
L 815.46048 220.13382 
" style="fill: none; stroke: #00008b; stroke-width: 2"/>
    <path d="M 824.5584 232.34496 
L 824.5584 220.13382 
" style="fill: none; stroke: #00008b; stroke-width: 2"/>
    <path d="M 835.9308 232.34496 
L 835.9308 220.13382 
" style="fill: none; stroke: #00008b; stroke-width: 2"/>
    <path d="M 838.8792 232.34496 
L 838.8792 220.13382 
" style="fill: none; stroke: #00008b; stroke-width: 2"/>
    <path d="M 852.02064 232.34496 
L 852.02064 220.13382 
" style="fill: none; stroke: #00008b; stroke-width: 2"/>
    <path d="M 853.2 232.34496 
L 853.2 220.13382 
" style="fill: none; stroke: #00008b; stroke-width: 2"/>
   </g>
   <g id="text_1">
    <!-- 0 -->
    <g transform="translate(211.85625 42.938805) scale(0.3 -0.3)">
     <defs>
      <path id="DejaVuSans-30" d="M 2034 4250 
Q 1547 4250 1301 3770 
Q 1056 3291 1056 2328 
Q 1056 1369 1301 889 
Q 1547 409 2034 409 
Q 2525 409 2770 889 
Q 3016 1369 3016 2328 
Q 3016 3291 2770 3770 
Q 2525 4250 2034 4250 
z
M 2034 4750 
Q 2819 4750 3233 4129 
Q 3647 3509 3647 2328 
Q 3647 1150 3233 529 
Q 2819 -91 2034 -91 
Q 1250 -91 836 529 
Q 422 1150 422 2328 
Q 422 3509 836 4129 
Q 1250 4750 2034 4750 
z
" transform="scale(0.015625)"/>
     </defs>
     <use xlink:href="#DejaVuSans-30"/>
    </g>
   </g>
   <g id="text_2">
    <!-- 1 -->
    <g transform="translate(633.05625 42.938805) scale(0.3 -0.3)">
     <defs>
      <path id="DejaVuSans-31" d="M 794 531 
L 1825 531 
L 1825 4091 
L 703 3866 
L 703 4441 
L 1819 4666 
L 2450 4666 
L 2450 531 
L 3481 531 
L 3481 0 
L 794 0 
L 794 531 
z
" transform="scale(0.015625)"/>
     </defs>
     <use xlink:href="#DejaVuSans-31"/>
    </g>
   </g>
   <g id="text_3">
    <!-- 00 -->
    <g transform="translate(97.0125 112.716745) scale(0.3 -0.3)">
     <use xlink:href="#DejaVuSans-30"/>
     <use xlink:href="#DejaVuSans-30" transform="translate(63.623047 0)"/>
    </g>
   </g>
   <g id="text_4">
    <!-- 01 -->
    <g transform="translate(307.6125 112.716745) scale(0.3 -0.3)">
     <use xlink:href="#DejaVuSans-30"/>
     <use xlink:href="#DejaVuSans-31" transform="translate(63.623047 0)"/>
    </g>
   </g>
   <g id="text_5">
    <!-- 10 -->
    <g transform="translate(518.2125 112.716745) scale(0.3 -0.3)">
     <use xlink:href="#DejaVuSans-31"/>
     <use xlink:href="#DejaVuSans-30" transform="translate(63.623047 0)"/>
    </g>
   </g>
   <g id="text_6">
    <!-- 11 -->
    <g transform="translate(728.8125 112.716745) scale(0.3 -0.3)">
     <use xlink:href="#DejaVuSans-31"/>
     <use xlink:href="#DejaVuSans-31" transform="translate(63.623047 0)"/>
    </g>
   </g>
   <g id="text_7">
    <!-- 000 -->
    <g transform="translate(34.81875 182.494685) scale(0.3 -0.3)">
     <use xlink:href="#DejaVuSans-30"/>
     <use xlink:href="#DejaVuSans-30" transform="translate(63.623047 0)"/>
     <use xlink:href="#DejaVuSans-30" transform="translate(127.246094 0)"/>
    </g>
   </g>
   <g id="text_8">
    <!-- 001 -->
    <g transform="translate(140.11875 182.494685) scale(0.3 -0.3)">
     <use xlink:href="#DejaVuSans-30"/>
     <use xlink:href="#DejaVuSans-30" transform="translate(63.623047 0)"/>
     <use xlink:href="#DejaVuSans-31" transform="translate(127.246094 0)"/>
    </g>
   </g>
   <g id="text_9">
    <!-- 010 -->
    <g transform="translate(245.41875 182.494685) scale(0.3 -0.3)">
     <use xlink:href="#DejaVuSans-30"/>
     <use xlink:href="#DejaVuSans-31" transform="translate(63.623047 0)"/>
     <use xlink:href="#DejaVuSans-30" transform="translate(127.246094 0)"/>
    </g>
   </g>
   <g id="text_10">
    <!-- 011 -->
    <g transform="translate(350.71875 182.494685) scale(0.3 -0.3)">
     <use xlink:href="#DejaVuSans-30"/>
     <use xlink:href="#DejaVuSans-31" transform="translate(63.623047 0)"/>
     <use xlink:href="#DejaVuSans-31" transform="translate(127.246094 0)"/>
    </g>
   </g>
   <g id="text_11">
    <!-- 100 -->
    <g transform="translate(456.01875 182.494685) scale(0.3 -0.3)">
     <use xlink:href="#DejaVuSans-31"/>
     <use xlink:href="#DejaVuSans-30" transform="translate(63.623047 0)"/>
     <use xlink:href="#DejaVuSans-30" transform="translate(127.246094 0)"/>
    </g>
   </g>
   <g id="text_12">
    <!-- 101 -->
    <g transform="translate(561.31875 182.494685) scale(0.3 -0.3)">
     <use xlink:href="#DejaVuSans-31"/>
     <use xlink:href="#DejaVuSans-30" transform="translate(63.623047 0)"/>
     <use xlink:href="#DejaVuSans-31" transform="translate(127.246094 0)"/>
    </g>
   </g>
   <g id="text_13">
    <!-- 110 -->
    <g transform="translate(666.61875 182.494685) scale(0.3 -0.3)">
     <use xlink:href="#DejaVuSans-31"/>
     <use xlink:href="#DejaVuSans-31" transform="translate(63.623047 0)"/>
     <use xlink:href="#DejaVuSans-30" transform="translate(127.246094 0)"/>
    </g>
   </g>
   <g id="text_14">
    <!-- 111 -->
    <g transform="translate(771.91875 182.494685) scale(0.3 -0.3)">
     <use xlink:href="#DejaVuSans-31"/>
     <use xlink:href="#DejaVuSans-31" transform="translate(63.623047 0)"/>
     <use xlink:href="#DejaVuSans-31" transform="translate(127.246094 0)"/>
    </g>
   </g>
   <g id="text_15">
    <!-- A -->
    <g style="fill: #00008b" transform="translate(36.678023 256.884721) scale(0.3 -0.3)">
     <defs>
      <path id="DejaVuSans-41" d="M 2188 4044 
L 1331 1722 
L 3047 1722 
L 2188 4044 
z
M 1831 4666 
L 2547 4666 
L 4325 0 
L 3669 0 
L 3244 1197 
L 1141 1197 
L 716 0 
L 50 0 
L 1831 4666 
z
" transform="scale(0.015625)"/>
     </defs>
     <use xlink:href="#DejaVuSans-41"/>
    </g>
   </g>
   <g id="text_16">
    <!-- E -->
    <g style="fill: #00008b" transform="translate(191.999115 256.884721) scale(0.3 -0.3)">
     <defs>
      <path id="DejaVuSans-45" d="M 628 4666 
L 3578 4666 
L 3578 4134 
L 1259 4134 
L 1259 2753 
L 3481 2753 
L 3481 2222 
L 1259 2222 
L 1259 531 
L 3634 531 
L 3634 0 
L 628 0 
L 628 4666 
z
" transform="scale(0.015625)"/>
     </defs>
     <use xlink:href="#DejaVuSans-45"/>
    </g>
   </g>
   <g id="text_17">
    <!-- H -->
    <g style="fill: #00008b" transform="translate(292.927451 256.884721) scale(0.3 -0.3)">
     <defs>
      <path id="DejaVuSans-48" d="M 628 4666 
L 1259 4666 
L 1259 2753 
L 3553 2753 
L 3553 4666 
L 4184 4666 
L 4184 0 
L 3553 0 
L 3553 2222 
L 1259 2222 
L 1259 0 
L 628 0 
L 628 4666 
z
" transform="scale(0.015625)"/>
     </defs>
     <use xlink:href="#DejaVuSans-48"/>
    </g>
   </g>
   <g id="text_18">
    <!-- I -->
    <g style="fill: #00008b" transform="translate(349.56876 256.884721) scale(0.3 -0.3)">
     <defs>
      <path id="DejaVuSans-49" d="M 628 4666 
L 1259 4666 
L 1259 0 
L 628 0 
L 628 4666 
z
" transform="scale(0.015625)"/>
     </defs>
     <use xlink:href="#DejaVuSans-49"/>
    </g>
   </g>
   <g id="text_19">
    <!-- L -->
    <g style="fill: #00008b" transform="translate(403.298228 256.884721) scale(0.3 -0.3)">
     <defs>
      <path id="DejaVuSans-4c" d="M 628 4666 
L 1259 4666 
L 1259 531 
L 3531 531 
L 3531 0 
L 628 0 
L 628 4666 
z
" transform="scale(0.015625)"/>
     </defs>
     <use xlink:href="#DejaVuSans-4c"/>
    </g>
   </g>
   <g id="text_20">
    <!-- N -->
    <g style="fill: #00008b" transform="translate(474.733845 256.884721) scale(0.3 -0.3)">
     <defs>
      <path id="DejaVuSans-4e" d="M 628 4666 
L 1478 4666 
L 3547 763 
L 3547 4666 
L 4159 4666 
L 4159 0 
L 3309 0 
L 1241 3903 
L 1241 0 
L 628 0 
L 628 4666 
z
" transform="scale(0.015625)"/>
     </defs>
     <use xlink:href="#DejaVuSans-4e"/>
    </g>
   </g>
   <g id="text_21">
    <!-- O -->
    <g style="fill: #00008b" transform="translate(536.611868 256.884721) scale(0.3 -0.3)">
     <defs>
      <path id="DejaVuSans-4f" d="M 2522 4238 
Q 1834 4238 1429 3725 
Q 1025 3213 1025 2328 
Q 1025 1447 1429 934 
Q 1834 422 2522 422 
Q 3209 422 3611 934 
Q 4013 1447 4013 2328 
Q 4013 3213 3611 3725 
Q 3209 4238 2522 4238 
z
M 2522 4750 
Q 3503 4750 4090 4092 
Q 4678 3434 4678 2328 
Q 4678 1225 4090 567 
Q 3503 -91 2522 -91 
Q 1538 -91 948 565 
Q 359 1222 359 2328 
Q 359 3434 948 4092 
Q 1538 4750 2522 4750 
z
" transform="scale(0.015625)"/>
     </defs>
     <use xlink:href="#DejaVuSans-4f"/>
    </g>
   </g>
   <g id="text_22">
    <!-- R -->
    <g style="fill: #00008b" transform="translate(622.152784 256.884721) scale(0.3 -0.3)">
     <defs>
      <path id="DejaVuSans-52" d="M 2841 2188 
Q 3044 2119 3236 1894 
Q 3428 1669 3622 1275 
L 4263 0 
L 3584 0 
L 2988 1197 
Q 2756 1666 2539 1819 
Q 2322 1972 1947 1972 
L 1259 1972 
L 1259 0 
L 628 0 
L 628 4666 
L 2053 4666 
Q 2853 4666 3247 4331 
Q 3641 3997 3641 3322 
Q 3641 2881 3436 2590 
Q 3231 2300 2841 2188 
z
M 1259 4147 
L 1259 2491 
L 2053 2491 
Q 2509 2491 2742 2702 
Q 2975 2913 2975 3322 
Q 2975 3731 2742 3939 
Q 2509 4147 2053 4147 
L 1259 4147 
z
" transform="scale(0.015625)"/>
     </defs>
     <use xlink:href="#DejaVuSans-52"/>
    </g>
   </g>
   <g id="text_23">
    <!-- S -->
    <g style="fill: #00008b" transform="translate(678.061504 256.884721) scale(0.3 -0.3)">
     <defs>
      <path id="DejaVuSans-53" d="M 3425 4513 
L 3425 3897 
Q 3066 4069 2747 4153 
Q 2428 4238 2131 4238 
Q 1616 4238 1336 4038 
Q 1056 3838 1056 3469 
Q 1056 3159 1242 3001 
Q 1428 2844 1947 2747 
L 2328 2669 
Q 3034 2534 3370 2195 
Q 3706 1856 3706 1288 
Q 3706 609 3251 259 
Q 2797 -91 1919 -91 
Q 1588 -91 1214 -16 
Q 841 59 441 206 
L 441 856 
Q 825 641 1194 531 
Q 1563 422 1919 422 
Q 2459 422 2753 634 
Q 3047 847 3047 1241 
Q 3047 1584 2836 1778 
Q 2625 1972 2144 2069 
L 1759 2144 
Q 1053 2284 737 2584 
Q 422 2884 422 3419 
Q 422 4038 858 4394 
Q 1294 4750 2059 4750 
Q 2388 4750 2728 4690 
Q 3069 4631 3425 4513 
z
" transform="scale(0.015625)"/>
     </defs>
     <use xlink:href="#DejaVuSans-53"/>
    </g>
   </g>
   <g id="text_24">
    <!-- T -->
    <g style="fill: #00008b" transform="translate(742.739681 256.884721) scale(0.3 -0.3)">
     <defs>
      <path id="DejaVuSans-54" d="M -19 4666 
L 3928 4666 
L 3928 4134 
L 2272 4134 
L 2272 0 
L 1638 0 
L 1638 4134 
L -19 4134 
L -19 4666 
z
" transform="scale(0.015625)"/>
     </defs>
     <use xlink:href="#DejaVuSans-54"/>
    </g>
   </g>
  </g>
 </g>
 <defs>
  <clipPath id="p1e17062fad">
   <rect x="10.8" y="10.8" width="842.4" height="258.178378"/>
  </clipPath>
 </defs>
</svg>
