<?xml version="1.0" encoding="utf-8" standalone="no"?>
<!DOCTYPE svg PUBLIC "-//W3C//DTD SVG 1.1//EN"
  "http://www.w3.org/Graphics/SVG/1.1/DTD/svg11.dtd">
<svg xmlns:xlink="http://www.w3.org/1999/xlink" width="864pt" height="280.8pt" viewBox="0 0 864 280.8" xmlns="http://www.w3.org/2000/svg" version="1.1">
 <metadata>
  <rdf:RDF xmlns:dc="http://purl.org/dc/elements/1.1/" xmlns:cc="http://creativecommons.org/ns#" xmlns:rdf="http://www.w3.org/1999/02/22-rdf-syntax-ns#">
   <cc:Work>
    <dc:type rdf:resource="http://purl.org/dc/dcmitype/StillImage"/>
    <dc:date>2025-10-13T11:33:56.579970</dc:date>
    <dc:format>image/svg+xml</dc:format>
    <dc:creator>
     <cc:Agent>
      <dc:title>Matplotlib v3.10.0, https://matplotlib.org/</dc:title>
     </cc:Agent>
    </dc:creator>
   </cc:Work>
  </rdf:RDF>
 </metadata>
 <defs>
  <style type="text/css">*{stroke-linejoin: round; stroke-linecap: butt}</style>
 </defs>
 <g id="figure_1">
  <g id="patch_1">
   <path d="M 0 280.8 
L 864 280.8 
L 864 0 
L 0 0 
z
" style="fill: #ffffff"/>
  </g>
  <g id="axes_1">
   <g id="patch_2">
    <path d="M 10.8 268.978378 
L 853.2 268.978378 
L 853.2 10.8 
L 10.8 10.8 
z
" style="fill: #ffffff"/>
   </g>
   <g id="matplotlib.axis_1"/>
   <g id="matplotlib.axis_2"/>
   <g id="LineCollection_1">
    <path d="M 10.8 63.133455 
L 853.2 63.133455 
" clip-path="url(#p4e30223f15)" style="fill: none; stroke: #000000; stroke-width: 3"/>
   </g>
   <g id="LineCollection_2">
    <path d="M 10.8 132.911395 
L 853.2 132.911395 
" clip-path="url(#p4e30223f15)" style="fill: none; stroke: #000000; stroke-width: 3"/>
   </g>
   <g id="LineCollection_3">
    <path d="M 10.8 202.689335 
L 853.2 202.689335 
" clip-path="url(#p4e30223f15)" style="fill: none; stroke: #000000; stroke-width: 3"/>
   </g>
   <g id="LineCollection_4">
    <path d="M 10.8 220.13382 
L 853.2 220.13382 
" clip-path="url(#p4e30223f15)" style="fill: none; stroke: #00008b; stroke-width: 3"/>
   </g>
   <g id="LineCollection_5">
    <path d="M 10.8 75.344595 
L 10.8 50.922316 
" style="fill: none; stroke: #000000; stroke-width: 2"/>
    <path d="M 432 75.344595 
L 432 50.922316 
" style="fill: none; stroke: #000000; stroke-width: 2"/>
    <path d="M 853.2 75.344595 
L 853.2 50.922316 
" style="fill: none; stroke: #000000; stroke-width: 2"/>
   </g>
   <g id="LineCollection_6">
    <path d="M 10.8 145.122535 
L 10.8 120.700256 
" style="fill: none; stroke: #000000; stroke-width: 2"/>
    <path d="M 221.4 145.122535 
L 221.4 120.700256 
" style="fill: none; stroke: #000000; stroke-width: 2"/>
    <path d="M 432 145.122535 
L 432 120.700256 
" style="fill: none; stroke: #000000; stroke-width: 2"/>
    <path d="M 642.6 145.122535 
L 642.6 120.700256 
" style="fill: none; stroke: #000000; stroke-width: 2"/>
    <path d="M 853.2 145.122535 
L 853.2 120.700256 
" style="fill: none; stroke: #000000; stroke-width: 2"/>
   </g>
   <g id="LineCollection_7">
    <path d="M 10.8 202.689335 
L 10.8 190.478196 
" style="fill: none; stroke: #000000; stroke-width: 2"/>
    <path d="M 116.1 202.689335 
L 116.1 190.478196 
" style="fill: none; stroke: #000000; stroke-width: 2"/>
    <path d="M 221.4 202.689335 
L 221.4 190.478196 
" style="fill: none; stroke: #000000; stroke-width: 2"/>
    <path d="M 326.7 202.689335 
L 326.7 190.478196 
" style="fill: none; stroke: #000000; stroke-width: 2"/>
    <path d="M 432 202.689335 
L 432 190.478196 
" style="fill: none; stroke: #000000; stroke-width: 2"/>
    <path d="M 537.3 202.689335 
L 537.3 190.478196 
" style="fill: none; stroke: #000000; stroke-width: 2"/>
    <path d="M 642.6 202.689335 
L 642.6 190.478196 
" style="fill: none; stroke: #000000; stroke-width: 2"/>
    <path d="M 747.9 202.689335 
L 747.9 190.478196 
" style="fill: none; stroke: #000000; stroke-width: 2"/>
    <path d="M 853.2 202.689335 
L 853.2 190.478196 
" style="fill: none; stroke: #000000; stroke-width: 2"/>
   </g>
   <g id="LineCollection_8">
    <path d="M 10.8 232.34496 
L 10.8 220.13382 
" style="fill: none; stroke: #00008b; stroke-width: 2"/>
    <path d="M 116.1 232.34496 
L 116.1 220.13382 
" style="fill: none; stroke: #00008b; stroke-width: 2"/>
    <path d="M 221.4 232.34496 
L 221.4 220.13382 
" style="fill: none; stroke: #00008b; stroke-width: 2"/>
    <path d="M 326.7 232.34496 
L 326.7 220.13382 
" style="fill: none; stroke: #00008b; stroke-width: 2"/>
    <path d="M 432 232.34496 
L 432 220.13382 
" style="fill: none; stroke: #00008b; stroke-width: 2"/>
    <path d="M 537.3 232.34496 
L 537.3 220.13382 
" style="fill: none; stroke: #00008b; stroke-width: 2"/>
    <path d="M 642.6 232.34496 
L 642.6 220.13382 
" style="fill: none; stroke: #00008b; stroke-width: 2"/>
    <path d="M 747.9 232.34496 
L 747.9 220.13382 
" style="fill: none; stroke: #00008b; stroke-width: 2"/>
    <path d="M 853.2 232.34496 
L 853.2 220.13382 
" style="fill: none; stroke: #00008b; stroke-width: 2"/>
   </g>
   <g id="text_1">
    <!-- 0 -->
    <g transform="translate(211.85625 42.938805) scale(0.3 -0.3)">
     <defs>
      <path id="DejaVuSans-30" d="M 2034 4250 
Q 1547 4250 1301 3770 
Q 1056 3291 1056 2328 
Q 1056 1369 1301 889 
Q 1547 409 2034 409 
Q 2525 409 2770 889 
Q 3016 1369 3016 2328 
Q 3016 3291 2770 3770 
Q 2525 4250 2034 4250 
z
M 2034 4750 
Q 2819 4750 3233 4129 
Q 3647 3509 3647 2328 
Q 3647 1150 3233 529 
Q 2819 -91 2034 -91 
Q 1250 -91 836 529 
Q 422 1150 422 2328 
Q 422 3509 836 4129 
Q 1250 4750 2034 4750 
z
" transform="scale(0.015625)"/>
     </defs>
     <use xlink:href="#DejaVuSans-30"/>
    </g>
   </g>
   <g id="text_2">
    <!-- 1 -->
    <g transform="translate(633.05625 42.938805) scale(0.3 -0.3)">
     <defs>
      <path id="DejaVuSans-31" d="M 794 531 
L 1825 531 
L 1825 4091 
L 703 3866 
L 703 4441 
L 1819 4666 
L 2450 4666 
L 2450 531 
L 3481 531 
L 3481 0 
L 794 0 
L 794 531 
z
" transform="scale(0.015625)"/>
     </defs>
     <use xlink:href="#DejaVuSans-31"/>
    </g>
   </g>
   <g id="text_3">
    <!-- 00 -->
    <g transform="translate(97.0125 112.716745) scale(0.3 -0.3)">
     <use xlink:href="#DejaVuSans-30"/>
     <use xlink:href="#DejaVuSans-30" transform="translate(63.623047 0)"/>
    </g>
   </g>
   <g id="text_4">
    <!-- 01 -->
    <g transform="translate(307.6125 112.716745) scale(0.3 -0.3)">
     <use xlink:href="#DejaVuSans-30"/>
     <use xlink:href="#DejaVuSans-31" transform="translate(63.623047 0)"/>
    </g>
   </g>
   <g id="text_5">
    <!-- 10 -->
    <g transform="translate(518.2125 112.716745) scale(0.3 -0.3)">
     <use xlink:href="#DejaVuSans-31"/>
     <use xlink:href="#DejaVuSans-30" transform="translate(63.623047 0)"/>
    </g>
   </g>
   <g id="text_6">
    <!-- 11 -->
    <g transform="translate(728.8125 112.716745) scale(0.3 -0.3)">
     <use xlink:href="#DejaVuSans-31"/>
     <use xlink:href="#DejaVuSans-31" transform="translate(63.623047 0)"/>
    </g>
   </g>
   <g id="text_7">
    <!-- 000 -->
    <g transform="translate(34.81875 182.494685) scale(0.3 -0.3)">
     <use xlink:href="#DejaVuSans-30"/>
     <use xlink:href="#DejaVuSans-30" transform="translate(63.623047 0)"/>
     <use xlink:href="#DejaVuSans-30" transform="translate(127.246094 0)"/>
    </g>
   </g>
   <g id="text_8">
    <!-- 001 -->
    <g transform="translate(140.11875 182.494685) scale(0.3 -0.3)">
     <use xlink:href="#DejaVuSans-30"/>
     <use xlink:href="#DejaVuSans-30" transform="translate(63.623047 0)"/>
     <use xlink:href="#DejaVuSans-31" transform="translate(127.246094 0)"/>
    </g>
   </g>
   <g id="text_9">
    <!-- 010 -->
    <g transform="translate(245.41875 182.494685) scale(0.3 -0.3)">
     <use xlink:href="#DejaVuSans-30"/>
     <use xlink:href="#DejaVuSans-31" transform="translate(63.623047 0)"/>
     <use xlink:href="#DejaVuSans-30" transform="translate(127.246094 0)"/>
    </g>
   </g>
   <g id="text_10">
    <!-- 011 -->
    <g transform="translate(350.71875 182.494685) scale(0.3 -0.3)">
     <use xlink:href="#DejaVuSans-30"/>
     <use xlink:href="#DejaVuSans-31" transform="translate(63.623047 0)"/>
     <use xlink:href="#DejaVuSans-31" transform="translate(127.246094 0)"/>
    </g>
   </g>
   <g id="text_11">
    <!-- 100 -->
    <g transform="translate(456.01875 182.494685) scale(0.3 -0.3)">
     <use xlink:href="#DejaVuSans-31"/>
     <use xlink:href="#DejaVuSans-30" transform="translate(63.623047 0)"/>
     <use xlink:href="#DejaVuSans-30" transform="translate(127.246094 0)"/>
    </g>
   </g>
   <g id="text_12">
    <!-- 101 -->
    <g transform="translate(561.31875 182.494685) scale(0.3 -0.3)">
     <use xlink:href="#DejaVuSans-31"/>
     <use xlink:href="#DejaVuSans-30" transform="translate(63.623047 0)"/>
     <use xlink:href="#DejaVuSans-31" transform="translate(127.246094 0)"/>
    </g>
   </g>
   <g id="text_13">
    <!-- 110 -->
    <g transform="translate(666.61875 182.494685) scale(0.3 -0.3)">
     <use xlink:href="#DejaVuSans-31"/>
     <use xlink:href="#DejaVuSans-31" transform="translate(63.623047 0)"/>
     <use xlink:href="#DejaVuSans-30" transform="translate(127.246094 0)"/>
    </g>
   </g>
   <g id="text_14">
    <!-- 111 -->
    <g transform="translate(771.91875 182.494685) scale(0.3 -0.3)">
     <use xlink:href="#DejaVuSans-31"/>
     <use xlink:href="#DejaVuSans-31" transform="translate(63.623047 0)"/>
     <use xlink:href="#DejaVuSans-31" transform="translate(127.246094 0)"/>
    </g>
   </g>
   <g id="text_15">
    <!-- A -->
    <g style="fill: #00008b" transform="translate(53.189063 256.884721) scale(0.3 -0.3)">
     <defs>
      <path id="DejaVuSans-41" d="M 2188 4044 
L 1331 1722 
L 3047 1722 
L 2188 4044 
z
M 1831 4666 
L 2547 4666 
L 4325 0 
L 3669 0 
L 3244 1197 
L 1141 1197 
L 716 0 
L 50 0 
L 1831 4666 
z
" transform="scale(0.015625)"/>
     </defs>
     <use xlink:href="#DejaVuSans-41"/>
    </g>
   </g>
   <g id="text_16">
    <!-- B -->
    <g style="fill: #00008b" transform="translate(158.458594 256.884721) scale(0.3 -0.3)">
     <defs>
      <path id="DejaVuSans-42" d="M 1259 2228 
L 1259 519 
L 2272 519 
Q 2781 519 3026 730 
Q 3272 941 3272 1375 
Q 3272 1813 3026 2020 
Q 2781 2228 2272 2228 
L 1259 2228 
z
M 1259 4147 
L 1259 2741 
L 2194 2741 
Q 2656 2741 2882 2914 
Q 3109 3088 3109 3444 
Q 3109 3797 2882 3972 
Q 2656 4147 2194 4147 
L 1259 4147 
z
M 628 4666 
L 2241 4666 
Q 2963 4666 3353 4366 
Q 3744 4066 3744 3513 
Q 3744 3084 3544 2831 
Q 3344 2578 2956 2516 
Q 3422 2416 3680 2098 
Q 3938 1781 3938 1306 
Q 3938 681 3513 340 
Q 3088 0 2303 0 
L 628 0 
L 628 4666 
z
" transform="scale(0.015625)"/>
     </defs>
     <use xlink:href="#DejaVuSans-42"/>
    </g>
   </g>
   <g id="text_17">
    <!-- C -->
    <g style="fill: #00008b" transform="translate(263.575781 256.884721) scale(0.3 -0.3)">
     <defs>
      <path id="DejaVuSans-43" d="M 4122 4306 
L 4122 3641 
Q 3803 3938 3442 4084 
Q 3081 4231 2675 4231 
Q 1875 4231 1450 3742 
Q 1025 3253 1025 2328 
Q 1025 1406 1450 917 
Q 1875 428 2675 428 
Q 3081 428 3442 575 
Q 3803 722 4122 1019 
L 4122 359 
Q 3791 134 3420 21 
Q 3050 -91 2638 -91 
Q 1578 -91 968 557 
Q 359 1206 359 2328 
Q 359 3453 968 4101 
Q 1578 4750 2638 4750 
Q 3056 4750 3426 4639 
Q 3797 4528 4122 4306 
z
" transform="scale(0.015625)"/>
     </defs>
     <use xlink:href="#DejaVuSans-43"/>
    </g>
   </g>
   <g id="text_18">
    <!-- D -->
    <g style="fill: #00008b" transform="translate(367.8 256.884721) scale(0.3 -0.3)">
     <defs>
      <path id="DejaVuSans-44" d="M 1259 4147 
L 1259 519 
L 2022 519 
Q 2988 519 3436 956 
Q 3884 1394 3884 2338 
Q 3884 3275 3436 3711 
Q 2988 4147 2022 4147 
L 1259 4147 
z
M 628 4666 
L 1925 4666 
Q 3281 4666 3915 4102 
Q 4550 3538 4550 2338 
Q 4550 1131 3912 565 
Q 3275 0 1925 0 
L 628 0 
L 628 4666 
z
" transform="scale(0.015625)"/>
     </defs>
     <use xlink:href="#DejaVuSans-44"/>
    </g>
   </g>
   <g id="text_19">
    <!-- E -->
    <g style="fill: #00008b" transform="translate(475.171875 256.884721) scale(0.3 -0.3)">
     <defs>
      <path id="DejaVuSans-45" d="M 628 4666 
L 3578 4666 
L 3578 4134 
L 1259 4134 
L 1259 2753 
L 3481 2753 
L 3481 2222 
L 1259 2222 
L 1259 531 
L 3634 531 
L 3634 0 
L 628 0 
L 628 4666 
z
" transform="scale(0.015625)"/>
     </defs>
     <use xlink:href="#DejaVuSans-45"/>
    </g>
   </g>
   <g id="text_20">
    <!-- F -->
    <g style="fill: #00008b" transform="translate(581.322656 256.884721) scale(0.3 -0.3)">
     <defs>
      <path id="DejaVuSans-46" d="M 628 4666 
L 3309 4666 
L 3309 4134 
L 1259 4134 
L 1259 2759 
L 3109 2759 
L 3109 2228 
L 1259 2228 
L 1259 0 
L 628 0 
L 628 4666 
z
" transform="scale(0.015625)"/>
     </defs>
     <use xlink:href="#DejaVuSans-46"/>
    </g>
   </g>
   <g id="text_21">
    <!-- G -->
    <g style="fill: #00008b" transform="translate(683.627344 256.884721) scale(0.3 -0.3)">
     <defs>
      <path id="DejaVuSans-47" d="M 3809 666 
L 3809 1919 
L 2778 1919 
L 2778 2438 
L 4434 2438 
L 4434 434 
Q 4069 175 3628 42 
Q 3188 -91 2688 -91 
Q 1594 -91 976 548 
Q 359 1188 359 2328 
Q 359 3472 976 4111 
Q 1594 4750 2688 4750 
Q 3144 4750 3555 4637 
Q 3966 4525 4313 4306 
L 4313 3634 
Q 3963 3931 3569 4081 
Q 3175 4231 2741 4231 
Q 1884 4231 1454 3753 
Q 1025 3275 1025 2328 
Q 1025 1384 1454 906 
Q 1884 428 2741 428 
Q 3075 428 3337 486 
Q 3600 544 3809 666 
z
" transform="scale(0.015625)"/>
     </defs>
     <use xlink:href="#DejaVuSans-47"/>
    </g>
   </g>
   <g id="text_22">
    <!-- H -->
    <g style="fill: #00008b" transform="translate(789.269531 256.884721) scale(0.3 -0.3)">
     <defs>
      <path id="DejaVuSans-48" d="M 628 4666 
L 1259 4666 
L 1259 2753 
L 3553 2753 
L 3553 4666 
L 4184 4666 
L 4184 0 
L 3553 0 
L 3553 2222 
L 1259 2222 
L 1259 0 
L 628 0 
L 628 4666 
z
" transform="scale(0.015625)"/>
     </defs>
     <use xlink:href="#DejaVuSans-48"/>
    </g>
   </g>
  </g>
 </g>
 <defs>
  <clipPath id="p4e30223f15">
   <rect x="10.8" y="10.8" width="842.4" height="258.178378"/>
  </clipPath>
 </defs>
</svg>
