<?xml version="1.0" encoding="utf-8" standalone="no"?>
<!DOCTYPE svg PUBLIC "-//W3C//DTD SVG 1.1//EN"
  "http://www.w3.org/Graphics/SVG/1.1/DTD/svg11.dtd">
<svg xmlns:xlink="http://www.w3.org/1999/xlink" width="864pt" height="367.2pt" viewBox="0 0 864 367.2" xmlns="http://www.w3.org/2000/svg" version="1.1">
 <metadata>
  <rdf:RDF xmlns:dc="http://purl.org/dc/elements/1.1/" xmlns:cc="http://creativecommons.org/ns#" xmlns:rdf="http://www.w3.org/1999/02/22-rdf-syntax-ns#">
   <cc:Work>
    <dc:type rdf:resource="http://purl.org/dc/dcmitype/StillImage"/>
    <dc:date>2025-10-13T11:33:14.291495</dc:date>
    <dc:format>image/svg+xml</dc:format>
    <dc:creator>
     <cc:Agent>
      <dc:title>Matplotlib v3.10.0, https://matplotlib.org/</dc:title>
     </cc:Agent>
    </dc:creator>
   </cc:Work>
  </rdf:RDF>
 </metadata>
 <defs>
  <style type="text/css">*{stroke-linejoin: round; stroke-linecap: butt}</style>
 </defs>
 <g id="figure_1">
  <g id="patch_1">
   <path d="M 0 367.2 
L 864 367.2 
L 864 0 
L 0 0 
z
" style="fill: #ffffff"/>
  </g>
  <g id="axes_1">
   <g id="patch_2">
    <path d="M 10.8 350.962105 
L 853.2 350.962105 
L 853.2 13.757684 
L 10.8 13.757684 
z
" style="fill: #ffffff"/>
   </g>
   <g id="matplotlib.axis_1"/>
   <g id="matplotlib.axis_2"/>
   <g id="LineCollection_1">
    <path d="M 10.8 58.126687 
L 853.2 58.126687 
" clip-path="url(#pb2868fbe59)" style="fill: none; stroke: #000000; stroke-width: 3"/>
   </g>
   <g id="LineCollection_2">
    <path d="M 10.8 117.285357 
L 853.2 117.285357 
" clip-path="url(#pb2868fbe59)" style="fill: none; stroke: #000000; stroke-width: 3"/>
   </g>
   <g id="LineCollection_3">
    <path d="M 10.8 176.444028 
L 853.2 176.444028 
" clip-path="url(#pb2868fbe59)" style="fill: none; stroke: #000000; stroke-width: 3"/>
   </g>
   <g id="LineCollection_4">
    <path d="M 10.8 235.602698 
L 853.2 235.602698 
" clip-path="url(#pb2868fbe59)" style="fill: none; stroke: #000000; stroke-width: 3"/>
   </g>
   <g id="LineCollection_5">
    <path d="M 10.8 294.761368 
L 853.2 294.761368 
" clip-path="url(#pb2868fbe59)" style="fill: none; stroke: #000000; stroke-width: 3"/>
   </g>
   <g id="LineCollection_6">
    <path d="M 10.8 309.551036 
L 853.2 309.551036 
" clip-path="url(#pb2868fbe59)" style="fill: none; stroke: #00008b; stroke-width: 3"/>
   </g>
   <g id="LineCollection_7">
    <path d="M 10.8 68.479454 
L 10.8 47.77392 
" style="fill: none; stroke: #000000; stroke-width: 2"/>
    <path d="M 853.2 68.479454 
L 853.2 47.77392 
" style="fill: none; stroke: #000000; stroke-width: 2"/>
   </g>
   <g id="LineCollection_8">
    <path d="M 10.8 127.638125 
L 10.8 106.93259 
" style="fill: none; stroke: #000000; stroke-width: 2"/>
    <path d="M 432 127.638125 
L 432 106.93259 
" style="fill: none; stroke: #000000; stroke-width: 2"/>
    <path d="M 853.2 127.638125 
L 853.2 106.93259 
" style="fill: none; stroke: #000000; stroke-width: 2"/>
   </g>
   <g id="LineCollection_9">
    <path d="M 10.8 186.796795 
L 10.8 166.09126 
" style="fill: none; stroke: #000000; stroke-width: 2"/>
    <path d="M 221.4 186.796795 
L 221.4 166.09126 
" style="fill: none; stroke: #000000; stroke-width: 2"/>
    <path d="M 432 186.796795 
L 432 166.09126 
" style="fill: none; stroke: #000000; stroke-width: 2"/>
    <path d="M 642.6 186.796795 
L 642.6 166.09126 
" style="fill: none; stroke: #000000; stroke-width: 2"/>
    <path d="M 853.2 186.796795 
L 853.2 166.09126 
" style="fill: none; stroke: #000000; stroke-width: 2"/>
   </g>
   <g id="LineCollection_10">
    <path d="M 10.8 245.955465 
L 10.8 225.249931 
" style="fill: none; stroke: #000000; stroke-width: 2"/>
    <path d="M 116.1 245.955465 
L 116.1 225.249931 
" style="fill: none; stroke: #000000; stroke-width: 2"/>
    <path d="M 221.4 245.955465 
L 221.4 225.249931 
" style="fill: none; stroke: #000000; stroke-width: 2"/>
    <path d="M 326.7 245.955465 
L 326.7 225.249931 
" style="fill: none; stroke: #000000; stroke-width: 2"/>
    <path d="M 432 245.955465 
L 432 225.249931 
" style="fill: none; stroke: #000000; stroke-width: 2"/>
    <path d="M 537.3 245.955465 
L 537.3 225.249931 
" style="fill: none; stroke: #000000; stroke-width: 2"/>
    <path d="M 642.6 245.955465 
L 642.6 225.249931 
" style="fill: none; stroke: #000000; stroke-width: 2"/>
    <path d="M 747.9 245.955465 
L 747.9 225.249931 
" style="fill: none; stroke: #000000; stroke-width: 2"/>
    <path d="M 853.2 245.955465 
L 853.2 225.249931 
" style="fill: none; stroke: #000000; stroke-width: 2"/>
   </g>
   <g id="LineCollection_11">
    <path d="M 10.8 294.761368 
L 10.8 284.408601 
" style="fill: none; stroke: #000000; stroke-width: 2"/>
    <path d="M 63.45 294.761368 
L 63.45 284.408601 
" style="fill: none; stroke: #000000; stroke-width: 2"/>
    <path d="M 116.1 294.761368 
L 116.1 284.408601 
" style="fill: none; stroke: #000000; stroke-width: 2"/>
    <path d="M 168.75 294.761368 
L 168.75 284.408601 
" style="fill: none; stroke: #000000; stroke-width: 2"/>
    <path d="M 221.4 294.761368 
L 221.4 284.408601 
" style="fill: none; stroke: #000000; stroke-width: 2"/>
    <path d="M 274.05 294.761368 
L 274.05 284.408601 
" style="fill: none; stroke: #000000; stroke-width: 2"/>
    <path d="M 326.7 294.761368 
L 326.7 284.408601 
" style="fill: none; stroke: #000000; stroke-width: 2"/>
    <path d="M 379.35 294.761368 
L 379.35 284.408601 
" style="fill: none; stroke: #000000; stroke-width: 2"/>
    <path d="M 432 294.761368 
L 432 284.408601 
" style="fill: none; stroke: #000000; stroke-width: 2"/>
    <path d="M 484.65 294.761368 
L 484.65 284.408601 
" style="fill: none; stroke: #000000; stroke-width: 2"/>
    <path d="M 537.3 294.761368 
L 537.3 284.408601 
" style="fill: none; stroke: #000000; stroke-width: 2"/>
    <path d="M 589.95 294.761368 
L 589.95 284.408601 
" style="fill: none; stroke: #000000; stroke-width: 2"/>
    <path d="M 642.6 294.761368 
L 642.6 284.408601 
" style="fill: none; stroke: #000000; stroke-width: 2"/>
    <path d="M 695.25 294.761368 
L 695.25 284.408601 
" style="fill: none; stroke: #000000; stroke-width: 2"/>
    <path d="M 747.9 294.761368 
L 747.9 284.408601 
" style="fill: none; stroke: #000000; stroke-width: 2"/>
    <path d="M 800.55 294.761368 
L 800.55 284.408601 
" style="fill: none; stroke: #000000; stroke-width: 2"/>
    <path d="M 853.2 294.761368 
L 853.2 284.408601 
" style="fill: none; stroke: #000000; stroke-width: 2"/>
   </g>
   <g id="LineCollection_12">
    <path d="M 10.8 319.903803 
L 10.8 309.551036 
" style="fill: none; stroke: #00008b; stroke-width: 2"/>
    <path d="M 63.45 319.903803 
L 63.45 309.551036 
" style="fill: none; stroke: #00008b; stroke-width: 2"/>
    <path d="M 116.1 319.903803 
L 116.1 309.551036 
" style="fill: none; stroke: #00008b; stroke-width: 2"/>
    <path d="M 168.75 319.903803 
L 168.75 309.551036 
" style="fill: none; stroke: #00008b; stroke-width: 2"/>
    <path d="M 221.4 319.903803 
L 221.4 309.551036 
" style="fill: none; stroke: #00008b; stroke-width: 2"/>
    <path d="M 274.05 319.903803 
L 274.05 309.551036 
" style="fill: none; stroke: #00008b; stroke-width: 2"/>
    <path d="M 326.7 319.903803 
L 326.7 309.551036 
" style="fill: none; stroke: #00008b; stroke-width: 2"/>
    <path d="M 379.35 319.903803 
L 379.35 309.551036 
" style="fill: none; stroke: #00008b; stroke-width: 2"/>
    <path d="M 432 319.903803 
L 432 309.551036 
" style="fill: none; stroke: #00008b; stroke-width: 2"/>
    <path d="M 484.65 319.903803 
L 484.65 309.551036 
" style="fill: none; stroke: #00008b; stroke-width: 2"/>
    <path d="M 537.3 319.903803 
L 537.3 309.551036 
" style="fill: none; stroke: #00008b; stroke-width: 2"/>
    <path d="M 589.95 319.903803 
L 589.95 309.551036 
" style="fill: none; stroke: #00008b; stroke-width: 2"/>
    <path d="M 642.6 319.903803 
L 642.6 309.551036 
" style="fill: none; stroke: #00008b; stroke-width: 2"/>
    <path d="M 695.25 319.903803 
L 695.25 309.551036 
" style="fill: none; stroke: #00008b; stroke-width: 2"/>
    <path d="M 747.9 319.903803 
L 747.9 309.551036 
" style="fill: none; stroke: #00008b; stroke-width: 2"/>
    <path d="M 800.55 319.903803 
L 800.55 309.551036 
" style="fill: none; stroke: #00008b; stroke-width: 2"/>
    <path d="M 853.2 319.903803 
L 853.2 309.551036 
" style="fill: none; stroke: #00008b; stroke-width: 2"/>
   </g>
   <g id="text_1">
    <!-- 0 -->
    <g transform="translate(422.45625 40.05589) scale(0.3 -0.3)">
     <defs>
      <path id="DejaVuSans-30" d="M 2034 4250 
Q 1547 4250 1301 3770 
Q 1056 3291 1056 2328 
Q 1056 1369 1301 889 
Q 1547 409 2034 409 
Q 2525 409 2770 889 
Q 3016 1369 3016 2328 
Q 3016 3291 2770 3770 
Q 2525 4250 2034 4250 
z
M 2034 4750 
Q 2819 4750 3233 4129 
Q 3647 3509 3647 2328 
Q 3647 1150 3233 529 
Q 2819 -91 2034 -91 
Q 1250 -91 836 529 
Q 422 1150 422 2328 
Q 422 3509 836 4129 
Q 1250 4750 2034 4750 
z
" transform="scale(0.015625)"/>
     </defs>
     <use xlink:href="#DejaVuSans-30"/>
    </g>
   </g>
   <g id="text_2">
    <!-- 00 -->
    <g transform="translate(202.3125 99.214561) scale(0.3 -0.3)">
     <use xlink:href="#DejaVuSans-30"/>
     <use xlink:href="#DejaVuSans-30" transform="translate(63.623047 0)"/>
    </g>
   </g>
   <g id="text_3">
    <!-- 01 -->
    <g transform="translate(623.5125 99.214561) scale(0.3 -0.3)">
     <defs>
      <path id="DejaVuSans-31" d="M 794 531 
L 1825 531 
L 1825 4091 
L 703 3866 
L 703 4441 
L 1819 4666 
L 2450 4666 
L 2450 531 
L 3481 531 
L 3481 0 
L 794 0 
L 794 531 
z
" transform="scale(0.015625)"/>
     </defs>
     <use xlink:href="#DejaVuSans-30"/>
     <use xlink:href="#DejaVuSans-31" transform="translate(63.623047 0)"/>
    </g>
   </g>
   <g id="text_4">
    <!-- 000 -->
    <g transform="translate(87.46875 158.373231) scale(0.3 -0.3)">
     <use xlink:href="#DejaVuSans-30"/>
     <use xlink:href="#DejaVuSans-30" transform="translate(63.623047 0)"/>
     <use xlink:href="#DejaVuSans-30" transform="translate(127.246094 0)"/>
    </g>
   </g>
   <g id="text_5">
    <!-- 001 -->
    <g transform="translate(298.06875 158.373231) scale(0.3 -0.3)">
     <use xlink:href="#DejaVuSans-30"/>
     <use xlink:href="#DejaVuSans-30" transform="translate(63.623047 0)"/>
     <use xlink:href="#DejaVuSans-31" transform="translate(127.246094 0)"/>
    </g>
   </g>
   <g id="text_6">
    <!-- 010 -->
    <g transform="translate(508.66875 158.373231) scale(0.3 -0.3)">
     <use xlink:href="#DejaVuSans-30"/>
     <use xlink:href="#DejaVuSans-31" transform="translate(63.623047 0)"/>
     <use xlink:href="#DejaVuSans-30" transform="translate(127.246094 0)"/>
    </g>
   </g>
   <g id="text_7">
    <!-- 011 -->
    <g transform="translate(719.26875 158.373231) scale(0.3 -0.3)">
     <use xlink:href="#DejaVuSans-30"/>
     <use xlink:href="#DejaVuSans-31" transform="translate(63.623047 0)"/>
     <use xlink:href="#DejaVuSans-31" transform="translate(127.246094 0)"/>
    </g>
   </g>
   <g id="text_8">
    <!-- 0000 -->
    <g transform="translate(25.275 217.531901) scale(0.3 -0.3)">
     <use xlink:href="#DejaVuSans-30"/>
     <use xlink:href="#DejaVuSans-30" transform="translate(63.623047 0)"/>
     <use xlink:href="#DejaVuSans-30" transform="translate(127.246094 0)"/>
     <use xlink:href="#DejaVuSans-30" transform="translate(190.869141 0)"/>
    </g>
   </g>
   <g id="text_9">
    <!-- 0001 -->
    <g transform="translate(130.575 217.531901) scale(0.3 -0.3)">
     <use xlink:href="#DejaVuSans-30"/>
     <use xlink:href="#DejaVuSans-30" transform="translate(63.623047 0)"/>
     <use xlink:href="#DejaVuSans-30" transform="translate(127.246094 0)"/>
     <use xlink:href="#DejaVuSans-31" transform="translate(190.869141 0)"/>
    </g>
   </g>
   <g id="text_10">
    <!-- 0010 -->
    <g transform="translate(235.875 217.531901) scale(0.3 -0.3)">
     <use xlink:href="#DejaVuSans-30"/>
     <use xlink:href="#DejaVuSans-30" transform="translate(63.623047 0)"/>
     <use xlink:href="#DejaVuSans-31" transform="translate(127.246094 0)"/>
     <use xlink:href="#DejaVuSans-30" transform="translate(190.869141 0)"/>
    </g>
   </g>
   <g id="text_11">
    <!-- 0011 -->
    <g transform="translate(341.175 217.531901) scale(0.3 -0.3)">
     <use xlink:href="#DejaVuSans-30"/>
     <use xlink:href="#DejaVuSans-30" transform="translate(63.623047 0)"/>
     <use xlink:href="#DejaVuSans-31" transform="translate(127.246094 0)"/>
     <use xlink:href="#DejaVuSans-31" transform="translate(190.869141 0)"/>
    </g>
   </g>
   <g id="text_12">
    <!-- 0100 -->
    <g transform="translate(446.475 217.531901) scale(0.3 -0.3)">
     <use xlink:href="#DejaVuSans-30"/>
     <use xlink:href="#DejaVuSans-31" transform="translate(63.623047 0)"/>
     <use xlink:href="#DejaVuSans-30" transform="translate(127.246094 0)"/>
     <use xlink:href="#DejaVuSans-30" transform="translate(190.869141 0)"/>
    </g>
   </g>
   <g id="text_13">
    <!-- 0101 -->
    <g transform="translate(551.775 217.531901) scale(0.3 -0.3)">
     <use xlink:href="#DejaVuSans-30"/>
     <use xlink:href="#DejaVuSans-31" transform="translate(63.623047 0)"/>
     <use xlink:href="#DejaVuSans-30" transform="translate(127.246094 0)"/>
     <use xlink:href="#DejaVuSans-31" transform="translate(190.869141 0)"/>
    </g>
   </g>
   <g id="text_14">
    <!-- 0110 -->
    <g transform="translate(657.075 217.531901) scale(0.3 -0.3)">
     <use xlink:href="#DejaVuSans-30"/>
     <use xlink:href="#DejaVuSans-31" transform="translate(63.623047 0)"/>
     <use xlink:href="#DejaVuSans-31" transform="translate(127.246094 0)"/>
     <use xlink:href="#DejaVuSans-30" transform="translate(190.869141 0)"/>
    </g>
   </g>
   <g id="text_15">
    <!-- 0111 -->
    <g transform="translate(762.375 217.531901) scale(0.3 -0.3)">
     <use xlink:href="#DejaVuSans-30"/>
     <use xlink:href="#DejaVuSans-31" transform="translate(63.623047 0)"/>
     <use xlink:href="#DejaVuSans-31" transform="translate(127.246094 0)"/>
     <use xlink:href="#DejaVuSans-31" transform="translate(190.869141 0)"/>
    </g>
   </g>
   <g id="text_16">
    <!-- A -->
    <g style="fill: #00008b" transform="translate(26.864063 344.178083) scale(0.3 -0.3)">
     <defs>
      <path id="DejaVuSans-41" d="M 2188 4044 
L 1331 1722 
L 3047 1722 
L 2188 4044 
z
M 1831 4666 
L 2547 4666 
L 4325 0 
L 3669 0 
L 3244 1197 
L 1141 1197 
L 716 0 
L 50 0 
L 1831 4666 
z
" transform="scale(0.015625)"/>
     </defs>
     <use xlink:href="#DejaVuSans-41"/>
    </g>
   </g>
   <g id="text_17">
    <!-- B -->
    <g style="fill: #00008b" transform="translate(79.483594 344.178083) scale(0.3 -0.3)">
     <defs>
      <path id="DejaVuSans-42" d="M 1259 2228 
L 1259 519 
L 2272 519 
Q 2781 519 3026 730 
Q 3272 941 3272 1375 
Q 3272 1813 3026 2020 
Q 2781 2228 2272 2228 
L 1259 2228 
z
M 1259 4147 
L 1259 2741 
L 2194 2741 
Q 2656 2741 2882 2914 
Q 3109 3088 3109 3444 
Q 3109 3797 2882 3972 
Q 2656 4147 2194 4147 
L 1259 4147 
z
M 628 4666 
L 2241 4666 
Q 2963 4666 3353 4366 
Q 3744 4066 3744 3513 
Q 3744 3084 3544 2831 
Q 3344 2578 2956 2516 
Q 3422 2416 3680 2098 
Q 3938 1781 3938 1306 
Q 3938 681 3513 340 
Q 3088 0 2303 0 
L 628 0 
L 628 4666 
z
" transform="scale(0.015625)"/>
     </defs>
     <use xlink:href="#DejaVuSans-42"/>
    </g>
   </g>
   <g id="text_18">
    <!-- C -->
    <g style="fill: #00008b" transform="translate(131.950781 344.178083) scale(0.3 -0.3)">
     <defs>
      <path id="DejaVuSans-43" d="M 4122 4306 
L 4122 3641 
Q 3803 3938 3442 4084 
Q 3081 4231 2675 4231 
Q 1875 4231 1450 3742 
Q 1025 3253 1025 2328 
Q 1025 1406 1450 917 
Q 1875 428 2675 428 
Q 3081 428 3442 575 
Q 3803 722 4122 1019 
L 4122 359 
Q 3791 134 3420 21 
Q 3050 -91 2638 -91 
Q 1578 -91 968 557 
Q 359 1206 359 2328 
Q 359 3453 968 4101 
Q 1578 4750 2638 4750 
Q 3056 4750 3426 4639 
Q 3797 4528 4122 4306 
z
" transform="scale(0.015625)"/>
     </defs>
     <use xlink:href="#DejaVuSans-43"/>
    </g>
   </g>
   <g id="text_19">
    <!-- D -->
    <g style="fill: #00008b" transform="translate(183.525 344.178083) scale(0.3 -0.3)">
     <defs>
      <path id="DejaVuSans-44" d="M 1259 4147 
L 1259 519 
L 2022 519 
Q 2988 519 3436 956 
Q 3884 1394 3884 2338 
Q 3884 3275 3436 3711 
Q 2988 4147 2022 4147 
L 1259 4147 
z
M 628 4666 
L 1925 4666 
Q 3281 4666 3915 4102 
Q 4550 3538 4550 2338 
Q 4550 1131 3912 565 
Q 3275 0 1925 0 
L 628 0 
L 628 4666 
z
" transform="scale(0.015625)"/>
     </defs>
     <use xlink:href="#DejaVuSans-44"/>
    </g>
   </g>
   <g id="text_20">
    <!-- E -->
    <g style="fill: #00008b" transform="translate(238.246875 344.178083) scale(0.3 -0.3)">
     <defs>
      <path id="DejaVuSans-45" d="M 628 4666 
L 3578 4666 
L 3578 4134 
L 1259 4134 
L 1259 2753 
L 3481 2753 
L 3481 2222 
L 1259 2222 
L 1259 531 
L 3634 531 
L 3634 0 
L 628 0 
L 628 4666 
z
" transform="scale(0.015625)"/>
     </defs>
     <use xlink:href="#DejaVuSans-45"/>
    </g>
   </g>
   <g id="text_21">
    <!-- F -->
    <g style="fill: #00008b" transform="translate(291.747656 344.178083) scale(0.3 -0.3)">
     <defs>
      <path id="DejaVuSans-46" d="M 628 4666 
L 3309 4666 
L 3309 4134 
L 1259 4134 
L 1259 2759 
L 3109 2759 
L 3109 2228 
L 1259 2228 
L 1259 0 
L 628 0 
L 628 4666 
z
" transform="scale(0.015625)"/>
     </defs>
     <use xlink:href="#DejaVuSans-46"/>
    </g>
   </g>
   <g id="text_22">
    <!-- G -->
    <g style="fill: #00008b" transform="translate(341.402344 344.178083) scale(0.3 -0.3)">
     <defs>
      <path id="DejaVuSans-47" d="M 3809 666 
L 3809 1919 
L 2778 1919 
L 2778 2438 
L 4434 2438 
L 4434 434 
Q 4069 175 3628 42 
Q 3188 -91 2688 -91 
Q 1594 -91 976 548 
Q 359 1188 359 2328 
Q 359 3472 976 4111 
Q 1594 4750 2688 4750 
Q 3144 4750 3555 4637 
Q 3966 4525 4313 4306 
L 4313 3634 
Q 3963 3931 3569 4081 
Q 3175 4231 2741 4231 
Q 1884 4231 1454 3753 
Q 1025 3275 1025 2328 
Q 1025 1384 1454 906 
Q 1884 428 2741 428 
Q 3075 428 3337 486 
Q 3600 544 3809 666 
z
" transform="scale(0.015625)"/>
     </defs>
     <use xlink:href="#DejaVuSans-47"/>
    </g>
   </g>
   <g id="text_23">
    <!-- H -->
    <g style="fill: #00008b" transform="translate(394.394531 344.178083) scale(0.3 -0.3)">
     <defs>
      <path id="DejaVuSans-48" d="M 628 4666 
L 1259 4666 
L 1259 2753 
L 3553 2753 
L 3553 4666 
L 4184 4666 
L 4184 0 
L 3553 0 
L 3553 2222 
L 1259 2222 
L 1259 0 
L 628 0 
L 628 4666 
z
" transform="scale(0.015625)"/>
     </defs>
     <use xlink:href="#DejaVuSans-48"/>
    </g>
   </g>
   <g id="text_24">
    <!-- I -->
    <g style="fill: #00008b" transform="translate(453.9 344.178083) scale(0.3 -0.3)">
     <defs>
      <path id="DejaVuSans-49" d="M 628 4666 
L 1259 4666 
L 1259 0 
L 628 0 
L 628 4666 
z
" transform="scale(0.015625)"/>
     </defs>
     <use xlink:href="#DejaVuSans-49"/>
    </g>
   </g>
   <g id="text_25">
    <!-- J -->
    <g style="fill: #00008b" transform="translate(506.55 344.178083) scale(0.3 -0.3)">
     <defs>
      <path id="DejaVuSans-4a" d="M 628 4666 
L 1259 4666 
L 1259 325 
Q 1259 -519 939 -900 
Q 619 -1281 -91 -1281 
L -331 -1281 
L -331 -750 
L -134 -750 
Q 284 -750 456 -515 
Q 628 -281 628 325 
L 628 4666 
z
" transform="scale(0.015625)"/>
     </defs>
     <use xlink:href="#DejaVuSans-4a"/>
    </g>
   </g>
   <g id="text_26">
    <!-- K -->
    <g style="fill: #00008b" transform="translate(553.788281 344.178083) scale(0.3 -0.3)">
     <defs>
      <path id="DejaVuSans-4b" d="M 628 4666 
L 1259 4666 
L 1259 2694 
L 3353 4666 
L 4166 4666 
L 1850 2491 
L 4331 0 
L 3500 0 
L 1259 2247 
L 1259 0 
L 628 0 
L 628 4666 
z
" transform="scale(0.015625)"/>
     </defs>
     <use xlink:href="#DejaVuSans-4b"/>
    </g>
   </g>
   <g id="text_27">
    <!-- L -->
    <g style="fill: #00008b" transform="translate(607.917187 344.178083) scale(0.3 -0.3)">
     <defs>
      <path id="DejaVuSans-4c" d="M 628 4666 
L 1259 4666 
L 1259 531 
L 3531 531 
L 3531 0 
L 628 0 
L 628 4666 
z
" transform="scale(0.015625)"/>
     </defs>
     <use xlink:href="#DejaVuSans-4c"/>
    </g>
   </g>
   <g id="text_28">
    <!-- M -->
    <g style="fill: #00008b" transform="translate(655.982813 344.178083) scale(0.3 -0.3)">
     <defs>
      <path id="DejaVuSans-4d" d="M 628 4666 
L 1569 4666 
L 2759 1491 
L 3956 4666 
L 4897 4666 
L 4897 0 
L 4281 0 
L 4281 4097 
L 3078 897 
L 2444 897 
L 1241 4097 
L 1241 0 
L 628 0 
L 628 4666 
z
" transform="scale(0.015625)"/>
     </defs>
     <use xlink:href="#DejaVuSans-4d"/>
    </g>
   </g>
   <g id="text_29">
    <!-- N -->
    <g style="fill: #00008b" transform="translate(710.353125 344.178083) scale(0.3 -0.3)">
     <defs>
      <path id="DejaVuSans-4e" d="M 628 4666 
L 1478 4666 
L 3547 763 
L 3547 4666 
L 4159 4666 
L 4159 0 
L 3309 0 
L 1241 3903 
L 1241 0 
L 628 0 
L 628 4666 
z
" transform="scale(0.015625)"/>
     </defs>
     <use xlink:href="#DejaVuSans-4e"/>
    </g>
   </g>
   <g id="text_30">
    <!-- O -->
    <g style="fill: #00008b" transform="translate(762.417188 344.178083) scale(0.3 -0.3)">
     <defs>
      <path id="DejaVuSans-4f" d="M 2522 4238 
Q 1834 4238 1429 3725 
Q 1025 3213 1025 2328 
Q 1025 1447 1429 934 
Q 1834 422 2522 422 
Q 3209 422 3611 934 
Q 4013 1447 4013 2328 
Q 4013 3213 3611 3725 
Q 3209 4238 2522 4238 
z
M 2522 4750 
Q 3503 4750 4090 4092 
Q 4678 3434 4678 2328 
Q 4678 1225 4090 567 
Q 3503 -91 2522 -91 
Q 1538 -91 948 565 
Q 359 1222 359 2328 
Q 359 3434 948 4092 
Q 1538 4750 2522 4750 
z
" transform="scale(0.015625)"/>
     </defs>
     <use xlink:href="#DejaVuSans-4f"/>
    </g>
   </g>
   <g id="text_31">
    <!-- P -->
    <g style="fill: #00008b" transform="translate(817.830469 344.178083) scale(0.3 -0.3)">
     <defs>
      <path id="DejaVuSans-50" d="M 1259 4147 
L 1259 2394 
L 2053 2394 
Q 2494 2394 2734 2622 
Q 2975 2850 2975 3272 
Q 2975 3691 2734 3919 
Q 2494 4147 2053 4147 
L 1259 4147 
z
M 628 4666 
L 2053 4666 
Q 2838 4666 3239 4311 
Q 3641 3956 3641 3272 
Q 3641 2581 3239 2228 
Q 2838 1875 2053 1875 
L 1259 1875 
L 1259 0 
L 628 0 
L 628 4666 
z
" transform="scale(0.015625)"/>
     </defs>
     <use xlink:href="#DejaVuSans-50"/>
    </g>
   </g>
  </g>
 </g>
 <defs>
  <clipPath id="pb2868fbe59">
   <rect x="10.8" y="13.757684" width="842.4" height="337.204421"/>
  </clipPath>
 </defs>
</svg>
