<?xml version="1.0" encoding="utf-8" standalone="no"?>
<!DOCTYPE svg PUBLIC "-//W3C//DTD SVG 1.1//EN"
  "http://www.w3.org/Graphics/SVG/1.1/DTD/svg11.dtd">
<svg xmlns:xlink="http://www.w3.org/1999/xlink" width="864pt" height="367.2pt" viewBox="0 0 864 367.2" xmlns="http://www.w3.org/2000/svg" version="1.1">
 <metadata>
  <rdf:RDF xmlns:dc="http://purl.org/dc/elements/1.1/" xmlns:cc="http://creativecommons.org/ns#" xmlns:rdf="http://www.w3.org/1999/02/22-rdf-syntax-ns#">
   <cc:Work>
    <dc:type rdf:resource="http://purl.org/dc/dcmitype/StillImage"/>
    <dc:date>2025-10-13T11:32:48.203743</dc:date>
    <dc:format>image/svg+xml</dc:format>
    <dc:creator>
     <cc:Agent>
      <dc:title>Matplotlib v3.10.0, https://matplotlib.org/</dc:title>
     </cc:Agent>
    </dc:creator>
   </cc:Work>
  </rdf:RDF>
 </metadata>
 <defs>
  <style type="text/css">*{stroke-linejoin: round; stroke-linecap: butt}</style>
 </defs>
 <g id="figure_1">
  <g id="patch_1">
   <path d="M 0 367.2 
L 864 367.2 
L 864 0 
L 0 0 
z
" style="fill: #ffffff"/>
  </g>
  <g id="axes_1">
   <g id="patch_2">
    <path d="M 10.8 350.962105 
L 853.2 350.962105 
L 853.2 13.757684 
L 10.8 13.757684 
z
" style="fill: #ffffff"/>
   </g>
   <g id="matplotlib.axis_1"/>
   <g id="matplotlib.axis_2"/>
   <g id="LineCollection_1">
    <path d="M 10.8 58.126687 
L 853.2 58.126687 
" clip-path="url(#pd7e5f679b7)" style="fill: none; stroke: #000000; stroke-width: 3"/>
   </g>
   <g id="LineCollection_2">
    <path d="M 10.8 117.285357 
L 853.2 117.285357 
" clip-path="url(#pd7e5f679b7)" style="fill: none; stroke: #000000; stroke-width: 3"/>
   </g>
   <g id="LineCollection_3">
    <path d="M 10.8 176.444028 
L 853.2 176.444028 
" clip-path="url(#pd7e5f679b7)" style="fill: none; stroke: #000000; stroke-width: 3"/>
   </g>
   <g id="LineCollection_4">
    <path d="M 10.8 235.602698 
L 853.2 235.602698 
" clip-path="url(#pd7e5f679b7)" style="fill: none; stroke: #000000; stroke-width: 3"/>
   </g>
   <g id="LineCollection_5">
    <path d="M 10.8 294.761368 
L 853.2 294.761368 
" clip-path="url(#pd7e5f679b7)" style="fill: none; stroke: #000000; stroke-width: 3"/>
   </g>
   <g id="LineCollection_6">
    <path d="M 10.8 309.551036 
L 853.2 309.551036 
" clip-path="url(#pd7e5f679b7)" style="fill: none; stroke: #00008b; stroke-width: 3"/>
   </g>
   <g id="LineCollection_7">
    <path d="M 10.8 68.479454 
L 10.8 47.77392 
" style="fill: none; stroke: #000000; stroke-width: 2"/>
    <path d="M 853.2 68.479454 
L 853.2 47.77392 
" style="fill: none; stroke: #000000; stroke-width: 2"/>
   </g>
   <g id="LineCollection_8">
    <path d="M 10.8 127.638125 
L 10.8 106.93259 
" style="fill: none; stroke: #000000; stroke-width: 2"/>
    <path d="M 432 127.638125 
L 432 106.93259 
" style="fill: none; stroke: #000000; stroke-width: 2"/>
    <path d="M 853.2 127.638125 
L 853.2 106.93259 
" style="fill: none; stroke: #000000; stroke-width: 2"/>
   </g>
   <g id="LineCollection_9">
    <path d="M 10.8 186.796795 
L 10.8 166.09126 
" style="fill: none; stroke: #000000; stroke-width: 2"/>
    <path d="M 221.4 186.796795 
L 221.4 166.09126 
" style="fill: none; stroke: #000000; stroke-width: 2"/>
    <path d="M 432 186.796795 
L 432 166.09126 
" style="fill: none; stroke: #000000; stroke-width: 2"/>
    <path d="M 642.6 186.796795 
L 642.6 166.09126 
" style="fill: none; stroke: #000000; stroke-width: 2"/>
    <path d="M 853.2 186.796795 
L 853.2 166.09126 
" style="fill: none; stroke: #000000; stroke-width: 2"/>
   </g>
   <g id="LineCollection_10">
    <path d="M 10.8 245.955465 
L 10.8 225.249931 
" style="fill: none; stroke: #000000; stroke-width: 2"/>
    <path d="M 116.1 245.955465 
L 116.1 225.249931 
" style="fill: none; stroke: #000000; stroke-width: 2"/>
    <path d="M 221.4 245.955465 
L 221.4 225.249931 
" style="fill: none; stroke: #000000; stroke-width: 2"/>
    <path d="M 326.7 245.955465 
L 326.7 225.249931 
" style="fill: none; stroke: #000000; stroke-width: 2"/>
    <path d="M 432 245.955465 
L 432 225.249931 
" style="fill: none; stroke: #000000; stroke-width: 2"/>
    <path d="M 537.3 245.955465 
L 537.3 225.249931 
" style="fill: none; stroke: #000000; stroke-width: 2"/>
    <path d="M 642.6 245.955465 
L 642.6 225.249931 
" style="fill: none; stroke: #000000; stroke-width: 2"/>
    <path d="M 747.9 245.955465 
L 747.9 225.249931 
" style="fill: none; stroke: #000000; stroke-width: 2"/>
    <path d="M 853.2 245.955465 
L 853.2 225.249931 
" style="fill: none; stroke: #000000; stroke-width: 2"/>
   </g>
   <g id="LineCollection_11">
    <path d="M 10.8 294.761368 
L 10.8 284.408601 
" style="fill: none; stroke: #000000; stroke-width: 2"/>
    <path d="M 63.45 294.761368 
L 63.45 284.408601 
" style="fill: none; stroke: #000000; stroke-width: 2"/>
    <path d="M 116.1 294.761368 
L 116.1 284.408601 
" style="fill: none; stroke: #000000; stroke-width: 2"/>
    <path d="M 168.75 294.761368 
L 168.75 284.408601 
" style="fill: none; stroke: #000000; stroke-width: 2"/>
    <path d="M 221.4 294.761368 
L 221.4 284.408601 
" style="fill: none; stroke: #000000; stroke-width: 2"/>
    <path d="M 274.05 294.761368 
L 274.05 284.408601 
" style="fill: none; stroke: #000000; stroke-width: 2"/>
    <path d="M 326.7 294.761368 
L 326.7 284.408601 
" style="fill: none; stroke: #000000; stroke-width: 2"/>
    <path d="M 379.35 294.761368 
L 379.35 284.408601 
" style="fill: none; stroke: #000000; stroke-width: 2"/>
    <path d="M 432 294.761368 
L 432 284.408601 
" style="fill: none; stroke: #000000; stroke-width: 2"/>
    <path d="M 484.65 294.761368 
L 484.65 284.408601 
" style="fill: none; stroke: #000000; stroke-width: 2"/>
    <path d="M 537.3 294.761368 
L 537.3 284.408601 
" style="fill: none; stroke: #000000; stroke-width: 2"/>
    <path d="M 589.95 294.761368 
L 589.95 284.408601 
" style="fill: none; stroke: #000000; stroke-width: 2"/>
    <path d="M 642.6 294.761368 
L 642.6 284.408601 
" style="fill: none; stroke: #000000; stroke-width: 2"/>
    <path d="M 695.25 294.761368 
L 695.25 284.408601 
" style="fill: none; stroke: #000000; stroke-width: 2"/>
    <path d="M 747.9 294.761368 
L 747.9 284.408601 
" style="fill: none; stroke: #000000; stroke-width: 2"/>
    <path d="M 800.55 294.761368 
L 800.55 284.408601 
" style="fill: none; stroke: #000000; stroke-width: 2"/>
    <path d="M 853.2 294.761368 
L 853.2 284.408601 
" style="fill: none; stroke: #000000; stroke-width: 2"/>
   </g>
   <g id="LineCollection_12">
    <path d="M 10.8 319.903803 
L 10.8 309.551036 
" style="fill: none; stroke: #00008b; stroke-width: 2"/>
    <path d="M 63.45 319.903803 
L 63.45 309.551036 
" style="fill: none; stroke: #00008b; stroke-width: 2"/>
    <path d="M 116.1 319.903803 
L 116.1 309.551036 
" style="fill: none; stroke: #00008b; stroke-width: 2"/>
    <path d="M 168.75 319.903803 
L 168.75 309.551036 
" style="fill: none; stroke: #00008b; stroke-width: 2"/>
    <path d="M 221.4 319.903803 
L 221.4 309.551036 
" style="fill: none; stroke: #00008b; stroke-width: 2"/>
    <path d="M 274.05 319.903803 
L 274.05 309.551036 
" style="fill: none; stroke: #00008b; stroke-width: 2"/>
    <path d="M 326.7 319.903803 
L 326.7 309.551036 
" style="fill: none; stroke: #00008b; stroke-width: 2"/>
    <path d="M 379.35 319.903803 
L 379.35 309.551036 
" style="fill: none; stroke: #00008b; stroke-width: 2"/>
    <path d="M 432 319.903803 
L 432 309.551036 
" style="fill: none; stroke: #00008b; stroke-width: 2"/>
    <path d="M 484.65 319.903803 
L 484.65 309.551036 
" style="fill: none; stroke: #00008b; stroke-width: 2"/>
    <path d="M 537.3 319.903803 
L 537.3 309.551036 
" style="fill: none; stroke: #00008b; stroke-width: 2"/>
    <path d="M 589.95 319.903803 
L 589.95 309.551036 
" style="fill: none; stroke: #00008b; stroke-width: 2"/>
    <path d="M 642.6 319.903803 
L 642.6 309.551036 
" style="fill: none; stroke: #00008b; stroke-width: 2"/>
    <path d="M 695.25 319.903803 
L 695.25 309.551036 
" style="fill: none; stroke: #00008b; stroke-width: 2"/>
    <path d="M 747.9 319.903803 
L 747.9 309.551036 
" style="fill: none; stroke: #00008b; stroke-width: 2"/>
    <path d="M 800.55 319.903803 
L 800.55 309.551036 
" style="fill: none; stroke: #00008b; stroke-width: 2"/>
    <path d="M 853.2 319.903803 
L 853.2 309.551036 
" style="fill: none; stroke: #00008b; stroke-width: 2"/>
   </g>
   <g id="text_1">
    <!-- 1 -->
    <g transform="translate(422.45625 40.05589) scale(0.3 -0.3)">
     <defs>
      <path id="DejaVuSans-31" d="M 794 531 
L 1825 531 
L 1825 4091 
L 703 3866 
L 703 4441 
L 1819 4666 
L 2450 4666 
L 2450 531 
L 3481 531 
L 3481 0 
L 794 0 
L 794 531 
z
" transform="scale(0.015625)"/>
     </defs>
     <use xlink:href="#DejaVuSans-31"/>
    </g>
   </g>
   <g id="text_2">
    <!-- 10 -->
    <g transform="translate(202.3125 99.214561) scale(0.3 -0.3)">
     <defs>
      <path id="DejaVuSans-30" d="M 2034 4250 
Q 1547 4250 1301 3770 
Q 1056 3291 1056 2328 
Q 1056 1369 1301 889 
Q 1547 409 2034 409 
Q 2525 409 2770 889 
Q 3016 1369 3016 2328 
Q 3016 3291 2770 3770 
Q 2525 4250 2034 4250 
z
M 2034 4750 
Q 2819 4750 3233 4129 
Q 3647 3509 3647 2328 
Q 3647 1150 3233 529 
Q 2819 -91 2034 -91 
Q 1250 -91 836 529 
Q 422 1150 422 2328 
Q 422 3509 836 4129 
Q 1250 4750 2034 4750 
z
" transform="scale(0.015625)"/>
     </defs>
     <use xlink:href="#DejaVuSans-31"/>
     <use xlink:href="#DejaVuSans-30" transform="translate(63.623047 0)"/>
    </g>
   </g>
   <g id="text_3">
    <!-- 11 -->
    <g transform="translate(623.5125 99.214561) scale(0.3 -0.3)">
     <use xlink:href="#DejaVuSans-31"/>
     <use xlink:href="#DejaVuSans-31" transform="translate(63.623047 0)"/>
    </g>
   </g>
   <g id="text_4">
    <!-- 100 -->
    <g transform="translate(87.46875 158.373231) scale(0.3 -0.3)">
     <use xlink:href="#DejaVuSans-31"/>
     <use xlink:href="#DejaVuSans-30" transform="translate(63.623047 0)"/>
     <use xlink:href="#DejaVuSans-30" transform="translate(127.246094 0)"/>
    </g>
   </g>
   <g id="text_5">
    <!-- 101 -->
    <g transform="translate(298.06875 158.373231) scale(0.3 -0.3)">
     <use xlink:href="#DejaVuSans-31"/>
     <use xlink:href="#DejaVuSans-30" transform="translate(63.623047 0)"/>
     <use xlink:href="#DejaVuSans-31" transform="translate(127.246094 0)"/>
    </g>
   </g>
   <g id="text_6">
    <!-- 110 -->
    <g transform="translate(508.66875 158.373231) scale(0.3 -0.3)">
     <use xlink:href="#DejaVuSans-31"/>
     <use xlink:href="#DejaVuSans-31" transform="translate(63.623047 0)"/>
     <use xlink:href="#DejaVuSans-30" transform="translate(127.246094 0)"/>
    </g>
   </g>
   <g id="text_7">
    <!-- 111 -->
    <g transform="translate(719.26875 158.373231) scale(0.3 -0.3)">
     <use xlink:href="#DejaVuSans-31"/>
     <use xlink:href="#DejaVuSans-31" transform="translate(63.623047 0)"/>
     <use xlink:href="#DejaVuSans-31" transform="translate(127.246094 0)"/>
    </g>
   </g>
   <g id="text_8">
    <!-- 1000 -->
    <g transform="translate(25.275 217.531901) scale(0.3 -0.3)">
     <use xlink:href="#DejaVuSans-31"/>
     <use xlink:href="#DejaVuSans-30" transform="translate(63.623047 0)"/>
     <use xlink:href="#DejaVuSans-30" transform="translate(127.246094 0)"/>
     <use xlink:href="#DejaVuSans-30" transform="translate(190.869141 0)"/>
    </g>
   </g>
   <g id="text_9">
    <!-- 1001 -->
    <g transform="translate(130.575 217.531901) scale(0.3 -0.3)">
     <use xlink:href="#DejaVuSans-31"/>
     <use xlink:href="#DejaVuSans-30" transform="translate(63.623047 0)"/>
     <use xlink:href="#DejaVuSans-30" transform="translate(127.246094 0)"/>
     <use xlink:href="#DejaVuSans-31" transform="translate(190.869141 0)"/>
    </g>
   </g>
   <g id="text_10">
    <!-- 1010 -->
    <g transform="translate(235.875 217.531901) scale(0.3 -0.3)">
     <use xlink:href="#DejaVuSans-31"/>
     <use xlink:href="#DejaVuSans-30" transform="translate(63.623047 0)"/>
     <use xlink:href="#DejaVuSans-31" transform="translate(127.246094 0)"/>
     <use xlink:href="#DejaVuSans-30" transform="translate(190.869141 0)"/>
    </g>
   </g>
   <g id="text_11">
    <!-- 1011 -->
    <g transform="translate(341.175 217.531901) scale(0.3 -0.3)">
     <use xlink:href="#DejaVuSans-31"/>
     <use xlink:href="#DejaVuSans-30" transform="translate(63.623047 0)"/>
     <use xlink:href="#DejaVuSans-31" transform="translate(127.246094 0)"/>
     <use xlink:href="#DejaVuSans-31" transform="translate(190.869141 0)"/>
    </g>
   </g>
   <g id="text_12">
    <!-- 1100 -->
    <g transform="translate(446.475 217.531901) scale(0.3 -0.3)">
     <use xlink:href="#DejaVuSans-31"/>
     <use xlink:href="#DejaVuSans-31" transform="translate(63.623047 0)"/>
     <use xlink:href="#DejaVuSans-30" transform="translate(127.246094 0)"/>
     <use xlink:href="#DejaVuSans-30" transform="translate(190.869141 0)"/>
    </g>
   </g>
   <g id="text_13">
    <!-- 1101 -->
    <g transform="translate(551.775 217.531901) scale(0.3 -0.3)">
     <use xlink:href="#DejaVuSans-31"/>
     <use xlink:href="#DejaVuSans-31" transform="translate(63.623047 0)"/>
     <use xlink:href="#DejaVuSans-30" transform="translate(127.246094 0)"/>
     <use xlink:href="#DejaVuSans-31" transform="translate(190.869141 0)"/>
    </g>
   </g>
   <g id="text_14">
    <!-- 1110 -->
    <g transform="translate(657.075 217.531901) scale(0.3 -0.3)">
     <use xlink:href="#DejaVuSans-31"/>
     <use xlink:href="#DejaVuSans-31" transform="translate(63.623047 0)"/>
     <use xlink:href="#DejaVuSans-31" transform="translate(127.246094 0)"/>
     <use xlink:href="#DejaVuSans-30" transform="translate(190.869141 0)"/>
    </g>
   </g>
   <g id="text_15">
    <!-- 1111 -->
    <g transform="translate(762.375 217.531901) scale(0.3 -0.3)">
     <use xlink:href="#DejaVuSans-31"/>
     <use xlink:href="#DejaVuSans-31" transform="translate(63.623047 0)"/>
     <use xlink:href="#DejaVuSans-31" transform="translate(127.246094 0)"/>
     <use xlink:href="#DejaVuSans-31" transform="translate(190.869141 0)"/>
    </g>
   </g>
   <g id="text_16">
    <!-- Q -->
    <g style="fill: #00008b" transform="translate(25.317188 344.178083) scale(0.3 -0.3)">
     <defs>
      <path id="DejaVuSans-51" d="M 2522 4238 
Q 1834 4238 1429 3725 
Q 1025 3213 1025 2328 
Q 1025 1447 1429 934 
Q 1834 422 2522 422 
Q 3209 422 3611 934 
Q 4013 1447 4013 2328 
Q 4013 3213 3611 3725 
Q 3209 4238 2522 4238 
z
M 3406 84 
L 4238 -825 
L 3475 -825 
L 2784 -78 
Q 2681 -84 2626 -87 
Q 2572 -91 2522 -91 
Q 1538 -91 948 567 
Q 359 1225 359 2328 
Q 359 3434 948 4092 
Q 1538 4750 2522 4750 
Q 3503 4750 4090 4092 
Q 4678 3434 4678 2328 
Q 4678 1516 4351 937 
Q 4025 359 3406 84 
z
" transform="scale(0.015625)"/>
     </defs>
     <use xlink:href="#DejaVuSans-51"/>
    </g>
   </g>
   <g id="text_17">
    <!-- R -->
    <g style="fill: #00008b" transform="translate(79.352344 344.178083) scale(0.3 -0.3)">
     <defs>
      <path id="DejaVuSans-52" d="M 2841 2188 
Q 3044 2119 3236 1894 
Q 3428 1669 3622 1275 
L 4263 0 
L 3584 0 
L 2988 1197 
Q 2756 1666 2539 1819 
Q 2322 1972 1947 1972 
L 1259 1972 
L 1259 0 
L 628 0 
L 628 4666 
L 2053 4666 
Q 2853 4666 3247 4331 
Q 3641 3997 3641 3322 
Q 3641 2881 3436 2590 
Q 3231 2300 2841 2188 
z
M 1259 4147 
L 1259 2491 
L 2053 2491 
Q 2509 2491 2742 2702 
Q 2975 2913 2975 3322 
Q 2975 3731 2742 3939 
Q 2509 4147 2053 4147 
L 1259 4147 
z
" transform="scale(0.015625)"/>
     </defs>
     <use xlink:href="#DejaVuSans-52"/>
    </g>
   </g>
   <g id="text_18">
    <!-- S -->
    <g style="fill: #00008b" transform="translate(132.902344 344.178083) scale(0.3 -0.3)">
     <defs>
      <path id="DejaVuSans-53" d="M 3425 4513 
L 3425 3897 
Q 3066 4069 2747 4153 
Q 2428 4238 2131 4238 
Q 1616 4238 1336 4038 
Q 1056 3838 1056 3469 
Q 1056 3159 1242 3001 
Q 1428 2844 1947 2747 
L 2328 2669 
Q 3034 2534 3370 2195 
Q 3706 1856 3706 1288 
Q 3706 609 3251 259 
Q 2797 -91 1919 -91 
Q 1588 -91 1214 -16 
Q 841 59 441 206 
L 441 856 
Q 825 641 1194 531 
Q 1563 422 1919 422 
Q 2459 422 2753 634 
Q 3047 847 3047 1241 
Q 3047 1584 2836 1778 
Q 2625 1972 2144 2069 
L 1759 2144 
Q 1053 2284 737 2584 
Q 422 2884 422 3419 
Q 422 4038 858 4394 
Q 1294 4750 2059 4750 
Q 2388 4750 2728 4690 
Q 3069 4631 3425 4513 
z
" transform="scale(0.015625)"/>
     </defs>
     <use xlink:href="#DejaVuSans-53"/>
    </g>
   </g>
   <g id="text_19">
    <!-- T -->
    <g style="fill: #00008b" transform="translate(185.913281 344.178083) scale(0.3 -0.3)">
     <defs>
      <path id="DejaVuSans-54" d="M -19 4666 
L 3928 4666 
L 3928 4134 
L 2272 4134 
L 2272 0 
L 1638 0 
L 1638 4134 
L -19 4134 
L -19 4666 
z
" transform="scale(0.015625)"/>
     </defs>
     <use xlink:href="#DejaVuSans-54"/>
    </g>
   </g>
   <g id="text_20">
    <!-- U -->
    <g style="fill: #00008b" transform="translate(236.746875 344.178083) scale(0.3 -0.3)">
     <defs>
      <path id="DejaVuSans-55" d="M 556 4666 
L 1191 4666 
L 1191 1831 
Q 1191 1081 1462 751 
Q 1734 422 2344 422 
Q 2950 422 3222 751 
Q 3494 1081 3494 1831 
L 3494 4666 
L 4128 4666 
L 4128 1753 
Q 4128 841 3676 375 
Q 3225 -91 2344 -91 
Q 1459 -91 1007 375 
Q 556 841 556 1753 
L 556 4666 
z
" transform="scale(0.015625)"/>
     </defs>
     <use xlink:href="#DejaVuSans-55"/>
    </g>
   </g>
   <g id="text_21">
    <!-- V -->
    <g style="fill: #00008b" transform="translate(290.114062 344.178083) scale(0.3 -0.3)">
     <defs>
      <path id="DejaVuSans-56" d="M 1831 0 
L 50 4666 
L 709 4666 
L 2188 738 
L 3669 4666 
L 4325 4666 
L 2547 0 
L 1831 0 
z
" transform="scale(0.015625)"/>
     </defs>
     <use xlink:href="#DejaVuSans-56"/>
    </g>
   </g>
   <g id="text_22">
    <!-- W -->
    <g style="fill: #00008b" transform="translate(338.19375 344.178083) scale(0.3 -0.3)">
     <defs>
      <path id="DejaVuSans-57" d="M 213 4666 
L 850 4666 
L 1831 722 
L 2809 4666 
L 3519 4666 
L 4500 722 
L 5478 4666 
L 6119 4666 
L 4947 0 
L 4153 0 
L 3169 4050 
L 2175 0 
L 1381 0 
L 213 4666 
z
" transform="scale(0.015625)"/>
     </defs>
     <use xlink:href="#DejaVuSans-57"/>
    </g>
   </g>
   <g id="text_23">
    <!-- X -->
    <g style="fill: #00008b" transform="translate(395.4 344.178083) scale(0.3 -0.3)">
     <defs>
      <path id="DejaVuSans-58" d="M 403 4666 
L 1081 4666 
L 2241 2931 
L 3406 4666 
L 4084 4666 
L 2584 2425 
L 4184 0 
L 3506 0 
L 2194 1984 
L 872 0 
L 191 0 
L 1856 2491 
L 403 4666 
z
" transform="scale(0.015625)"/>
     </defs>
     <use xlink:href="#DejaVuSans-58"/>
    </g>
   </g>
   <g id="text_24">
    <!-- Y -->
    <g style="fill: #00008b" transform="translate(449.163281 344.178083) scale(0.3 -0.3)">
     <defs>
      <path id="DejaVuSans-59" d="M -13 4666 
L 666 4666 
L 1959 2747 
L 3244 4666 
L 3922 4666 
L 2272 2222 
L 2272 0 
L 1638 0 
L 1638 2222 
L -13 4666 
z
" transform="scale(0.015625)"/>
     </defs>
     <use xlink:href="#DejaVuSans-59"/>
    </g>
   </g>
   <g id="text_25">
    <!-- Z -->
    <g style="fill: #00008b" transform="translate(500.7 344.178083) scale(0.3 -0.3)">
     <defs>
      <path id="DejaVuSans-5a" d="M 359 4666 
L 4025 4666 
L 4025 4184 
L 1075 531 
L 4097 531 
L 4097 0 
L 288 0 
L 288 481 
L 3238 4134 
L 359 4134 
L 359 4666 
z
" transform="scale(0.015625)"/>
     </defs>
     <use xlink:href="#DejaVuSans-5a"/>
    </g>
   </g>
   <g id="text_26">
    <!--   -->
    <g style="fill: #00008b" transform="translate(558.857813 344.178083) scale(0.3 -0.3)">
     <defs>
      <path id="DejaVuSans-20" transform="scale(0.015625)"/>
     </defs>
     <use xlink:href="#DejaVuSans-20"/>
    </g>
   </g>
   <g id="text_27">
    <!--   -->
    <g style="fill: #00008b" transform="translate(611.507813 344.178083) scale(0.3 -0.3)">
     <use xlink:href="#DejaVuSans-20"/>
    </g>
   </g>
   <g id="text_28">
    <!--   -->
    <g style="fill: #00008b" transform="translate(664.157812 344.178083) scale(0.3 -0.3)">
     <use xlink:href="#DejaVuSans-20"/>
    </g>
   </g>
   <g id="text_29">
    <!--   -->
    <g style="fill: #00008b" transform="translate(716.807813 344.178083) scale(0.3 -0.3)">
     <use xlink:href="#DejaVuSans-20"/>
    </g>
   </g>
   <g id="text_30">
    <!--   -->
    <g style="fill: #00008b" transform="translate(769.457813 344.178083) scale(0.3 -0.3)">
     <use xlink:href="#DejaVuSans-20"/>
    </g>
   </g>
   <g id="text_31">
    <!--   -->
    <g style="fill: #00008b" transform="translate(822.107813 344.178083) scale(0.3 -0.3)">
     <use xlink:href="#DejaVuSans-20"/>
    </g>
   </g>
  </g>
 </g>
 <defs>
  <clipPath id="pd7e5f679b7">
   <rect x="10.8" y="13.757684" width="842.4" height="337.204421"/>
  </clipPath>
 </defs>
</svg>
