<?xml version="1.0" encoding="utf-8" standalone="no"?>
<!DOCTYPE svg PUBLIC "-//W3C//DTD SVG 1.1//EN"
  "http://www.w3.org/Graphics/SVG/1.1/DTD/svg11.dtd">
<svg xmlns:xlink="http://www.w3.org/1999/xlink" width="864pt" height="410.4pt" viewBox="0 0 864 410.4" xmlns="http://www.w3.org/2000/svg" version="1.1">
 <metadata>
  <rdf:RDF xmlns:dc="http://purl.org/dc/elements/1.1/" xmlns:cc="http://creativecommons.org/ns#" xmlns:rdf="http://www.w3.org/1999/02/22-rdf-syntax-ns#">
   <cc:Work>
    <dc:type rdf:resource="http://purl.org/dc/dcmitype/StillImage"/>
    <dc:date>2025-10-07T06:47:16.719109</dc:date>
    <dc:format>image/svg+xml</dc:format>
    <dc:creator>
     <cc:Agent>
      <dc:title>Matplotlib v3.10.0, https://matplotlib.org/</dc:title>
     </cc:Agent>
    </dc:creator>
   </cc:Work>
  </rdf:RDF>
 </metadata>
 <defs>
  <style type="text/css">*{stroke-linejoin: round; stroke-linecap: butt}</style>
 </defs>
 <g id="figure_1">
  <g id="patch_1">
   <path d="M 0 410.4 
L 864 410.4 
L 864 0 
L 0 0 
z
" style="fill: #ffffff"/>
  </g>
  <g id="axes_1">
   <g id="patch_2">
    <path d="M 10.8 392.942687 
L 853.2 392.942687 
L 853.2 15.099045 
L 10.8 15.099045 
z
" style="fill: #ffffff"/>
   </g>
   <g id="matplotlib.axis_1"/>
   <g id="matplotlib.axis_2"/>
   <g id="LineCollection_1">
    <path d="M 10.8 57.394975 
L 853.2 57.394975 
" clip-path="url(#pf8d043d087)" style="fill: none; stroke: #000000; stroke-width: 3"/>
   </g>
   <g id="LineCollection_2">
    <path d="M 10.8 113.789548 
L 853.2 113.789548 
" clip-path="url(#pf8d043d087)" style="fill: none; stroke: #000000; stroke-width: 3"/>
   </g>
   <g id="LineCollection_3">
    <path d="M 10.8 170.184122 
L 853.2 170.184122 
" clip-path="url(#pf8d043d087)" style="fill: none; stroke: #000000; stroke-width: 3"/>
   </g>
   <g id="LineCollection_4">
    <path d="M 10.8 226.578695 
L 853.2 226.578695 
" clip-path="url(#pf8d043d087)" style="fill: none; stroke: #000000; stroke-width: 3"/>
   </g>
   <g id="LineCollection_5">
    <path d="M 10.8 240.677338 
L 853.2 240.677338 
" clip-path="url(#pf8d043d087)" style="fill: none; stroke: #00008b; stroke-width: 3"/>
   </g>
   <g id="LineCollection_6">
    <path d="M 10.8 297.071912 
L 853.2 297.071912 
" clip-path="url(#pf8d043d087)" style="fill: none; stroke: #00008b; stroke-width: 3"/>
   </g>
   <g id="LineCollection_7">
    <path d="M 10.8 353.466485 
L 853.2 353.466485 
" clip-path="url(#pf8d043d087)" style="fill: none; stroke: #00008b; stroke-width: 3"/>
   </g>
   <g id="LineCollection_8">
    <path d="M 10.8 67.264025 
L 10.8 47.525924 
" style="fill: none; stroke: #000000; stroke-width: 2"/>
    <path d="M 432 67.264025 
L 432 47.525924 
" style="fill: none; stroke: #000000; stroke-width: 2"/>
    <path d="M 853.2 67.264025 
L 853.2 47.525924 
" style="fill: none; stroke: #000000; stroke-width: 2"/>
   </g>
   <g id="LineCollection_9">
    <path d="M 10.8 123.658599 
L 10.8 103.920498 
" style="fill: none; stroke: #000000; stroke-width: 2"/>
    <path d="M 221.4 123.658599 
L 221.4 103.920498 
" style="fill: none; stroke: #000000; stroke-width: 2"/>
    <path d="M 432 123.658599 
L 432 103.920498 
" style="fill: none; stroke: #000000; stroke-width: 2"/>
    <path d="M 642.6 123.658599 
L 642.6 103.920498 
" style="fill: none; stroke: #000000; stroke-width: 2"/>
    <path d="M 853.2 123.658599 
L 853.2 103.920498 
" style="fill: none; stroke: #000000; stroke-width: 2"/>
   </g>
   <g id="LineCollection_10">
    <path d="M 10.8 180.053172 
L 10.8 160.315071 
" style="fill: none; stroke: #000000; stroke-width: 2"/>
    <path d="M 116.1 180.053172 
L 116.1 160.315071 
" style="fill: none; stroke: #000000; stroke-width: 2"/>
    <path d="M 221.4 180.053172 
L 221.4 160.315071 
" style="fill: none; stroke: #000000; stroke-width: 2"/>
    <path d="M 326.7 180.053172 
L 326.7 160.315071 
" style="fill: none; stroke: #000000; stroke-width: 2"/>
    <path d="M 432 180.053172 
L 432 160.315071 
" style="fill: none; stroke: #000000; stroke-width: 2"/>
    <path d="M 537.3 180.053172 
L 537.3 160.315071 
" style="fill: none; stroke: #000000; stroke-width: 2"/>
    <path d="M 642.6 180.053172 
L 642.6 160.315071 
" style="fill: none; stroke: #000000; stroke-width: 2"/>
    <path d="M 747.9 180.053172 
L 747.9 160.315071 
" style="fill: none; stroke: #000000; stroke-width: 2"/>
    <path d="M 853.2 180.053172 
L 853.2 160.315071 
" style="fill: none; stroke: #000000; stroke-width: 2"/>
   </g>
   <g id="LineCollection_11">
    <path d="M 10.8 226.578695 
L 10.8 216.709645 
" style="fill: none; stroke: #000000; stroke-width: 2"/>
    <path d="M 63.45 226.578695 
L 63.45 216.709645 
" style="fill: none; stroke: #000000; stroke-width: 2"/>
    <path d="M 116.1 226.578695 
L 116.1 216.709645 
" style="fill: none; stroke: #000000; stroke-width: 2"/>
    <path d="M 168.75 226.578695 
L 168.75 216.709645 
" style="fill: none; stroke: #000000; stroke-width: 2"/>
    <path d="M 221.4 226.578695 
L 221.4 216.709645 
" style="fill: none; stroke: #000000; stroke-width: 2"/>
    <path d="M 274.05 226.578695 
L 274.05 216.709645 
" style="fill: none; stroke: #000000; stroke-width: 2"/>
    <path d="M 326.7 226.578695 
L 326.7 216.709645 
" style="fill: none; stroke: #000000; stroke-width: 2"/>
    <path d="M 379.35 226.578695 
L 379.35 216.709645 
" style="fill: none; stroke: #000000; stroke-width: 2"/>
    <path d="M 432 226.578695 
L 432 216.709645 
" style="fill: none; stroke: #000000; stroke-width: 2"/>
    <path d="M 484.65 226.578695 
L 484.65 216.709645 
" style="fill: none; stroke: #000000; stroke-width: 2"/>
    <path d="M 537.3 226.578695 
L 537.3 216.709645 
" style="fill: none; stroke: #000000; stroke-width: 2"/>
    <path d="M 589.95 226.578695 
L 589.95 216.709645 
" style="fill: none; stroke: #000000; stroke-width: 2"/>
    <path d="M 642.6 226.578695 
L 642.6 216.709645 
" style="fill: none; stroke: #000000; stroke-width: 2"/>
    <path d="M 695.25 226.578695 
L 695.25 216.709645 
" style="fill: none; stroke: #000000; stroke-width: 2"/>
    <path d="M 747.9 226.578695 
L 747.9 216.709645 
" style="fill: none; stroke: #000000; stroke-width: 2"/>
    <path d="M 800.55 226.578695 
L 800.55 216.709645 
" style="fill: none; stroke: #000000; stroke-width: 2"/>
    <path d="M 853.2 226.578695 
L 853.2 216.709645 
" style="fill: none; stroke: #000000; stroke-width: 2"/>
   </g>
   <g id="LineCollection_12">
    <path d="M 10.8 250.546389 
L 10.8 240.677338 
" style="fill: none; stroke: #00008b; stroke-width: 2"/>
    <path d="M 260.4 250.546389 
L 260.4 240.677338 
" style="fill: none; stroke: #00008b; stroke-width: 2"/>
    <path d="M 385.2 250.546389 
L 385.2 240.677338 
" style="fill: none; stroke: #00008b; stroke-width: 2"/>
    <path d="M 510 250.546389 
L 510 240.677338 
" style="fill: none; stroke: #00008b; stroke-width: 2"/>
    <path d="M 572.4 250.546389 
L 572.4 240.677338 
" style="fill: none; stroke: #00008b; stroke-width: 2"/>
    <path d="M 697.2 250.546389 
L 697.2 240.677338 
" style="fill: none; stroke: #00008b; stroke-width: 2"/>
    <path d="M 759.6 250.546389 
L 759.6 240.677338 
" style="fill: none; stroke: #00008b; stroke-width: 2"/>
    <path d="M 822 250.546389 
L 822 240.677338 
" style="fill: none; stroke: #00008b; stroke-width: 2"/>
    <path d="M 853.2 250.546389 
L 853.2 240.677338 
" style="fill: none; stroke: #00008b; stroke-width: 2"/>
   </g>
   <g id="LineCollection_13">
    <path d="M 10.8 306.940962 
L 10.8 287.202861 
" style="fill: none; stroke: #00008b; stroke-width: 2"/>
    <path d="M 385.2 306.940962 
L 385.2 287.202861 
" style="fill: none; stroke: #00008b; stroke-width: 2"/>
    <path d="M 572.4 306.940962 
L 572.4 287.202861 
" style="fill: none; stroke: #00008b; stroke-width: 2"/>
    <path d="M 759.6 306.940962 
L 759.6 287.202861 
" style="fill: none; stroke: #00008b; stroke-width: 2"/>
    <path d="M 853.2 306.940962 
L 853.2 287.202861 
" style="fill: none; stroke: #00008b; stroke-width: 2"/>
   </g>
   <g id="LineCollection_14">
    <path d="M 10.8 363.335536 
L 10.8 343.597435 
" style="fill: none; stroke: #00008b; stroke-width: 2"/>
    <path d="M 572.4 363.335536 
L 572.4 343.597435 
" style="fill: none; stroke: #00008b; stroke-width: 2"/>
    <path d="M 853.2 363.335536 
L 853.2 343.597435 
" style="fill: none; stroke: #00008b; stroke-width: 2"/>
   </g>
   <g id="text_1">
    <!-- 0 -->
    <g transform="translate(211.85625 39.876998) scale(0.3 -0.3)">
     <defs>
      <path id="DejaVuSans-30" d="M 2034 4250 
Q 1547 4250 1301 3770 
Q 1056 3291 1056 2328 
Q 1056 1369 1301 889 
Q 1547 409 2034 409 
Q 2525 409 2770 889 
Q 3016 1369 3016 2328 
Q 3016 3291 2770 3770 
Q 2525 4250 2034 4250 
z
M 2034 4750 
Q 2819 4750 3233 4129 
Q 3647 3509 3647 2328 
Q 3647 1150 3233 529 
Q 2819 -91 2034 -91 
Q 1250 -91 836 529 
Q 422 1150 422 2328 
Q 422 3509 836 4129 
Q 1250 4750 2034 4750 
z
" transform="scale(0.015625)"/>
     </defs>
     <use xlink:href="#DejaVuSans-30"/>
    </g>
   </g>
   <g id="text_2">
    <!-- 1 -->
    <g transform="translate(633.05625 39.876998) scale(0.3 -0.3)">
     <defs>
      <path id="DejaVuSans-31" d="M 794 531 
L 1825 531 
L 1825 4091 
L 703 3866 
L 703 4441 
L 1819 4666 
L 2450 4666 
L 2450 531 
L 3481 531 
L 3481 0 
L 794 0 
L 794 531 
z
" transform="scale(0.015625)"/>
     </defs>
     <use xlink:href="#DejaVuSans-31"/>
    </g>
   </g>
   <g id="text_3">
    <!-- 00 -->
    <g transform="translate(97.0125 96.271571) scale(0.3 -0.3)">
     <use xlink:href="#DejaVuSans-30"/>
     <use xlink:href="#DejaVuSans-30" transform="translate(63.623047 0)"/>
    </g>
   </g>
   <g id="text_4">
    <!-- 01 -->
    <g transform="translate(307.6125 96.271571) scale(0.3 -0.3)">
     <use xlink:href="#DejaVuSans-30"/>
     <use xlink:href="#DejaVuSans-31" transform="translate(63.623047 0)"/>
    </g>
   </g>
   <g id="text_5">
    <!-- 10 -->
    <g transform="translate(518.2125 96.271571) scale(0.3 -0.3)">
     <use xlink:href="#DejaVuSans-31"/>
     <use xlink:href="#DejaVuSans-30" transform="translate(63.623047 0)"/>
    </g>
   </g>
   <g id="text_6">
    <!-- 11 -->
    <g transform="translate(728.8125 96.271571) scale(0.3 -0.3)">
     <use xlink:href="#DejaVuSans-31"/>
     <use xlink:href="#DejaVuSans-31" transform="translate(63.623047 0)"/>
    </g>
   </g>
   <g id="text_7">
    <!-- 000 -->
    <g transform="translate(34.81875 152.666144) scale(0.3 -0.3)">
     <use xlink:href="#DejaVuSans-30"/>
     <use xlink:href="#DejaVuSans-30" transform="translate(63.623047 0)"/>
     <use xlink:href="#DejaVuSans-30" transform="translate(127.246094 0)"/>
    </g>
   </g>
   <g id="text_8">
    <!-- 001 -->
    <g transform="translate(140.11875 152.666144) scale(0.3 -0.3)">
     <use xlink:href="#DejaVuSans-30"/>
     <use xlink:href="#DejaVuSans-30" transform="translate(63.623047 0)"/>
     <use xlink:href="#DejaVuSans-31" transform="translate(127.246094 0)"/>
    </g>
   </g>
   <g id="text_9">
    <!-- 010 -->
    <g transform="translate(245.41875 152.666144) scale(0.3 -0.3)">
     <use xlink:href="#DejaVuSans-30"/>
     <use xlink:href="#DejaVuSans-31" transform="translate(63.623047 0)"/>
     <use xlink:href="#DejaVuSans-30" transform="translate(127.246094 0)"/>
    </g>
   </g>
   <g id="text_10">
    <!-- 011 -->
    <g transform="translate(350.71875 152.666144) scale(0.3 -0.3)">
     <use xlink:href="#DejaVuSans-30"/>
     <use xlink:href="#DejaVuSans-31" transform="translate(63.623047 0)"/>
     <use xlink:href="#DejaVuSans-31" transform="translate(127.246094 0)"/>
    </g>
   </g>
   <g id="text_11">
    <!-- 100 -->
    <g transform="translate(456.01875 152.666144) scale(0.3 -0.3)">
     <use xlink:href="#DejaVuSans-31"/>
     <use xlink:href="#DejaVuSans-30" transform="translate(63.623047 0)"/>
     <use xlink:href="#DejaVuSans-30" transform="translate(127.246094 0)"/>
    </g>
   </g>
   <g id="text_12">
    <!-- 101 -->
    <g transform="translate(561.31875 152.666144) scale(0.3 -0.3)">
     <use xlink:href="#DejaVuSans-31"/>
     <use xlink:href="#DejaVuSans-30" transform="translate(63.623047 0)"/>
     <use xlink:href="#DejaVuSans-31" transform="translate(127.246094 0)"/>
    </g>
   </g>
   <g id="text_13">
    <!-- 110 -->
    <g transform="translate(666.61875 152.666144) scale(0.3 -0.3)">
     <use xlink:href="#DejaVuSans-31"/>
     <use xlink:href="#DejaVuSans-31" transform="translate(63.623047 0)"/>
     <use xlink:href="#DejaVuSans-30" transform="translate(127.246094 0)"/>
    </g>
   </g>
   <g id="text_14">
    <!-- 111 -->
    <g transform="translate(771.91875 152.666144) scale(0.3 -0.3)">
     <use xlink:href="#DejaVuSans-31"/>
     <use xlink:href="#DejaVuSans-31" transform="translate(63.623047 0)"/>
     <use xlink:href="#DejaVuSans-31" transform="translate(127.246094 0)"/>
    </g>
   </g>
   <g id="text_15">
    <!-- AAA -->
    <g style="fill: #00008b" transform="translate(103.992188 274.751566) scale(0.3 -0.3)">
     <defs>
      <path id="DejaVuSans-41" d="M 2188 4044 
L 1331 1722 
L 3047 1722 
L 2188 4044 
z
M 1831 4666 
L 2547 4666 
L 4325 0 
L 3669 0 
L 3244 1197 
L 1141 1197 
L 716 0 
L 50 0 
L 1831 4666 
z
" transform="scale(0.015625)"/>
     </defs>
     <use xlink:href="#DejaVuSans-41"/>
     <use xlink:href="#DejaVuSans-41" transform="translate(71.158203 0)"/>
     <use xlink:href="#DejaVuSans-41" transform="translate(142.316406 0)"/>
    </g>
   </g>
   <g id="text_16">
    <!-- AAB -->
    <g style="fill: #00008b" transform="translate(291.574219 274.751566) scale(0.3 -0.3)">
     <defs>
      <path id="DejaVuSans-42" d="M 1259 2228 
L 1259 519 
L 2272 519 
Q 2781 519 3026 730 
Q 3272 941 3272 1375 
Q 3272 1813 3026 2020 
Q 2781 2228 2272 2228 
L 1259 2228 
z
M 1259 4147 
L 1259 2741 
L 2194 2741 
Q 2656 2741 2882 2914 
Q 3109 3088 3109 3444 
Q 3109 3797 2882 3972 
Q 2656 4147 2194 4147 
L 1259 4147 
z
M 628 4666 
L 2241 4666 
Q 2963 4666 3353 4366 
Q 3744 4066 3744 3513 
Q 3744 3084 3544 2831 
Q 3344 2578 2956 2516 
Q 3422 2416 3680 2098 
Q 3938 1781 3938 1306 
Q 3938 681 3513 340 
Q 3088 0 2303 0 
L 628 0 
L 628 4666 
z
" transform="scale(0.015625)"/>
     </defs>
     <use xlink:href="#DejaVuSans-41"/>
     <use xlink:href="#DejaVuSans-41" transform="translate(71.158203 0)"/>
     <use xlink:href="#DejaVuSans-42" transform="translate(139.566406 0)"/>
    </g>
   </g>
   <g id="text_17">
    <!-- ABA -->
    <g style="fill: #00008b" transform="translate(416.786719 274.751566) scale(0.3 -0.3)">
     <use xlink:href="#DejaVuSans-41"/>
     <use xlink:href="#DejaVuSans-42" transform="translate(68.408203 0)"/>
     <use xlink:href="#DejaVuSans-41" transform="translate(137.011719 0)"/>
    </g>
   </g>
   <g id="text_18">
    <!-- BAA -->
    <g style="fill: #00008b" transform="translate(603.574219 274.751566) scale(0.3 -0.3)">
     <use xlink:href="#DejaVuSans-42"/>
     <use xlink:href="#DejaVuSans-41" transform="translate(68.603516 0)"/>
     <use xlink:href="#DejaVuSans-41" transform="translate(139.761719 0)"/>
    </g>
   </g>
   <g id="text_19">
    <!-- AA -->
    <g style="fill: #00008b" transform="translate(177.065625 331.146139) scale(0.3 -0.3)">
     <use xlink:href="#DejaVuSans-41"/>
     <use xlink:href="#DejaVuSans-41" transform="translate(71.158203 0)"/>
    </g>
   </g>
   <g id="text_20">
    <!-- AB -->
    <g style="fill: #00008b" transform="translate(458.247656 331.146139) scale(0.3 -0.3)">
     <use xlink:href="#DejaVuSans-41"/>
     <use xlink:href="#DejaVuSans-42" transform="translate(68.408203 0)"/>
    </g>
   </g>
   <g id="text_21">
    <!-- BA -->
    <g style="fill: #00008b" transform="translate(645.447656 331.146139) scale(0.3 -0.3)">
     <use xlink:href="#DejaVuSans-42"/>
     <use xlink:href="#DejaVuSans-41" transform="translate(68.603516 0)"/>
    </g>
   </g>
   <g id="text_22">
    <!-- BB -->
    <g style="fill: #00008b" transform="translate(785.817187 331.146139) scale(0.3 -0.3)">
     <use xlink:href="#DejaVuSans-42"/>
     <use xlink:href="#DejaVuSans-42" transform="translate(68.603516 0)"/>
    </g>
   </g>
   <g id="text_23">
    <!-- A -->
    <g style="fill: #00008b" transform="translate(281.339063 387.540712) scale(0.3 -0.3)">
     <use xlink:href="#DejaVuSans-41"/>
    </g>
   </g>
   <g id="text_24">
    <!-- B -->
    <g style="fill: #00008b" transform="translate(702.508594 387.540712) scale(0.3 -0.3)">
     <use xlink:href="#DejaVuSans-42"/>
    </g>
   </g>
  </g>
 </g>
 <defs>
  <clipPath id="pf8d043d087">
   <rect x="10.8" y="15.099045" width="842.4" height="377.843642"/>
  </clipPath>
 </defs>
</svg>
