<?xml version="1.0" encoding="utf-8" standalone="no"?>
<!DOCTYPE svg PUBLIC "-//W3C//DTD SVG 1.1//EN"
  "http://www.w3.org/Graphics/SVG/1.1/DTD/svg11.dtd">
<svg xmlns:xlink="http://www.w3.org/1999/xlink" width="720pt" height="374.4pt" viewBox="0 0 720 374.4" xmlns="http://www.w3.org/2000/svg" version="1.1">
 <metadata>
  <rdf:RDF xmlns:dc="http://purl.org/dc/elements/1.1/" xmlns:cc="http://creativecommons.org/ns#" xmlns:rdf="http://www.w3.org/1999/02/22-rdf-syntax-ns#">
   <cc:Work>
    <dc:type rdf:resource="http://purl.org/dc/dcmitype/StillImage"/>
    <dc:date>2025-10-13T11:27:07.734097</dc:date>
    <dc:format>image/svg+xml</dc:format>
    <dc:creator>
     <cc:Agent>
      <dc:title>Matplotlib v3.10.0, https://matplotlib.org/</dc:title>
     </cc:Agent>
    </dc:creator>
   </cc:Work>
  </rdf:RDF>
 </metadata>
 <defs>
  <style type="text/css">*{stroke-linejoin: round; stroke-linecap: butt}</style>
 </defs>
 <g id="figure_1">
  <g id="patch_1">
   <path d="M 0 374.4 
L 720 374.4 
L 720 0 
L 0 0 
z
" style="fill: #ffffff"/>
  </g>
  <g id="axes_1">
   <g id="patch_2">
    <path d="M 10.8 363.6 
L 709.2 363.6 
L 709.2 10.8 
L 10.8 10.8 
z
" style="fill: #ffffff"/>
   </g>
   <g id="matplotlib.axis_1"/>
   <g id="matplotlib.axis_2"/>
   <g id="LineCollection_1">
    <path d="M 10.8 63.72 
L 709.2 63.72 
" clip-path="url(#pbd9e1c7eb6)" style="fill: none; stroke: #000000; stroke-width: 3"/>
   </g>
   <g id="LineCollection_2">
    <path d="M 10.8 113.112 
L 709.2 113.112 
" clip-path="url(#pbd9e1c7eb6)" style="fill: none; stroke: #000000; stroke-width: 3"/>
   </g>
   <g id="LineCollection_3">
    <path d="M 10.8 162.504 
L 709.2 162.504 
" clip-path="url(#pbd9e1c7eb6)" style="fill: none; stroke: #000000; stroke-width: 3"/>
   </g>
   <g id="LineCollection_4">
    <path d="M 10.8 211.896 
L 709.2 211.896 
" clip-path="url(#pbd9e1c7eb6)" style="fill: none; stroke: #000000; stroke-width: 3"/>
   </g>
   <g id="LineCollection_5">
    <path d="M 10.8 261.288 
L 709.2 261.288 
" clip-path="url(#pbd9e1c7eb6)" style="fill: none; stroke: #000000; stroke-width: 3"/>
   </g>
   <g id="LineCollection_6">
    <path d="M 10.8 310.68 
L 709.2 310.68 
" clip-path="url(#pbd9e1c7eb6)" style="fill: none; stroke: #000000; stroke-width: 3"/>
   </g>
   <g id="LineCollection_7">
    <path d="M 10.8 83.124 
L 10.8 44.316 
" style="fill: none; stroke: #000000; stroke-width: 2"/>
    <path d="M 360 83.124 
L 360 44.316 
" style="fill: none; stroke: #000000; stroke-width: 2"/>
    <path d="M 709.2 83.124 
L 709.2 44.316 
" style="fill: none; stroke: #000000; stroke-width: 2"/>
   </g>
   <g id="LineCollection_8">
    <path d="M 10.8 132.516 
L 10.8 93.708 
" style="fill: none; stroke: #000000; stroke-width: 2"/>
    <path d="M 185.4 132.516 
L 185.4 93.708 
" style="fill: none; stroke: #000000; stroke-width: 2"/>
    <path d="M 360 132.516 
L 360 93.708 
" style="fill: none; stroke: #000000; stroke-width: 2"/>
    <path d="M 534.6 132.516 
L 534.6 93.708 
" style="fill: none; stroke: #000000; stroke-width: 2"/>
    <path d="M 709.2 132.516 
L 709.2 93.708 
" style="fill: none; stroke: #000000; stroke-width: 2"/>
   </g>
   <g id="LineCollection_9">
    <path d="M 10.8 181.908 
L 10.8 143.1 
" style="fill: none; stroke: #000000; stroke-width: 2"/>
    <path d="M 98.1 181.908 
L 98.1 143.1 
" style="fill: none; stroke: #000000; stroke-width: 2"/>
    <path d="M 185.4 181.908 
L 185.4 143.1 
" style="fill: none; stroke: #000000; stroke-width: 2"/>
    <path d="M 272.7 181.908 
L 272.7 143.1 
" style="fill: none; stroke: #000000; stroke-width: 2"/>
    <path d="M 360 181.908 
L 360 143.1 
" style="fill: none; stroke: #000000; stroke-width: 2"/>
    <path d="M 447.3 181.908 
L 447.3 143.1 
" style="fill: none; stroke: #000000; stroke-width: 2"/>
    <path d="M 534.6 181.908 
L 534.6 143.1 
" style="fill: none; stroke: #000000; stroke-width: 2"/>
    <path d="M 621.9 181.908 
L 621.9 143.1 
" style="fill: none; stroke: #000000; stroke-width: 2"/>
    <path d="M 709.2 181.908 
L 709.2 143.1 
" style="fill: none; stroke: #000000; stroke-width: 2"/>
   </g>
   <g id="LineCollection_10">
    <path d="M 10.8 231.3 
L 10.8 192.492 
" style="fill: none; stroke: #000000; stroke-width: 2"/>
    <path d="M 54.45 231.3 
L 54.45 192.492 
" style="fill: none; stroke: #000000; stroke-width: 2"/>
    <path d="M 98.1 231.3 
L 98.1 192.492 
" style="fill: none; stroke: #000000; stroke-width: 2"/>
    <path d="M 141.75 231.3 
L 141.75 192.492 
" style="fill: none; stroke: #000000; stroke-width: 2"/>
    <path d="M 185.4 231.3 
L 185.4 192.492 
" style="fill: none; stroke: #000000; stroke-width: 2"/>
    <path d="M 229.05 231.3 
L 229.05 192.492 
" style="fill: none; stroke: #000000; stroke-width: 2"/>
    <path d="M 272.7 231.3 
L 272.7 192.492 
" style="fill: none; stroke: #000000; stroke-width: 2"/>
    <path d="M 316.35 231.3 
L 316.35 192.492 
" style="fill: none; stroke: #000000; stroke-width: 2"/>
    <path d="M 360 231.3 
L 360 192.492 
" style="fill: none; stroke: #000000; stroke-width: 2"/>
    <path d="M 403.65 231.3 
L 403.65 192.492 
" style="fill: none; stroke: #000000; stroke-width: 2"/>
    <path d="M 447.3 231.3 
L 447.3 192.492 
" style="fill: none; stroke: #000000; stroke-width: 2"/>
    <path d="M 490.95 231.3 
L 490.95 192.492 
" style="fill: none; stroke: #000000; stroke-width: 2"/>
    <path d="M 534.6 231.3 
L 534.6 192.492 
" style="fill: none; stroke: #000000; stroke-width: 2"/>
    <path d="M 578.25 231.3 
L 578.25 192.492 
" style="fill: none; stroke: #000000; stroke-width: 2"/>
    <path d="M 621.9 231.3 
L 621.9 192.492 
" style="fill: none; stroke: #000000; stroke-width: 2"/>
    <path d="M 665.55 231.3 
L 665.55 192.492 
" style="fill: none; stroke: #000000; stroke-width: 2"/>
    <path d="M 709.2 231.3 
L 709.2 192.492 
" style="fill: none; stroke: #000000; stroke-width: 2"/>
   </g>
   <g id="LineCollection_11">
    <path d="M 10.8 280.692 
L 10.8 241.884 
" style="fill: none; stroke: #000000; stroke-width: 2"/>
    <path d="M 32.625 280.692 
L 32.625 241.884 
" style="fill: none; stroke: #000000; stroke-width: 2"/>
    <path d="M 54.45 280.692 
L 54.45 241.884 
" style="fill: none; stroke: #000000; stroke-width: 2"/>
    <path d="M 76.275 280.692 
L 76.275 241.884 
" style="fill: none; stroke: #000000; stroke-width: 2"/>
    <path d="M 98.1 280.692 
L 98.1 241.884 
" style="fill: none; stroke: #000000; stroke-width: 2"/>
    <path d="M 119.925 280.692 
L 119.925 241.884 
" style="fill: none; stroke: #000000; stroke-width: 2"/>
    <path d="M 141.75 280.692 
L 141.75 241.884 
" style="fill: none; stroke: #000000; stroke-width: 2"/>
    <path d="M 163.575 280.692 
L 163.575 241.884 
" style="fill: none; stroke: #000000; stroke-width: 2"/>
    <path d="M 185.4 280.692 
L 185.4 241.884 
" style="fill: none; stroke: #000000; stroke-width: 2"/>
    <path d="M 207.225 280.692 
L 207.225 241.884 
" style="fill: none; stroke: #000000; stroke-width: 2"/>
    <path d="M 229.05 280.692 
L 229.05 241.884 
" style="fill: none; stroke: #000000; stroke-width: 2"/>
    <path d="M 250.875 280.692 
L 250.875 241.884 
" style="fill: none; stroke: #000000; stroke-width: 2"/>
    <path d="M 272.7 280.692 
L 272.7 241.884 
" style="fill: none; stroke: #000000; stroke-width: 2"/>
    <path d="M 294.525 280.692 
L 294.525 241.884 
" style="fill: none; stroke: #000000; stroke-width: 2"/>
    <path d="M 316.35 280.692 
L 316.35 241.884 
" style="fill: none; stroke: #000000; stroke-width: 2"/>
    <path d="M 338.175 280.692 
L 338.175 241.884 
" style="fill: none; stroke: #000000; stroke-width: 2"/>
    <path d="M 360 280.692 
L 360 241.884 
" style="fill: none; stroke: #000000; stroke-width: 2"/>
    <path d="M 381.825 280.692 
L 381.825 241.884 
" style="fill: none; stroke: #000000; stroke-width: 2"/>
    <path d="M 403.65 280.692 
L 403.65 241.884 
" style="fill: none; stroke: #000000; stroke-width: 2"/>
    <path d="M 425.475 280.692 
L 425.475 241.884 
" style="fill: none; stroke: #000000; stroke-width: 2"/>
    <path d="M 447.3 280.692 
L 447.3 241.884 
" style="fill: none; stroke: #000000; stroke-width: 2"/>
    <path d="M 469.125 280.692 
L 469.125 241.884 
" style="fill: none; stroke: #000000; stroke-width: 2"/>
    <path d="M 490.95 280.692 
L 490.95 241.884 
" style="fill: none; stroke: #000000; stroke-width: 2"/>
    <path d="M 512.775 280.692 
L 512.775 241.884 
" style="fill: none; stroke: #000000; stroke-width: 2"/>
    <path d="M 534.6 280.692 
L 534.6 241.884 
" style="fill: none; stroke: #000000; stroke-width: 2"/>
    <path d="M 556.425 280.692 
L 556.425 241.884 
" style="fill: none; stroke: #000000; stroke-width: 2"/>
    <path d="M 578.25 280.692 
L 578.25 241.884 
" style="fill: none; stroke: #000000; stroke-width: 2"/>
    <path d="M 600.075 280.692 
L 600.075 241.884 
" style="fill: none; stroke: #000000; stroke-width: 2"/>
    <path d="M 621.9 280.692 
L 621.9 241.884 
" style="fill: none; stroke: #000000; stroke-width: 2"/>
    <path d="M 643.725 280.692 
L 643.725 241.884 
" style="fill: none; stroke: #000000; stroke-width: 2"/>
    <path d="M 665.55 280.692 
L 665.55 241.884 
" style="fill: none; stroke: #000000; stroke-width: 2"/>
    <path d="M 687.375 280.692 
L 687.375 241.884 
" style="fill: none; stroke: #000000; stroke-width: 2"/>
    <path d="M 709.2 280.692 
L 709.2 241.884 
" style="fill: none; stroke: #000000; stroke-width: 2"/>
   </g>
   <g id="LineCollection_12">
    <path d="M 10.8 330.084 
L 10.8 291.276 
" style="fill: none; stroke: #000000; stroke-width: 2"/>
    <path d="M 21.7125 330.084 
L 21.7125 291.276 
" style="fill: none; stroke: #000000; stroke-width: 2"/>
    <path d="M 32.625 330.084 
L 32.625 291.276 
" style="fill: none; stroke: #000000; stroke-width: 2"/>
    <path d="M 43.5375 330.084 
L 43.5375 291.276 
" style="fill: none; stroke: #000000; stroke-width: 2"/>
    <path d="M 54.45 330.084 
L 54.45 291.276 
" style="fill: none; stroke: #000000; stroke-width: 2"/>
    <path d="M 65.3625 330.084 
L 65.3625 291.276 
" style="fill: none; stroke: #000000; stroke-width: 2"/>
    <path d="M 76.275 330.084 
L 76.275 291.276 
" style="fill: none; stroke: #000000; stroke-width: 2"/>
    <path d="M 87.1875 330.084 
L 87.1875 291.276 
" style="fill: none; stroke: #000000; stroke-width: 2"/>
    <path d="M 98.1 330.084 
L 98.1 291.276 
" style="fill: none; stroke: #000000; stroke-width: 2"/>
    <path d="M 109.0125 330.084 
L 109.0125 291.276 
" style="fill: none; stroke: #000000; stroke-width: 2"/>
    <path d="M 119.925 330.084 
L 119.925 291.276 
" style="fill: none; stroke: #000000; stroke-width: 2"/>
    <path d="M 130.8375 330.084 
L 130.8375 291.276 
" style="fill: none; stroke: #000000; stroke-width: 2"/>
    <path d="M 141.75 330.084 
L 141.75 291.276 
" style="fill: none; stroke: #000000; stroke-width: 2"/>
    <path d="M 152.6625 330.084 
L 152.6625 291.276 
" style="fill: none; stroke: #000000; stroke-width: 2"/>
    <path d="M 163.575 330.084 
L 163.575 291.276 
" style="fill: none; stroke: #000000; stroke-width: 2"/>
    <path d="M 174.4875 330.084 
L 174.4875 291.276 
" style="fill: none; stroke: #000000; stroke-width: 2"/>
    <path d="M 185.4 330.084 
L 185.4 291.276 
" style="fill: none; stroke: #000000; stroke-width: 2"/>
    <path d="M 196.3125 330.084 
L 196.3125 291.276 
" style="fill: none; stroke: #000000; stroke-width: 2"/>
    <path d="M 207.225 330.084 
L 207.225 291.276 
" style="fill: none; stroke: #000000; stroke-width: 2"/>
    <path d="M 218.1375 330.084 
L 218.1375 291.276 
" style="fill: none; stroke: #000000; stroke-width: 2"/>
    <path d="M 229.05 330.084 
L 229.05 291.276 
" style="fill: none; stroke: #000000; stroke-width: 2"/>
    <path d="M 239.9625 330.084 
L 239.9625 291.276 
" style="fill: none; stroke: #000000; stroke-width: 2"/>
    <path d="M 250.875 330.084 
L 250.875 291.276 
" style="fill: none; stroke: #000000; stroke-width: 2"/>
    <path d="M 261.7875 330.084 
L 261.7875 291.276 
" style="fill: none; stroke: #000000; stroke-width: 2"/>
    <path d="M 272.7 330.084 
L 272.7 291.276 
" style="fill: none; stroke: #000000; stroke-width: 2"/>
    <path d="M 283.6125 330.084 
L 283.6125 291.276 
" style="fill: none; stroke: #000000; stroke-width: 2"/>
    <path d="M 294.525 330.084 
L 294.525 291.276 
" style="fill: none; stroke: #000000; stroke-width: 2"/>
    <path d="M 305.4375 330.084 
L 305.4375 291.276 
" style="fill: none; stroke: #000000; stroke-width: 2"/>
    <path d="M 316.35 330.084 
L 316.35 291.276 
" style="fill: none; stroke: #000000; stroke-width: 2"/>
    <path d="M 327.2625 330.084 
L 327.2625 291.276 
" style="fill: none; stroke: #000000; stroke-width: 2"/>
    <path d="M 338.175 330.084 
L 338.175 291.276 
" style="fill: none; stroke: #000000; stroke-width: 2"/>
    <path d="M 349.0875 330.084 
L 349.0875 291.276 
" style="fill: none; stroke: #000000; stroke-width: 2"/>
    <path d="M 360 330.084 
L 360 291.276 
" style="fill: none; stroke: #000000; stroke-width: 2"/>
    <path d="M 370.9125 330.084 
L 370.9125 291.276 
" style="fill: none; stroke: #000000; stroke-width: 2"/>
    <path d="M 381.825 330.084 
L 381.825 291.276 
" style="fill: none; stroke: #000000; stroke-width: 2"/>
    <path d="M 392.7375 330.084 
L 392.7375 291.276 
" style="fill: none; stroke: #000000; stroke-width: 2"/>
    <path d="M 403.65 330.084 
L 403.65 291.276 
" style="fill: none; stroke: #000000; stroke-width: 2"/>
    <path d="M 414.5625 330.084 
L 414.5625 291.276 
" style="fill: none; stroke: #000000; stroke-width: 2"/>
    <path d="M 425.475 330.084 
L 425.475 291.276 
" style="fill: none; stroke: #000000; stroke-width: 2"/>
    <path d="M 436.3875 330.084 
L 436.3875 291.276 
" style="fill: none; stroke: #000000; stroke-width: 2"/>
    <path d="M 447.3 330.084 
L 447.3 291.276 
" style="fill: none; stroke: #000000; stroke-width: 2"/>
    <path d="M 458.2125 330.084 
L 458.2125 291.276 
" style="fill: none; stroke: #000000; stroke-width: 2"/>
    <path d="M 469.125 330.084 
L 469.125 291.276 
" style="fill: none; stroke: #000000; stroke-width: 2"/>
    <path d="M 480.0375 330.084 
L 480.0375 291.276 
" style="fill: none; stroke: #000000; stroke-width: 2"/>
    <path d="M 490.95 330.084 
L 490.95 291.276 
" style="fill: none; stroke: #000000; stroke-width: 2"/>
    <path d="M 501.8625 330.084 
L 501.8625 291.276 
" style="fill: none; stroke: #000000; stroke-width: 2"/>
    <path d="M 512.775 330.084 
L 512.775 291.276 
" style="fill: none; stroke: #000000; stroke-width: 2"/>
    <path d="M 523.6875 330.084 
L 523.6875 291.276 
" style="fill: none; stroke: #000000; stroke-width: 2"/>
    <path d="M 534.6 330.084 
L 534.6 291.276 
" style="fill: none; stroke: #000000; stroke-width: 2"/>
    <path d="M 545.5125 330.084 
L 545.5125 291.276 
" style="fill: none; stroke: #000000; stroke-width: 2"/>
    <path d="M 556.425 330.084 
L 556.425 291.276 
" style="fill: none; stroke: #000000; stroke-width: 2"/>
    <path d="M 567.3375 330.084 
L 567.3375 291.276 
" style="fill: none; stroke: #000000; stroke-width: 2"/>
    <path d="M 578.25 330.084 
L 578.25 291.276 
" style="fill: none; stroke: #000000; stroke-width: 2"/>
    <path d="M 589.1625 330.084 
L 589.1625 291.276 
" style="fill: none; stroke: #000000; stroke-width: 2"/>
    <path d="M 600.075 330.084 
L 600.075 291.276 
" style="fill: none; stroke: #000000; stroke-width: 2"/>
    <path d="M 610.9875 330.084 
L 610.9875 291.276 
" style="fill: none; stroke: #000000; stroke-width: 2"/>
    <path d="M 621.9 330.084 
L 621.9 291.276 
" style="fill: none; stroke: #000000; stroke-width: 2"/>
    <path d="M 632.8125 330.084 
L 632.8125 291.276 
" style="fill: none; stroke: #000000; stroke-width: 2"/>
    <path d="M 643.725 330.084 
L 643.725 291.276 
" style="fill: none; stroke: #000000; stroke-width: 2"/>
    <path d="M 654.6375 330.084 
L 654.6375 291.276 
" style="fill: none; stroke: #000000; stroke-width: 2"/>
    <path d="M 665.55 330.084 
L 665.55 291.276 
" style="fill: none; stroke: #000000; stroke-width: 2"/>
    <path d="M 676.4625 330.084 
L 676.4625 291.276 
" style="fill: none; stroke: #000000; stroke-width: 2"/>
    <path d="M 687.375 330.084 
L 687.375 291.276 
" style="fill: none; stroke: #000000; stroke-width: 2"/>
    <path d="M 698.2875 330.084 
L 698.2875 291.276 
" style="fill: none; stroke: #000000; stroke-width: 2"/>
    <path d="M 709.2 330.084 
L 709.2 291.276 
" style="fill: none; stroke: #000000; stroke-width: 2"/>
   </g>
   <g id="text_1">
    <!-- 0 -->
    <g transform="translate(175.85625 48.660938) scale(0.3 -0.3)">
     <defs>
      <path id="DejaVuSans-30" d="M 2034 4250 
Q 1547 4250 1301 3770 
Q 1056 3291 1056 2328 
Q 1056 1369 1301 889 
Q 1547 409 2034 409 
Q 2525 409 2770 889 
Q 3016 1369 3016 2328 
Q 3016 3291 2770 3770 
Q 2525 4250 2034 4250 
z
M 2034 4750 
Q 2819 4750 3233 4129 
Q 3647 3509 3647 2328 
Q 3647 1150 3233 529 
Q 2819 -91 2034 -91 
Q 1250 -91 836 529 
Q 422 1150 422 2328 
Q 422 3509 836 4129 
Q 1250 4750 2034 4750 
z
" transform="scale(0.015625)"/>
     </defs>
     <use xlink:href="#DejaVuSans-30"/>
    </g>
   </g>
   <g id="text_2">
    <!-- 1 -->
    <g transform="translate(525.05625 48.660938) scale(0.3 -0.3)">
     <defs>
      <path id="DejaVuSans-31" d="M 794 531 
L 1825 531 
L 1825 4091 
L 703 3866 
L 703 4441 
L 1819 4666 
L 2450 4666 
L 2450 531 
L 3481 531 
L 3481 0 
L 794 0 
L 794 531 
z
" transform="scale(0.015625)"/>
     </defs>
     <use xlink:href="#DejaVuSans-31"/>
    </g>
   </g>
   <g id="text_3">
    <!-- 00 -->
    <g transform="translate(79.0125 98.052938) scale(0.3 -0.3)">
     <use xlink:href="#DejaVuSans-30"/>
     <use xlink:href="#DejaVuSans-30" transform="translate(63.623047 0)"/>
    </g>
   </g>
   <g id="text_4">
    <!-- 01 -->
    <g transform="translate(253.6125 98.052938) scale(0.3 -0.3)">
     <use xlink:href="#DejaVuSans-30"/>
     <use xlink:href="#DejaVuSans-31" transform="translate(63.623047 0)"/>
    </g>
   </g>
   <g id="text_5">
    <!-- 10 -->
    <g transform="translate(428.2125 98.052938) scale(0.3 -0.3)">
     <use xlink:href="#DejaVuSans-31"/>
     <use xlink:href="#DejaVuSans-30" transform="translate(63.623047 0)"/>
    </g>
   </g>
   <g id="text_6">
    <!-- 11 -->
    <g transform="translate(602.8125 98.052938) scale(0.3 -0.3)">
     <use xlink:href="#DejaVuSans-31"/>
     <use xlink:href="#DejaVuSans-31" transform="translate(63.623047 0)"/>
    </g>
   </g>
   <g id="text_7">
    <!-- 000 -->
    <g transform="translate(25.81875 147.444937) scale(0.3 -0.3)">
     <use xlink:href="#DejaVuSans-30"/>
     <use xlink:href="#DejaVuSans-30" transform="translate(63.623047 0)"/>
     <use xlink:href="#DejaVuSans-30" transform="translate(127.246094 0)"/>
    </g>
   </g>
   <g id="text_8">
    <!-- 001 -->
    <g transform="translate(113.11875 147.444937) scale(0.3 -0.3)">
     <use xlink:href="#DejaVuSans-30"/>
     <use xlink:href="#DejaVuSans-30" transform="translate(63.623047 0)"/>
     <use xlink:href="#DejaVuSans-31" transform="translate(127.246094 0)"/>
    </g>
   </g>
   <g id="text_9">
    <!-- 010 -->
    <g transform="translate(200.41875 147.444937) scale(0.3 -0.3)">
     <use xlink:href="#DejaVuSans-30"/>
     <use xlink:href="#DejaVuSans-31" transform="translate(63.623047 0)"/>
     <use xlink:href="#DejaVuSans-30" transform="translate(127.246094 0)"/>
    </g>
   </g>
   <g id="text_10">
    <!-- 011 -->
    <g transform="translate(287.71875 147.444937) scale(0.3 -0.3)">
     <use xlink:href="#DejaVuSans-30"/>
     <use xlink:href="#DejaVuSans-31" transform="translate(63.623047 0)"/>
     <use xlink:href="#DejaVuSans-31" transform="translate(127.246094 0)"/>
    </g>
   </g>
   <g id="text_11">
    <!-- 100 -->
    <g transform="translate(375.01875 147.444937) scale(0.3 -0.3)">
     <use xlink:href="#DejaVuSans-31"/>
     <use xlink:href="#DejaVuSans-30" transform="translate(63.623047 0)"/>
     <use xlink:href="#DejaVuSans-30" transform="translate(127.246094 0)"/>
    </g>
   </g>
   <g id="text_12">
    <!-- 101 -->
    <g transform="translate(462.31875 147.444937) scale(0.3 -0.3)">
     <use xlink:href="#DejaVuSans-31"/>
     <use xlink:href="#DejaVuSans-30" transform="translate(63.623047 0)"/>
     <use xlink:href="#DejaVuSans-31" transform="translate(127.246094 0)"/>
    </g>
   </g>
   <g id="text_13">
    <!-- 110 -->
    <g transform="translate(549.61875 147.444937) scale(0.3 -0.3)">
     <use xlink:href="#DejaVuSans-31"/>
     <use xlink:href="#DejaVuSans-31" transform="translate(63.623047 0)"/>
     <use xlink:href="#DejaVuSans-30" transform="translate(127.246094 0)"/>
    </g>
   </g>
   <g id="text_14">
    <!-- 111 -->
    <g transform="translate(636.91875 147.444937) scale(0.3 -0.3)">
     <use xlink:href="#DejaVuSans-31"/>
     <use xlink:href="#DejaVuSans-31" transform="translate(63.623047 0)"/>
     <use xlink:href="#DejaVuSans-31" transform="translate(127.246094 0)"/>
    </g>
   </g>
  </g>
 </g>
 <defs>
  <clipPath id="pbd9e1c7eb6">
   <rect x="10.8" y="10.8" width="698.4" height="352.8"/>
  </clipPath>
 </defs>
</svg>
