<?xml version="1.0" encoding="utf-8" standalone="no"?>
<!DOCTYPE svg PUBLIC "-//W3C//DTD SVG 1.1//EN"
  "http://www.w3.org/Graphics/SVG/1.1/DTD/svg11.dtd">
<svg xmlns:xlink="http://www.w3.org/1999/xlink" width="720pt" height="273.6pt" viewBox="0 0 720 273.6" xmlns="http://www.w3.org/2000/svg" version="1.1">
 <metadata>
  <rdf:RDF xmlns:dc="http://purl.org/dc/elements/1.1/" xmlns:cc="http://creativecommons.org/ns#" xmlns:rdf="http://www.w3.org/1999/02/22-rdf-syntax-ns#">
   <cc:Work>
    <dc:type rdf:resource="http://purl.org/dc/dcmitype/StillImage"/>
    <dc:date>2025-10-13T11:39:08.057323</dc:date>
    <dc:format>image/svg+xml</dc:format>
    <dc:creator>
     <cc:Agent>
      <dc:title>Matplotlib v3.10.0, https://matplotlib.org/</dc:title>
     </cc:Agent>
    </dc:creator>
   </cc:Work>
  </rdf:RDF>
 </metadata>
 <defs>
  <style type="text/css">*{stroke-linejoin: round; stroke-linecap: butt}</style>
 </defs>
 <g id="figure_1">
  <g id="patch_1">
   <path d="M 0 273.6 
L 720 273.6 
L 720 0 
L 0 0 
z
" style="fill: #ffffff"/>
  </g>
  <g id="axes_1">
   <g id="patch_2">
    <path d="M 10.8 262.8 
L 709.2 262.8 
L 709.2 12.11328 
L 10.8 12.11328 
z
" style="fill: #ffffff"/>
   </g>
   <g id="matplotlib.axis_1"/>
   <g id="matplotlib.axis_2"/>
   <g id="LineCollection_1">
    <path d="M 10.8 43.778971 
L 709.2 43.778971 
" clip-path="url(#pf1b8089adf)" style="fill: none; stroke: #000000; stroke-width: 3"/>
   </g>
   <g id="LineCollection_2">
    <path d="M 10.8 107.110353 
L 709.2 107.110353 
" clip-path="url(#pf1b8089adf)" style="fill: none; stroke: #000000; stroke-width: 3"/>
   </g>
   <g id="LineCollection_3">
    <path d="M 10.8 170.441735 
L 709.2 170.441735 
" clip-path="url(#pf1b8089adf)" style="fill: none; stroke: #000000; stroke-width: 3"/>
   </g>
   <g id="LineCollection_4">
    <path d="M 10.8 57.50077 
L 10.8 30.057172 
" style="fill: none; stroke: #000000; stroke-width: 2"/>
    <path d="M 360 57.50077 
L 360 30.057172 
" style="fill: none; stroke: #000000; stroke-width: 2"/>
    <path d="M 709.2 57.50077 
L 709.2 30.057172 
" style="fill: none; stroke: #000000; stroke-width: 2"/>
   </g>
   <g id="LineCollection_5">
    <path d="M 10.8 120.832152 
L 10.8 93.388553 
" style="fill: none; stroke: #000000; stroke-width: 2"/>
    <path d="M 185.4 120.832152 
L 185.4 93.388553 
" style="fill: none; stroke: #000000; stroke-width: 2"/>
    <path d="M 360 120.832152 
L 360 93.388553 
" style="fill: none; stroke: #000000; stroke-width: 2"/>
    <path d="M 534.6 120.832152 
L 534.6 93.388553 
" style="fill: none; stroke: #000000; stroke-width: 2"/>
    <path d="M 709.2 120.832152 
L 709.2 93.388553 
" style="fill: none; stroke: #000000; stroke-width: 2"/>
   </g>
   <g id="LineCollection_6">
    <path d="M 10.8 184.163534 
L 10.8 156.719935 
" style="fill: none; stroke: #000000; stroke-width: 2"/>
    <path d="M 98.1 184.163534 
L 98.1 156.719935 
" style="fill: none; stroke: #000000; stroke-width: 2"/>
    <path d="M 185.4 184.163534 
L 185.4 156.719935 
" style="fill: none; stroke: #000000; stroke-width: 2"/>
    <path d="M 272.7 184.163534 
L 272.7 156.719935 
" style="fill: none; stroke: #000000; stroke-width: 2"/>
    <path d="M 360 184.163534 
L 360 156.719935 
" style="fill: none; stroke: #000000; stroke-width: 2"/>
    <path d="M 447.3 184.163534 
L 447.3 156.719935 
" style="fill: none; stroke: #000000; stroke-width: 2"/>
    <path d="M 534.6 184.163534 
L 534.6 156.719935 
" style="fill: none; stroke: #000000; stroke-width: 2"/>
    <path d="M 621.9 184.163534 
L 621.9 156.719935 
" style="fill: none; stroke: #000000; stroke-width: 2"/>
    <path d="M 709.2 184.163534 
L 709.2 156.719935 
" style="fill: none; stroke: #000000; stroke-width: 2"/>
   </g>
   <g id="patch_3">
    <path d="M 10.8 254.355816 
L 70.72272 254.355816 
L 70.72272 213.190418 
L 10.8 213.190418 
L 10.8 254.355816 
z
" style="fill: none; stroke: #000000; stroke-width: 2; stroke-linejoin: miter"/>
   </g>
   <g id="patch_4">
    <path d="M 70.72272 254.355816 
L 80.15112 254.355816 
L 80.15112 213.190418 
L 70.72272 213.190418 
L 70.72272 254.355816 
z
" style="fill: none; stroke: #000000; stroke-width: 2; stroke-linejoin: miter"/>
   </g>
   <g id="patch_5">
    <path d="M 80.15112 254.355816 
L 102.22056 254.355816 
L 102.22056 213.190418 
L 80.15112 213.190418 
L 80.15112 254.355816 
z
" style="fill: none; stroke: #000000; stroke-width: 2; stroke-linejoin: miter"/>
   </g>
   <g id="patch_6">
    <path d="M 102.22056 254.355816 
L 127.0836 254.355816 
L 127.0836 213.190418 
L 102.22056 213.190418 
L 102.22056 254.355816 
z
" style="fill: none; stroke: #000000; stroke-width: 2; stroke-linejoin: miter"/>
   </g>
   <g id="patch_7">
    <path d="M 127.0836 254.355816 
L 210.68208 254.355816 
L 210.68208 213.190418 
L 127.0836 213.190418 
L 127.0836 254.355816 
z
" style="fill: none; stroke: #000000; stroke-width: 2; stroke-linejoin: miter"/>
   </g>
   <g id="patch_8">
    <path d="M 210.68208 254.355816 
L 224.58024 254.355816 
L 224.58024 213.190418 
L 210.68208 213.190418 
L 210.68208 254.355816 
z
" style="fill: none; stroke: #000000; stroke-width: 2; stroke-linejoin: miter"/>
   </g>
   <g id="patch_9">
    <path d="M 224.58024 254.355816 
L 239.8752 254.355816 
L 239.8752 213.190418 
L 224.58024 213.190418 
L 224.58024 254.355816 
z
" style="fill: none; stroke: #000000; stroke-width: 2; stroke-linejoin: miter"/>
   </g>
   <g id="patch_10">
    <path d="M 239.8752 254.355816 
L 268.23024 254.355816 
L 268.23024 213.190418 
L 239.8752 213.190418 
L 239.8752 254.355816 
z
" style="fill: none; stroke: #000000; stroke-width: 2; stroke-linejoin: miter"/>
   </g>
   <g id="patch_11">
    <path d="M 268.23024 254.355816 
L 322.42608 254.355816 
L 322.42608 213.190418 
L 268.23024 213.190418 
L 268.23024 254.355816 
z
" style="fill: none; stroke: #000000; stroke-width: 2; stroke-linejoin: miter"/>
   </g>
   <g id="patch_12">
    <path d="M 322.42608 254.355816 
L 323.26416 254.355816 
L 323.26416 213.190418 
L 322.42608 213.190418 
L 322.42608 254.355816 
z
" style="fill: none; stroke: #000000; stroke-width: 2; stroke-linejoin: miter"/>
   </g>
   <g id="patch_13">
    <path d="M 323.26416 254.355816 
L 327.73392 254.355816 
L 327.73392 213.190418 
L 323.26416 213.190418 
L 323.26416 254.355816 
z
" style="fill: none; stroke: #000000; stroke-width: 2; stroke-linejoin: miter"/>
   </g>
   <g id="patch_14">
    <path d="M 327.73392 254.355816 
L 358.53336 254.355816 
L 358.53336 213.190418 
L 327.73392 213.190418 
L 327.73392 254.355816 
z
" style="fill: none; stroke: #000000; stroke-width: 2; stroke-linejoin: miter"/>
   </g>
   <g id="patch_15">
    <path d="M 358.53336 254.355816 
L 379.76472 254.355816 
L 379.76472 213.190418 
L 358.53336 213.190418 
L 358.53336 254.355816 
z
" style="fill: none; stroke: #000000; stroke-width: 2; stroke-linejoin: miter"/>
   </g>
   <g id="patch_16">
    <path d="M 379.76472 254.355816 
L 429.70032 254.355816 
L 429.70032 213.190418 
L 379.76472 213.190418 
L 379.76472 254.355816 
z
" style="fill: none; stroke: #000000; stroke-width: 2; stroke-linejoin: miter"/>
   </g>
   <g id="patch_17">
    <path d="M 429.70032 254.355816 
L 483.33744 254.355816 
L 483.33744 213.190418 
L 429.70032 213.190418 
L 429.70032 254.355816 
z
" style="fill: none; stroke: #000000; stroke-width: 2; stroke-linejoin: miter"/>
   </g>
   <g id="patch_18">
    <path d="M 483.33744 254.355816 
L 500.09904 254.355816 
L 500.09904 213.190418 
L 483.33744 213.190418 
L 483.33744 254.355816 
z
" style="fill: none; stroke: #000000; stroke-width: 2; stroke-linejoin: miter"/>
   </g>
   <g id="patch_19">
    <path d="M 500.09904 254.355816 
L 502.8228 254.355816 
L 502.8228 213.190418 
L 500.09904 213.190418 
L 500.09904 254.355816 
z
" style="fill: none; stroke: #000000; stroke-width: 2; stroke-linejoin: miter"/>
   </g>
   <g id="patch_20">
    <path d="M 502.8228 254.355816 
L 549.75528 254.355816 
L 549.75528 213.190418 
L 502.8228 213.190418 
L 502.8228 254.355816 
z
" style="fill: none; stroke: #000000; stroke-width: 2; stroke-linejoin: miter"/>
   </g>
   <g id="patch_21">
    <path d="M 549.75528 254.355816 
L 594.03384 254.355816 
L 594.03384 213.190418 
L 549.75528 213.190418 
L 549.75528 254.355816 
z
" style="fill: none; stroke: #000000; stroke-width: 2; stroke-linejoin: miter"/>
   </g>
   <g id="patch_22">
    <path d="M 594.03384 254.355816 
L 656.40096 254.355816 
L 656.40096 213.190418 
L 594.03384 213.190418 
L 594.03384 254.355816 
z
" style="fill: none; stroke: #000000; stroke-width: 2; stroke-linejoin: miter"/>
   </g>
   <g id="patch_23">
    <path d="M 656.40096 254.355816 
L 677.91168 254.355816 
L 677.91168 213.190418 
L 656.40096 213.190418 
L 656.40096 254.355816 
z
" style="fill: none; stroke: #000000; stroke-width: 2; stroke-linejoin: miter"/>
   </g>
   <g id="patch_24">
    <path d="M 677.91168 254.355816 
L 685.4544 254.355816 
L 685.4544 213.190418 
L 677.91168 213.190418 
L 677.91168 254.355816 
z
" style="fill: none; stroke: #000000; stroke-width: 2; stroke-linejoin: miter"/>
   </g>
   <g id="patch_25">
    <path d="M 685.4544 254.355816 
L 694.8828 254.355816 
L 694.8828 213.190418 
L 685.4544 213.190418 
L 685.4544 254.355816 
z
" style="fill: none; stroke: #000000; stroke-width: 2; stroke-linejoin: miter"/>
   </g>
   <g id="patch_26">
    <path d="M 694.8828 254.355816 
L 697.3272 254.355816 
L 697.3272 213.190418 
L 694.8828 213.190418 
L 694.8828 254.355816 
z
" style="fill: none; stroke: #000000; stroke-width: 2; stroke-linejoin: miter"/>
   </g>
   <g id="patch_27">
    <path d="M 697.3272 254.355816 
L 708.22224 254.355816 
L 708.22224 213.190418 
L 697.3272 213.190418 
L 697.3272 254.355816 
z
" style="fill: none; stroke: #000000; stroke-width: 2; stroke-linejoin: miter"/>
   </g>
   <g id="patch_28">
    <path d="M 708.22224 254.355816 
L 709.2 254.355816 
L 709.2 213.190418 
L 708.22224 213.190418 
L 708.22224 254.355816 
z
" style="fill: none; stroke: #000000; stroke-width: 2; stroke-linejoin: miter"/>
   </g>
   <g id="text_1">
    <!-- 0 -->
    <g transform="translate(179.991875 27.577226) scale(0.17 -0.17)">
     <defs>
      <path id="DejaVuSans-30" d="M 2034 4250 
Q 1547 4250 1301 3770 
Q 1056 3291 1056 2328 
Q 1056 1369 1301 889 
Q 1547 409 2034 409 
Q 2525 409 2770 889 
Q 3016 1369 3016 2328 
Q 3016 3291 2770 3770 
Q 2525 4250 2034 4250 
z
M 2034 4750 
Q 2819 4750 3233 4129 
Q 3647 3509 3647 2328 
Q 3647 1150 3233 529 
Q 2819 -91 2034 -91 
Q 1250 -91 836 529 
Q 422 1150 422 2328 
Q 422 3509 836 4129 
Q 1250 4750 2034 4750 
z
" transform="scale(0.015625)"/>
     </defs>
     <use xlink:href="#DejaVuSans-30"/>
    </g>
   </g>
   <g id="text_2">
    <!-- 1 -->
    <g transform="translate(529.191875 27.577226) scale(0.17 -0.17)">
     <defs>
      <path id="DejaVuSans-31" d="M 794 531 
L 1825 531 
L 1825 4091 
L 703 3866 
L 703 4441 
L 1819 4666 
L 2450 4666 
L 2450 531 
L 3481 531 
L 3481 0 
L 794 0 
L 794 531 
z
" transform="scale(0.015625)"/>
     </defs>
     <use xlink:href="#DejaVuSans-31"/>
    </g>
   </g>
   <g id="text_3">
    <!-- 00 -->
    <g transform="translate(87.28375 90.908608) scale(0.17 -0.17)">
     <use xlink:href="#DejaVuSans-30"/>
     <use xlink:href="#DejaVuSans-30" transform="translate(63.623047 0)"/>
    </g>
   </g>
   <g id="text_4">
    <!-- 01 -->
    <g transform="translate(261.88375 90.908608) scale(0.17 -0.17)">
     <use xlink:href="#DejaVuSans-30"/>
     <use xlink:href="#DejaVuSans-31" transform="translate(63.623047 0)"/>
    </g>
   </g>
   <g id="text_5">
    <!-- 10 -->
    <g transform="translate(436.48375 90.908608) scale(0.17 -0.17)">
     <use xlink:href="#DejaVuSans-31"/>
     <use xlink:href="#DejaVuSans-30" transform="translate(63.623047 0)"/>
    </g>
   </g>
   <g id="text_6">
    <!-- 11 -->
    <g transform="translate(611.08375 90.908608) scale(0.17 -0.17)">
     <use xlink:href="#DejaVuSans-31"/>
     <use xlink:href="#DejaVuSans-31" transform="translate(63.623047 0)"/>
    </g>
   </g>
   <g id="text_7">
    <!-- 000 -->
    <g transform="translate(38.225625 154.23999) scale(0.17 -0.17)">
     <use xlink:href="#DejaVuSans-30"/>
     <use xlink:href="#DejaVuSans-30" transform="translate(63.623047 0)"/>
     <use xlink:href="#DejaVuSans-30" transform="translate(127.246094 0)"/>
    </g>
   </g>
   <g id="text_8">
    <!-- 001 -->
    <g transform="translate(125.525625 154.23999) scale(0.17 -0.17)">
     <use xlink:href="#DejaVuSans-30"/>
     <use xlink:href="#DejaVuSans-30" transform="translate(63.623047 0)"/>
     <use xlink:href="#DejaVuSans-31" transform="translate(127.246094 0)"/>
    </g>
   </g>
   <g id="text_9">
    <!-- 010 -->
    <g transform="translate(212.825625 154.23999) scale(0.17 -0.17)">
     <use xlink:href="#DejaVuSans-30"/>
     <use xlink:href="#DejaVuSans-31" transform="translate(63.623047 0)"/>
     <use xlink:href="#DejaVuSans-30" transform="translate(127.246094 0)"/>
    </g>
   </g>
   <g id="text_10">
    <!-- 011 -->
    <g transform="translate(300.125625 154.23999) scale(0.17 -0.17)">
     <use xlink:href="#DejaVuSans-30"/>
     <use xlink:href="#DejaVuSans-31" transform="translate(63.623047 0)"/>
     <use xlink:href="#DejaVuSans-31" transform="translate(127.246094 0)"/>
    </g>
   </g>
   <g id="text_11">
    <!-- 100 -->
    <g transform="translate(387.425625 154.23999) scale(0.17 -0.17)">
     <use xlink:href="#DejaVuSans-31"/>
     <use xlink:href="#DejaVuSans-30" transform="translate(63.623047 0)"/>
     <use xlink:href="#DejaVuSans-30" transform="translate(127.246094 0)"/>
    </g>
   </g>
   <g id="text_12">
    <!-- 101 -->
    <g transform="translate(474.725625 154.23999) scale(0.17 -0.17)">
     <use xlink:href="#DejaVuSans-31"/>
     <use xlink:href="#DejaVuSans-30" transform="translate(63.623047 0)"/>
     <use xlink:href="#DejaVuSans-31" transform="translate(127.246094 0)"/>
    </g>
   </g>
   <g id="text_13">
    <!-- 110 -->
    <g transform="translate(562.025625 154.23999) scale(0.17 -0.17)">
     <use xlink:href="#DejaVuSans-31"/>
     <use xlink:href="#DejaVuSans-31" transform="translate(63.623047 0)"/>
     <use xlink:href="#DejaVuSans-30" transform="translate(127.246094 0)"/>
    </g>
   </g>
   <g id="text_14">
    <!-- 111 -->
    <g transform="translate(649.325625 154.23999) scale(0.17 -0.17)">
     <use xlink:href="#DejaVuSans-31"/>
     <use xlink:href="#DejaVuSans-31" transform="translate(63.623047 0)"/>
     <use xlink:href="#DejaVuSans-31" transform="translate(127.246094 0)"/>
    </g>
   </g>
   <g id="text_15">
    <!-- A -->
    <g transform="translate(34.946829 238.464054) scale(0.17 -0.17)">
     <defs>
      <path id="DejaVuSans-41" d="M 2188 4044 
L 1331 1722 
L 3047 1722 
L 2188 4044 
z
M 1831 4666 
L 2547 4666 
L 4325 0 
L 3669 0 
L 3244 1197 
L 1141 1197 
L 716 0 
L 50 0 
L 1831 4666 
z
" transform="scale(0.015625)"/>
     </defs>
     <use xlink:href="#DejaVuSans-41"/>
    </g>
   </g>
   <g id="text_16">
    <!-- C -->
    <g transform="translate(85.250449 238.464054) scale(0.17 -0.17)">
     <defs>
      <path id="DejaVuSans-43" d="M 4122 4306 
L 4122 3641 
Q 3803 3938 3442 4084 
Q 3081 4231 2675 4231 
Q 1875 4231 1450 3742 
Q 1025 3253 1025 2328 
Q 1025 1406 1450 917 
Q 1875 428 2675 428 
Q 3081 428 3442 575 
Q 3803 722 4122 1019 
L 4122 359 
Q 3791 134 3420 21 
Q 3050 -91 2638 -91 
Q 1578 -91 968 557 
Q 359 1206 359 2328 
Q 359 3453 968 4101 
Q 1578 4750 2638 4750 
Q 3056 4750 3426 4639 
Q 3797 4528 4122 4306 
z
" transform="scale(0.015625)"/>
     </defs>
     <use xlink:href="#DejaVuSans-43"/>
    </g>
   </g>
   <g id="text_17">
    <!-- D -->
    <g transform="translate(108.10708 238.464054) scale(0.17 -0.17)">
     <defs>
      <path id="DejaVuSans-44" d="M 1259 4147 
L 1259 519 
L 2022 519 
Q 2988 519 3436 956 
Q 3884 1394 3884 2338 
Q 3884 3275 3436 3711 
Q 2988 4147 2022 4147 
L 1259 4147 
z
M 628 4666 
L 1925 4666 
Q 3281 4666 3915 4102 
Q 4550 3538 4550 2338 
Q 4550 1131 3912 565 
Q 3275 0 1925 0 
L 628 0 
L 628 4666 
z
" transform="scale(0.015625)"/>
     </defs>
     <use xlink:href="#DejaVuSans-44"/>
    </g>
   </g>
   <g id="text_18">
    <!-- E -->
    <g transform="translate(163.511903 238.464054) scale(0.17 -0.17)">
     <defs>
      <path id="DejaVuSans-45" d="M 628 4666 
L 3578 4666 
L 3578 4134 
L 1259 4134 
L 1259 2753 
L 3481 2753 
L 3481 2222 
L 1259 2222 
L 1259 531 
L 3634 531 
L 3634 0 
L 628 0 
L 628 4666 
z
" transform="scale(0.015625)"/>
     </defs>
     <use xlink:href="#DejaVuSans-45"/>
    </g>
   </g>
   <g id="text_19">
    <!-- H -->
    <g transform="translate(247.660454 238.464054) scale(0.17 -0.17)">
     <defs>
      <path id="DejaVuSans-48" d="M 628 4666 
L 1259 4666 
L 1259 2753 
L 3553 2753 
L 3553 4666 
L 4184 4666 
L 4184 0 
L 3553 0 
L 3553 2222 
L 1259 2222 
L 1259 0 
L 628 0 
L 628 4666 
z
" transform="scale(0.015625)"/>
     </defs>
     <use xlink:href="#DejaVuSans-48"/>
    </g>
   </g>
   <g id="text_20">
    <!-- I -->
    <g transform="translate(292.82066 238.464054) scale(0.17 -0.17)">
     <defs>
      <path id="DejaVuSans-49" d="M 628 4666 
L 1259 4666 
L 1259 0 
L 628 0 
L 628 4666 
z
" transform="scale(0.015625)"/>
     </defs>
     <use xlink:href="#DejaVuSans-49"/>
    </g>
   </g>
   <g id="text_21">
    <!-- L -->
    <g transform="translate(338.397546 238.464054) scale(0.17 -0.17)">
     <defs>
      <path id="DejaVuSans-4c" d="M 628 4666 
L 1259 4666 
L 1259 531 
L 3531 531 
L 3531 0 
L 628 0 
L 628 4666 
z
" transform="scale(0.015625)"/>
     </defs>
     <use xlink:href="#DejaVuSans-4c"/>
    </g>
   </g>
   <g id="text_22">
    <!-- M -->
    <g transform="translate(361.815134 238.464054) scale(0.17 -0.17)">
     <defs>
      <path id="DejaVuSans-4d" d="M 628 4666 
L 1569 4666 
L 2759 1491 
L 3956 4666 
L 4897 4666 
L 4897 0 
L 4281 0 
L 4281 4097 
L 3078 897 
L 2444 897 
L 1241 4097 
L 1241 0 
L 628 0 
L 628 4666 
z
" transform="scale(0.015625)"/>
     </defs>
     <use xlink:href="#DejaVuSans-4d"/>
    </g>
   </g>
   <g id="text_23">
    <!-- N -->
    <g transform="translate(398.373458 238.464054) scale(0.17 -0.17)">
     <defs>
      <path id="DejaVuSans-4e" d="M 628 4666 
L 1478 4666 
L 3547 763 
L 3547 4666 
L 4159 4666 
L 4159 0 
L 3309 0 
L 1241 3903 
L 1241 0 
L 628 0 
L 628 4666 
z
" transform="scale(0.015625)"/>
     </defs>
     <use xlink:href="#DejaVuSans-4e"/>
    </g>
   </g>
   <g id="text_24">
    <!-- O -->
    <g transform="translate(449.827786 238.464054) scale(0.17 -0.17)">
     <defs>
      <path id="DejaVuSans-4f" d="M 2522 4238 
Q 1834 4238 1429 3725 
Q 1025 3213 1025 2328 
Q 1025 1447 1429 934 
Q 1834 422 2522 422 
Q 3209 422 3611 934 
Q 4013 1447 4013 2328 
Q 4013 3213 3611 3725 
Q 3209 4238 2522 4238 
z
M 2522 4750 
Q 3503 4750 4090 4092 
Q 4678 3434 4678 2328 
Q 4678 1225 4090 567 
Q 3503 -91 2522 -91 
Q 1538 -91 948 565 
Q 359 1222 359 2328 
Q 359 3434 948 4092 
Q 1538 4750 2522 4750 
z
" transform="scale(0.015625)"/>
     </defs>
     <use xlink:href="#DejaVuSans-4f"/>
    </g>
   </g>
   <g id="text_25">
    <!-- R -->
    <g transform="translate(520.382868 238.464054) scale(0.17 -0.17)">
     <defs>
      <path id="DejaVuSans-52" d="M 2841 2188 
Q 3044 2119 3236 1894 
Q 3428 1669 3622 1275 
L 4263 0 
L 3584 0 
L 2988 1197 
Q 2756 1666 2539 1819 
Q 2322 1972 1947 1972 
L 1259 1972 
L 1259 0 
L 628 0 
L 628 4666 
L 2053 4666 
Q 2853 4666 3247 4331 
Q 3641 3997 3641 3322 
Q 3641 2881 3436 2590 
Q 3231 2300 2841 2188 
z
M 1259 4147 
L 1259 2491 
L 2053 2491 
Q 2509 2491 2742 2702 
Q 2975 2913 2975 3322 
Q 2975 3731 2742 3939 
Q 2509 4147 2053 4147 
L 1259 4147 
z
" transform="scale(0.015625)"/>
     </defs>
     <use xlink:href="#DejaVuSans-52"/>
    </g>
   </g>
   <g id="text_26">
    <!-- S -->
    <g transform="translate(566.498388 238.464054) scale(0.17 -0.17)">
     <defs>
      <path id="DejaVuSans-53" d="M 3425 4513 
L 3425 3897 
Q 3066 4069 2747 4153 
Q 2428 4238 2131 4238 
Q 1616 4238 1336 4038 
Q 1056 3838 1056 3469 
Q 1056 3159 1242 3001 
Q 1428 2844 1947 2747 
L 2328 2669 
Q 3034 2534 3370 2195 
Q 3706 1856 3706 1288 
Q 3706 609 3251 259 
Q 2797 -91 1919 -91 
Q 1588 -91 1214 -16 
Q 841 59 441 206 
L 441 856 
Q 825 641 1194 531 
Q 1563 422 1919 422 
Q 2459 422 2753 634 
Q 3047 847 3047 1241 
Q 3047 1584 2836 1778 
Q 2625 1972 2144 2069 
L 1759 2144 
Q 1053 2284 737 2584 
Q 422 2884 422 3419 
Q 422 4038 858 4394 
Q 1294 4750 2059 4750 
Q 2388 4750 2728 4690 
Q 3069 4631 3425 4513 
z
" transform="scale(0.015625)"/>
     </defs>
     <use xlink:href="#DejaVuSans-53"/>
    </g>
   </g>
   <g id="text_27">
    <!-- T -->
    <g transform="translate(620.025759 238.464054) scale(0.17 -0.17)">
     <defs>
      <path id="DejaVuSans-54" d="M -19 4666 
L 3928 4666 
L 3928 4134 
L 2272 4134 
L 2272 0 
L 1638 0 
L 1638 4134 
L -19 4134 
L -19 4666 
z
" transform="scale(0.015625)"/>
     </defs>
     <use xlink:href="#DejaVuSans-54"/>
    </g>
   </g>
   <g id="text_28">
    <!-- U -->
    <g transform="translate(660.935383 238.464054) scale(0.17 -0.17)">
     <defs>
      <path id="DejaVuSans-55" d="M 556 4666 
L 1191 4666 
L 1191 1831 
Q 1191 1081 1462 751 
Q 1734 422 2344 422 
Q 2950 422 3222 751 
Q 3494 1081 3494 1831 
L 3494 4666 
L 4128 4666 
L 4128 1753 
Q 4128 841 3676 375 
Q 3225 -91 2344 -91 
Q 1459 -91 1007 375 
Q 556 841 556 1753 
L 556 4666 
z
" transform="scale(0.015625)"/>
     </defs>
     <use xlink:href="#DejaVuSans-55"/>
    </g>
   </g>
  </g>
 </g>
 <defs>
  <clipPath id="pf1b8089adf">
   <rect x="10.8" y="12.11328" width="698.4" height="250.68672"/>
  </clipPath>
 </defs>
</svg>
