<?xml version="1.0" encoding="utf-8" standalone="no"?>
<!DOCTYPE svg PUBLIC "-//W3C//DTD SVG 1.1//EN"
  "http://www.w3.org/Graphics/SVG/1.1/DTD/svg11.dtd">
<svg xmlns:xlink="http://www.w3.org/1999/xlink" width="720pt" height="324pt" viewBox="0 0 720 324" xmlns="http://www.w3.org/2000/svg" version="1.1">
 <metadata>
  <rdf:RDF xmlns:dc="http://purl.org/dc/elements/1.1/" xmlns:cc="http://creativecommons.org/ns#" xmlns:rdf="http://www.w3.org/1999/02/22-rdf-syntax-ns#">
   <cc:Work>
    <dc:type rdf:resource="http://purl.org/dc/dcmitype/StillImage"/>
    <dc:date>2025-10-07T03:46:50.545801</dc:date>
    <dc:format>image/svg+xml</dc:format>
    <dc:creator>
     <cc:Agent>
      <dc:title>Matplotlib v3.10.0, https://matplotlib.org/</dc:title>
     </cc:Agent>
    </dc:creator>
   </cc:Work>
  </rdf:RDF>
 </metadata>
 <defs>
  <style type="text/css">*{stroke-linejoin: round; stroke-linecap: butt}</style>
 </defs>
 <g id="figure_1">
  <g id="patch_1">
   <path d="M 0 324 
L 720 324 
L 720 0 
L 0 0 
z
" style="fill: #ffffff"/>
  </g>
  <g id="axes_1">
   <g id="patch_2">
    <path d="M 10.8 313.2 
L 709.2 313.2 
L 709.2 11.1024 
L 10.8 11.1024 
z
" style="fill: #ffffff"/>
   </g>
   <g id="matplotlib.axis_1"/>
   <g id="matplotlib.axis_2"/>
   <g id="LineCollection_1">
    <path d="M 10.8 56.41704 
L 709.2 56.41704 
" clip-path="url(#pb672db98ba)" style="fill: none; stroke: #000000; stroke-width: 3"/>
   </g>
   <g id="LineCollection_2">
    <path d="M 10.8 109.28412 
L 709.2 109.28412 
" clip-path="url(#pb672db98ba)" style="fill: none; stroke: #000000; stroke-width: 3"/>
   </g>
   <g id="LineCollection_3">
    <path d="M 10.8 162.1512 
L 709.2 162.1512 
" clip-path="url(#pb672db98ba)" style="fill: none; stroke: #000000; stroke-width: 3"/>
   </g>
   <g id="LineCollection_4">
    <path d="M 10.8 215.01828 
L 709.2 215.01828 
" clip-path="url(#pb672db98ba)" style="fill: none; stroke: #000000; stroke-width: 3"/>
   </g>
   <g id="LineCollection_5">
    <path d="M 10.8 267.88536 
L 709.2 267.88536 
" clip-path="url(#pb672db98ba)" style="fill: none; stroke: #000000; stroke-width: 3"/>
   </g>
   <g id="LineCollection_6">
    <path d="M 10.8 76.053384 
L 10.8 36.780696 
" style="fill: none; stroke: #000000; stroke-width: 2"/>
    <path d="M 360 76.053384 
L 360 36.780696 
" style="fill: none; stroke: #000000; stroke-width: 2"/>
    <path d="M 709.2 76.053384 
L 709.2 36.780696 
" style="fill: none; stroke: #000000; stroke-width: 2"/>
   </g>
   <g id="LineCollection_7">
    <path d="M 10.8 128.920464 
L 10.8 89.647776 
" style="fill: none; stroke: #000000; stroke-width: 2"/>
    <path d="M 185.4 128.920464 
L 185.4 89.647776 
" style="fill: none; stroke: #000000; stroke-width: 2"/>
    <path d="M 360 128.920464 
L 360 89.647776 
" style="fill: none; stroke: #000000; stroke-width: 2"/>
    <path d="M 534.6 128.920464 
L 534.6 89.647776 
" style="fill: none; stroke: #000000; stroke-width: 2"/>
    <path d="M 709.2 128.920464 
L 709.2 89.647776 
" style="fill: none; stroke: #000000; stroke-width: 2"/>
   </g>
   <g id="LineCollection_8">
    <path d="M 10.8 181.787544 
L 10.8 142.514856 
" style="fill: none; stroke: #000000; stroke-width: 2"/>
    <path d="M 98.1 181.787544 
L 98.1 142.514856 
" style="fill: none; stroke: #000000; stroke-width: 2"/>
    <path d="M 185.4 181.787544 
L 185.4 142.514856 
" style="fill: none; stroke: #000000; stroke-width: 2"/>
    <path d="M 272.7 181.787544 
L 272.7 142.514856 
" style="fill: none; stroke: #000000; stroke-width: 2"/>
    <path d="M 360 181.787544 
L 360 142.514856 
" style="fill: none; stroke: #000000; stroke-width: 2"/>
    <path d="M 447.3 181.787544 
L 447.3 142.514856 
" style="fill: none; stroke: #000000; stroke-width: 2"/>
    <path d="M 534.6 181.787544 
L 534.6 142.514856 
" style="fill: none; stroke: #000000; stroke-width: 2"/>
    <path d="M 621.9 181.787544 
L 621.9 142.514856 
" style="fill: none; stroke: #000000; stroke-width: 2"/>
    <path d="M 709.2 181.787544 
L 709.2 142.514856 
" style="fill: none; stroke: #000000; stroke-width: 2"/>
   </g>
   <g id="LineCollection_9">
    <path d="M 10.8 234.654624 
L 10.8 195.381936 
" style="fill: none; stroke: #000000; stroke-width: 2"/>
    <path d="M 54.45 234.654624 
L 54.45 195.381936 
" style="fill: none; stroke: #000000; stroke-width: 2"/>
    <path d="M 98.1 234.654624 
L 98.1 195.381936 
" style="fill: none; stroke: #000000; stroke-width: 2"/>
    <path d="M 141.75 234.654624 
L 141.75 195.381936 
" style="fill: none; stroke: #000000; stroke-width: 2"/>
    <path d="M 185.4 234.654624 
L 185.4 195.381936 
" style="fill: none; stroke: #000000; stroke-width: 2"/>
    <path d="M 229.05 234.654624 
L 229.05 195.381936 
" style="fill: none; stroke: #000000; stroke-width: 2"/>
    <path d="M 272.7 234.654624 
L 272.7 195.381936 
" style="fill: none; stroke: #000000; stroke-width: 2"/>
    <path d="M 316.35 234.654624 
L 316.35 195.381936 
" style="fill: none; stroke: #000000; stroke-width: 2"/>
    <path d="M 360 234.654624 
L 360 195.381936 
" style="fill: none; stroke: #000000; stroke-width: 2"/>
    <path d="M 403.65 234.654624 
L 403.65 195.381936 
" style="fill: none; stroke: #000000; stroke-width: 2"/>
    <path d="M 447.3 234.654624 
L 447.3 195.381936 
" style="fill: none; stroke: #000000; stroke-width: 2"/>
    <path d="M 490.95 234.654624 
L 490.95 195.381936 
" style="fill: none; stroke: #000000; stroke-width: 2"/>
    <path d="M 534.6 234.654624 
L 534.6 195.381936 
" style="fill: none; stroke: #000000; stroke-width: 2"/>
    <path d="M 578.25 234.654624 
L 578.25 195.381936 
" style="fill: none; stroke: #000000; stroke-width: 2"/>
    <path d="M 621.9 234.654624 
L 621.9 195.381936 
" style="fill: none; stroke: #000000; stroke-width: 2"/>
    <path d="M 665.55 234.654624 
L 665.55 195.381936 
" style="fill: none; stroke: #000000; stroke-width: 2"/>
    <path d="M 709.2 234.654624 
L 709.2 195.381936 
" style="fill: none; stroke: #000000; stroke-width: 2"/>
   </g>
   <g id="LineCollection_10">
    <path d="M 10.8 287.521704 
L 10.8 248.249016 
" style="fill: none; stroke: #000000; stroke-width: 2"/>
    <path d="M 32.625 287.521704 
L 32.625 248.249016 
" style="fill: none; stroke: #000000; stroke-width: 2"/>
    <path d="M 54.45 287.521704 
L 54.45 248.249016 
" style="fill: none; stroke: #000000; stroke-width: 2"/>
    <path d="M 76.275 287.521704 
L 76.275 248.249016 
" style="fill: none; stroke: #000000; stroke-width: 2"/>
    <path d="M 98.1 287.521704 
L 98.1 248.249016 
" style="fill: none; stroke: #000000; stroke-width: 2"/>
    <path d="M 119.925 287.521704 
L 119.925 248.249016 
" style="fill: none; stroke: #000000; stroke-width: 2"/>
    <path d="M 141.75 287.521704 
L 141.75 248.249016 
" style="fill: none; stroke: #000000; stroke-width: 2"/>
    <path d="M 163.575 287.521704 
L 163.575 248.249016 
" style="fill: none; stroke: #000000; stroke-width: 2"/>
    <path d="M 185.4 287.521704 
L 185.4 248.249016 
" style="fill: none; stroke: #000000; stroke-width: 2"/>
    <path d="M 207.225 287.521704 
L 207.225 248.249016 
" style="fill: none; stroke: #000000; stroke-width: 2"/>
    <path d="M 229.05 287.521704 
L 229.05 248.249016 
" style="fill: none; stroke: #000000; stroke-width: 2"/>
    <path d="M 250.875 287.521704 
L 250.875 248.249016 
" style="fill: none; stroke: #000000; stroke-width: 2"/>
    <path d="M 272.7 287.521704 
L 272.7 248.249016 
" style="fill: none; stroke: #000000; stroke-width: 2"/>
    <path d="M 294.525 287.521704 
L 294.525 248.249016 
" style="fill: none; stroke: #000000; stroke-width: 2"/>
    <path d="M 316.35 287.521704 
L 316.35 248.249016 
" style="fill: none; stroke: #000000; stroke-width: 2"/>
    <path d="M 338.175 287.521704 
L 338.175 248.249016 
" style="fill: none; stroke: #000000; stroke-width: 2"/>
    <path d="M 360 287.521704 
L 360 248.249016 
" style="fill: none; stroke: #000000; stroke-width: 2"/>
    <path d="M 381.825 287.521704 
L 381.825 248.249016 
" style="fill: none; stroke: #000000; stroke-width: 2"/>
    <path d="M 403.65 287.521704 
L 403.65 248.249016 
" style="fill: none; stroke: #000000; stroke-width: 2"/>
    <path d="M 425.475 287.521704 
L 425.475 248.249016 
" style="fill: none; stroke: #000000; stroke-width: 2"/>
    <path d="M 447.3 287.521704 
L 447.3 248.249016 
" style="fill: none; stroke: #000000; stroke-width: 2"/>
    <path d="M 469.125 287.521704 
L 469.125 248.249016 
" style="fill: none; stroke: #000000; stroke-width: 2"/>
    <path d="M 490.95 287.521704 
L 490.95 248.249016 
" style="fill: none; stroke: #000000; stroke-width: 2"/>
    <path d="M 512.775 287.521704 
L 512.775 248.249016 
" style="fill: none; stroke: #000000; stroke-width: 2"/>
    <path d="M 534.6 287.521704 
L 534.6 248.249016 
" style="fill: none; stroke: #000000; stroke-width: 2"/>
    <path d="M 556.425 287.521704 
L 556.425 248.249016 
" style="fill: none; stroke: #000000; stroke-width: 2"/>
    <path d="M 578.25 287.521704 
L 578.25 248.249016 
" style="fill: none; stroke: #000000; stroke-width: 2"/>
    <path d="M 600.075 287.521704 
L 600.075 248.249016 
" style="fill: none; stroke: #000000; stroke-width: 2"/>
    <path d="M 621.9 287.521704 
L 621.9 248.249016 
" style="fill: none; stroke: #000000; stroke-width: 2"/>
    <path d="M 643.725 287.521704 
L 643.725 248.249016 
" style="fill: none; stroke: #000000; stroke-width: 2"/>
    <path d="M 665.55 287.521704 
L 665.55 248.249016 
" style="fill: none; stroke: #000000; stroke-width: 2"/>
    <path d="M 687.375 287.521704 
L 687.375 248.249016 
" style="fill: none; stroke: #000000; stroke-width: 2"/>
    <path d="M 709.2 287.521704 
L 709.2 248.249016 
" style="fill: none; stroke: #000000; stroke-width: 2"/>
   </g>
   <g id="text_1">
    <!-- 0 -->
    <g transform="translate(175.85625 41.115049) scale(0.3 -0.3)">
     <defs>
      <path id="DejaVuSans-30" d="M 2034 4250 
Q 1547 4250 1301 3770 
Q 1056 3291 1056 2328 
Q 1056 1369 1301 889 
Q 1547 409 2034 409 
Q 2525 409 2770 889 
Q 3016 1369 3016 2328 
Q 3016 3291 2770 3770 
Q 2525 4250 2034 4250 
z
M 2034 4750 
Q 2819 4750 3233 4129 
Q 3647 3509 3647 2328 
Q 3647 1150 3233 529 
Q 2819 -91 2034 -91 
Q 1250 -91 836 529 
Q 422 1150 422 2328 
Q 422 3509 836 4129 
Q 1250 4750 2034 4750 
z
" transform="scale(0.015625)"/>
     </defs>
     <use xlink:href="#DejaVuSans-30"/>
    </g>
   </g>
   <g id="text_2">
    <!-- 1 -->
    <g transform="translate(525.05625 41.115049) scale(0.3 -0.3)">
     <defs>
      <path id="DejaVuSans-31" d="M 794 531 
L 1825 531 
L 1825 4091 
L 703 3866 
L 703 4441 
L 1819 4666 
L 2450 4666 
L 2450 531 
L 3481 531 
L 3481 0 
L 794 0 
L 794 531 
z
" transform="scale(0.015625)"/>
     </defs>
     <use xlink:href="#DejaVuSans-31"/>
    </g>
   </g>
   <g id="text_3">
    <!-- 00 -->
    <g transform="translate(79.0125 93.982129) scale(0.3 -0.3)">
     <use xlink:href="#DejaVuSans-30"/>
     <use xlink:href="#DejaVuSans-30" transform="translate(63.623047 0)"/>
    </g>
   </g>
   <g id="text_4">
    <!-- 01 -->
    <g transform="translate(253.6125 93.982129) scale(0.3 -0.3)">
     <use xlink:href="#DejaVuSans-30"/>
     <use xlink:href="#DejaVuSans-31" transform="translate(63.623047 0)"/>
    </g>
   </g>
   <g id="text_5">
    <!-- 10 -->
    <g transform="translate(428.2125 93.982129) scale(0.3 -0.3)">
     <use xlink:href="#DejaVuSans-31"/>
     <use xlink:href="#DejaVuSans-30" transform="translate(63.623047 0)"/>
    </g>
   </g>
   <g id="text_6">
    <!-- 11 -->
    <g transform="translate(602.8125 93.982129) scale(0.3 -0.3)">
     <use xlink:href="#DejaVuSans-31"/>
     <use xlink:href="#DejaVuSans-31" transform="translate(63.623047 0)"/>
    </g>
   </g>
   <g id="text_7">
    <!-- 000 -->
    <g transform="translate(25.81875 146.84921) scale(0.3 -0.3)">
     <use xlink:href="#DejaVuSans-30"/>
     <use xlink:href="#DejaVuSans-30" transform="translate(63.623047 0)"/>
     <use xlink:href="#DejaVuSans-30" transform="translate(127.246094 0)"/>
    </g>
   </g>
   <g id="text_8">
    <!-- 001 -->
    <g transform="translate(113.11875 146.84921) scale(0.3 -0.3)">
     <use xlink:href="#DejaVuSans-30"/>
     <use xlink:href="#DejaVuSans-30" transform="translate(63.623047 0)"/>
     <use xlink:href="#DejaVuSans-31" transform="translate(127.246094 0)"/>
    </g>
   </g>
   <g id="text_9">
    <!-- 010 -->
    <g transform="translate(200.41875 146.84921) scale(0.3 -0.3)">
     <use xlink:href="#DejaVuSans-30"/>
     <use xlink:href="#DejaVuSans-31" transform="translate(63.623047 0)"/>
     <use xlink:href="#DejaVuSans-30" transform="translate(127.246094 0)"/>
    </g>
   </g>
   <g id="text_10">
    <!-- 011 -->
    <g transform="translate(287.71875 146.84921) scale(0.3 -0.3)">
     <use xlink:href="#DejaVuSans-30"/>
     <use xlink:href="#DejaVuSans-31" transform="translate(63.623047 0)"/>
     <use xlink:href="#DejaVuSans-31" transform="translate(127.246094 0)"/>
    </g>
   </g>
   <g id="text_11">
    <!-- 100 -->
    <g transform="translate(375.01875 146.84921) scale(0.3 -0.3)">
     <use xlink:href="#DejaVuSans-31"/>
     <use xlink:href="#DejaVuSans-30" transform="translate(63.623047 0)"/>
     <use xlink:href="#DejaVuSans-30" transform="translate(127.246094 0)"/>
    </g>
   </g>
   <g id="text_12">
    <!-- 101 -->
    <g transform="translate(462.31875 146.84921) scale(0.3 -0.3)">
     <use xlink:href="#DejaVuSans-31"/>
     <use xlink:href="#DejaVuSans-30" transform="translate(63.623047 0)"/>
     <use xlink:href="#DejaVuSans-31" transform="translate(127.246094 0)"/>
    </g>
   </g>
   <g id="text_13">
    <!-- 110 -->
    <g transform="translate(549.61875 146.84921) scale(0.3 -0.3)">
     <use xlink:href="#DejaVuSans-31"/>
     <use xlink:href="#DejaVuSans-31" transform="translate(63.623047 0)"/>
     <use xlink:href="#DejaVuSans-30" transform="translate(127.246094 0)"/>
    </g>
   </g>
   <g id="text_14">
    <!-- 111 -->
    <g transform="translate(636.91875 146.84921) scale(0.3 -0.3)">
     <use xlink:href="#DejaVuSans-31"/>
     <use xlink:href="#DejaVuSans-31" transform="translate(63.623047 0)"/>
     <use xlink:href="#DejaVuSans-31" transform="translate(127.246094 0)"/>
    </g>
   </g>
  </g>
 </g>
 <defs>
  <clipPath id="pb672db98ba">
   <rect x="10.8" y="11.1024" width="698.4" height="302.0976"/>
  </clipPath>
 </defs>
</svg>
