<?xml version="1.0" encoding="utf-8" standalone="no"?>
<!DOCTYPE svg PUBLIC "-//W3C//DTD SVG 1.1//EN"
  "http://www.w3.org/Graphics/SVG/1.1/DTD/svg11.dtd">
<svg xmlns:xlink="http://www.w3.org/1999/xlink" width="864pt" height="280.8pt" viewBox="0 0 864 280.8" xmlns="http://www.w3.org/2000/svg" version="1.1">
 <metadata>
  <rdf:RDF xmlns:dc="http://purl.org/dc/elements/1.1/" xmlns:cc="http://creativecommons.org/ns#" xmlns:rdf="http://www.w3.org/1999/02/22-rdf-syntax-ns#">
   <cc:Work>
    <dc:type rdf:resource="http://purl.org/dc/dcmitype/StillImage"/>
    <dc:date>2025-10-13T11:20:50.403955</dc:date>
    <dc:format>image/svg+xml</dc:format>
    <dc:creator>
     <cc:Agent>
      <dc:title>Matplotlib v3.10.0, https://matplotlib.org/</dc:title>
     </cc:Agent>
    </dc:creator>
   </cc:Work>
  </rdf:RDF>
 </metadata>
 <defs>
  <style type="text/css">*{stroke-linejoin: round; stroke-linecap: butt}</style>
 </defs>
 <g id="figure_1">
  <g id="patch_1">
   <path d="M 0 280.8 
L 864 280.8 
L 864 0 
L 0 0 
z
" style="fill: #ffffff"/>
  </g>
  <g id="axes_1">
   <g id="patch_2">
    <path d="M 10.8 268.978378 
L 853.2 268.978378 
L 853.2 10.8 
L 10.8 10.8 
z
" style="fill: #ffffff"/>
   </g>
   <g id="matplotlib.axis_1"/>
   <g id="matplotlib.axis_2"/>
   <g id="LineCollection_1">
    <path d="M 10.8 63.133455 
L 853.2 63.133455 
" clip-path="url(#pb39db3788f)" style="fill: none; stroke: #000000; stroke-width: 3"/>
   </g>
   <g id="LineCollection_2">
    <path d="M 10.8 132.911395 
L 853.2 132.911395 
" clip-path="url(#pb39db3788f)" style="fill: none; stroke: #000000; stroke-width: 3"/>
   </g>
   <g id="LineCollection_3">
    <path d="M 10.8 202.689335 
L 853.2 202.689335 
" clip-path="url(#pb39db3788f)" style="fill: none; stroke: #000000; stroke-width: 3"/>
   </g>
   <g id="LineCollection_4">
    <path d="M 10.8 220.13382 
L 853.2 220.13382 
" clip-path="url(#pb39db3788f)" style="fill: none; stroke: #00008b; stroke-width: 3"/>
   </g>
   <g id="LineCollection_5">
    <path d="M 10.8 75.344595 
L 10.8 50.922316 
" style="fill: none; stroke: #000000; stroke-width: 2"/>
    <path d="M 853.2 75.344595 
L 853.2 50.922316 
" style="fill: none; stroke: #000000; stroke-width: 2"/>
   </g>
   <g id="LineCollection_6">
    <path d="M 10.8 145.122535 
L 10.8 120.700256 
" style="fill: none; stroke: #000000; stroke-width: 2"/>
    <path d="M 432 145.122535 
L 432 120.700256 
" style="fill: none; stroke: #000000; stroke-width: 2"/>
    <path d="M 853.2 145.122535 
L 853.2 120.700256 
" style="fill: none; stroke: #000000; stroke-width: 2"/>
   </g>
   <g id="LineCollection_7">
    <path d="M 10.8 202.689335 
L 10.8 190.478196 
" style="fill: none; stroke: #000000; stroke-width: 2"/>
    <path d="M 221.4 202.689335 
L 221.4 190.478196 
" style="fill: none; stroke: #000000; stroke-width: 2"/>
    <path d="M 432 202.689335 
L 432 190.478196 
" style="fill: none; stroke: #000000; stroke-width: 2"/>
    <path d="M 642.6 202.689335 
L 642.6 190.478196 
" style="fill: none; stroke: #000000; stroke-width: 2"/>
    <path d="M 853.2 202.689335 
L 853.2 190.478196 
" style="fill: none; stroke: #000000; stroke-width: 2"/>
   </g>
   <g id="LineCollection_8">
    <path d="M 48.535476 232.34496 
L 48.535476 220.13382 
" style="fill: none; stroke: #00008b; stroke-width: 2"/>
    <path d="M 107.128777 232.34496 
L 107.128777 220.13382 
" style="fill: none; stroke: #00008b; stroke-width: 2"/>
    <path d="M 244.938678 232.34496 
L 244.938678 220.13382 
" style="fill: none; stroke: #00008b; stroke-width: 2"/>
    <path d="M 392.963858 232.34496 
L 392.963858 220.13382 
" style="fill: none; stroke: #00008b; stroke-width: 2"/>
    <path d="M 439.221727 232.34496 
L 439.221727 220.13382 
" style="fill: none; stroke: #00008b; stroke-width: 2"/>
    <path d="M 446.73863 232.34496 
L 446.73863 220.13382 
" style="fill: none; stroke: #00008b; stroke-width: 2"/>
    <path d="M 576.260663 232.34496 
L 576.260663 220.13382 
" style="fill: none; stroke: #00008b; stroke-width: 2"/>
    <path d="M 698.458533 232.34496 
L 698.458533 220.13382 
" style="fill: none; stroke: #00008b; stroke-width: 2"/>
   </g>
   <g id="text_1">
    <!-- 10010 -->
    <g transform="translate(384.28125 42.938805) scale(0.3 -0.3)">
     <defs>
      <path id="DejaVuSans-31" d="M 794 531 
L 1825 531 
L 1825 4091 
L 703 3866 
L 703 4441 
L 1819 4666 
L 2450 4666 
L 2450 531 
L 3481 531 
L 3481 0 
L 794 0 
L 794 531 
z
" transform="scale(0.015625)"/>
      <path id="DejaVuSans-30" d="M 2034 4250 
Q 1547 4250 1301 3770 
Q 1056 3291 1056 2328 
Q 1056 1369 1301 889 
Q 1547 409 2034 409 
Q 2525 409 2770 889 
Q 3016 1369 3016 2328 
Q 3016 3291 2770 3770 
Q 2525 4250 2034 4250 
z
M 2034 4750 
Q 2819 4750 3233 4129 
Q 3647 3509 3647 2328 
Q 3647 1150 3233 529 
Q 2819 -91 2034 -91 
Q 1250 -91 836 529 
Q 422 1150 422 2328 
Q 422 3509 836 4129 
Q 1250 4750 2034 4750 
z
" transform="scale(0.015625)"/>
     </defs>
     <use xlink:href="#DejaVuSans-31"/>
     <use xlink:href="#DejaVuSans-30" transform="translate(63.623047 0)"/>
     <use xlink:href="#DejaVuSans-30" transform="translate(127.246094 0)"/>
     <use xlink:href="#DejaVuSans-31" transform="translate(190.869141 0)"/>
     <use xlink:href="#DejaVuSans-30" transform="translate(254.492188 0)"/>
    </g>
   </g>
   <g id="text_2">
    <!-- 100100 -->
    <g transform="translate(164.1375 112.716745) scale(0.3 -0.3)">
     <use xlink:href="#DejaVuSans-31"/>
     <use xlink:href="#DejaVuSans-30" transform="translate(63.623047 0)"/>
     <use xlink:href="#DejaVuSans-30" transform="translate(127.246094 0)"/>
     <use xlink:href="#DejaVuSans-31" transform="translate(190.869141 0)"/>
     <use xlink:href="#DejaVuSans-30" transform="translate(254.492188 0)"/>
     <use xlink:href="#DejaVuSans-30" transform="translate(318.115234 0)"/>
    </g>
   </g>
   <g id="text_3">
    <!-- 100101 -->
    <g transform="translate(585.3375 112.716745) scale(0.3 -0.3)">
     <use xlink:href="#DejaVuSans-31"/>
     <use xlink:href="#DejaVuSans-30" transform="translate(63.623047 0)"/>
     <use xlink:href="#DejaVuSans-30" transform="translate(127.246094 0)"/>
     <use xlink:href="#DejaVuSans-31" transform="translate(190.869141 0)"/>
     <use xlink:href="#DejaVuSans-30" transform="translate(254.492188 0)"/>
     <use xlink:href="#DejaVuSans-31" transform="translate(318.115234 0)"/>
    </g>
   </g>
   <g id="text_4">
    <!-- 1001000 -->
    <g transform="translate(49.29375 182.494685) scale(0.3 -0.3)">
     <use xlink:href="#DejaVuSans-31"/>
     <use xlink:href="#DejaVuSans-30" transform="translate(63.623047 0)"/>
     <use xlink:href="#DejaVuSans-30" transform="translate(127.246094 0)"/>
     <use xlink:href="#DejaVuSans-31" transform="translate(190.869141 0)"/>
     <use xlink:href="#DejaVuSans-30" transform="translate(254.492188 0)"/>
     <use xlink:href="#DejaVuSans-30" transform="translate(318.115234 0)"/>
     <use xlink:href="#DejaVuSans-30" transform="translate(381.738281 0)"/>
    </g>
   </g>
   <g id="text_5">
    <!-- 1001001 -->
    <g transform="translate(259.89375 182.494685) scale(0.3 -0.3)">
     <use xlink:href="#DejaVuSans-31"/>
     <use xlink:href="#DejaVuSans-30" transform="translate(63.623047 0)"/>
     <use xlink:href="#DejaVuSans-30" transform="translate(127.246094 0)"/>
     <use xlink:href="#DejaVuSans-31" transform="translate(190.869141 0)"/>
     <use xlink:href="#DejaVuSans-30" transform="translate(254.492188 0)"/>
     <use xlink:href="#DejaVuSans-30" transform="translate(318.115234 0)"/>
     <use xlink:href="#DejaVuSans-31" transform="translate(381.738281 0)"/>
    </g>
   </g>
   <g id="text_6">
    <!-- 1001010 -->
    <g transform="translate(470.49375 182.494685) scale(0.3 -0.3)">
     <use xlink:href="#DejaVuSans-31"/>
     <use xlink:href="#DejaVuSans-30" transform="translate(63.623047 0)"/>
     <use xlink:href="#DejaVuSans-30" transform="translate(127.246094 0)"/>
     <use xlink:href="#DejaVuSans-31" transform="translate(190.869141 0)"/>
     <use xlink:href="#DejaVuSans-30" transform="translate(254.492188 0)"/>
     <use xlink:href="#DejaVuSans-31" transform="translate(318.115234 0)"/>
     <use xlink:href="#DejaVuSans-30" transform="translate(381.738281 0)"/>
    </g>
   </g>
   <g id="text_7">
    <!-- 1001011 -->
    <g transform="translate(681.09375 182.494685) scale(0.3 -0.3)">
     <use xlink:href="#DejaVuSans-31"/>
     <use xlink:href="#DejaVuSans-30" transform="translate(63.623047 0)"/>
     <use xlink:href="#DejaVuSans-30" transform="translate(127.246094 0)"/>
     <use xlink:href="#DejaVuSans-31" transform="translate(190.869141 0)"/>
     <use xlink:href="#DejaVuSans-30" transform="translate(254.492188 0)"/>
     <use xlink:href="#DejaVuSans-31" transform="translate(318.115234 0)"/>
     <use xlink:href="#DejaVuSans-31" transform="translate(381.738281 0)"/>
    </g>
   </g>
   <g id="text_8">
    <!-- NM -->
    <g style="fill: #00008b" transform="translate(53.668064 256.884721) scale(0.3 -0.3)">
     <defs>
      <path id="DejaVuSans-4e" d="M 628 4666 
L 1478 4666 
L 3547 763 
L 3547 4666 
L 4159 4666 
L 4159 0 
L 3309 0 
L 1241 3903 
L 1241 0 
L 628 0 
L 628 4666 
z
" transform="scale(0.015625)"/>
      <path id="DejaVuSans-4d" d="M 628 4666 
L 1569 4666 
L 2759 1491 
L 3956 4666 
L 4897 4666 
L 4897 0 
L 4281 0 
L 4281 4097 
L 3078 897 
L 2444 897 
L 1241 4097 
L 1241 0 
L 628 0 
L 628 4666 
z
" transform="scale(0.015625)"/>
     </defs>
     <use xlink:href="#DejaVuSans-4e"/>
     <use xlink:href="#DejaVuSans-4d" transform="translate(74.804688 0)"/>
    </g>
   </g>
   <g id="text_9">
    <!-- NN -->
    <g style="fill: #00008b" transform="translate(153.589977 256.884721) scale(0.3 -0.3)">
     <use xlink:href="#DejaVuSans-4e"/>
     <use xlink:href="#DejaVuSans-4e" transform="translate(74.804688 0)"/>
    </g>
   </g>
   <g id="text_10">
    <!-- NO -->
    <g style="fill: #00008b" transform="translate(295.92158 256.884721) scale(0.3 -0.3)">
     <defs>
      <path id="DejaVuSans-4f" d="M 2522 4238 
Q 1834 4238 1429 3725 
Q 1025 3213 1025 2328 
Q 1025 1447 1429 934 
Q 1834 422 2522 422 
Q 3209 422 3611 934 
Q 4013 1447 4013 2328 
Q 4013 3213 3611 3725 
Q 3209 4238 2522 4238 
z
M 2522 4750 
Q 3503 4750 4090 4092 
Q 4678 3434 4678 2328 
Q 4678 1225 4090 567 
Q 3503 -91 2522 -91 
Q 1538 -91 948 565 
Q 359 1222 359 2328 
Q 359 3434 948 4092 
Q 1538 4750 2522 4750 
z
" transform="scale(0.015625)"/>
     </defs>
     <use xlink:href="#DejaVuSans-4e"/>
     <use xlink:href="#DejaVuSans-4f" transform="translate(74.804688 0)"/>
    </g>
   </g>
   <g id="text_11">
    <!-- NR -->
    <g style="fill: #00008b" transform="translate(489.855115 256.884721) scale(0.3 -0.3)">
     <defs>
      <path id="DejaVuSans-52" d="M 2841 2188 
Q 3044 2119 3236 1894 
Q 3428 1669 3622 1275 
L 4263 0 
L 3584 0 
L 2988 1197 
Q 2756 1666 2539 1819 
Q 2322 1972 1947 1972 
L 1259 1972 
L 1259 0 
L 628 0 
L 628 4666 
L 2053 4666 
Q 2853 4666 3247 4331 
Q 3641 3997 3641 3322 
Q 3641 2881 3436 2590 
Q 3231 2300 2841 2188 
z
M 1259 4147 
L 1259 2491 
L 2053 2491 
Q 2509 2491 2742 2702 
Q 2975 2913 2975 3322 
Q 2975 3731 2742 3939 
Q 2509 4147 2053 4147 
L 1259 4147 
z
" transform="scale(0.015625)"/>
     </defs>
     <use xlink:href="#DejaVuSans-4e"/>
     <use xlink:href="#DejaVuSans-52" transform="translate(74.804688 0)"/>
    </g>
   </g>
   <g id="text_12">
    <!-- NS -->
    <g style="fill: #00008b" transform="translate(616.615067 256.884721) scale(0.3 -0.3)">
     <defs>
      <path id="DejaVuSans-53" d="M 3425 4513 
L 3425 3897 
Q 3066 4069 2747 4153 
Q 2428 4238 2131 4238 
Q 1616 4238 1336 4038 
Q 1056 3838 1056 3469 
Q 1056 3159 1242 3001 
Q 1428 2844 1947 2747 
L 2328 2669 
Q 3034 2534 3370 2195 
Q 3706 1856 3706 1288 
Q 3706 609 3251 259 
Q 2797 -91 1919 -91 
Q 1588 -91 1214 -16 
Q 841 59 441 206 
L 441 856 
Q 825 641 1194 531 
Q 1563 422 1919 422 
Q 2459 422 2753 634 
Q 3047 847 3047 1241 
Q 3047 1584 2836 1778 
Q 2625 1972 2144 2069 
L 1759 2144 
Q 1053 2284 737 2584 
Q 422 2884 422 3419 
Q 422 4038 858 4394 
Q 1294 4750 2059 4750 
Q 2388 4750 2728 4690 
Q 3069 4631 3425 4513 
z
" transform="scale(0.015625)"/>
     </defs>
     <use xlink:href="#DejaVuSans-4e"/>
     <use xlink:href="#DejaVuSans-53" transform="translate(74.804688 0)"/>
    </g>
   </g>
   <g id="text_13">
    <!-- NT -->
    <g style="fill: #00008b" transform="translate(755.445673 256.884721) scale(0.3 -0.3)">
     <defs>
      <path id="DejaVuSans-54" d="M -19 4666 
L 3928 4666 
L 3928 4134 
L 2272 4134 
L 2272 0 
L 1638 0 
L 1638 4134 
L -19 4134 
L -19 4666 
z
" transform="scale(0.015625)"/>
     </defs>
     <use xlink:href="#DejaVuSans-4e"/>
     <use xlink:href="#DejaVuSans-54" transform="translate(74.804688 0)"/>
    </g>
   </g>
   <g id="LineCollection_9">
    <path d="M 221.4 211.411578 
L 432 211.411578 
" clip-path="url(#pb39db3788f)" style="fill: none; stroke: #ff0000; stroke-width: 6"/>
   </g>
  </g>
 </g>
 <defs>
  <clipPath id="pb39db3788f">
   <rect x="10.8" y="10.8" width="842.4" height="258.178378"/>
  </clipPath>
 </defs>
</svg>
