<?xml version="1.0" encoding="utf-8" standalone="no"?>
<!DOCTYPE svg PUBLIC "-//W3C//DTD SVG 1.1//EN"
  "http://www.w3.org/Graphics/SVG/1.1/DTD/svg11.dtd">
<svg xmlns:xlink="http://www.w3.org/1999/xlink" width="864pt" height="324pt" viewBox="0 0 864 324" xmlns="http://www.w3.org/2000/svg" version="1.1">
 <metadata>
  <rdf:RDF xmlns:dc="http://purl.org/dc/elements/1.1/" xmlns:cc="http://creativecommons.org/ns#" xmlns:rdf="http://www.w3.org/1999/02/22-rdf-syntax-ns#">
   <cc:Work>
    <dc:type rdf:resource="http://purl.org/dc/dcmitype/StillImage"/>
    <dc:date>2025-10-13T11:20:10.411340</dc:date>
    <dc:format>image/svg+xml</dc:format>
    <dc:creator>
     <cc:Agent>
      <dc:title>Matplotlib v3.10.0, https://matplotlib.org/</dc:title>
     </cc:Agent>
    </dc:creator>
   </cc:Work>
  </rdf:RDF>
 </metadata>
 <defs>
  <style type="text/css">*{stroke-linejoin: round; stroke-linecap: butt}</style>
 </defs>
 <g id="figure_1">
  <g id="patch_1">
   <path d="M 0 324 
L 864 324 
L 864 0 
L 0 0 
z
" style="fill: #ffffff"/>
  </g>
  <g id="axes_1">
   <g id="patch_2">
    <path d="M 10.8 309.500426 
L 853.2 309.500426 
L 853.2 10.8 
L 10.8 10.8 
z
" style="fill: #ffffff"/>
   </g>
   <g id="matplotlib.axis_1"/>
   <g id="matplotlib.axis_2"/>
   <g id="LineCollection_1">
    <path d="M 10.8 58.464962 
L 853.2 58.464962 
" clip-path="url(#pe4f6198e72)" style="fill: none; stroke: #000000; stroke-width: 3"/>
   </g>
   <g id="LineCollection_2">
    <path d="M 10.8 122.018244 
L 853.2 122.018244 
" clip-path="url(#pe4f6198e72)" style="fill: none; stroke: #000000; stroke-width: 3"/>
   </g>
   <g id="LineCollection_3">
    <path d="M 10.8 185.571526 
L 853.2 185.571526 
" clip-path="url(#pe4f6198e72)" style="fill: none; stroke: #000000; stroke-width: 3"/>
   </g>
   <g id="LineCollection_4">
    <path d="M 10.8 201.459846 
L 853.2 201.459846 
" clip-path="url(#pe4f6198e72)" style="fill: none; stroke: #00008b; stroke-width: 3"/>
   </g>
   <g id="LineCollection_5">
    <path d="M 10.8 265.013128 
L 853.2 265.013128 
" clip-path="url(#pe4f6198e72)" style="fill: none; stroke: #00008b; stroke-width: 3"/>
   </g>
   <g id="LineCollection_6">
    <path d="M 10.8 69.586786 
L 10.8 47.343137 
" style="fill: none; stroke: #000000; stroke-width: 2"/>
    <path d="M 853.2 69.586786 
L 853.2 47.343137 
" style="fill: none; stroke: #000000; stroke-width: 2"/>
   </g>
   <g id="LineCollection_7">
    <path d="M 10.8 133.140068 
L 10.8 110.896419 
" style="fill: none; stroke: #000000; stroke-width: 2"/>
    <path d="M 432 133.140068 
L 432 110.896419 
" style="fill: none; stroke: #000000; stroke-width: 2"/>
    <path d="M 853.2 133.140068 
L 853.2 110.896419 
" style="fill: none; stroke: #000000; stroke-width: 2"/>
   </g>
   <g id="LineCollection_8">
    <path d="M 10.8 185.571526 
L 10.8 174.449701 
" style="fill: none; stroke: #000000; stroke-width: 2"/>
    <path d="M 221.4 185.571526 
L 221.4 174.449701 
" style="fill: none; stroke: #000000; stroke-width: 2"/>
    <path d="M 432 185.571526 
L 432 174.449701 
" style="fill: none; stroke: #000000; stroke-width: 2"/>
    <path d="M 642.6 185.571526 
L 642.6 174.449701 
" style="fill: none; stroke: #000000; stroke-width: 2"/>
    <path d="M 853.2 185.571526 
L 853.2 174.449701 
" style="fill: none; stroke: #000000; stroke-width: 2"/>
   </g>
   <g id="LineCollection_9">
    <path d="M 14.0553 212.58167 
L 14.0553 201.459846 
" style="fill: none; stroke: #00008b; stroke-width: 2"/>
    <path d="M 63.280997 212.58167 
L 63.280997 201.459846 
" style="fill: none; stroke: #00008b; stroke-width: 2"/>
    <path d="M 80.259177 212.58167 
L 80.259177 201.459846 
" style="fill: none; stroke: #00008b; stroke-width: 2"/>
    <path d="M 86.212565 212.58167 
L 86.212565 201.459846 
" style="fill: none; stroke: #00008b; stroke-width: 2"/>
    <path d="M 93.654299 212.58167 
L 93.654299 201.459846 
" style="fill: none; stroke: #00008b; stroke-width: 2"/>
    <path d="M 95.583638 212.58167 
L 95.583638 201.459846 
" style="fill: none; stroke: #00008b; stroke-width: 2"/>
    <path d="M 104.182976 212.58167 
L 104.182976 201.459846 
" style="fill: none; stroke: #00008b; stroke-width: 2"/>
    <path d="M 104.954711 212.58167 
L 104.954711 201.459846 
" style="fill: none; stroke: #00008b; stroke-width: 2"/>
    <path d="M 155.756953 212.58167 
L 155.756953 201.459846 
" style="fill: none; stroke: #00008b; stroke-width: 2"/>
    <path d="M 163.750313 212.58167 
L 163.750313 201.459846 
" style="fill: none; stroke: #00008b; stroke-width: 2"/>
    <path d="M 182.460695 212.58167 
L 182.460695 201.459846 
" style="fill: none; stroke: #00008b; stroke-width: 2"/>
    <path d="M 203.539481 212.58167 
L 203.539481 201.459846 
" style="fill: none; stroke: #00008b; stroke-width: 2"/>
    <path d="M 274.413937 212.58167 
L 274.413937 201.459846 
" style="fill: none; stroke: #00008b; stroke-width: 2"/>
    <path d="M 286.196742 212.58167 
L 286.196742 201.459846 
" style="fill: none; stroke: #00008b; stroke-width: 2"/>
    <path d="M 299.163747 212.58167 
L 299.163747 201.459846 
" style="fill: none; stroke: #00008b; stroke-width: 2"/>
    <path d="M 323.203037 212.58167 
L 323.203037 201.459846 
" style="fill: none; stroke: #00008b; stroke-width: 2"/>
    <path d="M 369.150053 212.58167 
L 369.150053 201.459846 
" style="fill: none; stroke: #00008b; stroke-width: 2"/>
    <path d="M 369.860573 212.58167 
L 369.860573 201.459846 
" style="fill: none; stroke: #00008b; stroke-width: 2"/>
    <path d="M 373.650018 212.58167 
L 373.650018 201.459846 
" style="fill: none; stroke: #00008b; stroke-width: 2"/>
    <path d="M 399.76166 212.58167 
L 399.76166 201.459846 
" style="fill: none; stroke: #00008b; stroke-width: 2"/>
    <path d="M 417.761522 212.58167 
L 417.761522 201.459846 
" style="fill: none; stroke: #00008b; stroke-width: 2"/>
    <path d="M 460.096723 212.58167 
L 460.096723 201.459846 
" style="fill: none; stroke: #00008b; stroke-width: 2"/>
    <path d="M 505.570059 212.58167 
L 505.570059 201.459846 
" style="fill: none; stroke: #00008b; stroke-width: 2"/>
    <path d="M 519.780476 212.58167 
L 519.780476 201.459846 
" style="fill: none; stroke: #00008b; stroke-width: 2"/>
    <path d="M 522.089669 212.58167 
L 522.089669 201.459846 
" style="fill: none; stroke: #00008b; stroke-width: 2"/>
    <path d="M 561.878837 212.58167 
L 561.878837 201.459846 
" style="fill: none; stroke: #00008b; stroke-width: 2"/>
    <path d="M 599.418023 212.58167 
L 599.418023 201.459846 
" style="fill: none; stroke: #00008b; stroke-width: 2"/>
    <path d="M 652.292617 212.58167 
L 652.292617 201.459846 
" style="fill: none; stroke: #00008b; stroke-width: 2"/>
    <path d="M 670.529319 212.58167 
L 670.529319 201.459846 
" style="fill: none; stroke: #00008b; stroke-width: 2"/>
    <path d="M 676.924007 212.58167 
L 676.924007 201.459846 
" style="fill: none; stroke: #00008b; stroke-width: 2"/>
    <path d="M 684.917367 212.58167 
L 684.917367 201.459846 
" style="fill: none; stroke: #00008b; stroke-width: 2"/>
    <path d="M 686.989719 212.58167 
L 686.989719 201.459846 
" style="fill: none; stroke: #00008b; stroke-width: 2"/>
    <path d="M 696.226491 212.58167 
L 696.226491 201.459846 
" style="fill: none; stroke: #00008b; stroke-width: 2"/>
    <path d="M 697.055432 212.58167 
L 697.055432 201.459846 
" style="fill: none; stroke: #00008b; stroke-width: 2"/>
    <path d="M 712.931132 212.58167 
L 712.931132 201.459846 
" style="fill: none; stroke: #00008b; stroke-width: 2"/>
    <path d="M 715.429057 212.58167 
L 715.429057 201.459846 
" style="fill: none; stroke: #00008b; stroke-width: 2"/>
    <path d="M 721.276052 212.58167 
L 721.276052 201.459846 
" style="fill: none; stroke: #00008b; stroke-width: 2"/>
    <path d="M 727.863172 212.58167 
L 727.863172 201.459846 
" style="fill: none; stroke: #00008b; stroke-width: 2"/>
    <path d="M 750.01144 212.58167 
L 750.01144 201.459846 
" style="fill: none; stroke: #00008b; stroke-width: 2"/>
    <path d="M 753.693566 212.58167 
L 753.693566 201.459846 
" style="fill: none; stroke: #00008b; stroke-width: 2"/>
    <path d="M 757.745756 212.58167 
L 757.745756 201.459846 
" style="fill: none; stroke: #00008b; stroke-width: 2"/>
    <path d="M 765.258033 212.58167 
L 765.258033 201.459846 
" style="fill: none; stroke: #00008b; stroke-width: 2"/>
    <path d="M 779.616476 212.58167 
L 779.616476 201.459846 
" style="fill: none; stroke: #00008b; stroke-width: 2"/>
    <path d="M 779.838514 212.58167 
L 779.838514 201.459846 
" style="fill: none; stroke: #00008b; stroke-width: 2"/>
    <path d="M 781.022715 212.58167 
L 781.022715 201.459846 
" style="fill: none; stroke: #00008b; stroke-width: 2"/>
    <path d="M 789.182603 212.58167 
L 789.182603 201.459846 
" style="fill: none; stroke: #00008b; stroke-width: 2"/>
    <path d="M 794.80756 212.58167 
L 794.80756 201.459846 
" style="fill: none; stroke: #00008b; stroke-width: 2"/>
    <path d="M 808.037311 212.58167 
L 808.037311 201.459846 
" style="fill: none; stroke: #00008b; stroke-width: 2"/>
    <path d="M 822.247728 212.58167 
L 822.247728 201.459846 
" style="fill: none; stroke: #00008b; stroke-width: 2"/>
    <path d="M 826.688483 212.58167 
L 826.688483 201.459846 
" style="fill: none; stroke: #00008b; stroke-width: 2"/>
    <path d="M 827.410106 212.58167 
L 827.410106 201.459846 
" style="fill: none; stroke: #00008b; stroke-width: 2"/>
    <path d="M 839.844221 212.58167 
L 839.844221 201.459846 
" style="fill: none; stroke: #00008b; stroke-width: 2"/>
    <path d="M 851.575217 212.58167 
L 851.575217 201.459846 
" style="fill: none; stroke: #00008b; stroke-width: 2"/>
   </g>
   <g id="LineCollection_10">
    <path d="M 104.954711 276.134952 
L 104.954711 253.891304 
" style="fill: none; stroke: #00008b; stroke-width: 2"/>
    <path d="M 697.055432 276.134952 
L 697.055432 253.891304 
" style="fill: none; stroke: #00008b; stroke-width: 2"/>
   </g>
   <g id="text_1">
    <!-- 1001001 -->
    <g transform="translate(376.328125 40.555086) scale(0.25 -0.25)">
     <defs>
      <path id="DejaVuSans-31" d="M 794 531 
L 1825 531 
L 1825 4091 
L 703 3866 
L 703 4441 
L 1819 4666 
L 2450 4666 
L 2450 531 
L 3481 531 
L 3481 0 
L 794 0 
L 794 531 
z
" transform="scale(0.015625)"/>
      <path id="DejaVuSans-30" d="M 2034 4250 
Q 1547 4250 1301 3770 
Q 1056 3291 1056 2328 
Q 1056 1369 1301 889 
Q 1547 409 2034 409 
Q 2525 409 2770 889 
Q 3016 1369 3016 2328 
Q 3016 3291 2770 3770 
Q 2525 4250 2034 4250 
z
M 2034 4750 
Q 2819 4750 3233 4129 
Q 3647 3509 3647 2328 
Q 3647 1150 3233 529 
Q 2819 -91 2034 -91 
Q 1250 -91 836 529 
Q 422 1150 422 2328 
Q 422 3509 836 4129 
Q 1250 4750 2034 4750 
z
" transform="scale(0.015625)"/>
     </defs>
     <use xlink:href="#DejaVuSans-31"/>
     <use xlink:href="#DejaVuSans-30" transform="translate(63.623047 0)"/>
     <use xlink:href="#DejaVuSans-30" transform="translate(127.246094 0)"/>
     <use xlink:href="#DejaVuSans-31" transform="translate(190.869141 0)"/>
     <use xlink:href="#DejaVuSans-30" transform="translate(254.492188 0)"/>
     <use xlink:href="#DejaVuSans-30" transform="translate(318.115234 0)"/>
     <use xlink:href="#DejaVuSans-31" transform="translate(381.738281 0)"/>
    </g>
   </g>
   <g id="text_2">
    <!-- 10010010 -->
    <g transform="translate(157.775 104.108368) scale(0.25 -0.25)">
     <use xlink:href="#DejaVuSans-31"/>
     <use xlink:href="#DejaVuSans-30" transform="translate(63.623047 0)"/>
     <use xlink:href="#DejaVuSans-30" transform="translate(127.246094 0)"/>
     <use xlink:href="#DejaVuSans-31" transform="translate(190.869141 0)"/>
     <use xlink:href="#DejaVuSans-30" transform="translate(254.492188 0)"/>
     <use xlink:href="#DejaVuSans-30" transform="translate(318.115234 0)"/>
     <use xlink:href="#DejaVuSans-31" transform="translate(381.738281 0)"/>
     <use xlink:href="#DejaVuSans-30" transform="translate(445.361328 0)"/>
    </g>
   </g>
   <g id="text_3">
    <!-- 10010011 -->
    <g transform="translate(578.975 104.108368) scale(0.25 -0.25)">
     <use xlink:href="#DejaVuSans-31"/>
     <use xlink:href="#DejaVuSans-30" transform="translate(63.623047 0)"/>
     <use xlink:href="#DejaVuSans-30" transform="translate(127.246094 0)"/>
     <use xlink:href="#DejaVuSans-31" transform="translate(190.869141 0)"/>
     <use xlink:href="#DejaVuSans-30" transform="translate(254.492188 0)"/>
     <use xlink:href="#DejaVuSans-30" transform="translate(318.115234 0)"/>
     <use xlink:href="#DejaVuSans-31" transform="translate(381.738281 0)"/>
     <use xlink:href="#DejaVuSans-31" transform="translate(445.361328 0)"/>
    </g>
   </g>
   <g id="text_4">
    <!-- 100100100 -->
    <g transform="translate(44.521875 167.66165) scale(0.25 -0.25)">
     <use xlink:href="#DejaVuSans-31"/>
     <use xlink:href="#DejaVuSans-30" transform="translate(63.623047 0)"/>
     <use xlink:href="#DejaVuSans-30" transform="translate(127.246094 0)"/>
     <use xlink:href="#DejaVuSans-31" transform="translate(190.869141 0)"/>
     <use xlink:href="#DejaVuSans-30" transform="translate(254.492188 0)"/>
     <use xlink:href="#DejaVuSans-30" transform="translate(318.115234 0)"/>
     <use xlink:href="#DejaVuSans-31" transform="translate(381.738281 0)"/>
     <use xlink:href="#DejaVuSans-30" transform="translate(445.361328 0)"/>
     <use xlink:href="#DejaVuSans-30" transform="translate(508.984375 0)"/>
    </g>
   </g>
   <g id="text_5">
    <!-- 100100101 -->
    <g transform="translate(255.121875 167.66165) scale(0.25 -0.25)">
     <use xlink:href="#DejaVuSans-31"/>
     <use xlink:href="#DejaVuSans-30" transform="translate(63.623047 0)"/>
     <use xlink:href="#DejaVuSans-30" transform="translate(127.246094 0)"/>
     <use xlink:href="#DejaVuSans-31" transform="translate(190.869141 0)"/>
     <use xlink:href="#DejaVuSans-30" transform="translate(254.492188 0)"/>
     <use xlink:href="#DejaVuSans-30" transform="translate(318.115234 0)"/>
     <use xlink:href="#DejaVuSans-31" transform="translate(381.738281 0)"/>
     <use xlink:href="#DejaVuSans-30" transform="translate(445.361328 0)"/>
     <use xlink:href="#DejaVuSans-31" transform="translate(508.984375 0)"/>
    </g>
   </g>
   <g id="text_6">
    <!-- 100100110 -->
    <g transform="translate(465.721875 167.66165) scale(0.25 -0.25)">
     <use xlink:href="#DejaVuSans-31"/>
     <use xlink:href="#DejaVuSans-30" transform="translate(63.623047 0)"/>
     <use xlink:href="#DejaVuSans-30" transform="translate(127.246094 0)"/>
     <use xlink:href="#DejaVuSans-31" transform="translate(190.869141 0)"/>
     <use xlink:href="#DejaVuSans-30" transform="translate(254.492188 0)"/>
     <use xlink:href="#DejaVuSans-30" transform="translate(318.115234 0)"/>
     <use xlink:href="#DejaVuSans-31" transform="translate(381.738281 0)"/>
     <use xlink:href="#DejaVuSans-31" transform="translate(445.361328 0)"/>
     <use xlink:href="#DejaVuSans-30" transform="translate(508.984375 0)"/>
    </g>
   </g>
   <g id="text_7">
    <!-- 100100111 -->
    <g transform="translate(676.321875 167.66165) scale(0.25 -0.25)">
     <use xlink:href="#DejaVuSans-31"/>
     <use xlink:href="#DejaVuSans-30" transform="translate(63.623047 0)"/>
     <use xlink:href="#DejaVuSans-30" transform="translate(127.246094 0)"/>
     <use xlink:href="#DejaVuSans-31" transform="translate(190.869141 0)"/>
     <use xlink:href="#DejaVuSans-30" transform="translate(254.492188 0)"/>
     <use xlink:href="#DejaVuSans-30" transform="translate(318.115234 0)"/>
     <use xlink:href="#DejaVuSans-31" transform="translate(381.738281 0)"/>
     <use xlink:href="#DejaVuSans-31" transform="translate(445.361328 0)"/>
     <use xlink:href="#DejaVuSans-31" transform="translate(508.984375 0)"/>
    </g>
   </g>
   <g id="text_8">
    <!-- NOA -->
    <g style="fill: #00008b" transform="translate(97.327707 236.965815) scale(0.3 -0.3)">
     <defs>
      <path id="DejaVuSans-4e" d="M 628 4666 
L 1478 4666 
L 3547 763 
L 3547 4666 
L 4159 4666 
L 4159 0 
L 3309 0 
L 1241 3903 
L 1241 0 
L 628 0 
L 628 4666 
z
" transform="scale(0.015625)"/>
      <path id="DejaVuSans-4f" d="M 2522 4238 
Q 1834 4238 1429 3725 
Q 1025 3213 1025 2328 
Q 1025 1447 1429 934 
Q 1834 422 2522 422 
Q 3209 422 3611 934 
Q 4013 1447 4013 2328 
Q 4013 3213 3611 3725 
Q 3209 4238 2522 4238 
z
M 2522 4750 
Q 3503 4750 4090 4092 
Q 4678 3434 4678 2328 
Q 4678 1225 4090 567 
Q 3503 -91 2522 -91 
Q 1538 -91 948 565 
Q 359 1222 359 2328 
Q 359 3434 948 4092 
Q 1538 4750 2522 4750 
z
" transform="scale(0.015625)"/>
      <path id="DejaVuSans-41" d="M 2188 4044 
L 1331 1722 
L 3047 1722 
L 2188 4044 
z
M 1831 4666 
L 2547 4666 
L 4325 0 
L 3669 0 
L 3244 1197 
L 1141 1197 
L 716 0 
L 50 0 
L 1831 4666 
z
" transform="scale(0.015625)"/>
     </defs>
     <use xlink:href="#DejaVuSans-4e"/>
     <use xlink:href="#DejaVuSans-4f" transform="translate(74.804688 0)"/>
     <use xlink:href="#DejaVuSans-41" transform="translate(151.765625 0)"/>
    </g>
   </g>
   <g id="text_9">
    <!-- NOE -->
    <g style="fill: #00008b" transform="translate(206.468897 236.965815) scale(0.3 -0.3)">
     <defs>
      <path id="DejaVuSans-45" d="M 628 4666 
L 3578 4666 
L 3578 4134 
L 1259 4134 
L 1259 2753 
L 3481 2753 
L 3481 2222 
L 1259 2222 
L 1259 531 
L 3634 531 
L 3634 0 
L 628 0 
L 628 4666 
z
" transform="scale(0.015625)"/>
     </defs>
     <use xlink:href="#DejaVuSans-4e"/>
     <use xlink:href="#DejaVuSans-4f" transform="translate(74.804688 0)"/>
     <use xlink:href="#DejaVuSans-45" transform="translate(153.515625 0)"/>
    </g>
   </g>
   <g id="text_10">
    <!-- NOT -->
    <g style="fill: #00008b" transform="translate(593.663914 236.965815) scale(0.3 -0.3)">
     <defs>
      <path id="DejaVuSans-54" d="M -19 4666 
L 3928 4666 
L 3928 4134 
L 2272 4134 
L 2272 0 
L 1638 0 
L 1638 4134 
L -19 4134 
L -19 4666 
z
" transform="scale(0.015625)"/>
     </defs>
     <use xlink:href="#DejaVuSans-4e"/>
     <use xlink:href="#DejaVuSans-4f" transform="translate(74.804688 0)"/>
     <use xlink:href="#DejaVuSans-54" transform="translate(153.515625 0)"/>
    </g>
   </g>
   <g id="text_11">
    <!-- NN -->
    <g style="fill: #00008b" transform="translate(35.433606 300.519097) scale(0.3 -0.3)">
     <use xlink:href="#DejaVuSans-4e"/>
     <use xlink:href="#DejaVuSans-4e" transform="translate(74.804688 0)"/>
    </g>
   </g>
   <g id="text_12">
    <!-- NO -->
    <g style="fill: #00008b" transform="translate(377.975384 300.519097) scale(0.3 -0.3)">
     <use xlink:href="#DejaVuSans-4e"/>
     <use xlink:href="#DejaVuSans-4f" transform="translate(74.804688 0)"/>
    </g>
   </g>
   <g id="text_13">
    <!-- NP -->
    <g style="fill: #00008b" transform="translate(754.86131 300.519097) scale(0.3 -0.3)">
     <defs>
      <path id="DejaVuSans-50" d="M 1259 4147 
L 1259 2394 
L 2053 2394 
Q 2494 2394 2734 2622 
Q 2975 2850 2975 3272 
Q 2975 3691 2734 3919 
Q 2494 4147 2053 4147 
L 1259 4147 
z
M 628 4666 
L 2053 4666 
Q 2838 4666 3239 4311 
Q 3641 3956 3641 3272 
Q 3641 2581 3239 2228 
Q 2838 1875 2053 1875 
L 1259 1875 
L 1259 0 
L 628 0 
L 628 4666 
z
" transform="scale(0.015625)"/>
     </defs>
     <use xlink:href="#DejaVuSans-4e"/>
     <use xlink:href="#DejaVuSans-50" transform="translate(74.804688 0)"/>
    </g>
   </g>
   <g id="LineCollection_11">
    <path d="M 432 193.515686 
L 652.641408 193.515686 
" clip-path="url(#pe4f6198e72)" style="fill: none; stroke: #ff0000; stroke-width: 6"/>
   </g>
  </g>
 </g>
 <defs>
  <clipPath id="pe4f6198e72">
   <rect x="10.8" y="10.8" width="842.4" height="298.700426"/>
  </clipPath>
 </defs>
</svg>
