<?xml version="1.0" encoding="utf-8" standalone="no"?>
<!DOCTYPE svg PUBLIC "-//W3C//DTD SVG 1.1//EN"
  "http://www.w3.org/Graphics/SVG/1.1/DTD/svg11.dtd">
<svg xmlns:xlink="http://www.w3.org/1999/xlink" width="864pt" height="237.6pt" viewBox="0 0 864 237.6" xmlns="http://www.w3.org/2000/svg" version="1.1">
 <metadata>
  <rdf:RDF xmlns:dc="http://purl.org/dc/elements/1.1/" xmlns:cc="http://creativecommons.org/ns#" xmlns:rdf="http://www.w3.org/1999/02/22-rdf-syntax-ns#">
   <cc:Work>
    <dc:type rdf:resource="http://purl.org/dc/dcmitype/StillImage"/>
    <dc:date>2025-10-13T11:18:19.358471</dc:date>
    <dc:format>image/svg+xml</dc:format>
    <dc:creator>
     <cc:Agent>
      <dc:title>Matplotlib v3.10.0, https://matplotlib.org/</dc:title>
     </cc:Agent>
    </dc:creator>
   </cc:Work>
  </rdf:RDF>
 </metadata>
 <defs>
  <style type="text/css">*{stroke-linejoin: round; stroke-linecap: butt}</style>
 </defs>
 <g id="figure_1">
  <g id="patch_1">
   <path d="M 0 237.6 
L 864 237.6 
L 864 0 
L 0 0 
z
" style="fill: #ffffff"/>
  </g>
  <g id="axes_1">
   <g id="patch_2">
    <path d="M 10.8 226.8 
L 853.2 226.8 
L 853.2 10.8 
L 10.8 10.8 
z
" style="fill: #ffffff"/>
   </g>
   <g id="matplotlib.axis_1"/>
   <g id="matplotlib.axis_2"/>
   <g id="LineCollection_1">
    <path d="M 10.8 70.8 
L 853.2 70.8 
" clip-path="url(#p07bb2f8e2e)" style="fill: none; stroke: #000000; stroke-width: 3"/>
   </g>
   <g id="LineCollection_2">
    <path d="M 10.8 150.8 
L 853.2 150.8 
" clip-path="url(#p07bb2f8e2e)" style="fill: none; stroke: #000000; stroke-width: 3"/>
   </g>
   <g id="LineCollection_3">
    <path d="M 10.8 170.8 
L 853.2 170.8 
" clip-path="url(#p07bb2f8e2e)" style="fill: none; stroke: #00008b; stroke-width: 3"/>
   </g>
   <g id="LineCollection_4">
    <path d="M 10.8 84.8 
L 10.8 56.8 
" style="fill: none; stroke: #000000; stroke-width: 2"/>
    <path d="M 718.27111 84.8 
L 718.27111 56.8 
" style="fill: none; stroke: #000000; stroke-width: 2"/>
   </g>
   <g id="LineCollection_5">
    <path d="M 10.8 150.8 
L 10.8 136.8 
" style="fill: none; stroke: #000000; stroke-width: 2"/>
    <path d="M 364.535555 150.8 
L 364.535555 136.8 
" style="fill: none; stroke: #000000; stroke-width: 2"/>
    <path d="M 718.27111 150.8 
L 718.27111 136.8 
" style="fill: none; stroke: #000000; stroke-width: 2"/>
   </g>
   <g id="LineCollection_6">
    <path d="M 138.024172 184.8 
L 138.024172 170.8 
" style="fill: none; stroke: #00008b; stroke-width: 2"/>
    <path d="M 848.513211 184.8 
L 848.513211 170.8 
" style="fill: none; stroke: #00008b; stroke-width: 2"/>
   </g>
   <g id="text_1">
    <!-- 10010011011 -->
    <g transform="translate(277.05118 49.600781) scale(0.25 -0.25)">
     <defs>
      <path id="DejaVuSans-31" d="M 794 531 
L 1825 531 
L 1825 4091 
L 703 3866 
L 703 4441 
L 1819 4666 
L 2450 4666 
L 2450 531 
L 3481 531 
L 3481 0 
L 794 0 
L 794 531 
z
" transform="scale(0.015625)"/>
      <path id="DejaVuSans-30" d="M 2034 4250 
Q 1547 4250 1301 3770 
Q 1056 3291 1056 2328 
Q 1056 1369 1301 889 
Q 1547 409 2034 409 
Q 2525 409 2770 889 
Q 3016 1369 3016 2328 
Q 3016 3291 2770 3770 
Q 2525 4250 2034 4250 
z
M 2034 4750 
Q 2819 4750 3233 4129 
Q 3647 3509 3647 2328 
Q 3647 1150 3233 529 
Q 2819 -91 2034 -91 
Q 1250 -91 836 529 
Q 422 1150 422 2328 
Q 422 3509 836 4129 
Q 1250 4750 2034 4750 
z
" transform="scale(0.015625)"/>
     </defs>
     <use xlink:href="#DejaVuSans-31"/>
     <use xlink:href="#DejaVuSans-30" transform="translate(63.623047 0)"/>
     <use xlink:href="#DejaVuSans-30" transform="translate(127.246094 0)"/>
     <use xlink:href="#DejaVuSans-31" transform="translate(190.869141 0)"/>
     <use xlink:href="#DejaVuSans-30" transform="translate(254.492188 0)"/>
     <use xlink:href="#DejaVuSans-30" transform="translate(318.115234 0)"/>
     <use xlink:href="#DejaVuSans-31" transform="translate(381.738281 0)"/>
     <use xlink:href="#DejaVuSans-31" transform="translate(445.361328 0)"/>
     <use xlink:href="#DejaVuSans-30" transform="translate(508.984375 0)"/>
     <use xlink:href="#DejaVuSans-31" transform="translate(572.607422 0)"/>
     <use xlink:href="#DejaVuSans-31" transform="translate(636.230469 0)"/>
    </g>
   </g>
   <g id="text_2">
    <!-- 100100110110 -->
    <g transform="translate(92.230277 129.600781) scale(0.25 -0.25)">
     <use xlink:href="#DejaVuSans-31"/>
     <use xlink:href="#DejaVuSans-30" transform="translate(63.623047 0)"/>
     <use xlink:href="#DejaVuSans-30" transform="translate(127.246094 0)"/>
     <use xlink:href="#DejaVuSans-31" transform="translate(190.869141 0)"/>
     <use xlink:href="#DejaVuSans-30" transform="translate(254.492188 0)"/>
     <use xlink:href="#DejaVuSans-30" transform="translate(318.115234 0)"/>
     <use xlink:href="#DejaVuSans-31" transform="translate(381.738281 0)"/>
     <use xlink:href="#DejaVuSans-31" transform="translate(445.361328 0)"/>
     <use xlink:href="#DejaVuSans-30" transform="translate(508.984375 0)"/>
     <use xlink:href="#DejaVuSans-31" transform="translate(572.607422 0)"/>
     <use xlink:href="#DejaVuSans-31" transform="translate(636.230469 0)"/>
     <use xlink:href="#DejaVuSans-30" transform="translate(699.853516 0)"/>
    </g>
   </g>
   <g id="text_3">
    <!-- 100100110111 -->
    <g transform="translate(445.965832 129.600781) scale(0.25 -0.25)">
     <use xlink:href="#DejaVuSans-31"/>
     <use xlink:href="#DejaVuSans-30" transform="translate(63.623047 0)"/>
     <use xlink:href="#DejaVuSans-30" transform="translate(127.246094 0)"/>
     <use xlink:href="#DejaVuSans-31" transform="translate(190.869141 0)"/>
     <use xlink:href="#DejaVuSans-30" transform="translate(254.492188 0)"/>
     <use xlink:href="#DejaVuSans-30" transform="translate(318.115234 0)"/>
     <use xlink:href="#DejaVuSans-31" transform="translate(381.738281 0)"/>
     <use xlink:href="#DejaVuSans-31" transform="translate(445.361328 0)"/>
     <use xlink:href="#DejaVuSans-30" transform="translate(508.984375 0)"/>
     <use xlink:href="#DejaVuSans-31" transform="translate(572.607422 0)"/>
     <use xlink:href="#DejaVuSans-31" transform="translate(636.230469 0)"/>
     <use xlink:href="#DejaVuSans-31" transform="translate(699.853516 0)"/>
    </g>
   </g>
   <g id="text_4">
    <!-- NOS -->
    <g style="fill: #00008b" transform="translate(41.859742 209.595313) scale(0.3 -0.3)">
     <defs>
      <path id="DejaVuSans-4e" d="M 628 4666 
L 1478 4666 
L 3547 763 
L 3547 4666 
L 4159 4666 
L 4159 0 
L 3309 0 
L 1241 3903 
L 1241 0 
L 628 0 
L 628 4666 
z
" transform="scale(0.015625)"/>
      <path id="DejaVuSans-4f" d="M 2522 4238 
Q 1834 4238 1429 3725 
Q 1025 3213 1025 2328 
Q 1025 1447 1429 934 
Q 1834 422 2522 422 
Q 3209 422 3611 934 
Q 4013 1447 4013 2328 
Q 4013 3213 3611 3725 
Q 3209 4238 2522 4238 
z
M 2522 4750 
Q 3503 4750 4090 4092 
Q 4678 3434 4678 2328 
Q 4678 1225 4090 567 
Q 3503 -91 2522 -91 
Q 1538 -91 948 565 
Q 359 1222 359 2328 
Q 359 3434 948 4092 
Q 1538 4750 2522 4750 
z
" transform="scale(0.015625)"/>
      <path id="DejaVuSans-53" d="M 3425 4513 
L 3425 3897 
Q 3066 4069 2747 4153 
Q 2428 4238 2131 4238 
Q 1616 4238 1336 4038 
Q 1056 3838 1056 3469 
Q 1056 3159 1242 3001 
Q 1428 2844 1947 2747 
L 2328 2669 
Q 3034 2534 3370 2195 
Q 3706 1856 3706 1288 
Q 3706 609 3251 259 
Q 2797 -91 1919 -91 
Q 1588 -91 1214 -16 
Q 841 59 441 206 
L 441 856 
Q 825 641 1194 531 
Q 1563 422 1919 422 
Q 2459 422 2753 634 
Q 3047 847 3047 1241 
Q 3047 1584 2836 1778 
Q 2625 1972 2144 2069 
L 1759 2144 
Q 1053 2284 737 2584 
Q 422 2884 422 3419 
Q 422 4038 858 4394 
Q 1294 4750 2059 4750 
Q 2388 4750 2728 4690 
Q 3069 4631 3425 4513 
z
" transform="scale(0.015625)"/>
     </defs>
     <use xlink:href="#DejaVuSans-4e"/>
     <use xlink:href="#DejaVuSans-4f" transform="translate(74.804688 0)"/>
     <use xlink:href="#DejaVuSans-53" transform="translate(153.515625 0)"/>
    </g>
   </g>
   <g id="text_5">
    <!-- NOT -->
    <g style="fill: #00008b" transform="translate(461.077285 209.595313) scale(0.3 -0.3)">
     <defs>
      <path id="DejaVuSans-54" d="M -19 4666 
L 3928 4666 
L 3928 4134 
L 2272 4134 
L 2272 0 
L 1638 0 
L 1638 4134 
L -19 4134 
L -19 4666 
z
" transform="scale(0.015625)"/>
     </defs>
     <use xlink:href="#DejaVuSans-4e"/>
     <use xlink:href="#DejaVuSans-4f" transform="translate(74.804688 0)"/>
     <use xlink:href="#DejaVuSans-54" transform="translate(153.515625 0)"/>
    </g>
   </g>
   <g id="LineCollection_7">
    <path d="M 364.535555 160.8 
L 718.27111 160.8 
" clip-path="url(#p07bb2f8e2e)" style="fill: none; stroke: #ff0000; stroke-width: 6"/>
   </g>
  </g>
 </g>
 <defs>
  <clipPath id="p07bb2f8e2e">
   <rect x="10.8" y="10.8" width="842.4" height="216"/>
  </clipPath>
 </defs>
</svg>
