<?xml version="1.0" encoding="utf-8" standalone="no"?>
<!DOCTYPE svg PUBLIC "-//W3C//DTD SVG 1.1//EN"
  "http://www.w3.org/Graphics/SVG/1.1/DTD/svg11.dtd">
<svg xmlns:xlink="http://www.w3.org/1999/xlink" width="628.2pt" height="300.018613pt" viewBox="0 0 628.2 300.018613" xmlns="http://www.w3.org/2000/svg" version="1.1">
 <metadata>
  <rdf:RDF xmlns:dc="http://purl.org/dc/elements/1.1/" xmlns:cc="http://creativecommons.org/ns#" xmlns:rdf="http://www.w3.org/1999/02/22-rdf-syntax-ns#">
   <cc:Work>
    <dc:type rdf:resource="http://purl.org/dc/dcmitype/StillImage"/>
    <dc:date>2026-04-07T11:07:21.982594</dc:date>
    <dc:format>image/svg+xml</dc:format>
    <dc:creator>
     <cc:Agent>
      <dc:title>Matplotlib v3.10.8, https://matplotlib.org/</dc:title>
     </cc:Agent>
    </dc:creator>
   </cc:Work>
  </rdf:RDF>
 </metadata>
 <defs>
  <style type="text/css">*{stroke-linejoin: round; stroke-linecap: butt}</style>
 </defs>
 <g id="figure_1">
  <g id="patch_1">
   <path d="M 0 300.018613 
L 628.2 300.018613 
L 628.2 0 
L 0 0 
z
" style="fill: #ffffff"/>
  </g>
  <g id="axes_1">
   <g id="patch_2">
    <path d="M 52.00292 80.004745 
C 52.00292 150.009307 401.465693 150.009307 401.465693 217.777801 
" clip-path="url(#p5c308a3145)" style="fill: none; stroke: #000000; stroke-width: 2; stroke-linecap: round"/>
    <path d="M 404.665693 211.377801 
L 401.465693 217.777801 
L 398.265693 211.377801 
z
" clip-path="url(#p5c308a3145)" style="stroke: #000000; stroke-width: 2; stroke-linecap: round"/>
   </g>
   <g id="patch_3">
    <path d="M 164.010219 80.004745 
C 164.010219 150.009307 52.00292 150.009307 52.00292 217.777801 
" clip-path="url(#p5c308a3145)" style="fill: none; stroke: #000000; stroke-width: 2; stroke-linecap: round"/>
    <path d="M 55.20292 211.377801 
L 52.00292 217.777801 
L 48.80292 211.377801 
z
" clip-path="url(#p5c308a3145)" style="stroke: #000000; stroke-width: 2; stroke-linecap: round"/>
   </g>
   <g id="patch_4">
    <path d="M 226.734307 80.004745 
C 226.734307 150.009307 488.831387 150.009307 488.831387 217.777801 
" clip-path="url(#p5c308a3145)" style="fill: none; stroke: #000000; stroke-width: 2; stroke-linecap: round"/>
    <path d="M 492.031387 211.377801 
L 488.831387 217.777801 
L 485.631387 211.377801 
z
" clip-path="url(#p5c308a3145)" style="stroke: #000000; stroke-width: 2; stroke-linecap: round"/>
   </g>
   <g id="patch_5">
    <path d="M 289.458394 80.004745 
C 289.458394 150.009307 576.19708 150.009307 576.19708 217.777801 
" clip-path="url(#p5c308a3145)" style="fill: none; stroke: #000000; stroke-width: 2; stroke-linecap: round"/>
    <path d="M 579.39708 211.377801 
L 576.19708 217.777801 
L 572.99708 211.377801 
z
" clip-path="url(#p5c308a3145)" style="stroke: #000000; stroke-width: 2; stroke-linecap: round"/>
   </g>
   <g id="patch_6">
    <path d="M 401.465693 80.004745 
C 401.465693 150.009307 139.368613 150.009307 139.368613 217.777801 
" clip-path="url(#p5c308a3145)" style="fill: none; stroke: #000000; stroke-width: 2; stroke-linecap: round"/>
    <path d="M 142.568613 211.377801 
L 139.368613 217.777801 
L 136.168613 211.377801 
z
" clip-path="url(#p5c308a3145)" style="stroke: #000000; stroke-width: 2; stroke-linecap: round"/>
   </g>
   <g id="patch_7">
    <path d="M 464.189781 80.004745 
C 464.189781 150.009307 226.734307 150.009307 226.734307 217.777801 
" clip-path="url(#p5c308a3145)" style="fill: none; stroke: #000000; stroke-width: 2; stroke-linecap: round"/>
    <path d="M 229.934307 211.377801 
L 226.734307 217.777801 
L 223.534307 211.377801 
z
" clip-path="url(#p5c308a3145)" style="stroke: #000000; stroke-width: 2; stroke-linecap: round"/>
   </g>
   <g id="patch_8">
    <path d="M 576.19708 80.004745 
C 576.19708 150.009307 314.1 150.009307 314.1 217.777801 
" clip-path="url(#p5c308a3145)" style="fill: none; stroke: #000000; stroke-width: 2; stroke-linecap: round"/>
    <path d="M 317.3 211.377801 
L 314.1 217.777801 
L 310.9 211.377801 
z
" clip-path="url(#p5c308a3145)" style="stroke: #000000; stroke-width: 2; stroke-linecap: round"/>
   </g>
   <g id="patch_9">
    <path d="M 24.001095 80.004745 
L 80.004745 80.004745 
L 80.004745 24.001095 
L 24.001095 24.001095 
z
" clip-path="url(#p5c308a3145)" style="fill: #ffffff; stroke: #000000; stroke-width: 2; stroke-linejoin: miter"/>
   </g>
   <g id="patch_10">
    <path d="M 136.008394 80.004745 
L 192.012044 80.004745 
L 192.012044 24.001095 
L 136.008394 24.001095 
z
" clip-path="url(#p5c308a3145)" style="fill: #ffffff; stroke: #000000; stroke-width: 2; stroke-linejoin: miter"/>
   </g>
   <g id="patch_11">
    <path d="M 198.732482 80.004745 
L 254.736131 80.004745 
L 254.736131 24.001095 
L 198.732482 24.001095 
z
" clip-path="url(#p5c308a3145)" style="fill: #ffffff; stroke: #000000; stroke-width: 2; stroke-linejoin: miter"/>
   </g>
   <g id="patch_12">
    <path d="M 261.456569 80.004745 
L 317.460219 80.004745 
L 317.460219 24.001095 
L 261.456569 24.001095 
z
" clip-path="url(#p5c308a3145)" style="fill: #ffffff; stroke: #000000; stroke-width: 2; stroke-linejoin: miter"/>
   </g>
   <g id="patch_13">
    <path d="M 373.463869 80.004745 
L 429.467518 80.004745 
L 429.467518 24.001095 
L 373.463869 24.001095 
z
" clip-path="url(#p5c308a3145)" style="fill: #ffffff; stroke: #000000; stroke-width: 2; stroke-linejoin: miter"/>
   </g>
   <g id="patch_14">
    <path d="M 436.187956 80.004745 
L 492.191606 80.004745 
L 492.191606 24.001095 
L 436.187956 24.001095 
z
" clip-path="url(#p5c308a3145)" style="fill: #ffffff; stroke: #000000; stroke-width: 2; stroke-linejoin: miter"/>
   </g>
   <g id="patch_15">
    <path d="M 548.195255 80.004745 
L 604.198905 80.004745 
L 604.198905 24.001095 
L 548.195255 24.001095 
z
" clip-path="url(#p5c308a3145)" style="fill: #ffffff; stroke: #000000; stroke-width: 2; stroke-linejoin: miter"/>
   </g>
   <g id="patch_16">
    <path d="M 24.001095 276.017518 
L 80.004745 276.017518 
L 80.004745 220.013869 
L 24.001095 220.013869 
z
" clip-path="url(#p5c308a3145)" style="fill: #ffffff; stroke: #000000; stroke-width: 2; stroke-linejoin: miter"/>
   </g>
   <g id="patch_17">
    <path d="M 111.366788 276.017518 
L 167.370438 276.017518 
L 167.370438 220.013869 
L 111.366788 220.013869 
z
" clip-path="url(#p5c308a3145)" style="fill: #ffffff; stroke: #000000; stroke-width: 2; stroke-linejoin: miter"/>
   </g>
   <g id="patch_18">
    <path d="M 198.732482 276.017518 
L 254.736131 276.017518 
L 254.736131 220.013869 
L 198.732482 220.013869 
z
" clip-path="url(#p5c308a3145)" style="fill: #ffffff; stroke: #000000; stroke-width: 2; stroke-linejoin: miter"/>
   </g>
   <g id="patch_19">
    <path d="M 286.098175 276.017518 
L 342.101825 276.017518 
L 342.101825 220.013869 
L 286.098175 220.013869 
z
" clip-path="url(#p5c308a3145)" style="fill: #ffffff; stroke: #000000; stroke-width: 2; stroke-linejoin: miter"/>
   </g>
   <g id="patch_20">
    <path d="M 373.463869 276.017518 
L 429.467518 276.017518 
L 429.467518 220.013869 
L 373.463869 220.013869 
z
" clip-path="url(#p5c308a3145)" style="fill: #ffffff; stroke: #000000; stroke-width: 2; stroke-linejoin: miter"/>
   </g>
   <g id="patch_21">
    <path d="M 460.829562 276.017518 
L 516.833212 276.017518 
L 516.833212 220.013869 
L 460.829562 220.013869 
z
" clip-path="url(#p5c308a3145)" style="fill: #ffffff; stroke: #000000; stroke-width: 2; stroke-linejoin: miter"/>
   </g>
   <g id="patch_22">
    <path d="M 548.195255 276.017518 
L 604.198905 276.017518 
L 604.198905 220.013869 
L 548.195255 220.013869 
z
" clip-path="url(#p5c308a3145)" style="fill: #ffffff; stroke: #000000; stroke-width: 2; stroke-linejoin: miter"/>
   </g>
   <g id="text_1">
    <!-- a -->
    <g transform="translate(46.04042 57.52167) scale(0.2 -0.2)">
     <defs>
      <path id="DejaVuSerif-Italic-61" d="M 2325 519 
Q 1909 -91 1238 -91 
Q 688 -91 409 281 
Q 216 544 216 919 
Q 216 1078 250 1256 
Q 463 2359 1231 2928 
Q 1884 3413 2675 3413 
Q 3206 3413 3388 3322 
L 2806 331 
L 3300 331 
L 3238 0 
L 2225 0 
L 2325 519 
z
M 822 938 
Q 822 269 1469 269 
Q 1863 269 2130 583 
Q 2397 897 2516 1497 
L 2806 3003 
L 2806 3003 
Q 2806 3094 2556 3094 
Q 1956 3094 1491 2625 
Q 1028 2153 863 1297 
Q 822 1097 822 938 
z
" transform="scale(0.015625)"/>
     </defs>
     <use xlink:href="#DejaVuSerif-Italic-61"/>
    </g>
   </g>
   <g id="text_2">
    <!-- b -->
    <g transform="translate(157.608656 57.52167) scale(0.2 -0.2)">
     <defs>
      <path id="DejaVuSerif-Italic-62" d="M 1153 4531 
L 600 4531 
L 666 4863 
L 1794 4863 
L 1394 2803 
Q 1622 3116 1912 3264 
Q 2203 3413 2588 3413 
Q 3200 3413 3494 2928 
Q 3688 2609 3688 2163 
Q 3688 1928 3634 1663 
Q 3481 881 3000 395 
Q 2519 -91 1906 -91 
Q 1522 -91 1289 57 
Q 1056 206 950 519 
L 850 0 
L 275 0 
L 1153 4531 
z
M 1141 1497 
Q 1091 1250 1091 1053 
Q 1091 769 1191 581 
Q 1359 269 1797 269 
Q 2238 269 2533 622 
Q 2828 975 2963 1663 
Q 3025 1978 3025 2225 
Q 3025 2513 2938 2703 
Q 2781 3053 2338 3053 
Q 1900 3053 1609 2737 
Q 1319 2422 1203 1825 
L 1141 1497 
z
" transform="scale(0.015625)"/>
     </defs>
     <use xlink:href="#DejaVuSerif-Italic-62"/>
    </g>
   </g>
   <g id="text_3">
    <!-- b -->
    <g transform="translate(220.332744 57.52167) scale(0.2 -0.2)">
     <use xlink:href="#DejaVuSerif-Italic-62"/>
    </g>
   </g>
   <g id="text_4">
    <!-- b -->
    <g transform="translate(283.056832 57.52167) scale(0.2 -0.2)">
     <use xlink:href="#DejaVuSerif-Italic-62"/>
    </g>
   </g>
   <g id="text_5">
    <!-- c -->
    <g transform="translate(395.865693 57.52167) scale(0.2 -0.2)">
     <defs>
      <path id="DejaVuSerif-Italic-63" d="M 3163 997 
Q 2938 466 2536 187 
Q 2134 -91 1584 -91 
Q 859 -91 513 388 
Q 272 722 272 1203 
Q 272 1419 319 1663 
Q 475 2459 1008 2936 
Q 1541 3413 2266 3413 
Q 2581 3413 2879 3339 
Q 3178 3266 3463 3116 
L 3300 2266 
L 2966 2266 
Q 2966 2309 2966 2347 
Q 2966 2722 2803 2903 
Q 2622 3103 2213 3103 
Q 1747 3103 1439 2742 
Q 1131 2381 991 1663 
Q 928 1334 928 1078 
Q 928 778 1016 581 
Q 1181 219 1650 219 
Q 2022 219 2281 412 
Q 2541 606 2700 997 
L 3163 997 
z
" transform="scale(0.015625)"/>
     </defs>
     <use xlink:href="#DejaVuSerif-Italic-63"/>
    </g>
   </g>
   <g id="text_6">
    <!-- c -->
    <g transform="translate(458.589781 57.52167) scale(0.2 -0.2)">
     <use xlink:href="#DejaVuSerif-Italic-63"/>
    </g>
   </g>
   <g id="text_7">
    <!-- d -->
    <g transform="translate(569.795518 57.52167) scale(0.2 -0.2)">
     <defs>
      <path id="DejaVuSerif-Italic-64" d="M 3841 4863 
L 2897 0 
L 2322 0 
L 2422 519 
Q 2191 206 1902 57 
Q 1613 -91 1228 -91 
Q 616 -91 322 394 
Q 125 716 125 1166 
Q 125 1397 178 1663 
Q 331 2444 812 2928 
Q 1294 3413 1909 3413 
Q 2294 3413 2525 3264 
Q 2756 3116 2866 2803 
L 3200 4531 
L 2656 4531 
L 2722 4863 
L 3841 4863 
z
M 2613 1497 
L 2675 1825 
Q 2722 2069 2722 2266 
Q 2722 2550 2622 2738 
Q 2456 3053 2019 3053 
Q 1575 3053 1279 2703 
Q 984 2353 850 1663 
Q 788 1347 788 1103 
Q 788 813 875 622 
Q 1031 269 1475 269 
Q 1913 269 2203 583 
Q 2494 897 2613 1497 
z
" transform="scale(0.015625)"/>
     </defs>
     <use xlink:href="#DejaVuSerif-Italic-64"/>
    </g>
   </g>
   <g id="text_8">
    <!-- b -->
    <g transform="translate(45.601357 253.534443) scale(0.2 -0.2)">
     <use xlink:href="#DejaVuSerif-Italic-62"/>
    </g>
   </g>
   <g id="text_9">
    <!-- c -->
    <g transform="translate(133.768613 253.534443) scale(0.2 -0.2)">
     <use xlink:href="#DejaVuSerif-Italic-63"/>
    </g>
   </g>
   <g id="text_10">
    <!-- c -->
    <g transform="translate(221.134307 253.534443) scale(0.2 -0.2)">
     <use xlink:href="#DejaVuSerif-Italic-63"/>
    </g>
   </g>
   <g id="text_11">
    <!-- d -->
    <g transform="translate(307.698438 253.534443) scale(0.2 -0.2)">
     <use xlink:href="#DejaVuSerif-Italic-64"/>
    </g>
   </g>
   <g id="text_12">
    <!-- a -->
    <g transform="translate(395.503193 253.534443) scale(0.2 -0.2)">
     <use xlink:href="#DejaVuSerif-Italic-61"/>
    </g>
   </g>
   <g id="text_13">
    <!-- b -->
    <g transform="translate(482.429824 253.534443) scale(0.2 -0.2)">
     <use xlink:href="#DejaVuSerif-Italic-62"/>
    </g>
   </g>
   <g id="text_14">
    <!-- b -->
    <g transform="translate(569.795518 253.534443) scale(0.2 -0.2)">
     <use xlink:href="#DejaVuSerif-Italic-62"/>
    </g>
   </g>
  </g>
 </g>
 <defs>
  <clipPath id="p5c308a3145">
   <rect x="7.2" y="7.2" width="613.8" height="285.618613"/>
  </clipPath>
 </defs>
</svg>
