<?xml version="1.0" encoding="utf-8" standalone="no"?>
<!DOCTYPE svg PUBLIC "-//W3C//DTD SVG 1.1//EN"
  "http://www.w3.org/Graphics/SVG/1.1/DTD/svg11.dtd">
<svg xmlns:xlink="http://www.w3.org/1999/xlink" width="460.8pt" height="345.6pt" viewBox="0 0 460.8 345.6" xmlns="http://www.w3.org/2000/svg" version="1.1">
 <metadata>
  <rdf:RDF xmlns:dc="http://purl.org/dc/elements/1.1/" xmlns:cc="http://creativecommons.org/ns#" xmlns:rdf="http://www.w3.org/1999/02/22-rdf-syntax-ns#">
   <cc:Work>
    <dc:type rdf:resource="http://purl.org/dc/dcmitype/StillImage"/>
    <dc:date>2025-11-03T20:41:31.593017</dc:date>
    <dc:format>image/svg+xml</dc:format>
    <dc:creator>
     <cc:Agent>
      <dc:title>Matplotlib v3.10.0, https://matplotlib.org/</dc:title>
     </cc:Agent>
    </dc:creator>
   </cc:Work>
  </rdf:RDF>
 </metadata>
 <defs>
  <style type="text/css">*{stroke-linejoin: round; stroke-linecap: butt}</style>
 </defs>
 <g id="figure_1">
  <g id="patch_1">
   <path d="M 0 345.6 
L 460.8 345.6 
L 460.8 0 
L 0 0 
z
" style="fill: #ffffff"/>
  </g>
  <g id="axes_1">
   <g id="PathCollection_1">
    <defs>
     <path id="m90acde474b" d="M 0 3 
C 0.795609 3 1.55874 2.683901 2.12132 2.12132 
C 2.683901 1.55874 3 0.795609 3 0 
C 3 -0.795609 2.683901 -1.55874 2.12132 -2.12132 
C 1.55874 -2.683901 0.795609 -3 0 -3 
C -0.795609 -3 -1.55874 -2.683901 -2.12132 -2.12132 
C -2.683901 -1.55874 -3 -0.795609 -3 0 
C -3 0.795609 -2.683901 1.55874 -2.12132 2.12132 
C -1.55874 2.683901 -0.795609 3 0 3 
z
" style="stroke: #000000"/>
    </defs>
    <g clip-path="url(#p5e2be65af4)">
     <use xlink:href="#m90acde474b" x="269.72907" y="296.228571" style="stroke: #000000"/>
     <use xlink:href="#m90acde474b" x="346.62265" y="163.148271" style="stroke: #000000"/>
     <use xlink:href="#m90acde474b" x="259.157685" y="197.27604" style="stroke: #000000"/>
     <use xlink:href="#m90acde474b" x="113.228477" y="103.353056" style="stroke: #000000"/>
     <use xlink:href="#m90acde474b" x="177.497945" y="217.920111" style="stroke: #000000"/>
     <use xlink:href="#m90acde474b" x="394.971429" y="132.650784" style="stroke: #000000"/>
     <use xlink:href="#m90acde474b" x="65.828571" y="137.710085" style="stroke: #000000"/>
     <use xlink:href="#m90acde474b" x="99.557696" y="49.371429" style="stroke: #000000"/>
    </g>
   </g>
   <g id="line2d_1">
    <path d="M 0 110.85522 
L 460.8 220.49555 
L 460.8 220.49555 
" clip-path="url(#p5e2be65af4)" style="fill: none; stroke-dasharray: 1.5,2.475; stroke-dashoffset: 0; stroke: #000000; stroke-width: 1.5"/>
   </g>
   <g id="line2d_2">
    <path d="M 0 133.545227 
L 3.69009 128.94972 
L 7.38018 124.701826 
L 11.07027 120.793983 
L 14.76036 117.218626 
L 18.45045 113.968193 
L 22.140541 111.035121 
L 25.830631 108.411846 
L 29.520721 106.090804 
L 33.210811 104.064433 
L 36.900901 102.325169 
L 40.12973 101.032885 
L 43.81982 99.811562 
L 47.50991 98.8556 
L 51.2 98.157439 
L 54.89009 97.709513 
L 58.58018 97.504259 
L 62.27027 97.534115 
L 65.96036 97.791517 
L 69.65045 98.268901 
L 73.340541 98.958704 
L 77.491892 99.979224 
L 81.643243 101.248245 
L 85.794595 102.754999 
L 89.945946 104.488717 
L 94.558559 106.668166 
L 99.171171 109.09975 
L 103.783784 111.768697 
L 108.857658 114.961064 
L 114.392793 118.727718 
L 119.927928 122.765979 
L 125.924324 127.417656 
L 132.381982 132.712909 
L 139.300901 138.670257 
L 147.142342 145.715301 
L 156.367568 154.307937 
L 169.282883 166.675308 
L 192.345946 188.798789 
L 202.032432 197.742104 
L 209.873874 204.690955 
L 216.792793 210.543457 
L 223.25045 215.72396 
L 229.246847 220.254481 
L 234.781982 224.168423 
L 240.317117 227.798776 
L 245.390991 230.855674 
L 250.003604 233.39273 
L 254.616216 235.684102 
L 259.228829 237.715017 
L 263.38018 239.307941 
L 267.531532 240.66716 
L 271.682883 241.781907 
L 275.372973 242.55885 
L 279.063063 243.126557 
L 282.753153 243.477464 
L 286.443243 243.604009 
L 290.133333 243.498628 
L 293.823423 243.153757 
L 297.513514 242.561834 
L 301.203604 241.715294 
L 304.432432 240.759762 
L 307.661261 239.598431 
L 310.89009 238.226236 
L 314.118919 236.638109 
L 317.347748 234.828984 
L 320.576577 232.793794 
L 324.266667 230.184547 
L 327.956757 227.265851 
L 331.646847 224.030141 
L 335.336937 220.469854 
L 339.027027 216.577428 
L 342.717117 212.345298 
L 346.407207 207.765901 
L 350.097297 202.831673 
L 353.787387 197.535053 
L 357.477477 191.868476 
L 361.167568 185.824378 
L 365.318919 178.564097 
L 369.47027 170.805676 
L 373.621622 162.538346 
L 377.772973 153.751338 
L 381.924324 144.433884 
L 386.075676 134.575213 
L 390.227027 124.164559 
L 394.378378 113.191151 
L 398.990991 100.325359 
L 403.603604 86.736742 
L 408.216216 72.410529 
L 412.828829 57.331947 
L 417.441441 41.486225 
L 422.054054 24.858591 
L 426.666667 7.434271 
L 428.825611 -1 
L 428.825611 -1 
" clip-path="url(#p5e2be65af4)" style="fill: none; stroke-dasharray: 5.55,2.4; stroke-dashoffset: 0; stroke: #000000; stroke-width: 1.5"/>
   </g>
   <g id="line2d_3">
    <path d="M 21.806163 -1 
L 23.524324 64.045455 
L 24.908108 109.347992 
L 26.291892 148.856261 
L 27.675676 182.986506 
L 29.059459 212.135887 
L 30.443243 236.683035 
L 31.827027 256.98861 
L 33.210811 273.395841 
L 34.133333 282.330082 
L 35.055856 289.769727 
L 35.978378 295.804241 
L 36.900901 300.519986 
L 37.823423 304.000294 
L 38.745946 306.325529 
L 39.207207 307.079312 
L 39.668468 307.573153 
L 40.12973 307.81629 
L 40.590991 307.81779 
L 41.052252 307.586547 
L 41.513514 307.131288 
L 41.974775 306.460569 
L 42.897297 304.506156 
L 43.81982 301.788489 
L 44.742342 298.370187 
L 46.126126 292.05988 
L 47.50991 284.500485 
L 49.354955 272.788956 
L 51.2 259.573535 
L 53.506306 241.487997 
L 57.196396 210.393638 
L 64.115315 151.442845 
L 67.344144 126.059623 
L 70.111712 106.222334 
L 72.418018 91.31704 
L 74.724324 78.055137 
L 76.569369 68.705917 
L 78.414414 60.522102 
L 80.259459 53.530562 
L 81.643243 49.078251 
L 83.027027 45.306293 
L 84.410811 42.212744 
L 85.794595 39.792406 
L 86.717117 38.548906 
L 87.63964 37.597866 
L 88.562162 36.935613 
L 89.484685 36.557975 
L 90.407207 36.460303 
L 91.32973 36.6375 
L 92.252252 37.084046 
L 93.174775 37.794025 
L 94.097297 38.761144 
L 95.01982 39.978763 
L 96.403604 42.259554 
L 97.787387 45.063449 
L 99.171171 48.364309 
L 101.016216 53.491091 
L 102.861261 59.384973 
L 104.706306 65.975611 
L 107.012613 75.083221 
L 109.78018 87.096019 
L 113.009009 102.284244 
L 117.16036 123.048276 
L 128.691892 181.491738 
L 131.920721 196.482388 
L 134.688288 208.408433 
L 137.455856 219.31039 
L 139.762162 227.509415 
L 142.068468 234.825767 
L 143.913514 240.001373 
L 145.758559 244.545252 
L 147.603604 248.434643 
L 148.987387 250.910892 
L 150.371171 253.002271 
L 151.754955 254.703902 
L 153.138739 256.012248 
L 154.522523 256.925111 
L 155.445045 257.313489 
L 156.367568 257.525747 
L 157.29009 257.562211 
L 158.212613 257.423459 
L 159.135135 257.110322 
L 160.057658 256.623882 
L 161.441441 255.572254 
L 162.825225 254.139253 
L 164.209009 252.3316 
L 165.592793 250.157199 
L 166.976577 247.625108 
L 168.821622 243.710326 
L 170.666667 239.204983 
L 172.511712 234.139478 
L 174.818018 227.071221 
L 177.124324 219.25221 
L 179.891892 208.989442 
L 183.120721 195.990168 
L 186.810811 180.091576 
L 191.884685 157.134815 
L 200.187387 119.548783 
L 203.877477 103.950011 
L 206.645045 93.085802 
L 209.412613 83.139372 
L 211.718919 75.678597 
L 213.563964 70.322348 
L 215.409009 65.562387 
L 217.254054 61.444477 
L 218.637838 58.803625 
L 220.021622 56.565831 
L 221.405405 54.747656 
L 222.789189 53.364756 
L 223.711712 52.691946 
L 224.634234 52.223261 
L 225.556757 51.962612 
L 226.479279 51.9137 
L 227.401802 52.080008 
L 228.324324 52.464802 
L 229.246847 53.071118 
L 230.169369 53.90176 
L 231.091892 54.959298 
L 232.475676 56.976047 
L 233.859459 59.515274 
L 235.243243 62.582477 
L 236.627027 66.181829 
L 238.010811 70.316142 
L 239.855856 76.662966 
L 241.700901 83.962604 
L 243.545946 92.209866 
L 245.390991 101.394855 
L 247.697297 114.171925 
L 250.003604 128.351479 
L 252.30991 143.882063 
L 255.077477 164.211686 
L 257.845045 186.261373 
L 261.073874 213.947196 
L 264.763964 247.809534 
L 268.915315 288.119093 
L 274.696269 346.6 
M 337.740372 346.6 
L 340.410811 295.754995 
L 343.178378 238.91237 
L 346.407207 168.028422 
L 350.558559 71.451299 
L 353.576914 -1 
M 392.962472 -1 
L 393.917117 59.514299 
L 395.300901 156.901647 
L 397.145946 305.588056 
L 397.610395 346.6 
L 397.610395 346.6 
" clip-path="url(#p5e2be65af4)" style="fill: none; stroke: #000000; stroke-width: 1.5; stroke-linecap: square"/>
   </g>
   <g id="legend_1">
    <g id="patch_2">
     <path d="M 344.679375 339.6 
L 452.4 339.6 
Q 454.8 339.6 454.8 337.2 
L 454.8 267.945 
Q 454.8 265.545 452.4 265.545 
L 344.679375 265.545 
Q 342.279375 265.545 342.279375 267.945 
L 342.279375 337.2 
Q 342.279375 339.6 344.679375 339.6 
z
" style="fill: #ffffff; opacity: 0.8; stroke: #cccccc; stroke-linejoin: miter"/>
    </g>
    <g id="PathCollection_2">
     <g>
      <use xlink:href="#m90acde474b" x="359.079375" y="276.313125" style="stroke: #000000"/>
     </g>
    </g>
    <g id="text_1">
     <!-- Data points -->
     <g transform="translate(380.679375 279.463125) scale(0.12 -0.12)">
      <defs>
       <path id="DejaVuSans-44" d="M 1259 4147 
L 1259 519 
L 2022 519 
Q 2988 519 3436 956 
Q 3884 1394 3884 2338 
Q 3884 3275 3436 3711 
Q 2988 4147 2022 4147 
L 1259 4147 
z
M 628 4666 
L 1925 4666 
Q 3281 4666 3915 4102 
Q 4550 3538 4550 2338 
Q 4550 1131 3912 565 
Q 3275 0 1925 0 
L 628 0 
L 628 4666 
z
" transform="scale(0.015625)"/>
       <path id="DejaVuSans-61" d="M 2194 1759 
Q 1497 1759 1228 1600 
Q 959 1441 959 1056 
Q 959 750 1161 570 
Q 1363 391 1709 391 
Q 2188 391 2477 730 
Q 2766 1069 2766 1631 
L 2766 1759 
L 2194 1759 
z
M 3341 1997 
L 3341 0 
L 2766 0 
L 2766 531 
Q 2569 213 2275 61 
Q 1981 -91 1556 -91 
Q 1019 -91 701 211 
Q 384 513 384 1019 
Q 384 1609 779 1909 
Q 1175 2209 1959 2209 
L 2766 2209 
L 2766 2266 
Q 2766 2663 2505 2880 
Q 2244 3097 1772 3097 
Q 1472 3097 1187 3025 
Q 903 2953 641 2809 
L 641 3341 
Q 956 3463 1253 3523 
Q 1550 3584 1831 3584 
Q 2591 3584 2966 3190 
Q 3341 2797 3341 1997 
z
" transform="scale(0.015625)"/>
       <path id="DejaVuSans-74" d="M 1172 4494 
L 1172 3500 
L 2356 3500 
L 2356 3053 
L 1172 3053 
L 1172 1153 
Q 1172 725 1289 603 
Q 1406 481 1766 481 
L 2356 481 
L 2356 0 
L 1766 0 
Q 1100 0 847 248 
Q 594 497 594 1153 
L 594 3053 
L 172 3053 
L 172 3500 
L 594 3500 
L 594 4494 
L 1172 4494 
z
" transform="scale(0.015625)"/>
       <path id="DejaVuSans-20" transform="scale(0.015625)"/>
       <path id="DejaVuSans-70" d="M 1159 525 
L 1159 -1331 
L 581 -1331 
L 581 3500 
L 1159 3500 
L 1159 2969 
Q 1341 3281 1617 3432 
Q 1894 3584 2278 3584 
Q 2916 3584 3314 3078 
Q 3713 2572 3713 1747 
Q 3713 922 3314 415 
Q 2916 -91 2278 -91 
Q 1894 -91 1617 61 
Q 1341 213 1159 525 
z
M 3116 1747 
Q 3116 2381 2855 2742 
Q 2594 3103 2138 3103 
Q 1681 3103 1420 2742 
Q 1159 2381 1159 1747 
Q 1159 1113 1420 752 
Q 1681 391 2138 391 
Q 2594 391 2855 752 
Q 3116 1113 3116 1747 
z
" transform="scale(0.015625)"/>
       <path id="DejaVuSans-6f" d="M 1959 3097 
Q 1497 3097 1228 2736 
Q 959 2375 959 1747 
Q 959 1119 1226 758 
Q 1494 397 1959 397 
Q 2419 397 2687 759 
Q 2956 1122 2956 1747 
Q 2956 2369 2687 2733 
Q 2419 3097 1959 3097 
z
M 1959 3584 
Q 2709 3584 3137 3096 
Q 3566 2609 3566 1747 
Q 3566 888 3137 398 
Q 2709 -91 1959 -91 
Q 1206 -91 779 398 
Q 353 888 353 1747 
Q 353 2609 779 3096 
Q 1206 3584 1959 3584 
z
" transform="scale(0.015625)"/>
       <path id="DejaVuSans-69" d="M 603 3500 
L 1178 3500 
L 1178 0 
L 603 0 
L 603 3500 
z
M 603 4863 
L 1178 4863 
L 1178 4134 
L 603 4134 
L 603 4863 
z
" transform="scale(0.015625)"/>
       <path id="DejaVuSans-6e" d="M 3513 2113 
L 3513 0 
L 2938 0 
L 2938 2094 
Q 2938 2591 2744 2837 
Q 2550 3084 2163 3084 
Q 1697 3084 1428 2787 
Q 1159 2491 1159 1978 
L 1159 0 
L 581 0 
L 581 3500 
L 1159 3500 
L 1159 2956 
Q 1366 3272 1645 3428 
Q 1925 3584 2291 3584 
Q 2894 3584 3203 3211 
Q 3513 2838 3513 2113 
z
" transform="scale(0.015625)"/>
       <path id="DejaVuSans-73" d="M 2834 3397 
L 2834 2853 
Q 2591 2978 2328 3040 
Q 2066 3103 1784 3103 
Q 1356 3103 1142 2972 
Q 928 2841 928 2578 
Q 928 2378 1081 2264 
Q 1234 2150 1697 2047 
L 1894 2003 
Q 2506 1872 2764 1633 
Q 3022 1394 3022 966 
Q 3022 478 2636 193 
Q 2250 -91 1575 -91 
Q 1294 -91 989 -36 
Q 684 19 347 128 
L 347 722 
Q 666 556 975 473 
Q 1284 391 1588 391 
Q 1994 391 2212 530 
Q 2431 669 2431 922 
Q 2431 1156 2273 1281 
Q 2116 1406 1581 1522 
L 1381 1569 
Q 847 1681 609 1914 
Q 372 2147 372 2553 
Q 372 3047 722 3315 
Q 1072 3584 1716 3584 
Q 2034 3584 2315 3537 
Q 2597 3491 2834 3397 
z
" transform="scale(0.015625)"/>
      </defs>
      <use xlink:href="#DejaVuSans-44"/>
      <use xlink:href="#DejaVuSans-61" transform="translate(77.001953 0)"/>
      <use xlink:href="#DejaVuSans-74" transform="translate(138.28125 0)"/>
      <use xlink:href="#DejaVuSans-61" transform="translate(177.490234 0)"/>
      <use xlink:href="#DejaVuSans-20" transform="translate(238.769531 0)"/>
      <use xlink:href="#DejaVuSans-70" transform="translate(270.556641 0)"/>
      <use xlink:href="#DejaVuSans-6f" transform="translate(334.033203 0)"/>
      <use xlink:href="#DejaVuSans-69" transform="translate(395.214844 0)"/>
      <use xlink:href="#DejaVuSans-6e" transform="translate(422.998047 0)"/>
      <use xlink:href="#DejaVuSans-74" transform="translate(486.376953 0)"/>
      <use xlink:href="#DejaVuSans-73" transform="translate(525.585938 0)"/>
     </g>
    </g>
    <g id="line2d_4">
     <path d="M 347.079375 292.876875 
L 359.079375 292.876875 
L 371.079375 292.876875 
" style="fill: none; stroke-dasharray: 1.5,2.475; stroke-dashoffset: 0; stroke: #000000; stroke-width: 1.5"/>
    </g>
    <g id="text_2">
     <!-- Linear -->
     <g transform="translate(380.679375 297.076875) scale(0.12 -0.12)">
      <defs>
       <path id="DejaVuSans-4c" d="M 628 4666 
L 1259 4666 
L 1259 531 
L 3531 531 
L 3531 0 
L 628 0 
L 628 4666 
z
" transform="scale(0.015625)"/>
       <path id="DejaVuSans-65" d="M 3597 1894 
L 3597 1613 
L 953 1613 
Q 991 1019 1311 708 
Q 1631 397 2203 397 
Q 2534 397 2845 478 
Q 3156 559 3463 722 
L 3463 178 
Q 3153 47 2828 -22 
Q 2503 -91 2169 -91 
Q 1331 -91 842 396 
Q 353 884 353 1716 
Q 353 2575 817 3079 
Q 1281 3584 2069 3584 
Q 2775 3584 3186 3129 
Q 3597 2675 3597 1894 
z
M 3022 2063 
Q 3016 2534 2758 2815 
Q 2500 3097 2075 3097 
Q 1594 3097 1305 2825 
Q 1016 2553 972 2059 
L 3022 2063 
z
" transform="scale(0.015625)"/>
       <path id="DejaVuSans-72" d="M 2631 2963 
Q 2534 3019 2420 3045 
Q 2306 3072 2169 3072 
Q 1681 3072 1420 2755 
Q 1159 2438 1159 1844 
L 1159 0 
L 581 0 
L 581 3500 
L 1159 3500 
L 1159 2956 
Q 1341 3275 1631 3429 
Q 1922 3584 2338 3584 
Q 2397 3584 2469 3576 
Q 2541 3569 2628 3553 
L 2631 2963 
z
" transform="scale(0.015625)"/>
      </defs>
      <use xlink:href="#DejaVuSans-4c"/>
      <use xlink:href="#DejaVuSans-69" transform="translate(55.712891 0)"/>
      <use xlink:href="#DejaVuSans-6e" transform="translate(83.496094 0)"/>
      <use xlink:href="#DejaVuSans-65" transform="translate(146.875 0)"/>
      <use xlink:href="#DejaVuSans-61" transform="translate(208.398438 0)"/>
      <use xlink:href="#DejaVuSans-72" transform="translate(269.677734 0)"/>
     </g>
    </g>
    <g id="line2d_5">
     <path d="M 347.079375 310.490625 
L 359.079375 310.490625 
L 371.079375 310.490625 
" style="fill: none; stroke-dasharray: 5.55,2.4; stroke-dashoffset: 0; stroke: #000000; stroke-width: 1.5"/>
    </g>
    <g id="text_3">
     <!-- Degree 3 -->
     <g transform="translate(380.679375 314.690625) scale(0.12 -0.12)">
      <defs>
       <path id="DejaVuSans-67" d="M 2906 1791 
Q 2906 2416 2648 2759 
Q 2391 3103 1925 3103 
Q 1463 3103 1205 2759 
Q 947 2416 947 1791 
Q 947 1169 1205 825 
Q 1463 481 1925 481 
Q 2391 481 2648 825 
Q 2906 1169 2906 1791 
z
M 3481 434 
Q 3481 -459 3084 -895 
Q 2688 -1331 1869 -1331 
Q 1566 -1331 1297 -1286 
Q 1028 -1241 775 -1147 
L 775 -588 
Q 1028 -725 1275 -790 
Q 1522 -856 1778 -856 
Q 2344 -856 2625 -561 
Q 2906 -266 2906 331 
L 2906 616 
Q 2728 306 2450 153 
Q 2172 0 1784 0 
Q 1141 0 747 490 
Q 353 981 353 1791 
Q 353 2603 747 3093 
Q 1141 3584 1784 3584 
Q 2172 3584 2450 3431 
Q 2728 3278 2906 2969 
L 2906 3500 
L 3481 3500 
L 3481 434 
z
" transform="scale(0.015625)"/>
       <path id="DejaVuSans-33" d="M 2597 2516 
Q 3050 2419 3304 2112 
Q 3559 1806 3559 1356 
Q 3559 666 3084 287 
Q 2609 -91 1734 -91 
Q 1441 -91 1130 -33 
Q 819 25 488 141 
L 488 750 
Q 750 597 1062 519 
Q 1375 441 1716 441 
Q 2309 441 2620 675 
Q 2931 909 2931 1356 
Q 2931 1769 2642 2001 
Q 2353 2234 1838 2234 
L 1294 2234 
L 1294 2753 
L 1863 2753 
Q 2328 2753 2575 2939 
Q 2822 3125 2822 3475 
Q 2822 3834 2567 4026 
Q 2313 4219 1838 4219 
Q 1578 4219 1281 4162 
Q 984 4106 628 3988 
L 628 4550 
Q 988 4650 1302 4700 
Q 1616 4750 1894 4750 
Q 2613 4750 3031 4423 
Q 3450 4097 3450 3541 
Q 3450 3153 3228 2886 
Q 3006 2619 2597 2516 
z
" transform="scale(0.015625)"/>
      </defs>
      <use xlink:href="#DejaVuSans-44"/>
      <use xlink:href="#DejaVuSans-65" transform="translate(77.001953 0)"/>
      <use xlink:href="#DejaVuSans-67" transform="translate(138.525391 0)"/>
      <use xlink:href="#DejaVuSans-72" transform="translate(202.001953 0)"/>
      <use xlink:href="#DejaVuSans-65" transform="translate(240.865234 0)"/>
      <use xlink:href="#DejaVuSans-65" transform="translate(302.388672 0)"/>
      <use xlink:href="#DejaVuSans-20" transform="translate(363.912109 0)"/>
      <use xlink:href="#DejaVuSans-33" transform="translate(395.699219 0)"/>
     </g>
    </g>
    <g id="line2d_6">
     <path d="M 347.079375 328.104375 
L 359.079375 328.104375 
L 371.079375 328.104375 
" style="fill: none; stroke: #000000; stroke-width: 1.5; stroke-linecap: square"/>
    </g>
    <g id="text_4">
     <!-- Degree 7 -->
     <g transform="translate(380.679375 332.304375) scale(0.12 -0.12)">
      <defs>
       <path id="DejaVuSans-37" d="M 525 4666 
L 3525 4666 
L 3525 4397 
L 1831 0 
L 1172 0 
L 2766 4134 
L 525 4134 
L 525 4666 
z
" transform="scale(0.015625)"/>
      </defs>
      <use xlink:href="#DejaVuSans-44"/>
      <use xlink:href="#DejaVuSans-65" transform="translate(77.001953 0)"/>
      <use xlink:href="#DejaVuSans-67" transform="translate(138.525391 0)"/>
      <use xlink:href="#DejaVuSans-72" transform="translate(202.001953 0)"/>
      <use xlink:href="#DejaVuSans-65" transform="translate(240.865234 0)"/>
      <use xlink:href="#DejaVuSans-65" transform="translate(302.388672 0)"/>
      <use xlink:href="#DejaVuSans-20" transform="translate(363.912109 0)"/>
      <use xlink:href="#DejaVuSans-37" transform="translate(395.699219 0)"/>
     </g>
    </g>
   </g>
  </g>
 </g>
 <defs>
  <clipPath id="p5e2be65af4">
   <rect x="0" y="0" width="460.8" height="345.6"/>
  </clipPath>
 </defs>
</svg>
