<?xml version="1.0" encoding="utf-8" standalone="no"?>
<!DOCTYPE svg PUBLIC "-//W3C//DTD SVG 1.1//EN"
  "http://www.w3.org/Graphics/SVG/1.1/DTD/svg11.dtd">
<svg xmlns:xlink="http://www.w3.org/1999/xlink" width="460.8pt" height="345.6pt" viewBox="0 0 460.8 345.6" xmlns="http://www.w3.org/2000/svg" version="1.1">
 <metadata>
  <rdf:RDF xmlns:dc="http://purl.org/dc/elements/1.1/" xmlns:cc="http://creativecommons.org/ns#" xmlns:rdf="http://www.w3.org/1999/02/22-rdf-syntax-ns#">
   <cc:Work>
    <dc:type rdf:resource="http://purl.org/dc/dcmitype/StillImage"/>
    <dc:date>2026-02-05T03:59:59.561697</dc:date>
    <dc:format>image/svg+xml</dc:format>
    <dc:creator>
     <cc:Agent>
      <dc:title>Matplotlib v3.10.8, https://matplotlib.org/</dc:title>
     </cc:Agent>
    </dc:creator>
   </cc:Work>
  </rdf:RDF>
 </metadata>
 <defs>
  <style type="text/css">*{stroke-linejoin: round; stroke-linecap: butt}</style>
 </defs>
 <g id="figure_1">
  <g id="patch_1">
   <path d="M 0 345.6 
L 460.8 345.6 
L 460.8 0 
L 0 0 
z
" style="fill: #ffffff"/>
  </g>
  <g id="axes_1">
   <g id="line2d_1">
    <path d="M 46.08 311.04 
L 414.72 138.24 
" clip-path="url(#pe0caabce9a)" style="fill: none; stroke: #666666; stroke-width: 0.92; stroke-linecap: square"/>
   </g>
   <g id="line2d_2">
    <path d="M 46.08 276.48 
L 414.72 103.68 
" clip-path="url(#pe0caabce9a)" style="fill: none; stroke: #666666; stroke-width: 0.92; stroke-linecap: square"/>
   </g>
   <g id="line2d_3">
    <path d="M 46.08 241.92 
L 414.72 311.04 
" clip-path="url(#pe0caabce9a)" style="fill: none; stroke: #666666; stroke-width: 0.92; stroke-linecap: square"/>
   </g>
   <g id="line2d_4">
    <path d="M 46.08 207.36 
L 414.72 207.36 
" clip-path="url(#pe0caabce9a)" style="fill: none; stroke: #666666; stroke-width: 0.92; stroke-linecap: square"/>
   </g>
   <g id="line2d_5">
    <path d="M 46.08 207.36 
L 414.72 69.12 
" clip-path="url(#pe0caabce9a)" style="fill: none; stroke: #666666; stroke-width: 0.92; stroke-linecap: square"/>
   </g>
   <g id="line2d_6">
    <path d="M 46.08 172.8 
L 414.72 311.04 
" clip-path="url(#pe0caabce9a)" style="fill: none; stroke: #666666; stroke-width: 0.92; stroke-linecap: square"/>
   </g>
   <g id="line2d_7">
    <path d="M 46.08 172.8 
L 414.72 34.56 
" clip-path="url(#pe0caabce9a)" style="fill: none; stroke: #666666; stroke-width: 0.92; stroke-linecap: square"/>
   </g>
   <g id="line2d_8">
    <path d="M 46.08 138.24 
L 414.72 241.92 
" clip-path="url(#pe0caabce9a)" style="fill: none; stroke: #666666; stroke-width: 0.92; stroke-linecap: square"/>
   </g>
   <g id="line2d_9">
    <path d="M 46.08 138.24 
L 414.72 172.8 
" clip-path="url(#pe0caabce9a)" style="fill: none; stroke: #666666; stroke-width: 0.92; stroke-linecap: square"/>
   </g>
   <g id="line2d_10">
    <path d="M 46.08 138.24 
L 414.72 69.12 
" clip-path="url(#pe0caabce9a)" style="fill: none; stroke: #666666; stroke-width: 0.92; stroke-linecap: square"/>
   </g>
   <g id="line2d_11">
    <path d="M 46.08 103.68 
L 414.72 276.48 
" clip-path="url(#pe0caabce9a)" style="fill: none; stroke: #666666; stroke-width: 0.92; stroke-linecap: square"/>
   </g>
   <g id="line2d_12">
    <path d="M 46.08 103.68 
L 414.72 207.36 
" clip-path="url(#pe0caabce9a)" style="fill: none; stroke: #666666; stroke-width: 0.92; stroke-linecap: square"/>
   </g>
   <g id="line2d_13">
    <path d="M 46.08 69.12 
L 414.72 241.92 
" clip-path="url(#pe0caabce9a)" style="fill: none; stroke: #666666; stroke-width: 0.92; stroke-linecap: square"/>
   </g>
   <g id="line2d_14">
    <path d="M 46.08 69.12 
L 414.72 207.36 
" clip-path="url(#pe0caabce9a)" style="fill: none; stroke: #666666; stroke-width: 0.92; stroke-linecap: square"/>
   </g>
   <g id="line2d_15">
    <path d="M 46.08 69.12 
L 414.72 172.8 
" clip-path="url(#pe0caabce9a)" style="fill: none; stroke: #666666; stroke-width: 0.92; stroke-linecap: square"/>
   </g>
   <g id="line2d_16">
    <path d="M 46.08 69.12 
L 414.72 69.12 
" clip-path="url(#pe0caabce9a)" style="fill: none; stroke: #666666; stroke-width: 0.92; stroke-linecap: square"/>
   </g>
   <g id="line2d_17">
    <path d="M 46.08 34.56 
L 414.72 276.48 
" clip-path="url(#pe0caabce9a)" style="fill: none; stroke: #666666; stroke-width: 0.92; stroke-linecap: square"/>
   </g>
   <g id="patch_2">
    <path d="M 46.08 155.52 
C 52.190279 155.52 58.05112 150.057811 62.37174 140.336416 
C 66.69236 130.615021 69.12 117.428129 69.12 103.68 
C 69.12 89.931871 66.69236 76.744979 62.37174 67.023584 
C 58.05112 57.302189 52.190279 51.84 46.08 51.84 
C 39.969721 51.84 34.10888 57.302189 29.78826 67.023584 
C 25.46764 76.744979 23.04 89.931871 23.04 103.68 
C 23.04 117.428129 25.46764 130.615021 29.78826 140.336416 
C 34.10888 150.057811 39.969721 155.52 46.08 155.52 
L 46.08 155.52 
z
" clip-path="url(#pe0caabce9a)" style="fill: none; stroke: #000000; stroke-width: 2.3; stroke-linejoin: miter"/>
   </g>
   <g id="patch_3">
    <path d="M 414.72 293.76 
C 420.830279 293.76 426.69112 286.477081 431.01174 273.515221 
C 435.33236 260.553361 437.76 242.970838 437.76 224.64 
C 437.76 206.309162 435.33236 188.726639 431.01174 175.764779 
C 426.69112 162.802919 420.830279 155.52 414.72 155.52 
C 408.609721 155.52 402.74888 162.802919 398.42826 175.764779 
C 394.10764 188.726639 391.68 206.309162 391.68 224.64 
C 391.68 242.970838 394.10764 260.553361 398.42826 273.515221 
C 402.74888 286.477081 408.609721 293.76 414.72 293.76 
L 414.72 293.76 
z
" clip-path="url(#pe0caabce9a)" style="fill: none; stroke: #000000; stroke-width: 2.3; stroke-linejoin: miter"/>
   </g>
   <g id="PathCollection_1">
    <defs>
     <path id="mdfcf64d985" d="M 0 5.4 
C 1.432097 5.4 2.805731 4.831022 3.818377 3.818377 
C 4.831022 2.805731 5.4 1.432097 5.4 0 
C 5.4 -1.432097 4.831022 -2.805731 3.818377 -3.818377 
C 2.805731 -4.831022 1.432097 -5.4 0 -5.4 
C -1.432097 -5.4 -2.805731 -4.831022 -3.818377 -3.818377 
C -4.831022 -2.805731 -5.4 -1.432097 -5.4 0 
C -5.4 1.432097 -4.831022 2.805731 -3.818377 3.818377 
C -2.805731 4.831022 -1.432097 5.4 0 5.4 
z
" style="stroke: #ffffff"/>
    </defs>
    <g clip-path="url(#pe0caabce9a)">
     <use xlink:href="#mdfcf64d985" x="46.08" y="311.04" style="fill: #ffffff; stroke: #ffffff"/>
     <use xlink:href="#mdfcf64d985" x="46.08" y="276.48" style="fill: #ffffff; stroke: #ffffff"/>
     <use xlink:href="#mdfcf64d985" x="46.08" y="241.92" style="fill: #ffffff; stroke: #ffffff"/>
     <use xlink:href="#mdfcf64d985" x="46.08" y="207.36" style="fill: #ffffff; stroke: #ffffff"/>
     <use xlink:href="#mdfcf64d985" x="46.08" y="172.8" style="fill: #ffffff; stroke: #ffffff"/>
     <use xlink:href="#mdfcf64d985" x="46.08" y="138.24" style="fill: #ffffff; stroke: #ffffff"/>
     <use xlink:href="#mdfcf64d985" x="46.08" y="103.68" style="fill: #ffffff; stroke: #ffffff"/>
     <use xlink:href="#mdfcf64d985" x="46.08" y="69.12" style="fill: #ffffff; stroke: #ffffff"/>
     <use xlink:href="#mdfcf64d985" x="46.08" y="34.56" style="fill: #ffffff; stroke: #ffffff"/>
    </g>
   </g>
   <g id="PathCollection_2">
    <g clip-path="url(#pe0caabce9a)">
     <use xlink:href="#mdfcf64d985" x="414.72" y="311.04" style="fill: #ffffff; stroke: #ffffff"/>
     <use xlink:href="#mdfcf64d985" x="414.72" y="276.48" style="fill: #ffffff; stroke: #ffffff"/>
     <use xlink:href="#mdfcf64d985" x="414.72" y="241.92" style="fill: #ffffff; stroke: #ffffff"/>
     <use xlink:href="#mdfcf64d985" x="414.72" y="207.36" style="fill: #ffffff; stroke: #ffffff"/>
     <use xlink:href="#mdfcf64d985" x="414.72" y="172.8" style="fill: #ffffff; stroke: #ffffff"/>
     <use xlink:href="#mdfcf64d985" x="414.72" y="138.24" style="fill: #ffffff; stroke: #ffffff"/>
     <use xlink:href="#mdfcf64d985" x="414.72" y="103.68" style="fill: #ffffff; stroke: #ffffff"/>
     <use xlink:href="#mdfcf64d985" x="414.72" y="69.12" style="fill: #ffffff; stroke: #ffffff"/>
     <use xlink:href="#mdfcf64d985" x="414.72" y="34.56" style="fill: #ffffff; stroke: #ffffff"/>
    </g>
   </g>
   <g id="line2d_18">
    <path d="M 48.940489 52.241083 
L 416.872637 155.822344 
" clip-path="url(#pe0caabce9a)" style="fill: none; stroke: #000000; stroke-width: 2.3; stroke-linecap: square"/>
   </g>
   <g id="line2d_19">
    <path d="M 42.296959 154.816427 
L 411.865837 293.227595 
" clip-path="url(#pe0caabce9a)" style="fill: none; stroke: #000000; stroke-width: 2.3; stroke-linecap: square"/>
   </g>
   <g id="PathCollection_3">
    <defs>
     <path id="m8ba11e3b47" d="M 0 3 
C 0.795609 3 1.55874 2.683901 2.12132 2.12132 
C 2.683901 1.55874 3 0.795609 3 0 
C 3 -0.795609 2.683901 -1.55874 2.12132 -2.12132 
C 1.55874 -2.683901 0.795609 -3 0 -3 
C -0.795609 -3 -1.55874 -2.683901 -2.12132 -2.12132 
C -2.683901 -1.55874 -3 -0.795609 -3 0 
C -3 0.795609 -2.683901 1.55874 -2.12132 2.12132 
C -1.55874 2.683901 -0.795609 3 0 3 
z
" style="stroke: #000000"/>
    </defs>
    <g clip-path="url(#pe0caabce9a)">
     <use xlink:href="#m8ba11e3b47" x="46.08" y="311.04" style="stroke: #000000"/>
     <use xlink:href="#m8ba11e3b47" x="46.08" y="276.48" style="stroke: #000000"/>
     <use xlink:href="#m8ba11e3b47" x="46.08" y="241.92" style="stroke: #000000"/>
     <use xlink:href="#m8ba11e3b47" x="46.08" y="207.36" style="stroke: #000000"/>
     <use xlink:href="#m8ba11e3b47" x="46.08" y="172.8" style="stroke: #000000"/>
     <use xlink:href="#m8ba11e3b47" x="46.08" y="138.24" style="stroke: #000000"/>
     <use xlink:href="#m8ba11e3b47" x="46.08" y="103.68" style="stroke: #000000"/>
     <use xlink:href="#m8ba11e3b47" x="46.08" y="69.12" style="stroke: #000000"/>
     <use xlink:href="#m8ba11e3b47" x="46.08" y="34.56" style="stroke: #000000"/>
    </g>
   </g>
   <g id="PathCollection_4">
    <g clip-path="url(#pe0caabce9a)">
     <use xlink:href="#m8ba11e3b47" x="414.72" y="311.04" style="stroke: #000000"/>
     <use xlink:href="#m8ba11e3b47" x="414.72" y="276.48" style="stroke: #000000"/>
     <use xlink:href="#m8ba11e3b47" x="414.72" y="241.92" style="stroke: #000000"/>
     <use xlink:href="#m8ba11e3b47" x="414.72" y="207.36" style="stroke: #000000"/>
     <use xlink:href="#m8ba11e3b47" x="414.72" y="172.8" style="stroke: #000000"/>
     <use xlink:href="#m8ba11e3b47" x="414.72" y="138.24" style="stroke: #000000"/>
     <use xlink:href="#m8ba11e3b47" x="414.72" y="103.68" style="stroke: #000000"/>
     <use xlink:href="#m8ba11e3b47" x="414.72" y="69.12" style="stroke: #000000"/>
     <use xlink:href="#m8ba11e3b47" x="414.72" y="34.56" style="stroke: #000000"/>
    </g>
   </g>
  </g>
 </g>
 <defs>
  <clipPath id="pe0caabce9a">
   <rect x="0" y="0" width="460.8" height="345.6"/>
  </clipPath>
 </defs>
</svg>
