<?xml version="1.0" encoding="utf-8" standalone="no"?>
<!DOCTYPE svg PUBLIC "-//W3C//DTD SVG 1.1//EN"
  "http://www.w3.org/Graphics/SVG/1.1/DTD/svg11.dtd">
<svg xmlns:xlink="http://www.w3.org/1999/xlink" width="643.97664pt" height="185.93136pt" viewBox="0 0 643.97664 185.93136" xmlns="http://www.w3.org/2000/svg" version="1.1">
 <metadata>
  <rdf:RDF xmlns:dc="http://purl.org/dc/elements/1.1/" xmlns:cc="http://creativecommons.org/ns#" xmlns:rdf="http://www.w3.org/1999/02/22-rdf-syntax-ns#">
   <cc:Work>
    <dc:type rdf:resource="http://purl.org/dc/dcmitype/StillImage"/>
    <dc:date>2026-04-14T06:15:10.092518</dc:date>
    <dc:format>image/svg+xml</dc:format>
    <dc:creator>
     <cc:Agent>
      <dc:title>Matplotlib v3.10.8, https://matplotlib.org/</dc:title>
     </cc:Agent>
    </dc:creator>
   </cc:Work>
  </rdf:RDF>
 </metadata>
 <defs>
  <style type="text/css">*{stroke-linejoin: round; stroke-linecap: butt}</style>
 </defs>
 <g id="figure_1">
  <g id="patch_1">
   <path d="M 0 185.93136 
L 643.97664 185.93136 
L 643.97664 0 
L 0 0 
z
" style="fill: #ffffff"/>
  </g>
  <g id="axes_1">
   <g id="patch_2">
    <path d="M 18.50976 133.49232 
L 182.50128 133.49232 
Q 189.09864 133.49232 189.09864 126.89496 
L 189.09864 59.0364 
Q 189.09864 52.43904 182.50128 52.43904 
L 18.50976 52.43904 
Q 11.9124 52.43904 11.9124 59.0364 
L 11.9124 126.89496 
Q 11.9124 133.49232 18.50976 133.49232 
L 18.50976 133.49232 
z
" clip-path="url(#p94cd2aae32)" style="fill: none; stroke: #000000; stroke-width: 2; stroke-linejoin: miter"/>
   </g>
   <g id="patch_3">
    <path d="M 372.88224 133.49232 
L 536.87376 133.49232 
Q 543.47112 133.49232 543.47112 126.89496 
L 543.47112 59.0364 
Q 543.47112 52.43904 536.87376 52.43904 
L 372.88224 52.43904 
Q 366.28488 52.43904 366.28488 59.0364 
L 366.28488 126.89496 
Q 366.28488 133.49232 372.88224 133.49232 
L 372.88224 133.49232 
z
" clip-path="url(#p94cd2aae32)" style="fill: none; stroke: #000000; stroke-width: 2; stroke-linejoin: miter"/>
   </g>
   <g id="patch_4">
    <path d="M 107.10288 150.45696 
L 271.0944 150.45696 
Q 277.69176 150.45696 277.69176 143.8596 
L 277.69176 42.07176 
Q 277.69176 35.4744 271.0944 35.4744 
L 107.10288 35.4744 
Q 100.50552 35.4744 100.50552 42.07176 
L 100.50552 143.8596 
Q 100.50552 150.45696 107.10288 150.45696 
L 107.10288 150.45696 
z
" clip-path="url(#p94cd2aae32)" style="fill: none; stroke: #000000; stroke-width: 2; stroke-linejoin: miter"/>
   </g>
   <g id="patch_5">
    <path d="M 461.47536 150.45696 
L 625.46688 150.45696 
Q 632.06424 150.45696 632.06424 143.8596 
L 632.06424 42.07176 
Q 632.06424 35.4744 625.46688 35.4744 
L 461.47536 35.4744 
Q 454.878 35.4744 454.878 42.07176 
L 454.878 143.8596 
Q 454.878 150.45696 461.47536 150.45696 
L 461.47536 150.45696 
z
" clip-path="url(#p94cd2aae32)" style="fill: none; stroke: #000000; stroke-width: 2; stroke-linejoin: miter"/>
   </g>
   <g id="patch_6">
    <path d="M 32.64696 116.52768 
L 79.77096 116.52768 
L 79.77096 69.40368 
L 32.64696 69.40368 
z
" clip-path="url(#p94cd2aae32)" style="fill: #ffffff; stroke: #000000; stroke-width: 2; stroke-linejoin: miter"/>
   </g>
   <g id="patch_7">
    <path d="M 121.24008 116.52768 
L 168.36408 116.52768 
L 168.36408 69.40368 
L 121.24008 69.40368 
z
" clip-path="url(#p94cd2aae32)" style="fill: #ffffff; stroke: #000000; stroke-width: 2; stroke-linejoin: miter"/>
   </g>
   <g id="patch_8">
    <path d="M 209.8332 116.52768 
L 256.9572 116.52768 
L 256.9572 69.40368 
L 209.8332 69.40368 
z
" clip-path="url(#p94cd2aae32)" style="fill: #ffffff; stroke: #000000; stroke-width: 2; stroke-linejoin: miter"/>
   </g>
   <g id="patch_9">
    <path d="M 298.42632 116.52768 
L 345.55032 116.52768 
L 345.55032 69.40368 
L 298.42632 69.40368 
z
" clip-path="url(#p94cd2aae32)" style="fill: #ffffff; stroke: #000000; stroke-width: 2; stroke-linejoin: miter"/>
   </g>
   <g id="patch_10">
    <path d="M 387.01944 116.52768 
L 434.14344 116.52768 
L 434.14344 69.40368 
L 387.01944 69.40368 
z
" clip-path="url(#p94cd2aae32)" style="fill: #ffffff; stroke: #000000; stroke-width: 2; stroke-linejoin: miter"/>
   </g>
   <g id="patch_11">
    <path d="M 475.61256 116.52768 
L 522.73656 116.52768 
L 522.73656 69.40368 
L 475.61256 69.40368 
z
" clip-path="url(#p94cd2aae32)" style="fill: #ffffff; stroke: #000000; stroke-width: 2; stroke-linejoin: miter"/>
   </g>
   <g id="patch_12">
    <path d="M 564.20568 116.52768 
L 611.32968 116.52768 
L 611.32968 69.40368 
L 564.20568 69.40368 
z
" clip-path="url(#p94cd2aae32)" style="fill: #ffffff; stroke: #000000; stroke-width: 2; stroke-linejoin: miter"/>
   </g>
   <g id="text_1">
    <!-- b -->
    <g transform="translate(49.807398 98.48443) scale(0.2 -0.2)">
     <defs>
      <path id="DejaVuSerif-Italic-62" d="M 1153 4531 
L 600 4531 
L 666 4863 
L 1794 4863 
L 1394 2803 
Q 1622 3116 1912 3264 
Q 2203 3413 2588 3413 
Q 3200 3413 3494 2928 
Q 3688 2609 3688 2163 
Q 3688 1928 3634 1663 
Q 3481 881 3000 395 
Q 2519 -91 1906 -91 
Q 1522 -91 1289 57 
Q 1056 206 950 519 
L 850 0 
L 275 0 
L 1153 4531 
z
M 1141 1497 
Q 1091 1250 1091 1053 
Q 1091 769 1191 581 
Q 1359 269 1797 269 
Q 2238 269 2533 622 
Q 2828 975 2963 1663 
Q 3025 1978 3025 2225 
Q 3025 2513 2938 2703 
Q 2781 3053 2338 3053 
Q 1900 3053 1609 2737 
Q 1319 2422 1203 1825 
L 1141 1497 
z
" transform="scale(0.015625)"/>
     </defs>
     <use xlink:href="#DejaVuSerif-Italic-62"/>
    </g>
   </g>
   <g id="text_2">
    <!-- c -->
    <g transform="translate(139.20208 98.48443) scale(0.2 -0.2)">
     <defs>
      <path id="DejaVuSerif-Italic-63" d="M 3163 997 
Q 2938 466 2536 187 
Q 2134 -91 1584 -91 
Q 859 -91 513 388 
Q 272 722 272 1203 
Q 272 1419 319 1663 
Q 475 2459 1008 2936 
Q 1541 3413 2266 3413 
Q 2581 3413 2879 3339 
Q 3178 3266 3463 3116 
L 3300 2266 
L 2966 2266 
Q 2966 2309 2966 2347 
Q 2966 2722 2803 2903 
Q 2622 3103 2213 3103 
Q 1747 3103 1439 2742 
Q 1131 2381 991 1663 
Q 928 1334 928 1078 
Q 928 778 1016 581 
Q 1181 219 1650 219 
Q 2022 219 2281 412 
Q 2541 606 2700 997 
L 3163 997 
z
" transform="scale(0.015625)"/>
     </defs>
     <use xlink:href="#DejaVuSerif-Italic-63"/>
    </g>
   </g>
   <g id="text_3">
    <!-- c -->
    <g transform="translate(227.7952 98.48443) scale(0.2 -0.2)">
     <use xlink:href="#DejaVuSerif-Italic-63"/>
    </g>
   </g>
   <g id="text_4">
    <!-- d -->
    <g transform="translate(315.586758 98.48443) scale(0.2 -0.2)">
     <defs>
      <path id="DejaVuSerif-Italic-64" d="M 3841 4863 
L 2897 0 
L 2322 0 
L 2422 519 
Q 2191 206 1902 57 
Q 1613 -91 1228 -91 
Q 616 -91 322 394 
Q 125 716 125 1166 
Q 125 1397 178 1663 
Q 331 2444 812 2928 
Q 1294 3413 1909 3413 
Q 2294 3413 2525 3264 
Q 2756 3116 2866 2803 
L 3200 4531 
L 2656 4531 
L 2722 4863 
L 3841 4863 
z
M 2613 1497 
L 2675 1825 
Q 2722 2069 2722 2266 
Q 2722 2550 2622 2738 
Q 2456 3053 2019 3053 
Q 1575 3053 1279 2703 
Q 984 2353 850 1663 
Q 788 1347 788 1103 
Q 788 813 875 622 
Q 1031 269 1475 269 
Q 1913 269 2203 583 
Q 2494 897 2613 1497 
z
" transform="scale(0.015625)"/>
     </defs>
     <use xlink:href="#DejaVuSerif-Italic-64"/>
    </g>
   </g>
   <g id="text_5">
    <!-- a -->
    <g transform="translate(404.61894 98.48443) scale(0.2 -0.2)">
     <defs>
      <path id="DejaVuSerif-Italic-61" d="M 2325 519 
Q 1909 -91 1238 -91 
Q 688 -91 409 281 
Q 216 544 216 919 
Q 216 1078 250 1256 
Q 463 2359 1231 2928 
Q 1884 3413 2675 3413 
Q 3206 3413 3388 3322 
L 2806 331 
L 3300 331 
L 3238 0 
L 2225 0 
L 2325 519 
z
M 822 938 
Q 822 269 1469 269 
Q 1863 269 2130 583 
Q 2397 897 2516 1497 
L 2806 3003 
L 2806 3003 
Q 2806 3094 2556 3094 
Q 1956 3094 1491 2625 
Q 1028 2153 863 1297 
Q 822 1097 822 938 
z
" transform="scale(0.015625)"/>
     </defs>
     <use xlink:href="#DejaVuSerif-Italic-61"/>
    </g>
   </g>
   <g id="text_6">
    <!-- b -->
    <g transform="translate(492.772998 98.48443) scale(0.2 -0.2)">
     <use xlink:href="#DejaVuSerif-Italic-62"/>
    </g>
   </g>
   <g id="text_7">
    <!-- b -->
    <g transform="translate(581.366118 98.48443) scale(0.2 -0.2)">
     <use xlink:href="#DejaVuSerif-Italic-62"/>
    </g>
   </g>
  </g>
 </g>
 <defs>
  <clipPath id="p94cd2aae32">
   <rect x="7.2" y="7.2" width="629.57664" height="171.53136"/>
  </clipPath>
 </defs>
</svg>
