<?xml version="1.0" encoding="utf-8" standalone="no"?>
<!DOCTYPE svg PUBLIC "-//W3C//DTD SVG 1.1//EN"
  "http://www.w3.org/Graphics/SVG/1.1/DTD/svg11.dtd">
<svg xmlns:xlink="http://www.w3.org/1999/xlink" width="424.8pt" height="280.763125pt" viewBox="0 0 424.8 280.763125" xmlns="http://www.w3.org/2000/svg" version="1.1">
 <metadata>
  <rdf:RDF xmlns:dc="http://purl.org/dc/elements/1.1/" xmlns:cc="http://creativecommons.org/ns#" xmlns:rdf="http://www.w3.org/1999/02/22-rdf-syntax-ns#">
   <cc:Work>
    <dc:type rdf:resource="http://purl.org/dc/dcmitype/StillImage"/>
    <dc:date>2025-10-17T09:21:09.162889</dc:date>
    <dc:format>image/svg+xml</dc:format>
    <dc:creator>
     <cc:Agent>
      <dc:title>Matplotlib v3.10.0, https://matplotlib.org/</dc:title>
     </cc:Agent>
    </dc:creator>
   </cc:Work>
  </rdf:RDF>
 </metadata>
 <defs>
  <style type="text/css">*{stroke-linejoin: round; stroke-linecap: butt}</style>
 </defs>
 <g id="figure_1">
  <g id="patch_1">
   <path d="M 0 280.763125 
L 424.8 280.763125 
L 424.8 0 
L 0 0 
z
" style="fill: #ffffff"/>
  </g>
  <g id="axes_1">
   <g id="patch_2">
    <path d="M 7.2 237.4 
L 417.6 237.4 
L 417.6 7.2 
L 7.2 7.2 
z
" style="fill: #ffffff"/>
   </g>
   <g id="matplotlib.axis_1">
    <g id="xtick_1">
     <g id="line2d_1">
      <defs>
       <path id="m7bafecccc8" d="M 0 0 
L 0 3.5 
" style="stroke: #000000; stroke-width: 0.8"/>
      </defs>
      <g>
       <use xlink:href="#m7bafecccc8" x="48.24" y="237.4" style="stroke: #000000; stroke-width: 0.8"/>
      </g>
     </g>
     <g id="text_1">
      <!-- −20 -->
      <g transform="translate(36.632422 252.758281) scale(0.11 -0.11)">
       <defs>
        <path id="DejaVuSans-2212" d="M 678 2272 
L 4684 2272 
L 4684 1741 
L 678 1741 
L 678 2272 
z
" transform="scale(0.015625)"/>
        <path id="DejaVuSans-32" d="M 1228 531 
L 3431 531 
L 3431 0 
L 469 0 
L 469 531 
Q 828 903 1448 1529 
Q 2069 2156 2228 2338 
Q 2531 2678 2651 2914 
Q 2772 3150 2772 3378 
Q 2772 3750 2511 3984 
Q 2250 4219 1831 4219 
Q 1534 4219 1204 4116 
Q 875 4013 500 3803 
L 500 4441 
Q 881 4594 1212 4672 
Q 1544 4750 1819 4750 
Q 2544 4750 2975 4387 
Q 3406 4025 3406 3419 
Q 3406 3131 3298 2873 
Q 3191 2616 2906 2266 
Q 2828 2175 2409 1742 
Q 1991 1309 1228 531 
z
" transform="scale(0.015625)"/>
        <path id="DejaVuSans-30" d="M 2034 4250 
Q 1547 4250 1301 3770 
Q 1056 3291 1056 2328 
Q 1056 1369 1301 889 
Q 1547 409 2034 409 
Q 2525 409 2770 889 
Q 3016 1369 3016 2328 
Q 3016 3291 2770 3770 
Q 2525 4250 2034 4250 
z
M 2034 4750 
Q 2819 4750 3233 4129 
Q 3647 3509 3647 2328 
Q 3647 1150 3233 529 
Q 2819 -91 2034 -91 
Q 1250 -91 836 529 
Q 422 1150 422 2328 
Q 422 3509 836 4129 
Q 1250 4750 2034 4750 
z
" transform="scale(0.015625)"/>
       </defs>
       <use xlink:href="#DejaVuSans-2212"/>
       <use xlink:href="#DejaVuSans-32" transform="translate(83.789062 0)"/>
       <use xlink:href="#DejaVuSans-30" transform="translate(147.412109 0)"/>
      </g>
     </g>
    </g>
    <g id="xtick_2">
     <g id="line2d_2">
      <g>
       <use xlink:href="#m7bafecccc8" x="130.32" y="237.4" style="stroke: #000000; stroke-width: 0.8"/>
      </g>
     </g>
     <g id="text_2">
      <!-- −10 -->
      <g transform="translate(118.712422 252.758281) scale(0.11 -0.11)">
       <defs>
        <path id="DejaVuSans-31" d="M 794 531 
L 1825 531 
L 1825 4091 
L 703 3866 
L 703 4441 
L 1819 4666 
L 2450 4666 
L 2450 531 
L 3481 531 
L 3481 0 
L 794 0 
L 794 531 
z
" transform="scale(0.015625)"/>
       </defs>
       <use xlink:href="#DejaVuSans-2212"/>
       <use xlink:href="#DejaVuSans-31" transform="translate(83.789062 0)"/>
       <use xlink:href="#DejaVuSans-30" transform="translate(147.412109 0)"/>
      </g>
     </g>
    </g>
    <g id="xtick_3">
     <g id="line2d_3">
      <g>
       <use xlink:href="#m7bafecccc8" x="212.4" y="237.4" style="stroke: #000000; stroke-width: 0.8"/>
      </g>
     </g>
     <g id="text_3">
      <!-- 0 -->
      <g transform="translate(208.900625 252.758281) scale(0.11 -0.11)">
       <use xlink:href="#DejaVuSans-30"/>
      </g>
     </g>
    </g>
    <g id="xtick_4">
     <g id="line2d_4">
      <g>
       <use xlink:href="#m7bafecccc8" x="294.48" y="237.4" style="stroke: #000000; stroke-width: 0.8"/>
      </g>
     </g>
     <g id="text_4">
      <!-- 10 -->
      <g transform="translate(287.48125 252.758281) scale(0.11 -0.11)">
       <use xlink:href="#DejaVuSans-31"/>
       <use xlink:href="#DejaVuSans-30" transform="translate(63.623047 0)"/>
      </g>
     </g>
    </g>
    <g id="xtick_5">
     <g id="line2d_5">
      <g>
       <use xlink:href="#m7bafecccc8" x="376.56" y="237.4" style="stroke: #000000; stroke-width: 0.8"/>
      </g>
     </g>
     <g id="text_5">
      <!-- 20 -->
      <g transform="translate(369.56125 252.758281) scale(0.11 -0.11)">
       <use xlink:href="#DejaVuSans-32"/>
       <use xlink:href="#DejaVuSans-30" transform="translate(63.623047 0)"/>
      </g>
     </g>
    </g>
    <g id="text_6">
     <!-- z -->
     <g transform="translate(208.463672 270.443594) scale(0.15 -0.15)">
      <defs>
       <path id="DejaVuSans-7a" d="M 353 3500 
L 3084 3500 
L 3084 2975 
L 922 459 
L 3084 459 
L 3084 0 
L 275 0 
L 275 525 
L 2438 3041 
L 353 3041 
L 353 3500 
z
" transform="scale(0.015625)"/>
      </defs>
      <use xlink:href="#DejaVuSans-7a"/>
     </g>
    </g>
   </g>
   <g id="matplotlib.axis_2"/>
   <g id="line2d_6">
    <path d="M 7.2 237.4 
L 177.275676 237.303046 
L 179.740541 237.064972 
L 181.383784 236.671662 
L 182.616216 236.129866 
L 183.437838 235.582725 
L 184.259459 234.825812 
L 185.081081 233.789991 
L 185.902703 232.387843 
L 186.724324 230.510474 
L 187.545946 228.024329 
L 188.367568 224.768242 
L 189.189189 220.551023 
L 190.010811 215.149916 
L 190.832432 208.310375 
L 191.654054 199.747575 
L 192.475676 189.150132 
L 193.297297 176.186435 
L 194.118919 160.513947 
L 194.940541 141.791651 
L 196.172973 107.290543 
L 197.405405 64.28659 
L 198.637838 12.203644 
L 198.917335 -1 
M 225.882665 -1 
L 226.983784 47.949609 
L 228.216216 93.937832 
L 229.448649 131.184456 
L 230.681081 160.513947 
L 231.913514 182.985348 
L 232.735135 194.723529 
L 233.556757 204.263282 
L 234.378378 211.927073 
L 235.2 218.013628 
L 236.021622 222.792947 
L 236.843243 226.503751 
L 237.664865 229.352892 
L 238.486486 231.516294 
L 239.308108 233.140973 
L 240.12973 234.347763 
L 240.951351 235.234419 
L 241.772973 235.878825 
L 243.005405 236.521126 
L 244.237838 236.903542 
L 245.881081 237.176165 
L 248.345946 237.337143 
L 253.686486 237.397056 
L 324.756757 237.4 
L 417.6 237.4 
L 417.6 237.4 
" clip-path="url(#p2614c0d96f)" style="fill: none; stroke: #000000; stroke-width: 1.5; stroke-linecap: square"/>
   </g>
   <g id="line2d_7">
    <path d="M 7.2 237.4 
L 176.043243 237.302944 
L 178.508108 237.076906 
L 180.151351 236.713431 
L 181.383784 236.221628 
L 182.616216 235.42057 
L 183.437838 234.636044 
L 184.259459 233.577184 
L 185.081081 232.162763 
L 185.902703 230.292894 
L 186.724324 227.846546 
L 187.545946 224.679319 
L 188.367568 220.621696 
L 189.189189 215.478067 
L 190.010811 209.026814 
L 190.832432 201.021797 
L 191.654054 191.195569 
L 192.475676 179.264606 
L 193.297297 164.936796 
L 194.52973 138.318117 
L 195.762162 104.746069 
L 196.994595 63.494947 
L 198.227027 14.152298 
L 198.568015 -1 
M 226.231985 -1 
L 227.394595 47.955195 
L 228.627027 91.87704 
L 229.859459 127.940838 
L 231.091892 156.782819 
L 232.324324 179.264606 
L 233.556757 196.353754 
L 234.378378 205.234793 
L 235.2 212.430731 
L 236.021622 218.198884 
L 236.843243 222.773416 
L 237.664865 226.363033 
L 238.486486 229.150234 
L 239.308108 231.291801 
L 240.12973 232.920194 
L 240.951351 234.145575 
L 241.772973 235.058181 
L 242.594595 235.730867 
L 243.827027 236.413444 
L 245.059459 236.829302 
L 246.702703 237.133997 
L 249.167568 237.321238 
L 254.097297 237.394678 
L 296 237.4 
L 417.6 237.4 
L 417.6 237.4 
" clip-path="url(#p2614c0d96f)" style="fill: none; stroke: #808080; stroke-linecap: square"/>
   </g>
   <g id="line2d_8">
    <path d="M 7.2 237.4 
L 175.632432 237.293515 
L 178.097297 237.0523 
L 179.740541 236.670322 
L 180.972973 236.159042 
L 182.205405 235.333962 
L 183.027027 234.531843 
L 183.848649 233.455618 
L 184.67027 232.026281 
L 185.491892 230.147306 
L 186.313514 227.70247 
L 187.135135 224.553956 
L 187.956757 220.540939 
L 188.778378 215.478892 
L 189.6 209.159891 
L 190.421622 201.354193 
L 191.243243 191.81337 
L 192.064865 180.275219 
L 192.886486 166.470647 
L 194.118919 140.93334 
L 195.351351 108.866084 
L 196.583784 69.604027 
L 197.816216 22.764142 
L 198.373232 -1 
M 226.426768 -1 
L 227.394595 39.227887 
L 228.627027 83.521546 
L 229.859459 120.326424 
L 231.091892 150.132622 
L 232.324324 173.673092 
L 233.556757 191.81337 
L 234.378378 201.354193 
L 235.2 209.159891 
L 236.021622 215.478892 
L 236.843243 220.540939 
L 237.664865 224.553956 
L 238.486486 227.70247 
L 239.308108 230.147306 
L 240.12973 232.026281 
L 240.951351 233.455618 
L 241.772973 234.531843 
L 242.594595 235.333962 
L 243.827027 236.159042 
L 245.059459 236.670322 
L 246.702703 237.0523 
L 248.756757 237.269523 
L 252.454054 237.380774 
L 266.010811 237.399997 
L 417.6 237.4 
L 417.6 237.4 
" clip-path="url(#p2614c0d96f)" style="fill: none; stroke: #808080; stroke-linecap: square"/>
   </g>
   <g id="line2d_9">
    <path d="M 7.2 237.4 
L 174.810811 237.292751 
L 177.275676 237.055038 
L 178.918919 236.683115 
L 180.151351 236.189517 
L 181.383784 235.398794 
L 182.205405 234.63454 
L 183.027027 233.613896 
L 183.848649 232.264543 
L 184.67027 230.498566 
L 185.491892 228.210619 
L 186.313514 225.276353 
L 187.135135 221.551279 
L 187.956757 216.870255 
L 188.778378 211.047843 
L 189.6 203.879731 
L 190.421622 195.145457 
L 191.243243 184.612602 
L 192.064865 172.04259 
L 193.297297 148.85146 
L 194.52973 119.799628 
L 195.762162 84.277936 
L 196.994595 41.907188 
L 198.074795 -1 
M 226.725205 -1 
L 228.216216 56.802789 
L 229.448649 96.866579 
L 230.681081 130.176166 
L 231.913514 157.19816 
L 233.145946 178.597199 
L 234.378378 195.145457 
L 235.610811 207.645441 
L 236.432432 214.114075 
L 237.254054 219.341386 
L 238.075676 223.522504 
L 238.897297 226.832825 
L 239.718919 229.427149 
L 240.540541 231.439788 
L 241.362162 232.985415 
L 242.183784 234.160444 
L 243.005405 235.044752 
L 244.237838 235.965323 
L 245.47027 236.544328 
L 247.113514 236.984348 
L 249.167568 237.240175 
L 252.454054 237.369396 
L 261.902703 237.399888 
L 417.6 237.4 
L 417.6 237.4 
" clip-path="url(#p2614c0d96f)" style="fill: none; stroke: #808080; stroke-linecap: square"/>
   </g>
   <g id="line2d_10">
    <path d="M 7.2 237.4 
L 173.578378 237.297105 
L 176.043243 237.073169 
L 177.686486 236.726368 
L 178.918919 236.269464 
L 180.151351 235.542163 
L 180.972973 234.842783 
L 181.794595 233.912622 
L 182.616216 232.687881 
L 183.437838 231.091379 
L 184.259459 229.031073 
L 185.081081 226.398826 
L 185.902703 223.06954 
L 186.724324 218.90085 
L 187.545946 213.73352 
L 188.367568 207.392724 
L 189.189189 199.690374 
L 190.010811 190.42861 
L 191.243243 173.168314 
L 192.475676 151.270057 
L 193.708108 124.123899 
L 194.940541 91.250533 
L 196.172973 52.374629 
L 197.620275 -1 
M 227.179725 -1 
L 228.627027 52.374629 
L 229.859459 91.250533 
L 231.091892 124.123899 
L 232.324324 151.270057 
L 233.556757 173.168314 
L 234.789189 190.42861 
L 236.021622 203.72393 
L 237.254054 213.73352 
L 238.075676 218.90085 
L 238.897297 223.06954 
L 239.718919 226.398826 
L 240.540541 229.031073 
L 241.362162 231.091379 
L 242.183784 232.687881 
L 243.005405 233.912622 
L 243.827027 234.842783 
L 245.059459 235.82198 
L 246.291892 236.446441 
L 247.524324 236.835803 
L 249.167568 237.128832 
L 251.632432 237.315834 
L 256.562162 237.393732 
L 293.535135 237.4 
L 417.6 237.4 
L 417.6 237.4 
" clip-path="url(#p2614c0d96f)" style="fill: none; stroke: #808080; stroke-linecap: square"/>
   </g>
   <g id="line2d_11">
    <path d="M 7.2 237.4 
L 171.935135 237.301989 
L 174.4 237.092527 
L 176.043243 236.77145 
L 177.275676 236.351554 
L 178.508108 235.687486 
L 179.32973 235.052262 
L 180.151351 234.21105 
L 180.972973 233.108154 
L 181.794595 231.676582 
L 182.616216 229.836904 
L 183.437838 227.496349 
L 184.259459 224.548239 
L 185.081081 220.871905 
L 185.902703 216.333204 
L 186.724324 210.78578 
L 187.545946 204.073163 
L 188.367568 196.031792 
L 189.6 181.114098 
L 190.832432 162.283534 
L 192.064865 139.047031 
L 193.297297 111.0193 
L 194.52973 77.97758 
L 195.762162 39.913149 
L 196.941055 -1 
M 227.858945 -1 
L 229.448649 53.149744 
L 231.091892 100.567794 
L 232.324324 130.251678 
L 233.556757 155.049351 
L 234.789189 175.297978 
L 236.021622 191.460735 
L 237.254054 204.073163 
L 238.486486 213.695155 
L 239.308108 218.719231 
L 240.12973 222.809179 
L 240.951351 226.105455 
L 241.772973 228.735574 
L 242.594595 230.813233 
L 243.416216 232.438114 
L 244.237838 233.696221 
L 245.059459 234.660635 
L 246.291892 235.687486 
L 247.524324 236.351554 
L 248.756757 236.77145 
L 250.4 237.092527 
L 252.864865 237.301989 
L 257.383784 237.390353 
L 282.854054 237.4 
L 417.6 237.4 
L 417.6 237.4 
" clip-path="url(#p2614c0d96f)" style="fill: none; stroke: #808080; stroke-linecap: square"/>
   </g>
   <g id="line2d_12">
    <path d="M 7.2 237.4 
L 169.881081 237.302737 
L 172.345946 237.099585 
L 173.989189 236.792173 
L 175.221622 236.393884 
L 176.454054 235.769145 
L 177.686486 234.811015 
L 178.508108 233.917143 
L 179.32973 232.757427 
L 180.151351 231.267793 
L 180.972973 229.373448 
L 181.794595 226.988437 
L 182.616216 224.015584 
L 183.437838 220.346922 
L 184.259459 215.864701 
L 185.081081 210.443071 
L 185.902703 203.950496 
L 187.135135 191.910609 
L 188.367568 176.71796 
L 189.6 157.973975 
L 190.832432 135.363904 
L 192.064865 108.698726 
L 193.297297 77.953667 
L 194.940541 30.936952 
L 195.94933 -1 
M 228.85067 -1 
L 230.681081 55.265439 
L 232.324324 98.899547 
L 233.556757 126.931017 
L 234.789189 150.879166 
L 236.021622 170.882231 
L 237.254054 187.217647 
L 238.486486 200.260706 
L 239.718919 210.443071 
L 240.951351 218.215207 
L 241.772973 222.275376 
L 242.594595 225.581994 
L 243.416216 228.248088 
L 244.237838 230.376317 
L 245.059459 232.058266 
L 245.881081 233.374276 
L 246.702703 234.393705 
L 247.935135 235.49312 
L 249.167568 236.215379 
L 250.4 236.679308 
L 252.043243 237.040444 
L 254.097297 237.257008 
L 257.794595 237.376575 
L 269.708108 237.399982 
L 417.6 237.4 
L 417.6 237.4 
" clip-path="url(#p2614c0d96f)" style="fill: none; stroke: #808080; stroke-linecap: square"/>
   </g>
   <g id="line2d_13">
    <path d="M 7.2 237.4 
L 167.416216 237.293569 
L 169.881081 237.078733 
L 171.524324 236.759793 
L 172.756757 236.352237 
L 173.989189 235.720692 
L 175.221622 234.763834 
L 176.043243 233.879956 
L 176.864865 232.742479 
L 177.686486 231.293222 
L 178.508108 229.465121 
L 179.32973 227.182116 
L 180.151351 224.35941 
L 180.972973 220.904186 
L 181.794595 216.71684 
L 182.616216 211.692797 
L 183.848649 202.353593 
L 185.081081 190.534893 
L 186.313514 175.911226 
L 187.545946 158.219532 
L 188.778378 137.292453 
L 190.010811 113.089237 
L 191.654054 75.93619 
L 193.708108 22.748742 
L 194.560145 -1 
M 230.239855 -1 
L 232.324324 55.459961 
L 233.967568 95.18139 
L 235.610811 129.586579 
L 236.843243 151.608215 
L 238.075676 170.365436 
L 239.308108 185.986596 
L 240.540541 198.706519 
L 241.772973 208.833556 
L 243.005405 216.71684 
L 244.237838 222.716947 
L 245.059459 225.84385 
L 245.881081 228.385582 
L 246.702703 230.431071 
L 247.524324 232.060803 
L 248.345946 233.346349 
L 249.167568 234.350296 
L 250.4 235.443809 
L 251.632432 236.170982 
L 252.864865 236.643784 
L 254.508108 237.01695 
L 256.562162 237.244727 
L 260.259459 237.373666 
L 271.351351 237.39996 
L 417.6 237.4 
L 417.6 237.4 
" clip-path="url(#p2614c0d96f)" style="fill: none; stroke: #808080; stroke-linecap: square"/>
   </g>
   <g id="line2d_14">
    <path d="M 7.2 237.4 
L 163.718919 237.305856 
L 166.594595 237.064101 
L 168.237838 236.740129 
L 169.47027 236.331497 
L 170.702703 235.705498 
L 171.935135 234.767846 
L 172.756757 233.909766 
L 173.578378 232.813898 
L 174.4 231.428288 
L 175.221622 229.693783 
L 176.043243 227.544161 
L 176.864865 224.906612 
L 177.686486 221.702621 
L 178.508108 217.849314 
L 179.740541 210.664872 
L 180.972973 201.540701 
L 182.205405 190.210934 
L 183.437838 176.455456 
L 184.67027 160.126533 
L 185.902703 141.174033 
L 187.545946 111.959061 
L 189.189189 78.739188 
L 191.654054 23.530694 
L 192.703477 -1 
M 232.096523 -1 
L 235.2 69.909227 
L 237.254054 111.959061 
L 238.897297 141.174033 
L 240.540541 165.860801 
L 241.772973 181.321037 
L 243.005405 194.24741 
L 244.237838 204.814717 
L 245.47027 213.261263 
L 246.702703 219.862436 
L 247.935135 224.906612 
L 249.167568 228.675266 
L 249.989189 230.608624 
L 250.810811 232.160839 
L 251.632432 233.394634 
L 252.864865 234.767846 
L 254.097297 235.705498 
L 255.32973 236.331497 
L 256.972973 236.840671 
L 259.027027 237.163688 
L 261.902703 237.335918 
L 268.064865 237.397358 
L 353.513514 237.4 
L 417.6 237.4 
L 417.6 237.4 
" clip-path="url(#p2614c0d96f)" style="fill: none; stroke: #808080; stroke-linecap: square"/>
   </g>
   <g id="line2d_15">
    <path d="M 7.2 237.4 
L 159.610811 237.292227 
L 162.075676 237.085684 
L 163.718919 236.787747 
L 165.362162 236.250931 
L 166.594595 235.601622 
L 167.827027 234.642882 
L 168.648649 233.775702 
L 169.47027 232.678743 
L 170.291892 231.304947 
L 171.113514 229.601585 
L 171.935135 227.510637 
L 172.756757 224.969479 
L 173.578378 221.911941 
L 174.810811 216.207909 
L 176.043243 208.958897 
L 177.275676 199.951428 
L 178.508108 189.007987 
L 179.740541 176.008322 
L 180.972973 160.909689 
L 182.616216 137.616732 
L 184.259459 111.106593 
L 186.724324 66.998666 
L 190.387257 -1 
M 234.412743 -1 
L 238.075676 66.998666 
L 240.540541 111.106593 
L 242.594595 143.763397 
L 244.237838 166.174698 
L 245.47027 180.57445 
L 246.702703 192.879743 
L 247.935135 203.161233 
L 249.167568 211.560615 
L 250.4 218.269737 
L 251.632432 223.509495 
L 252.864865 227.510637 
L 254.097297 230.49797 
L 255.32973 232.678743 
L 256.562162 234.235298 
L 257.794595 235.321588 
L 259.027027 236.062819 
L 260.259459 236.557344 
L 261.902703 236.959268 
L 263.956757 237.213993 
L 267.243243 237.358604 
L 275.459459 237.399504 
L 417.6 237.4 
L 417.6 237.4 
" clip-path="url(#p2614c0d96f)" style="fill: none; stroke: #808080; stroke-linecap: square"/>
   </g>
   <g id="line2d_16">
    <path d="M 7.2 237.4 
L 153.859459 237.298474 
L 156.735135 237.054041 
L 158.378378 236.737845 
L 160.021622 236.178764 
L 161.254054 235.513341 
L 162.486486 234.544611 
L 163.718919 233.165705 
L 164.540541 231.955301 
L 165.362162 230.461172 
L 166.183784 228.635185 
L 167.005405 226.425862 
L 168.237838 222.274995 
L 169.47027 216.955581 
L 170.702703 210.29034 
L 171.935135 202.124607 
L 173.167568 192.343194 
L 174.4 180.887137 
L 176.043243 163.039433 
L 177.686486 142.499444 
L 179.740541 113.853088 
L 186.313514 18.696408 
L 187.930996 -1 
M 236.869004 -1 
L 238.486486 18.696408 
L 240.540541 46.854358 
L 247.935135 153.079569 
L 249.578378 172.321997 
L 251.221622 188.711573 
L 252.454054 199.047878 
L 253.686486 207.741816 
L 254.918919 214.891632 
L 256.151351 220.640738 
L 257.383784 225.160682 
L 258.616216 228.635185 
L 259.848649 231.246623 
L 261.081081 233.165705 
L 262.313514 234.544611 
L 263.545946 235.513341 
L 264.778378 236.178764 
L 266.421622 236.737845 
L 268.064865 237.054041 
L 270.52973 237.278185 
L 274.637838 237.382288 
L 290.659459 237.399999 
L 417.6 237.4 
L 417.6 237.4 
" clip-path="url(#p2614c0d96f)" style="fill: none; stroke: #808080; stroke-linecap: square"/>
   </g>
   <g id="line2d_17">
    <path d="M 7.2 237.4 
L 146.875676 237.291261 
L 149.751351 237.039104 
L 151.394595 236.719492 
L 153.037838 236.163373 
L 154.27027 235.510516 
L 155.502703 234.571474 
L 156.735135 233.25085 
L 157.967568 231.434914 
L 158.789189 229.885385 
L 160.021622 226.948289 
L 161.254054 223.144833 
L 162.486486 218.329063 
L 163.718919 212.367226 
L 164.951351 205.150807 
L 166.183784 196.610166 
L 167.416216 186.727222 
L 169.059459 171.546793 
L 170.702703 154.35471 
L 173.167568 125.927007 
L 177.686486 72.917141 
L 179.740541 51.771775 
L 181.383784 37.192124 
L 182.616216 27.790003 
L 183.848649 19.730331 
L 185.081081 12.975163 
L 186.313514 7.439342 
L 187.545946 3.003714 
L 188.778378 -0.471289 
L 189.002218 -1 
M 235.797782 -1 
L 236.843243 1.745874 
L 238.075676 5.845155 
L 239.308108 10.999723 
L 240.540541 17.337019 
L 241.772973 24.955052 
L 243.005405 33.908883 
L 244.648649 47.916238 
L 246.291892 64.112481 
L 248.345946 86.820868 
L 255.32973 167.421346 
L 256.972973 183.140225 
L 258.616216 196.610166 
L 259.848649 205.150807 
L 261.081081 212.367226 
L 262.313514 218.329063 
L 263.545946 223.144833 
L 264.778378 226.948289 
L 266.010811 229.885385 
L 267.243243 232.102995 
L 268.475676 233.74011 
L 269.708108 234.921791 
L 270.940541 235.755757 
L 272.172973 236.331229 
L 273.816216 236.817254 
L 275.87027 237.14082 
L 278.745946 237.324429 
L 284.497297 237.395461 
L 337.491892 237.4 
L 417.6 237.4 
L 417.6 237.4 
" clip-path="url(#p2614c0d96f)" style="fill: none; stroke: #808080; stroke-linecap: square"/>
   </g>
   <g id="line2d_18">
    <path d="M 7.2 237.4 
L 137.837838 237.291128 
L 140.713514 237.046033 
L 142.767568 236.633633 
L 144.410811 236.035932 
L 145.643243 235.347706 
L 146.875676 234.374429 
L 148.108108 233.028664 
L 149.340541 231.209261 
L 150.572973 228.804257 
L 151.805405 225.695909 
L 153.037838 221.767917 
L 154.27027 216.914598 
L 155.502703 211.051405 
L 156.735135 204.125818 
L 157.967568 196.12736 
L 159.610811 183.869611 
L 161.664865 166.358166 
L 164.540541 139.323816 
L 167.827027 108.501838 
L 169.881081 91.249333 
L 171.524324 79.254013 
L 173.167568 69.111333 
L 174.4 62.755774 
L 175.632432 57.439269 
L 176.864865 53.090905 
L 178.097297 49.613521 
L 179.32973 46.894538 
L 180.562162 44.815859 
L 181.794595 43.262057 
L 183.027027 42.126442 
L 184.259459 41.314934 
L 185.491892 40.747934 
L 187.135135 40.262206 
L 189.189189 39.932889 
L 192.064865 39.741562 
L 197.405405 39.666131 
L 229.448649 39.677635 
L 234.378378 39.824992 
L 236.843243 40.101861 
L 238.486486 40.473161 
L 240.12973 41.102267 
L 241.362162 41.824165 
L 242.594595 42.841985 
L 243.827027 44.2451 
L 245.059459 46.136323 
L 246.291892 48.628732 
L 247.524324 51.840345 
L 248.756757 55.886607 
L 249.989189 60.870996 
L 251.221622 66.874394 
L 252.454054 73.944232 
L 254.097297 85.029619 
L 255.740541 97.880583 
L 257.794595 115.951474 
L 265.189189 183.869611 
L 266.832432 196.12736 
L 268.475676 206.554 
L 269.708108 213.122029 
L 270.940541 218.640959 
L 272.172973 223.175173 
L 273.405405 226.817477 
L 274.637838 229.678211 
L 275.87027 231.875089 
L 277.102703 233.524625 
L 278.335135 234.735625 
L 279.567568 235.604894 
L 280.8 236.214979 
L 282.443243 236.7403 
L 284.497297 237.098803 
L 287.372973 237.308862 
L 292.302703 237.391023 
L 321.47027 237.4 
L 417.6 237.4 
L 417.6 237.4 
" clip-path="url(#p2614c0d96f)" style="fill: none; stroke: #808080; stroke-linecap: square"/>
   </g>
   <g id="line2d_19">
    <path d="M 7.2 237.4 
L 126.335135 237.294839 
L 129.210811 237.064046 
L 131.264865 236.681597 
L 132.908108 236.133808 
L 134.140541 235.508834 
L 135.372973 234.632103 
L 136.605405 233.429568 
L 137.837838 231.816857 
L 139.07027 229.702188 
L 140.302703 226.991028 
L 141.535135 223.592467 
L 142.767568 219.427014 
L 144 214.435221 
L 145.232432 208.586271 
L 146.875676 199.4694 
L 148.518919 188.971227 
L 150.572973 174.320297 
L 157.145946 125.580714 
L 158.789189 115.324535 
L 160.432432 106.484037 
L 161.664865 100.849617 
L 162.897297 96.067793 
L 164.12973 92.099854 
L 165.362162 88.880539 
L 166.594595 86.326725 
L 167.827027 84.345919 
L 169.059459 82.843738 
L 170.291892 81.729882 
L 171.524324 80.922344 
L 172.756757 80.349911 
L 174.4 79.851377 
L 176.454054 79.50616 
L 179.32973 79.300036 
L 184.67027 79.215449 
L 218.356757 79.207765 
L 245.881081 79.317648 
L 248.756757 79.55736 
L 250.810811 79.953165 
L 252.454054 80.518512 
L 253.686486 81.162123 
L 254.918919 82.063288 
L 256.151351 83.296996 
L 257.383784 84.94838 
L 258.616216 87.109656 
L 259.848649 89.875323 
L 261.081081 93.335646 
L 262.313514 97.568763 
L 263.545946 102.632036 
L 264.778378 108.553505 
L 266.421622 117.762884 
L 268.064865 128.34085 
L 270.118919 143.061147 
L 276.691892 191.713079 
L 278.335135 201.885473 
L 279.978378 210.631647 
L 281.210811 216.193549 
L 282.443243 220.904887 
L 283.675676 224.806933 
L 284.908108 227.966792 
L 286.140541 230.468693 
L 287.372973 232.405559 
L 288.605405 233.871634 
L 289.837838 234.956659 
L 291.07027 235.741806 
L 292.302703 236.297312 
L 293.945946 236.780059 
L 296 237.113417 
L 298.875676 237.311746 
L 304.216216 237.392707 
L 339.545946 237.4 
L 417.6 237.4 
L 417.6 237.4 
" clip-path="url(#p2614c0d96f)" style="fill: none; stroke: #808080; stroke-linecap: square"/>
   </g>
   <g id="line2d_20">
    <path d="M 7.2 237.4 
L 111.956757 237.293928 
L 114.832432 237.068473 
L 116.886486 236.701941 
L 118.52973 236.184643 
L 119.762162 235.601212 
L 120.994595 234.790965 
L 122.227027 233.690763 
L 123.459459 232.230084 
L 124.691892 230.33397 
L 125.924324 227.927388 
L 127.156757 224.940875 
L 128.389189 221.317149 
L 129.621622 217.018092 
L 130.854054 212.031334 
L 132.497297 204.349806 
L 134.140541 195.622324 
L 136.605405 181.132718 
L 141.535135 151.632839 
L 143.589189 141.012524 
L 145.232432 133.74568 
L 146.464865 129.087342 
L 147.697297 125.114381 
L 148.92973 121.801357 
L 150.162162 119.100124 
L 151.394595 116.946714 
L 152.627027 115.268225 
L 153.859459 113.989029 
L 155.091892 113.03583 
L 156.324324 112.341355 
L 157.967568 111.717274 
L 159.610811 111.335524 
L 162.075676 111.038479 
L 165.772973 110.88668 
L 174.810811 110.846612 
L 260.67027 110.929022 
L 263.956757 111.156143 
L 266.010811 111.502064 
L 267.654054 111.992608 
L 268.886486 112.547927 
L 270.118919 113.321648 
L 271.351351 114.375681 
L 272.583784 115.779626 
L 273.816216 117.608037 
L 275.048649 119.936259 
L 276.281081 122.834951 
L 277.513514 126.363588 
L 278.745946 130.563489 
L 279.978378 135.451118 
L 281.621622 143.008782 
L 283.264865 151.632839 
L 285.72973 166.028921 
L 291.07027 197.890515 
L 292.713514 206.375578 
L 294.356757 213.769529 
L 296 219.960366 
L 297.232432 223.806111 
L 298.464865 226.999466 
L 299.697297 229.5921 
L 300.92973 231.65018 
L 302.162162 233.247569 
L 303.394595 234.459801 
L 304.627027 235.359274 
L 305.859459 236.011831 
L 307.502703 236.595403 
L 309.556757 237.013462 
L 312.021622 237.251386 
L 316.12973 237.374938 
L 328.864865 237.399978 
L 417.6 237.4 
L 417.6 237.4 
" clip-path="url(#p2614c0d96f)" style="fill: none; stroke: #808080; stroke-linecap: square"/>
   </g>
   <g id="line2d_21">
    <path d="M 7.2 237.4 
L 93.881081 237.291914 
L 96.756757 237.069938 
L 98.810811 236.716334 
L 100.454054 236.225058 
L 101.686486 235.677729 
L 102.918919 234.925723 
L 104.151351 233.915493 
L 105.383784 232.588567 
L 106.616216 230.884448 
L 107.848649 228.744611 
L 109.081081 226.117441 
L 110.313514 222.963722 
L 111.545946 219.26216 
L 113.189189 213.480896 
L 114.832432 206.80858 
L 116.886486 197.473009 
L 123.87027 164.503093 
L 125.513514 158.104912 
L 127.156757 152.632278 
L 128.389189 149.168012 
L 129.621622 146.244947 
L 130.854054 143.833416 
L 132.086486 141.888171 
L 133.318919 140.353967 
L 134.551351 139.170874 
L 135.783784 138.27884 
L 137.016216 137.621225 
L 138.659459 137.022246 
L 140.302703 136.65006 
L 142.767568 136.354983 
L 146.464865 136.200048 
L 155.091892 136.157552 
L 279.567568 136.230119 
L 282.854054 136.427851 
L 284.908108 136.726439 
L 286.551351 137.147214 
L 288.194595 137.817659 
L 289.427027 138.547443 
L 290.659459 139.529974 
L 291.891892 140.823354 
L 293.124324 142.488041 
L 294.356757 144.582956 
L 295.589189 147.160626 
L 296.821622 150.261722 
L 298.054054 153.909518 
L 299.697297 159.621513 
L 301.340541 166.233178 
L 303.394595 175.514451 
L 310.789189 210.24786 
L 312.432432 216.489781 
L 314.075676 221.791175 
L 315.308108 225.126178 
L 316.540541 227.925282 
L 317.772973 230.222324 
L 319.005405 232.065412 
L 320.237838 233.511352 
L 321.47027 234.62048 
L 322.702703 235.452321 
L 323.935135 236.062315 
L 325.578378 236.614555 
L 327.632432 237.016436 
L 330.097297 237.249571 
L 334.205405 237.373767 
L 346.52973 237.399967 
L 417.6 237.4 
L 417.6 237.4 
" clip-path="url(#p2614c0d96f)" style="fill: none; stroke: #808080; stroke-linecap: square"/>
   </g>
   <g id="line2d_22">
    <path d="M 7.2 237.4 
L 70.875676 237.301417 
L 74.162162 237.055218 
L 76.216216 236.700287 
L 77.859459 236.216764 
L 79.502703 235.469671 
L 80.735135 234.677693 
L 81.967568 233.635773 
L 83.2 232.295531 
L 84.432432 230.609914 
L 85.664865 228.537093 
L 86.897297 226.044841 
L 88.12973 223.114965 
L 89.772973 218.530343 
L 91.416216 213.227813 
L 93.47027 205.790908 
L 100.864865 178.021647 
L 102.508108 173.042298 
L 104.151351 168.816576 
L 105.383784 166.160112 
L 106.616216 163.931837 
L 107.848649 162.104323 
L 109.081081 160.638843 
L 110.313514 159.489826 
L 111.545946 158.608981 
L 112.778378 157.948744 
L 114.421622 157.335834 
L 116.475676 156.875232 
L 118.940541 156.597367 
L 122.637838 156.448378 
L 131.264865 156.40619 
L 302.572973 156.456614 
L 306.27027 156.629527 
L 308.735135 156.946479 
L 310.378378 157.335834 
L 312.021622 157.948744 
L 313.254054 158.608981 
L 314.486486 159.489826 
L 315.718919 160.638843 
L 316.951351 162.104323 
L 318.183784 163.931837 
L 319.416216 166.160112 
L 320.648649 168.816576 
L 321.881081 171.913041 
L 323.524324 176.710166 
L 325.167568 182.195982 
L 327.632432 191.378257 
L 332.972973 211.803493 
L 335.027027 218.530343 
L 336.67027 223.114965 
L 338.313514 226.923653 
L 339.545946 229.273292 
L 340.778378 231.212898 
L 342.010811 232.778397 
L 343.243243 234.013831 
L 344.475676 234.967095 
L 345.708108 235.686269 
L 347.351351 236.358877 
L 348.994595 236.789866 
L 351.048649 237.102773 
L 353.924324 237.301417 
L 359.264865 237.39063 
L 388.432432 237.4 
L 417.6 237.4 
L 417.6 237.4 
" clip-path="url(#p2614c0d96f)" style="fill: none; stroke: #808080; stroke-linecap: square"/>
   </g>
   <g id="line2d_23">
    <path d="M 7.2 237.4 
L 42.52973 237.290933 
L 45.816216 237.032278 
L 47.87027 236.670394 
L 49.513514 236.188044 
L 51.156757 235.45738 
L 52.389189 234.695922 
L 53.621622 233.708946 
L 54.854054 232.458126 
L 56.086486 230.908203 
L 57.318919 229.03039 
L 58.551351 226.805943 
L 60.194595 223.293833 
L 61.837838 219.190302 
L 63.891892 213.368659 
L 67.178378 203.171649 
L 70.054054 194.427275 
L 72.108108 188.865457 
L 73.751351 185.025276 
L 75.394595 181.798151 
L 76.627027 179.786964 
L 77.859459 178.112352 
L 79.091892 176.749014 
L 80.324324 175.66379 
L 81.556757 174.819167 
L 83.2 174.00051 
L 84.843243 173.453733 
L 86.897297 173.038201 
L 89.362162 172.784085 
L 93.059459 172.645411 
L 102.097297 172.604954 
L 332.151351 172.653175 
L 336.259459 172.847668 
L 338.724324 173.17582 
L 340.778378 173.698206 
L 342.421622 174.370601 
L 343.654054 175.07637 
L 344.886486 175.996892 
L 346.118919 177.170798 
L 347.351351 178.634524 
L 348.583784 180.419009 
L 349.816216 182.546136 
L 351.459459 185.929324 
L 353.102703 189.915211 
L 355.156757 195.623285 
L 358.032432 204.463933 
L 361.72973 215.775506 
L 363.783784 221.311799 
L 365.427027 225.127124 
L 367.07027 228.327991 
L 368.302703 230.319864 
L 369.535135 231.976307 
L 370.767568 233.323157 
L 372 234.393908 
L 373.232432 235.226219 
L 374.875676 236.031776 
L 376.518919 236.568904 
L 378.572973 236.976348 
L 381.037838 237.224959 
L 385.145946 237.366663 
L 395.827027 237.399852 
L 417.6 237.4 
L 417.6 237.4 
" clip-path="url(#p2614c0d96f)" style="fill: none; stroke: #808080; stroke-linecap: square"/>
   </g>
   <g id="line2d_24">
    <path d="M 7.2 237.26571 
L 10.075676 237.024766 
L 12.12973 236.669936 
L 13.772973 236.205912 
L 15.416216 235.515039 
L 17.059459 234.526699 
L 18.291892 233.546323 
L 19.524324 232.329042 
L 20.756757 230.851241 
L 21.989189 229.097084 
L 23.632432 226.320877 
L 25.275676 223.068382 
L 27.32973 218.439971 
L 30.616216 210.297207 
L 33.902703 202.336752 
L 35.956757 197.977554 
L 37.6 194.992394 
L 39.243243 192.501991 
L 40.886486 190.505702 
L 42.118919 189.312473 
L 43.351351 188.353558 
L 44.994595 187.38927 
L 46.637838 186.717162 
L 48.281081 186.267048 
L 50.335135 185.923954 
L 53.210811 185.691945 
L 57.72973 185.583725 
L 73.751351 185.563571 
L 371.178378 185.673328 
L 374.464865 185.923954 
L 376.518919 186.267048 
L 378.162162 186.717162 
L 379.805405 187.38927 
L 381.448649 188.353558 
L 382.681081 189.312473 
L 383.913514 190.505702 
L 385.145946 191.957461 
L 386.378378 193.684461 
L 388.021622 196.424692 
L 389.664865 199.644358 
L 391.718919 204.241076 
L 394.594595 211.331582 
L 398.291892 220.355394 
L 400.345946 224.751001 
L 401.989189 227.770973 
L 403.632432 230.297732 
L 405.275676 232.329042 
L 406.508108 233.546323 
L 407.740541 234.526699 
L 409.383784 235.515039 
L 411.027027 236.205912 
L 412.67027 236.669936 
L 414.724324 237.024766 
L 417.6 237.26571 
L 417.6 237.26571 
" clip-path="url(#p2614c0d96f)" style="fill: none; stroke: #808080; stroke-linecap: square"/>
   </g>
   <g id="line2d_25">
    <path d="M 7.2 196.052336 
L 12.12973 195.947241 
L 31.027027 195.930855 
L 417.189189 196.034982 
L 417.6 196.052336 
L 417.6 196.052336 
" clip-path="url(#p2614c0d96f)" style="fill: none; stroke: #808080; stroke-linecap: square"/>
   </g>
   <g id="line2d_26">
    <path d="M 7.2 204.224684 
L 417.6 204.224684 
L 417.6 204.224684 
" clip-path="url(#p2614c0d96f)" style="fill: none; stroke: #808080; stroke-linecap: square"/>
   </g>
   <g id="line2d_27">
    <path d="M 7.2 210.859747 
L 417.6 210.859747 
L 417.6 210.859747 
" clip-path="url(#p2614c0d96f)" style="fill: none; stroke: #808080; stroke-linecap: square"/>
   </g>
   <g id="line2d_28">
    <path d="M 7.2 216.167798 
L 417.6 216.167798 
L 417.6 216.167798 
" clip-path="url(#p2614c0d96f)" style="fill: none; stroke: #808080; stroke-linecap: square"/>
   </g>
   <g id="line2d_29">
    <path d="M 7.2 220.414238 
L 417.6 220.414238 
L 417.6 220.414238 
" clip-path="url(#p2614c0d96f)" style="fill: none; stroke: #808080; stroke-linecap: square"/>
   </g>
   <g id="line2d_30">
    <path d="M 7.2 223.81139 
L 417.6 223.81139 
L 417.6 223.81139 
" clip-path="url(#p2614c0d96f)" style="fill: none; stroke: #808080; stroke-linecap: square"/>
   </g>
   <g id="line2d_31">
    <path d="M 7.2 226.529112 
L 417.6 226.529112 
L 417.6 226.529112 
" clip-path="url(#p2614c0d96f)" style="fill: none; stroke: #808080; stroke-linecap: square"/>
   </g>
   <g id="line2d_32">
    <path d="M 7.2 228.70329 
L 417.6 228.70329 
L 417.6 228.70329 
" clip-path="url(#p2614c0d96f)" style="fill: none; stroke: #808080; stroke-linecap: square"/>
   </g>
   <g id="line2d_33">
    <path d="M 7.2 230.442632 
L 417.6 230.442632 
L 417.6 230.442632 
" clip-path="url(#p2614c0d96f)" style="fill: none; stroke: #808080; stroke-linecap: square"/>
   </g>
   <g id="line2d_34">
    <path d="M 7.2 231.834106 
L 417.6 231.834106 
L 417.6 231.834106 
" clip-path="url(#p2614c0d96f)" style="fill: none; stroke: #808080; stroke-linecap: square"/>
   </g>
   <g id="line2d_35">
    <path d="M 7.2 232.947284 
L 417.6 232.947284 
L 417.6 232.947284 
" clip-path="url(#p2614c0d96f)" style="fill: none; stroke: #808080; stroke-linecap: square"/>
   </g>
   <g id="line2d_36">
    <path d="M 7.2 233.837828 
L 417.6 233.837828 
L 417.6 233.837828 
" clip-path="url(#p2614c0d96f)" style="fill: none; stroke: #808080; stroke-linecap: square"/>
   </g>
   <g id="line2d_37">
    <path d="M 7.2 234.550262 
L 417.6 234.550262 
L 417.6 234.550262 
" clip-path="url(#p2614c0d96f)" style="fill: none; stroke: #808080; stroke-linecap: square"/>
   </g>
   <g id="line2d_38">
    <path d="M 7.2 235.12021 
L 417.6 235.12021 
L 417.6 235.12021 
" clip-path="url(#p2614c0d96f)" style="fill: none; stroke: #808080; stroke-linecap: square"/>
   </g>
   <g id="line2d_39">
    <path d="M 7.2 235.576168 
L 417.6 235.576168 
L 417.6 235.576168 
" clip-path="url(#p2614c0d96f)" style="fill: none; stroke: #808080; stroke-linecap: square"/>
   </g>
   <g id="line2d_40">
    <path d="M 7.2 235.940934 
L 417.6 235.940934 
L 417.6 235.940934 
" clip-path="url(#p2614c0d96f)" style="fill: none; stroke: #808080; stroke-linecap: square"/>
   </g>
   <g id="line2d_41">
    <path d="M 7.2 236.232747 
L 417.6 236.232747 
L 417.6 236.232747 
" clip-path="url(#p2614c0d96f)" style="fill: none; stroke: #808080; stroke-linecap: square"/>
   </g>
   <g id="line2d_42">
    <path d="M 7.2 236.466198 
L 417.6 236.466198 
L 417.6 236.466198 
" clip-path="url(#p2614c0d96f)" style="fill: none; stroke: #808080; stroke-linecap: square"/>
   </g>
   <g id="line2d_43">
    <path d="M 7.2 236.652958 
L 417.6 236.652958 
L 417.6 236.652958 
" clip-path="url(#p2614c0d96f)" style="fill: none; stroke: #808080; stroke-linecap: square"/>
   </g>
   <g id="line2d_44">
    <path d="M 7.2 236.802367 
L 417.6 236.802367 
L 417.6 236.802367 
" clip-path="url(#p2614c0d96f)" style="fill: none; stroke: #808080; stroke-linecap: square"/>
   </g>
   <g id="line2d_45">
    <path d="M 7.2 236.921893 
L 417.6 236.921893 
L 417.6 236.921893 
" clip-path="url(#p2614c0d96f)" style="fill: none; stroke: #808080; stroke-linecap: square"/>
   </g>
   <g id="line2d_46">
    <path d="M 7.2 237.017515 
L 417.6 237.017515 
L 417.6 237.017515 
" clip-path="url(#p2614c0d96f)" style="fill: none; stroke: #808080; stroke-linecap: square"/>
   </g>
   <g id="patch_3">
    <path d="M 7.2 237.4 
L 7.2 7.2 
" style="fill: none; stroke: #000000; stroke-width: 0.8; stroke-linejoin: miter; stroke-linecap: square"/>
   </g>
   <g id="patch_4">
    <path d="M 417.6 237.4 
L 417.6 7.2 
" style="fill: none; stroke: #000000; stroke-width: 0.8; stroke-linejoin: miter; stroke-linecap: square"/>
   </g>
   <g id="patch_5">
    <path d="M 7.2 237.4 
L 417.6 237.4 
" style="fill: none; stroke: #000000; stroke-width: 0.8; stroke-linejoin: miter; stroke-linecap: square"/>
   </g>
   <g id="patch_6">
    <path d="M 7.2 7.2 
L 417.6 7.2 
" style="fill: none; stroke: #000000; stroke-width: 0.8; stroke-linejoin: miter; stroke-linecap: square"/>
   </g>
   <g id="legend_1">
    <g id="patch_7">
     <path d="M 280.2 54.81375 
L 409.2 54.81375 
Q 411.6 54.81375 411.6 52.41375 
L 411.6 15.6 
Q 411.6 13.2 409.2 13.2 
L 280.2 13.2 
Q 277.8 13.2 277.8 15.6 
L 277.8 52.41375 
Q 277.8 54.81375 280.2 54.81375 
z
" style="fill: #ffffff; opacity: 0.8; stroke: #cccccc; stroke-linejoin: miter"/>
    </g>
    <g id="line2d_47">
     <path d="M 282.6 22.918125 
L 294.6 22.918125 
L 306.6 22.918125 
" style="fill: none; stroke: #000000; stroke-width: 1.5; stroke-linecap: square"/>
    </g>
    <g id="text_7">
     <!-- $\alpha\cdot PDF(x)$ -->
     <g transform="translate(316.2 27.118125) scale(0.12 -0.12)">
      <defs>
       <path id="DejaVuSans-Oblique-3b1" d="M 2619 1628 
L 2622 2350 
Q 2625 3088 2069 3091 
Q 1653 3094 1394 2747 
Q 1069 2319 959 1747 
Q 825 1059 994 731 
Q 1169 397 1547 397 
Q 1966 397 2319 1063 
L 2619 1628 
z
M 2166 3578 
Q 3141 3594 3128 2584 
Q 3128 2584 3616 3500 
L 4128 3500 
L 3119 1603 
L 3109 919 
Q 3109 766 3194 638 
Q 3291 488 3391 488 
L 3669 488 
L 3575 0 
L 3228 0 
Q 2934 0 2722 263 
Q 2622 394 2619 669 
Q 2416 334 2066 50 
Q 1900 -81 1453 -78 
Q 722 -72 456 397 
Q 184 884 353 1747 
Q 534 2675 1009 3097 
Q 1544 3569 2166 3578 
z
" transform="scale(0.015625)"/>
       <path id="DejaVuSans-22c5" d="M 684 2619 
L 1344 2619 
L 1344 1825 
L 684 1825 
L 684 2619 
z
" transform="scale(0.015625)"/>
       <path id="DejaVuSans-Oblique-50" d="M 1081 4666 
L 2541 4666 
Q 3178 4666 3512 4369 
Q 3847 4072 3847 3500 
Q 3847 2731 3353 2303 
Q 2859 1875 1966 1875 
L 1172 1875 
L 806 0 
L 172 0 
L 1081 4666 
z
M 1613 4147 
L 1275 2394 
L 2069 2394 
Q 2606 2394 2893 2669 
Q 3181 2944 3181 3456 
Q 3181 3784 2986 3965 
Q 2791 4147 2438 4147 
L 1613 4147 
z
" transform="scale(0.015625)"/>
       <path id="DejaVuSans-Oblique-44" d="M 1081 4666 
L 2438 4666 
Q 3519 4666 4070 4208 
Q 4622 3750 4622 2847 
Q 4622 2250 4412 1698 
Q 4203 1147 3834 769 
Q 3463 381 2891 190 
Q 2319 0 1538 0 
L 172 0 
L 1081 4666 
z
M 1613 4147 
L 909 519 
L 1734 519 
Q 2794 519 3375 1128 
Q 3956 1738 3956 2847 
Q 3956 3519 3581 3833 
Q 3206 4147 2406 4147 
L 1613 4147 
z
" transform="scale(0.015625)"/>
       <path id="DejaVuSans-Oblique-46" d="M 1081 4666 
L 3756 4666 
L 3653 4134 
L 1606 4134 
L 1338 2759 
L 3188 2759 
L 3084 2228 
L 1234 2228 
L 800 0 
L 172 0 
L 1081 4666 
z
" transform="scale(0.015625)"/>
       <path id="DejaVuSans-28" d="M 1984 4856 
Q 1566 4138 1362 3434 
Q 1159 2731 1159 2009 
Q 1159 1288 1364 580 
Q 1569 -128 1984 -844 
L 1484 -844 
Q 1016 -109 783 600 
Q 550 1309 550 2009 
Q 550 2706 781 3412 
Q 1013 4119 1484 4856 
L 1984 4856 
z
" transform="scale(0.015625)"/>
       <path id="DejaVuSans-Oblique-78" d="M 3841 3500 
L 2234 1784 
L 3219 0 
L 2559 0 
L 1819 1388 
L 531 0 
L -166 0 
L 1556 1844 
L 641 3500 
L 1300 3500 
L 1972 2234 
L 3144 3500 
L 3841 3500 
z
" transform="scale(0.015625)"/>
       <path id="DejaVuSans-29" d="M 513 4856 
L 1013 4856 
Q 1481 4119 1714 3412 
Q 1947 2706 1947 2009 
Q 1947 1309 1714 600 
Q 1481 -109 1013 -844 
L 513 -844 
Q 928 -128 1133 580 
Q 1338 1288 1338 2009 
Q 1338 2731 1133 3434 
Q 928 4138 513 4856 
z
" transform="scale(0.015625)"/>
      </defs>
      <use xlink:href="#DejaVuSans-Oblique-3b1" transform="translate(0 0.125)"/>
      <use xlink:href="#DejaVuSans-22c5" transform="translate(85.400391 0.125)"/>
      <use xlink:href="#DejaVuSans-Oblique-50" transform="translate(136.669922 0.125)"/>
      <use xlink:href="#DejaVuSans-Oblique-44" transform="translate(196.972656 0.125)"/>
      <use xlink:href="#DejaVuSans-Oblique-46" transform="translate(273.974609 0.125)"/>
      <use xlink:href="#DejaVuSans-28" transform="translate(331.494141 0.125)"/>
      <use xlink:href="#DejaVuSans-Oblique-78" transform="translate(370.507812 0.125)"/>
      <use xlink:href="#DejaVuSans-29" transform="translate(429.6875 0.125)"/>
     </g>
    </g>
    <g id="line2d_48">
     <path d="M 282.6 42.33375 
L 294.6 42.33375 
L 306.6 42.33375 
" style="fill: none; stroke: #808080; stroke-linecap: square"/>
    </g>
    <g id="text_8">
     <!-- $\alpha\cdot CDF(x)|_{x-0.5}^{x+0.5}$ -->
     <g transform="translate(316.2 46.53375) scale(0.12 -0.12)">
      <defs>
       <path id="DejaVuSans-Oblique-43" d="M 4447 4306 
L 4319 3641 
Q 4019 3944 3683 4091 
Q 3347 4238 2956 4238 
Q 2422 4238 2017 3981 
Q 1613 3725 1319 3200 
Q 1131 2863 1032 2486 
Q 934 2109 934 1728 
Q 934 1091 1264 756 
Q 1594 422 2222 422 
Q 2656 422 3056 561 
Q 3456 700 3834 978 
L 3688 231 
Q 3316 72 2936 -9 
Q 2556 -91 2175 -91 
Q 1278 -91 773 396 
Q 269 884 269 1753 
Q 269 2309 461 2846 
Q 653 3384 1013 3828 
Q 1394 4300 1883 4525 
Q 2372 4750 3022 4750 
Q 3422 4750 3780 4639 
Q 4138 4528 4447 4306 
z
" transform="scale(0.015625)"/>
       <path id="DejaVuSans-7c" d="M 1344 4891 
L 1344 -1509 
L 813 -1509 
L 813 4891 
L 1344 4891 
z
" transform="scale(0.015625)"/>
       <path id="DejaVuSans-2b" d="M 2944 4013 
L 2944 2272 
L 4684 2272 
L 4684 1741 
L 2944 1741 
L 2944 0 
L 2419 0 
L 2419 1741 
L 678 1741 
L 678 2272 
L 2419 2272 
L 2419 4013 
L 2944 4013 
z
" transform="scale(0.015625)"/>
       <path id="DejaVuSans-2e" d="M 684 794 
L 1344 794 
L 1344 0 
L 684 0 
L 684 794 
z
" transform="scale(0.015625)"/>
       <path id="DejaVuSans-35" d="M 691 4666 
L 3169 4666 
L 3169 4134 
L 1269 4134 
L 1269 2991 
Q 1406 3038 1543 3061 
Q 1681 3084 1819 3084 
Q 2600 3084 3056 2656 
Q 3513 2228 3513 1497 
Q 3513 744 3044 326 
Q 2575 -91 1722 -91 
Q 1428 -91 1123 -41 
Q 819 9 494 109 
L 494 744 
Q 775 591 1075 516 
Q 1375 441 1709 441 
Q 2250 441 2565 725 
Q 2881 1009 2881 1497 
Q 2881 1984 2565 2268 
Q 2250 2553 1709 2553 
Q 1456 2553 1204 2497 
Q 953 2441 691 2322 
L 691 4666 
z
" transform="scale(0.015625)"/>
      </defs>
      <use xlink:href="#DejaVuSans-Oblique-3b1" transform="translate(0 0.765625)"/>
      <use xlink:href="#DejaVuSans-22c5" transform="translate(85.400391 0.765625)"/>
      <use xlink:href="#DejaVuSans-Oblique-43" transform="translate(136.669922 0.765625)"/>
      <use xlink:href="#DejaVuSans-Oblique-44" transform="translate(206.494141 0.765625)"/>
      <use xlink:href="#DejaVuSans-Oblique-46" transform="translate(283.496094 0.765625)"/>
      <use xlink:href="#DejaVuSans-28" transform="translate(341.015625 0.765625)"/>
      <use xlink:href="#DejaVuSans-Oblique-78" transform="translate(380.029297 0.765625)"/>
      <use xlink:href="#DejaVuSans-29" transform="translate(439.208984 0.765625)"/>
      <use xlink:href="#DejaVuSans-7c" transform="translate(478.222656 0.765625)"/>
      <use xlink:href="#DejaVuSans-Oblique-78" transform="translate(512.871094 39.046875) scale(0.7)"/>
      <use xlink:href="#DejaVuSans-2b" transform="translate(567.93457 39.046875) scale(0.7)"/>
      <use xlink:href="#DejaVuSans-30" transform="translate(640.224609 39.046875) scale(0.7)"/>
      <use xlink:href="#DejaVuSans-2e" transform="translate(684.760742 39.046875) scale(0.7)"/>
      <use xlink:href="#DejaVuSans-35" transform="translate(707.011719 39.046875) scale(0.7)"/>
      <use xlink:href="#DejaVuSans-Oblique-78" transform="translate(512.871094 -26.578125) scale(0.7)"/>
      <use xlink:href="#DejaVuSans-2212" transform="translate(567.93457 -26.578125) scale(0.7)"/>
      <use xlink:href="#DejaVuSans-30" transform="translate(640.224609 -26.578125) scale(0.7)"/>
      <use xlink:href="#DejaVuSans-2e" transform="translate(684.760742 -26.578125) scale(0.7)"/>
      <use xlink:href="#DejaVuSans-35" transform="translate(707.011719 -26.578125) scale(0.7)"/>
     </g>
    </g>
   </g>
  </g>
 </g>
 <defs>
  <clipPath id="p2614c0d96f">
   <rect x="7.2" y="7.2" width="410.4" height="230.2"/>
  </clipPath>
 </defs>
</svg>
