<?xml version="1.0" encoding="utf-8" standalone="no"?>
<!DOCTYPE svg PUBLIC "-//W3C//DTD SVG 1.1//EN"
  "http://www.w3.org/Graphics/SVG/1.1/DTD/svg11.dtd">
<svg xmlns:xlink="http://www.w3.org/1999/xlink" width="848.22625pt" height="204.830151pt" viewBox="0 0 848.22625 204.830151" xmlns="http://www.w3.org/2000/svg" version="1.1">
 <metadata>
  <rdf:RDF xmlns:dc="http://purl.org/dc/elements/1.1/" xmlns:cc="http://creativecommons.org/ns#" xmlns:rdf="http://www.w3.org/1999/02/22-rdf-syntax-ns#">
   <cc:Work>
    <dc:type rdf:resource="http://purl.org/dc/dcmitype/StillImage"/>
    <dc:date>2025-10-15T02:04:05.826512</dc:date>
    <dc:format>image/svg+xml</dc:format>
    <dc:creator>
     <cc:Agent>
      <dc:title>Matplotlib v3.10.0, https://matplotlib.org/</dc:title>
     </cc:Agent>
    </dc:creator>
   </cc:Work>
  </rdf:RDF>
 </metadata>
 <defs>
  <style type="text/css">*{stroke-linejoin: round; stroke-linecap: butt}</style>
 </defs>
 <g id="figure_1">
  <g id="patch_1">
   <path d="M 0 204.830151 
L 848.22625 204.830151 
L 848.22625 0 
L 0 0 
z
" style="fill: #ffffff"/>
  </g>
  <g id="axes_1">
   <g id="patch_2">
    <path d="M 9.393125 159.375484 
L 838.833125 159.375484 
L 838.833125 4.536774 
L 9.393125 4.536774 
L 9.393125 159.375484 
z
" clip-path="url(#p66b9f075d5)" style="fill: none; stroke: #000000; stroke-width: 3; stroke-linejoin: miter"/>
   </g>
   <g id="LineCollection_1">
    <path d="M 9.495035 159.375484 
L 9.495035 4.536774 
" clip-path="url(#p66b9f075d5)" style="fill: none; stroke: #4c4c4c"/>
   </g>
   <g id="LineCollection_2">
    <path d="M 9.749005 159.375484 
L 9.749005 4.536774 
" clip-path="url(#p66b9f075d5)" style="fill: none; stroke: #4c4c4c"/>
   </g>
   <g id="LineCollection_3">
    <path d="M 10.512784 159.375484 
L 10.512784 4.536774 
" clip-path="url(#p66b9f075d5)" style="fill: none; stroke: #4c4c4c"/>
   </g>
   <g id="LineCollection_4">
    <path d="M 12.570196 159.375484 
L 12.570196 4.536774 
" clip-path="url(#p66b9f075d5)" style="fill: none; stroke: #4c4c4c"/>
   </g>
   <g id="LineCollection_5">
    <path d="M 17.534351 159.375484 
L 17.534351 4.536774 
" clip-path="url(#p66b9f075d5)" style="fill: none; stroke: #4c4c4c"/>
   </g>
   <g id="LineCollection_6">
    <path d="M 28.262994 159.375484 
L 28.262994 4.536774 
" clip-path="url(#p66b9f075d5)" style="fill: none; stroke: #4c4c4c"/>
   </g>
   <g id="LineCollection_7">
    <path d="M 49.032355 159.375484 
L 49.032355 4.536774 
" clip-path="url(#p66b9f075d5)" style="fill: none; stroke: #4c4c4c"/>
   </g>
   <g id="LineCollection_8">
    <path d="M 85.047359 159.375484 
L 85.047359 4.536774 
" clip-path="url(#p66b9f075d5)" style="fill: none; stroke: #4c4c4c"/>
   </g>
   <g id="LineCollection_9">
    <path d="M 140.988139 159.375484 
L 140.988139 4.536774 
" clip-path="url(#p66b9f075d5)" style="fill: none; stroke: #4c4c4c"/>
   </g>
   <g id="LineCollection_10">
    <path d="M 218.820535 159.375484 
L 218.820535 4.536774 
" clip-path="url(#p66b9f075d5)" style="fill: none; stroke: #4c4c4c"/>
   </g>
   <g id="LineCollection_11">
    <path d="M 315.82255 159.375484 
L 315.82255 4.536774 
" clip-path="url(#p66b9f075d5)" style="fill: none; stroke: #4c4c4c"/>
   </g>
   <g id="LineCollection_12">
    <path d="M 424.113125 159.375484 
L 424.113125 4.536774 
" clip-path="url(#p66b9f075d5)" style="fill: none; stroke: #4c4c4c"/>
   </g>
   <g id="LineCollection_13">
    <path d="M 532.4037 159.375484 
L 532.4037 4.536774 
" clip-path="url(#p66b9f075d5)" style="fill: none; stroke: #4c4c4c"/>
   </g>
   <g id="LineCollection_14">
    <path d="M 629.405715 159.375484 
L 629.405715 4.536774 
" clip-path="url(#p66b9f075d5)" style="fill: none; stroke: #4c4c4c"/>
   </g>
   <g id="LineCollection_15">
    <path d="M 707.238111 159.375484 
L 707.238111 4.536774 
" clip-path="url(#p66b9f075d5)" style="fill: none; stroke: #4c4c4c"/>
   </g>
   <g id="LineCollection_16">
    <path d="M 763.178891 159.375484 
L 763.178891 4.536774 
" clip-path="url(#p66b9f075d5)" style="fill: none; stroke: #4c4c4c"/>
   </g>
   <g id="LineCollection_17">
    <path d="M 799.193895 159.375484 
L 799.193895 4.536774 
" clip-path="url(#p66b9f075d5)" style="fill: none; stroke: #4c4c4c"/>
   </g>
   <g id="LineCollection_18">
    <path d="M 819.963256 159.375484 
L 819.963256 4.536774 
" clip-path="url(#p66b9f075d5)" style="fill: none; stroke: #4c4c4c"/>
   </g>
   <g id="LineCollection_19">
    <path d="M 830.691899 159.375484 
L 830.691899 4.536774 
" clip-path="url(#p66b9f075d5)" style="fill: none; stroke: #4c4c4c"/>
   </g>
   <g id="LineCollection_20">
    <path d="M 835.656054 159.375484 
L 835.656054 4.536774 
" clip-path="url(#p66b9f075d5)" style="fill: none; stroke: #4c4c4c"/>
   </g>
   <g id="LineCollection_21">
    <path d="M 837.713466 159.375484 
L 837.713466 4.536774 
" clip-path="url(#p66b9f075d5)" style="fill: none; stroke: #4c4c4c"/>
   </g>
   <g id="LineCollection_22">
    <path d="M 838.477245 159.375484 
L 838.477245 4.536774 
" clip-path="url(#p66b9f075d5)" style="fill: none; stroke: #4c4c4c"/>
   </g>
   <g id="LineCollection_23">
    <path d="M 838.731215 159.375484 
L 838.731215 4.536774 
" clip-path="url(#p66b9f075d5)" style="fill: none; stroke: #4c4c4c"/>
   </g>
   <g id="line2d_1">
    <path d="M 9.393125 4.536929 
L 9.393125 171.762581 
" style="fill: none; stroke: #000000; stroke-width: 2; stroke-linecap: square"/>
   </g>
   <g id="line2d_2">
    <path d="M 838.833125 4.536929 
L 838.833125 171.762581 
" style="fill: none; stroke: #000000; stroke-width: 2; stroke-linecap: square"/>
   </g>
   <g id="text_1">
    <!-- ⌊μ⌋-3 -->
    <g transform="translate(149.734415 88.854567) scale(0.25 -0.25)">
     <defs>
      <path id="DejaVuSans-230a" d="M 550 -844 
L 550 4863 
L 1125 4863 
L 1125 -397 
L 1875 -397 
L 1875 -844 
L 550 -844 
z
" transform="scale(0.015625)"/>
      <path id="DejaVuSans-3bc" d="M 544 -1331 
L 544 3500 
L 1119 3500 
L 1119 1325 
Q 1119 872 1334 640 
Q 1550 409 1972 409 
Q 2434 409 2667 671 
Q 2900 934 2900 1459 
L 2900 3500 
L 3475 3500 
L 3475 806 
Q 3475 619 3529 530 
Q 3584 441 3700 441 
Q 3728 441 3778 458 
Q 3828 475 3916 513 
L 3916 50 
Q 3788 -22 3673 -56 
Q 3559 -91 3450 -91 
Q 3234 -91 3106 31 
Q 2978 153 2931 403 
Q 2775 156 2548 32 
Q 2322 -91 2016 -91 
Q 1697 -91 1473 31 
Q 1250 153 1119 397 
L 1119 -1331 
L 544 -1331 
z
" transform="scale(0.015625)"/>
      <path id="DejaVuSans-230b" d="M 1947 -844 
L 622 -844 
L 622 -397 
L 1372 -397 
L 1372 4863 
L 1947 4863 
L 1947 -844 
z
" transform="scale(0.015625)"/>
      <path id="DejaVuSans-2d" d="M 313 2009 
L 1997 2009 
L 1997 1497 
L 313 1497 
L 313 2009 
z
" transform="scale(0.015625)"/>
      <path id="DejaVuSans-33" d="M 2597 2516 
Q 3050 2419 3304 2112 
Q 3559 1806 3559 1356 
Q 3559 666 3084 287 
Q 2609 -91 1734 -91 
Q 1441 -91 1130 -33 
Q 819 25 488 141 
L 488 750 
Q 750 597 1062 519 
Q 1375 441 1716 441 
Q 2309 441 2620 675 
Q 2931 909 2931 1356 
Q 2931 1769 2642 2001 
Q 2353 2234 1838 2234 
L 1294 2234 
L 1294 2753 
L 1863 2753 
Q 2328 2753 2575 2939 
Q 2822 3125 2822 3475 
Q 2822 3834 2567 4026 
Q 2313 4219 1838 4219 
Q 1578 4219 1281 4162 
Q 984 4106 628 3988 
L 628 4550 
Q 988 4650 1302 4700 
Q 1616 4750 1894 4750 
Q 2613 4750 3031 4423 
Q 3450 4097 3450 3541 
Q 3450 3153 3228 2886 
Q 3006 2619 2597 2516 
z
" transform="scale(0.015625)"/>
     </defs>
     <use xlink:href="#DejaVuSans-230a"/>
     <use xlink:href="#DejaVuSans-3bc" transform="translate(39.013672 0)"/>
     <use xlink:href="#DejaVuSans-230b" transform="translate(102.636719 0)"/>
     <use xlink:href="#DejaVuSans-2d" transform="translate(141.650391 0)"/>
     <use xlink:href="#DejaVuSans-33" transform="translate(177.734375 0)"/>
    </g>
   </g>
   <g id="text_2">
    <!-- ⌊μ⌋-2 -->
    <g transform="translate(237.151621 88.854567) scale(0.25 -0.25)">
     <defs>
      <path id="DejaVuSans-32" d="M 1228 531 
L 3431 531 
L 3431 0 
L 469 0 
L 469 531 
Q 828 903 1448 1529 
Q 2069 2156 2228 2338 
Q 2531 2678 2651 2914 
Q 2772 3150 2772 3378 
Q 2772 3750 2511 3984 
Q 2250 4219 1831 4219 
Q 1534 4219 1204 4116 
Q 875 4013 500 3803 
L 500 4441 
Q 881 4594 1212 4672 
Q 1544 4750 1819 4750 
Q 2544 4750 2975 4387 
Q 3406 4025 3406 3419 
Q 3406 3131 3298 2873 
Q 3191 2616 2906 2266 
Q 2828 2175 2409 1742 
Q 1991 1309 1228 531 
z
" transform="scale(0.015625)"/>
     </defs>
     <use xlink:href="#DejaVuSans-230a"/>
     <use xlink:href="#DejaVuSans-3bc" transform="translate(39.013672 0)"/>
     <use xlink:href="#DejaVuSans-230b" transform="translate(102.636719 0)"/>
     <use xlink:href="#DejaVuSans-2d" transform="translate(141.650391 0)"/>
     <use xlink:href="#DejaVuSans-32" transform="translate(177.734375 0)"/>
    </g>
   </g>
   <g id="text_3">
    <!-- ⌊μ⌋-1 -->
    <g transform="translate(339.797916 88.854567) scale(0.25 -0.25)">
     <defs>
      <path id="DejaVuSans-31" d="M 794 531 
L 1825 531 
L 1825 4091 
L 703 3866 
L 703 4441 
L 1819 4666 
L 2450 4666 
L 2450 531 
L 3481 531 
L 3481 0 
L 794 0 
L 794 531 
z
" transform="scale(0.015625)"/>
     </defs>
     <use xlink:href="#DejaVuSans-230a"/>
     <use xlink:href="#DejaVuSans-3bc" transform="translate(39.013672 0)"/>
     <use xlink:href="#DejaVuSans-230b" transform="translate(102.636719 0)"/>
     <use xlink:href="#DejaVuSans-2d" transform="translate(141.650391 0)"/>
     <use xlink:href="#DejaVuSans-31" transform="translate(177.734375 0)"/>
    </g>
   </g>
   <g id="text_4">
    <!-- ⌊μ⌋ -->
    <g transform="translate(460.551381 88.854567) scale(0.25 -0.25)">
     <use xlink:href="#DejaVuSans-230a"/>
     <use xlink:href="#DejaVuSans-3bc" transform="translate(39.013672 0)"/>
     <use xlink:href="#DejaVuSans-230b" transform="translate(102.636719 0)"/>
    </g>
   </g>
   <g id="text_5">
    <!-- ⌊μ⌋+1 -->
    <g transform="translate(544.769942 88.854567) scale(0.25 -0.25)">
     <defs>
      <path id="DejaVuSans-2b" d="M 2944 4013 
L 2944 2272 
L 4684 2272 
L 4684 1741 
L 2944 1741 
L 2944 0 
L 2419 0 
L 2419 1741 
L 678 1741 
L 678 2272 
L 2419 2272 
L 2419 4013 
L 2944 4013 
z
" transform="scale(0.015625)"/>
     </defs>
     <use xlink:href="#DejaVuSans-230a"/>
     <use xlink:href="#DejaVuSans-3bc" transform="translate(39.013672 0)"/>
     <use xlink:href="#DejaVuSans-230b" transform="translate(102.636719 0)"/>
     <use xlink:href="#DejaVuSans-2b" transform="translate(141.650391 0)"/>
     <use xlink:href="#DejaVuSans-31" transform="translate(225.439453 0)"/>
    </g>
   </g>
   <g id="text_6">
    <!-- ⌊μ⌋+2 -->
    <g transform="translate(632.187147 88.854567) scale(0.25 -0.25)">
     <use xlink:href="#DejaVuSans-230a"/>
     <use xlink:href="#DejaVuSans-3bc" transform="translate(39.013672 0)"/>
     <use xlink:href="#DejaVuSans-230b" transform="translate(102.636719 0)"/>
     <use xlink:href="#DejaVuSans-2b" transform="translate(141.650391 0)"/>
     <use xlink:href="#DejaVuSans-32" transform="translate(225.439453 0)"/>
    </g>
   </g>
   <g id="text_7">
    <!-- 0 -->
    <g transform="translate(1.44 198.190932) scale(0.25 -0.25)">
     <defs>
      <path id="DejaVuSans-30" d="M 2034 4250 
Q 1547 4250 1301 3770 
Q 1056 3291 1056 2328 
Q 1056 1369 1301 889 
Q 1547 409 2034 409 
Q 2525 409 2770 889 
Q 3016 1369 3016 2328 
Q 3016 3291 2770 3770 
Q 2525 4250 2034 4250 
z
M 2034 4750 
Q 2819 4750 3233 4129 
Q 3647 3509 3647 2328 
Q 3647 1150 3233 529 
Q 2819 -91 2034 -91 
Q 1250 -91 836 529 
Q 422 1150 422 2328 
Q 422 3509 836 4129 
Q 1250 4750 2034 4750 
z
" transform="scale(0.015625)"/>
     </defs>
     <use xlink:href="#DejaVuSans-30"/>
    </g>
   </g>
   <g id="text_8">
    <!-- 1 -->
    <g transform="translate(830.88 198.190932) scale(0.25 -0.25)">
     <use xlink:href="#DejaVuSans-31"/>
    </g>
   </g>
  </g>
 </g>
 <defs>
  <clipPath id="p66b9f075d5">
   <rect x="9.393125" y="1.44" width="829.44" height="172.8"/>
  </clipPath>
 </defs>
</svg>
