<?xml version="1.0" encoding="utf-8" standalone="no"?>
<!DOCTYPE svg PUBLIC "-//W3C//DTD SVG 1.1//EN"
  "http://www.w3.org/Graphics/SVG/1.1/DTD/svg11.dtd">
<svg xmlns:xlink="http://www.w3.org/1999/xlink" width="423.487187pt" height="280.763125pt" viewBox="0 0 423.487187 280.763125" xmlns="http://www.w3.org/2000/svg" version="1.1">
 <metadata>
  <rdf:RDF xmlns:dc="http://purl.org/dc/elements/1.1/" xmlns:cc="http://creativecommons.org/ns#" xmlns:rdf="http://www.w3.org/1999/02/22-rdf-syntax-ns#">
   <cc:Work>
    <dc:type rdf:resource="http://purl.org/dc/dcmitype/StillImage"/>
    <dc:date>2025-10-18T11:31:12.829987</dc:date>
    <dc:format>image/svg+xml</dc:format>
    <dc:creator>
     <cc:Agent>
      <dc:title>Matplotlib v3.10.0, https://matplotlib.org/</dc:title>
     </cc:Agent>
    </dc:creator>
   </cc:Work>
  </rdf:RDF>
 </metadata>
 <defs>
  <style type="text/css">*{stroke-linejoin: round; stroke-linecap: butt}</style>
 </defs>
 <g id="figure_1">
  <g id="patch_1">
   <path d="M 0 280.763125 
L 423.487187 280.763125 
L 423.487187 0 
L 0 0 
z
" style="fill: #ffffff"/>
  </g>
  <g id="axes_1">
   <g id="patch_2">
    <path d="M 47.307187 237.4 
L 416.287187 237.4 
L 416.287187 7.2 
L 47.307187 7.2 
z
" style="fill: #ffffff"/>
   </g>
   <g id="matplotlib.axis_1">
    <g id="xtick_1">
     <g id="line2d_1">
      <defs>
       <path id="m8879627685" d="M 0 0 
L 0 3.5 
" style="stroke: #000000; stroke-width: 0.8"/>
      </defs>
      <g>
       <use xlink:href="#m8879627685" x="47.307187" y="237.4" style="stroke: #000000; stroke-width: 0.8"/>
      </g>
     </g>
     <g id="text_1">
      <!-- −2 -->
      <g transform="translate(39.198984 252.758281) scale(0.11 -0.11)">
       <defs>
        <path id="DejaVuSans-2212" d="M 678 2272 
L 4684 2272 
L 4684 1741 
L 678 1741 
L 678 2272 
z
" transform="scale(0.015625)"/>
        <path id="DejaVuSans-32" d="M 1228 531 
L 3431 531 
L 3431 0 
L 469 0 
L 469 531 
Q 828 903 1448 1529 
Q 2069 2156 2228 2338 
Q 2531 2678 2651 2914 
Q 2772 3150 2772 3378 
Q 2772 3750 2511 3984 
Q 2250 4219 1831 4219 
Q 1534 4219 1204 4116 
Q 875 4013 500 3803 
L 500 4441 
Q 881 4594 1212 4672 
Q 1544 4750 1819 4750 
Q 2544 4750 2975 4387 
Q 3406 4025 3406 3419 
Q 3406 3131 3298 2873 
Q 3191 2616 2906 2266 
Q 2828 2175 2409 1742 
Q 1991 1309 1228 531 
z
" transform="scale(0.015625)"/>
       </defs>
       <use xlink:href="#DejaVuSans-2212"/>
       <use xlink:href="#DejaVuSans-32" transform="translate(83.789062 0)"/>
      </g>
     </g>
    </g>
    <g id="xtick_2">
     <g id="line2d_2">
      <g>
       <use xlink:href="#m8879627685" x="90.716599" y="237.4" style="stroke: #000000; stroke-width: 0.8"/>
      </g>
     </g>
     <g id="text_2">
      <!-- 0 -->
      <g transform="translate(87.217224 252.758281) scale(0.11 -0.11)">
       <defs>
        <path id="DejaVuSans-30" d="M 2034 4250 
Q 1547 4250 1301 3770 
Q 1056 3291 1056 2328 
Q 1056 1369 1301 889 
Q 1547 409 2034 409 
Q 2525 409 2770 889 
Q 3016 1369 3016 2328 
Q 3016 3291 2770 3770 
Q 2525 4250 2034 4250 
z
M 2034 4750 
Q 2819 4750 3233 4129 
Q 3647 3509 3647 2328 
Q 3647 1150 3233 529 
Q 2819 -91 2034 -91 
Q 1250 -91 836 529 
Q 422 1150 422 2328 
Q 422 3509 836 4129 
Q 1250 4750 2034 4750 
z
" transform="scale(0.015625)"/>
       </defs>
       <use xlink:href="#DejaVuSans-30"/>
      </g>
     </g>
    </g>
    <g id="xtick_3">
     <g id="line2d_3">
      <g>
       <use xlink:href="#m8879627685" x="134.126011" y="237.4" style="stroke: #000000; stroke-width: 0.8"/>
      </g>
     </g>
     <g id="text_3">
      <!-- 2 -->
      <g transform="translate(130.626636 252.758281) scale(0.11 -0.11)">
       <use xlink:href="#DejaVuSans-32"/>
      </g>
     </g>
    </g>
    <g id="xtick_4">
     <g id="line2d_4">
      <g>
       <use xlink:href="#m8879627685" x="177.535423" y="237.4" style="stroke: #000000; stroke-width: 0.8"/>
      </g>
     </g>
     <g id="text_4">
      <!-- 4 -->
      <g transform="translate(174.036048 252.758281) scale(0.11 -0.11)">
       <defs>
        <path id="DejaVuSans-34" d="M 2419 4116 
L 825 1625 
L 2419 1625 
L 2419 4116 
z
M 2253 4666 
L 3047 4666 
L 3047 1625 
L 3713 1625 
L 3713 1100 
L 3047 1100 
L 3047 0 
L 2419 0 
L 2419 1100 
L 313 1100 
L 313 1709 
L 2253 4666 
z
" transform="scale(0.015625)"/>
       </defs>
       <use xlink:href="#DejaVuSans-34"/>
      </g>
     </g>
    </g>
    <g id="xtick_5">
     <g id="line2d_5">
      <g>
       <use xlink:href="#m8879627685" x="220.944835" y="237.4" style="stroke: #000000; stroke-width: 0.8"/>
      </g>
     </g>
     <g id="text_5">
      <!-- 6 -->
      <g transform="translate(217.44546 252.758281) scale(0.11 -0.11)">
       <defs>
        <path id="DejaVuSans-36" d="M 2113 2584 
Q 1688 2584 1439 2293 
Q 1191 2003 1191 1497 
Q 1191 994 1439 701 
Q 1688 409 2113 409 
Q 2538 409 2786 701 
Q 3034 994 3034 1497 
Q 3034 2003 2786 2293 
Q 2538 2584 2113 2584 
z
M 3366 4563 
L 3366 3988 
Q 3128 4100 2886 4159 
Q 2644 4219 2406 4219 
Q 1781 4219 1451 3797 
Q 1122 3375 1075 2522 
Q 1259 2794 1537 2939 
Q 1816 3084 2150 3084 
Q 2853 3084 3261 2657 
Q 3669 2231 3669 1497 
Q 3669 778 3244 343 
Q 2819 -91 2113 -91 
Q 1303 -91 875 529 
Q 447 1150 447 2328 
Q 447 3434 972 4092 
Q 1497 4750 2381 4750 
Q 2619 4750 2861 4703 
Q 3103 4656 3366 4563 
z
" transform="scale(0.015625)"/>
       </defs>
       <use xlink:href="#DejaVuSans-36"/>
      </g>
     </g>
    </g>
    <g id="xtick_6">
     <g id="line2d_6">
      <g>
       <use xlink:href="#m8879627685" x="264.354246" y="237.4" style="stroke: #000000; stroke-width: 0.8"/>
      </g>
     </g>
     <g id="text_6">
      <!-- 8 -->
      <g transform="translate(260.854871 252.758281) scale(0.11 -0.11)">
       <defs>
        <path id="DejaVuSans-38" d="M 2034 2216 
Q 1584 2216 1326 1975 
Q 1069 1734 1069 1313 
Q 1069 891 1326 650 
Q 1584 409 2034 409 
Q 2484 409 2743 651 
Q 3003 894 3003 1313 
Q 3003 1734 2745 1975 
Q 2488 2216 2034 2216 
z
M 1403 2484 
Q 997 2584 770 2862 
Q 544 3141 544 3541 
Q 544 4100 942 4425 
Q 1341 4750 2034 4750 
Q 2731 4750 3128 4425 
Q 3525 4100 3525 3541 
Q 3525 3141 3298 2862 
Q 3072 2584 2669 2484 
Q 3125 2378 3379 2068 
Q 3634 1759 3634 1313 
Q 3634 634 3220 271 
Q 2806 -91 2034 -91 
Q 1263 -91 848 271 
Q 434 634 434 1313 
Q 434 1759 690 2068 
Q 947 2378 1403 2484 
z
M 1172 3481 
Q 1172 3119 1398 2916 
Q 1625 2713 2034 2713 
Q 2441 2713 2670 2916 
Q 2900 3119 2900 3481 
Q 2900 3844 2670 4047 
Q 2441 4250 2034 4250 
Q 1625 4250 1398 4047 
Q 1172 3844 1172 3481 
z
" transform="scale(0.015625)"/>
       </defs>
       <use xlink:href="#DejaVuSans-38"/>
      </g>
     </g>
    </g>
    <g id="xtick_7">
     <g id="line2d_7">
      <g>
       <use xlink:href="#m8879627685" x="307.763658" y="237.4" style="stroke: #000000; stroke-width: 0.8"/>
      </g>
     </g>
     <g id="text_7">
      <!-- 10 -->
      <g transform="translate(300.764908 252.758281) scale(0.11 -0.11)">
       <defs>
        <path id="DejaVuSans-31" d="M 794 531 
L 1825 531 
L 1825 4091 
L 703 3866 
L 703 4441 
L 1819 4666 
L 2450 4666 
L 2450 531 
L 3481 531 
L 3481 0 
L 794 0 
L 794 531 
z
" transform="scale(0.015625)"/>
       </defs>
       <use xlink:href="#DejaVuSans-31"/>
       <use xlink:href="#DejaVuSans-30" transform="translate(63.623047 0)"/>
      </g>
     </g>
    </g>
    <g id="xtick_8">
     <g id="line2d_8">
      <g>
       <use xlink:href="#m8879627685" x="351.17307" y="237.4" style="stroke: #000000; stroke-width: 0.8"/>
      </g>
     </g>
     <g id="text_8">
      <!-- 12 -->
      <g transform="translate(344.17432 252.758281) scale(0.11 -0.11)">
       <use xlink:href="#DejaVuSans-31"/>
       <use xlink:href="#DejaVuSans-32" transform="translate(63.623047 0)"/>
      </g>
     </g>
    </g>
    <g id="xtick_9">
     <g id="line2d_9">
      <g>
       <use xlink:href="#m8879627685" x="394.582482" y="237.4" style="stroke: #000000; stroke-width: 0.8"/>
      </g>
     </g>
     <g id="text_9">
      <!-- 14 -->
      <g transform="translate(387.583732 252.758281) scale(0.11 -0.11)">
       <use xlink:href="#DejaVuSans-31"/>
       <use xlink:href="#DejaVuSans-34" transform="translate(63.623047 0)"/>
      </g>
     </g>
    </g>
    <g id="text_10">
     <!-- x -->
     <g transform="translate(227.358125 270.443594) scale(0.15 -0.15)">
      <defs>
       <path id="DejaVuSans-78" d="M 3513 3500 
L 2247 1797 
L 3578 0 
L 2900 0 
L 1881 1375 
L 863 0 
L 184 0 
L 1544 1831 
L 300 3500 
L 978 3500 
L 1906 2253 
L 2834 3500 
L 3513 3500 
z
" transform="scale(0.015625)"/>
      </defs>
      <use xlink:href="#DejaVuSans-78"/>
     </g>
    </g>
   </g>
   <g id="matplotlib.axis_2">
    <g id="ytick_1">
     <g id="line2d_10">
      <defs>
       <path id="m958d86d166" d="M 0 0 
L -3.5 0 
" style="stroke: #000000; stroke-width: 0.8"/>
      </defs>
      <g>
       <use xlink:href="#m958d86d166" x="47.307187" y="237.4" style="stroke: #000000; stroke-width: 0.8"/>
      </g>
     </g>
     <g id="text_11">
      <!-- 0.0 -->
      <g transform="translate(22.81375 241.579141) scale(0.11 -0.11)">
       <defs>
        <path id="DejaVuSans-2e" d="M 684 794 
L 1344 794 
L 1344 0 
L 684 0 
L 684 794 
z
" transform="scale(0.015625)"/>
       </defs>
       <use xlink:href="#DejaVuSans-30"/>
       <use xlink:href="#DejaVuSans-2e" transform="translate(63.623047 0)"/>
       <use xlink:href="#DejaVuSans-30" transform="translate(95.410156 0)"/>
      </g>
     </g>
    </g>
    <g id="ytick_2">
     <g id="line2d_11">
      <g>
       <use xlink:href="#m958d86d166" x="47.307187" y="209.922456" style="stroke: #000000; stroke-width: 0.8"/>
      </g>
     </g>
     <g id="text_12">
      <!-- 0.1 -->
      <g transform="translate(22.81375 214.101596) scale(0.11 -0.11)">
       <use xlink:href="#DejaVuSans-30"/>
       <use xlink:href="#DejaVuSans-2e" transform="translate(63.623047 0)"/>
       <use xlink:href="#DejaVuSans-31" transform="translate(95.410156 0)"/>
      </g>
     </g>
    </g>
    <g id="ytick_3">
     <g id="line2d_12">
      <g>
       <use xlink:href="#m958d86d166" x="47.307187" y="182.444911" style="stroke: #000000; stroke-width: 0.8"/>
      </g>
     </g>
     <g id="text_13">
      <!-- 0.2 -->
      <g transform="translate(22.81375 186.624052) scale(0.11 -0.11)">
       <use xlink:href="#DejaVuSans-30"/>
       <use xlink:href="#DejaVuSans-2e" transform="translate(63.623047 0)"/>
       <use xlink:href="#DejaVuSans-32" transform="translate(95.410156 0)"/>
      </g>
     </g>
    </g>
    <g id="ytick_4">
     <g id="line2d_13">
      <g>
       <use xlink:href="#m958d86d166" x="47.307187" y="154.967367" style="stroke: #000000; stroke-width: 0.8"/>
      </g>
     </g>
     <g id="text_14">
      <!-- 0.3 -->
      <g transform="translate(22.81375 159.146508) scale(0.11 -0.11)">
       <defs>
        <path id="DejaVuSans-33" d="M 2597 2516 
Q 3050 2419 3304 2112 
Q 3559 1806 3559 1356 
Q 3559 666 3084 287 
Q 2609 -91 1734 -91 
Q 1441 -91 1130 -33 
Q 819 25 488 141 
L 488 750 
Q 750 597 1062 519 
Q 1375 441 1716 441 
Q 2309 441 2620 675 
Q 2931 909 2931 1356 
Q 2931 1769 2642 2001 
Q 2353 2234 1838 2234 
L 1294 2234 
L 1294 2753 
L 1863 2753 
Q 2328 2753 2575 2939 
Q 2822 3125 2822 3475 
Q 2822 3834 2567 4026 
Q 2313 4219 1838 4219 
Q 1578 4219 1281 4162 
Q 984 4106 628 3988 
L 628 4550 
Q 988 4650 1302 4700 
Q 1616 4750 1894 4750 
Q 2613 4750 3031 4423 
Q 3450 4097 3450 3541 
Q 3450 3153 3228 2886 
Q 3006 2619 2597 2516 
z
" transform="scale(0.015625)"/>
       </defs>
       <use xlink:href="#DejaVuSans-30"/>
       <use xlink:href="#DejaVuSans-2e" transform="translate(63.623047 0)"/>
       <use xlink:href="#DejaVuSans-33" transform="translate(95.410156 0)"/>
      </g>
     </g>
    </g>
    <g id="ytick_5">
     <g id="line2d_14">
      <g>
       <use xlink:href="#m958d86d166" x="47.307187" y="127.489823" style="stroke: #000000; stroke-width: 0.8"/>
      </g>
     </g>
     <g id="text_15">
      <!-- 0.4 -->
      <g transform="translate(22.81375 131.668963) scale(0.11 -0.11)">
       <use xlink:href="#DejaVuSans-30"/>
       <use xlink:href="#DejaVuSans-2e" transform="translate(63.623047 0)"/>
       <use xlink:href="#DejaVuSans-34" transform="translate(95.410156 0)"/>
      </g>
     </g>
    </g>
    <g id="ytick_6">
     <g id="line2d_15">
      <g>
       <use xlink:href="#m958d86d166" x="47.307187" y="100.012278" style="stroke: #000000; stroke-width: 0.8"/>
      </g>
     </g>
     <g id="text_16">
      <!-- 0.5 -->
      <g transform="translate(22.81375 104.191419) scale(0.11 -0.11)">
       <defs>
        <path id="DejaVuSans-35" d="M 691 4666 
L 3169 4666 
L 3169 4134 
L 1269 4134 
L 1269 2991 
Q 1406 3038 1543 3061 
Q 1681 3084 1819 3084 
Q 2600 3084 3056 2656 
Q 3513 2228 3513 1497 
Q 3513 744 3044 326 
Q 2575 -91 1722 -91 
Q 1428 -91 1123 -41 
Q 819 9 494 109 
L 494 744 
Q 775 591 1075 516 
Q 1375 441 1709 441 
Q 2250 441 2565 725 
Q 2881 1009 2881 1497 
Q 2881 1984 2565 2268 
Q 2250 2553 1709 2553 
Q 1456 2553 1204 2497 
Q 953 2441 691 2322 
L 691 4666 
z
" transform="scale(0.015625)"/>
       </defs>
       <use xlink:href="#DejaVuSans-30"/>
       <use xlink:href="#DejaVuSans-2e" transform="translate(63.623047 0)"/>
       <use xlink:href="#DejaVuSans-35" transform="translate(95.410156 0)"/>
      </g>
     </g>
    </g>
    <g id="ytick_7">
     <g id="line2d_16">
      <g>
       <use xlink:href="#m958d86d166" x="47.307187" y="72.534734" style="stroke: #000000; stroke-width: 0.8"/>
      </g>
     </g>
     <g id="text_17">
      <!-- 0.6 -->
      <g transform="translate(22.81375 76.713875) scale(0.11 -0.11)">
       <use xlink:href="#DejaVuSans-30"/>
       <use xlink:href="#DejaVuSans-2e" transform="translate(63.623047 0)"/>
       <use xlink:href="#DejaVuSans-36" transform="translate(95.410156 0)"/>
      </g>
     </g>
    </g>
    <g id="ytick_8">
     <g id="line2d_17">
      <g>
       <use xlink:href="#m958d86d166" x="47.307187" y="45.05719" style="stroke: #000000; stroke-width: 0.8"/>
      </g>
     </g>
     <g id="text_18">
      <!-- 0.7 -->
      <g transform="translate(22.81375 49.23633) scale(0.11 -0.11)">
       <defs>
        <path id="DejaVuSans-37" d="M 525 4666 
L 3525 4666 
L 3525 4397 
L 1831 0 
L 1172 0 
L 2766 4134 
L 525 4134 
L 525 4666 
z
" transform="scale(0.015625)"/>
       </defs>
       <use xlink:href="#DejaVuSans-30"/>
       <use xlink:href="#DejaVuSans-2e" transform="translate(63.623047 0)"/>
       <use xlink:href="#DejaVuSans-37" transform="translate(95.410156 0)"/>
      </g>
     </g>
    </g>
    <g id="ytick_9">
     <g id="line2d_18">
      <g>
       <use xlink:href="#m958d86d166" x="47.307187" y="17.579645" style="stroke: #000000; stroke-width: 0.8"/>
      </g>
     </g>
     <g id="text_19">
      <!-- 0.8 -->
      <g transform="translate(22.81375 21.758786) scale(0.11 -0.11)">
       <use xlink:href="#DejaVuSans-30"/>
       <use xlink:href="#DejaVuSans-2e" transform="translate(63.623047 0)"/>
       <use xlink:href="#DejaVuSans-38" transform="translate(95.410156 0)"/>
      </g>
     </g>
    </g>
    <g id="text_20">
     <!-- PDF(x) -->
     <g transform="translate(16.318125 142.221875) rotate(-90) scale(0.12 -0.12)">
      <defs>
       <path id="DejaVuSans-50" d="M 1259 4147 
L 1259 2394 
L 2053 2394 
Q 2494 2394 2734 2622 
Q 2975 2850 2975 3272 
Q 2975 3691 2734 3919 
Q 2494 4147 2053 4147 
L 1259 4147 
z
M 628 4666 
L 2053 4666 
Q 2838 4666 3239 4311 
Q 3641 3956 3641 3272 
Q 3641 2581 3239 2228 
Q 2838 1875 2053 1875 
L 1259 1875 
L 1259 0 
L 628 0 
L 628 4666 
z
" transform="scale(0.015625)"/>
       <path id="DejaVuSans-44" d="M 1259 4147 
L 1259 519 
L 2022 519 
Q 2988 519 3436 956 
Q 3884 1394 3884 2338 
Q 3884 3275 3436 3711 
Q 2988 4147 2022 4147 
L 1259 4147 
z
M 628 4666 
L 1925 4666 
Q 3281 4666 3915 4102 
Q 4550 3538 4550 2338 
Q 4550 1131 3912 565 
Q 3275 0 1925 0 
L 628 0 
L 628 4666 
z
" transform="scale(0.015625)"/>
       <path id="DejaVuSans-46" d="M 628 4666 
L 3309 4666 
L 3309 4134 
L 1259 4134 
L 1259 2759 
L 3109 2759 
L 3109 2228 
L 1259 2228 
L 1259 0 
L 628 0 
L 628 4666 
z
" transform="scale(0.015625)"/>
       <path id="DejaVuSans-28" d="M 1984 4856 
Q 1566 4138 1362 3434 
Q 1159 2731 1159 2009 
Q 1159 1288 1364 580 
Q 1569 -128 1984 -844 
L 1484 -844 
Q 1016 -109 783 600 
Q 550 1309 550 2009 
Q 550 2706 781 3412 
Q 1013 4119 1484 4856 
L 1984 4856 
z
" transform="scale(0.015625)"/>
       <path id="DejaVuSans-29" d="M 513 4856 
L 1013 4856 
Q 1481 4119 1714 3412 
Q 1947 2706 1947 2009 
Q 1947 1309 1714 600 
Q 1481 -109 1013 -844 
L 513 -844 
Q 928 -128 1133 580 
Q 1338 1288 1338 2009 
Q 1338 2731 1133 3434 
Q 928 4138 513 4856 
z
" transform="scale(0.015625)"/>
      </defs>
      <use xlink:href="#DejaVuSans-50"/>
      <use xlink:href="#DejaVuSans-44" transform="translate(60.302734 0)"/>
      <use xlink:href="#DejaVuSans-46" transform="translate(137.304688 0)"/>
      <use xlink:href="#DejaVuSans-28" transform="translate(194.824219 0)"/>
      <use xlink:href="#DejaVuSans-78" transform="translate(233.837891 0)"/>
      <use xlink:href="#DejaVuSans-29" transform="translate(293.017578 0)"/>
     </g>
    </g>
   </g>
   <g id="line2d_19">
    <path d="M 47.307187 237.399183 
L 59.126367 237.295383 
L 62.450511 237.069261 
L 64.666607 236.723754 
L 66.513354 236.211171 
L 67.990751 235.571577 
L 69.468148 234.639518 
L 70.576197 233.68564 
L 71.684245 232.453981 
L 72.792293 230.882215 
L 73.900341 228.900041 
L 75.008389 226.43001 
L 76.116437 223.389032 
L 77.224485 219.690651 
L 78.332533 215.248169 
L 79.440581 209.978627 
L 80.548629 203.807578 
L 82.026026 194.075379 
L 83.503424 182.549647 
L 84.980821 169.232827 
L 86.827568 150.253194 
L 89.043664 124.76788 
L 94.583904 59.179015 
L 96.061302 44.652526 
L 97.16935 35.456881 
L 98.277398 28.016731 
L 99.016096 24.143635 
L 99.754795 21.202918 
L 100.493494 19.234811 
L 100.862843 18.624496 
L 101.232193 18.266446 
L 101.601542 18.161905 
L 101.970891 18.311234 
L 102.340241 18.713917 
L 102.70959 19.368554 
L 103.448289 21.423767 
L 104.186987 24.448557 
L 104.925686 28.401575 
L 106.033734 35.951621 
L 107.141782 45.24261 
L 108.619179 59.86984 
L 110.465926 80.734874 
L 117.114215 158.811019 
L 118.960961 176.696868 
L 120.438359 189.045628 
L 121.915756 199.589572 
L 123.393153 208.377244 
L 124.870551 215.531606 
L 125.978599 219.927962 
L 127.086647 223.585258 
L 128.194695 226.590278 
L 129.302743 229.029357 
L 130.410791 230.98531 
L 131.518839 232.535199 
L 132.626887 233.748872 
L 133.734935 234.688176 
L 135.212333 235.605274 
L 136.68973 236.234034 
L 138.536477 236.737437 
L 140.752573 237.07635 
L 143.707368 237.283309 
L 148.878259 237.383622 
L 169.561822 237.399999 
L 416.287187 237.4 
L 416.287187 237.4 
" clip-path="url(#pdc5b62c6f6)" style="fill: none; stroke: #000000; stroke-linecap: square"/>
   </g>
   <g id="line2d_20">
    <path d="M 47.307187 237.242802 
L 52.478078 236.959898 
L 56.171572 236.528476 
L 59.126367 235.940926 
L 61.342463 235.291358 
L 63.558559 234.39989 
L 65.405306 233.422946 
L 67.252052 232.184816 
L 69.098799 230.635095 
L 70.576197 229.134678 
L 72.053594 227.371418 
L 73.530991 225.316271 
L 75.008389 222.940804 
L 76.485786 220.218186 
L 78.332533 216.290371 
L 80.17928 211.744759 
L 82.026026 206.557079 
L 83.872773 200.720888 
L 86.088869 192.884676 
L 88.304965 184.212559 
L 90.890411 173.218685 
L 94.953254 154.803679 
L 99.385446 134.967156 
L 101.601542 125.972668 
L 103.448289 119.296043 
L 104.925686 114.631477 
L 106.403083 110.666533 
L 107.511131 108.199626 
L 108.619179 106.198612 
L 109.727228 104.686441 
L 110.465926 103.958785 
L 111.204625 103.460058 
L 111.943324 103.192852 
L 112.682022 103.158556 
L 113.420721 103.35735 
L 114.15942 103.788197 
L 114.898118 104.44886 
L 115.636817 105.335913 
L 116.744865 107.08065 
L 117.852913 109.304084 
L 118.960961 111.980846 
L 120.438359 116.202322 
L 121.915756 121.092845 
L 123.762503 128.003831 
L 125.978599 137.203699 
L 129.302743 152.111083 
L 134.842983 177.097095 
L 137.428429 187.791744 
L 139.644525 196.140437 
L 141.860621 203.616541 
L 143.707368 209.140402 
L 145.554114 214.01638 
L 147.400861 218.260022 
L 149.247608 221.902737 
L 151.094355 224.987693 
L 152.941101 227.565916 
L 154.787848 229.692754 
L 156.634595 231.424855 
L 158.481342 232.817721 
L 160.328088 233.92385 
L 162.174835 234.791448 
L 164.390931 235.578055 
L 166.976377 236.224803 
L 169.931171 236.706313 
L 173.624665 237.054855 
L 178.426207 237.269476 
L 186.551892 237.3787 
L 213.883744 237.39999 
L 416.287187 237.4 
L 416.287187 237.4 
" clip-path="url(#pdc5b62c6f6)" style="fill: none; stroke: #000000; stroke-linecap: square"/>
   </g>
   <g id="line2d_21">
    <path d="M 47.307187 236.669887 
L 51.37003 236.184018 
L 55.063524 235.513048 
L 58.018319 234.762553 
L 60.973113 233.767818 
L 63.558559 232.652157 
L 65.774655 231.480527 
L 67.990751 230.081068 
L 70.206847 228.42591 
L 72.422943 226.487828 
L 74.639039 224.241391 
L 76.855135 221.664272 
L 79.071232 218.738707 
L 81.287328 215.453026 
L 83.503424 211.803204 
L 86.088869 207.092231 
L 88.674315 201.919279 
L 91.629109 195.504127 
L 95.322603 186.894364 
L 106.772433 159.591894 
L 109.357878 154.218988 
L 111.573974 150.111506 
L 113.420721 147.111129 
L 115.267468 144.546945 
L 116.744865 142.838404 
L 118.222263 141.454716 
L 119.69966 140.410948 
L 120.807708 139.858233 
L 121.915756 139.506686 
L 123.023804 139.358498 
L 124.131852 139.414595 
L 125.2399 139.674628 
L 126.347948 140.136971 
L 127.455996 140.798749 
L 128.933394 141.984082 
L 130.410791 143.503555 
L 131.888189 145.340692 
L 133.734935 148.053575 
L 135.581682 151.187269 
L 137.797778 155.431999 
L 140.383224 160.93107 
L 143.707368 168.619581 
L 156.634595 199.29099 
L 159.58939 205.403053 
L 162.174835 210.27328 
L 164.760281 214.661797 
L 166.976377 218.02954 
L 169.192473 221.035537 
L 171.408569 223.689868 
L 173.624665 226.00906 
L 175.840761 228.014541 
L 178.056857 229.731163 
L 180.272953 231.185853 
L 182.489049 232.406425 
L 185.074495 233.571439 
L 187.65994 234.497784 
L 190.614735 235.314546 
L 193.938879 235.987352 
L 197.632373 236.503578 
L 202.064565 236.896259 
L 207.974154 237.178217 
L 216.46919 237.338531 
L 234.197958 237.397154 
L 416.287187 237.4 
L 416.287187 237.4 
" clip-path="url(#pdc5b62c6f6)" style="fill: none; stroke: #000000; stroke-linecap: square"/>
   </g>
   <g id="line2d_22">
    <path d="M 47.307187 235.980305 
L 51.73938 235.28633 
L 55.432873 234.501621 
L 59.126367 233.482714 
L 62.450511 232.325937 
L 65.405306 231.076391 
L 68.3601 229.591823 
L 71.314895 227.847656 
L 74.26969 225.821672 
L 77.224485 223.495437 
L 80.17928 220.85585 
L 83.134074 217.896743 
L 86.088869 214.620434 
L 89.413013 210.571085 
L 92.737157 206.170331 
L 96.8 200.393888 
L 102.340241 192.055993 
L 110.465926 179.808904 
L 114.15942 174.667547 
L 117.114215 170.922548 
L 119.69966 167.992336 
L 121.915756 165.783685 
L 124.131852 163.888922 
L 125.978599 162.57026 
L 127.825346 161.503167 
L 129.672092 160.698998 
L 131.518839 160.16638 
L 133.365586 159.911061 
L 134.842983 159.908421 
L 136.320381 160.085098 
L 138.167127 160.556127 
L 140.013874 161.300245 
L 141.860621 162.309458 
L 143.707368 163.573006 
L 145.554114 165.077555 
L 147.770211 167.178918 
L 149.986307 169.573687 
L 152.571752 172.692256 
L 155.526547 176.611539 
L 159.22004 181.906394 
L 165.12963 190.858698 
L 172.147268 201.408474 
L 176.21011 207.117469 
L 179.903604 211.908202 
L 183.227748 215.83688 
L 186.182543 218.999767 
L 189.137338 221.843544 
L 192.092132 224.369124 
L 195.046927 226.585358 
L 198.001722 228.507451 
L 200.956517 230.155373 
L 203.911312 231.55235 
L 206.866106 232.723485 
L 210.190251 233.803166 
L 213.883744 234.749804 
L 217.946587 235.537448 
L 222.378779 236.157384 
L 227.54967 236.645211 
L 233.828609 237.003403 
L 242.323644 237.24465 
L 255.620221 237.36928 
L 292.185806 237.399865 
L 416.287187 237.4 
L 416.287187 237.4 
" clip-path="url(#pdc5b62c6f6)" style="fill: none; stroke: #000000; stroke-linecap: square"/>
   </g>
   <g id="line2d_23">
    <path d="M 47.307187 235.405554 
L 52.108729 234.617667 
L 56.540921 233.672601 
L 60.603764 232.587561 
L 64.666607 231.260865 
L 68.3601 229.819309 
L 72.053594 228.131733 
L 75.747087 226.180425 
L 79.440581 223.952472 
L 83.134074 221.441333 
L 86.827568 218.648374 
L 90.521061 215.584288 
L 94.583904 211.92626 
L 99.385446 207.274787 
L 105.295035 201.211326 
L 116.744865 189.374908 
L 120.807708 185.506147 
L 124.501202 182.296741 
L 127.455996 179.998684 
L 130.410791 177.983534 
L 132.996237 176.480694 
L 135.581682 175.242969 
L 137.797778 174.406455 
L 140.013874 173.786459 
L 142.22997 173.389559 
L 144.446066 173.219986 
L 146.662162 173.279556 
L 148.878259 173.567631 
L 151.094355 174.081132 
L 153.310451 174.814597 
L 155.526547 175.760275 
L 158.111992 177.118455 
L 160.697438 178.732815 
L 163.652233 180.862728 
L 166.607027 183.260423 
L 170.300521 186.571276 
L 174.363364 190.52052 
L 180.272953 196.607887 
L 190.984084 207.68646 
L 195.785626 212.310587 
L 199.848469 215.939636 
L 203.911312 219.262964 
L 207.604805 221.996802 
L 211.298299 224.447797 
L 214.991792 226.616382 
L 218.685286 228.510578 
L 222.378779 230.144445 
L 226.072273 231.536513 
L 230.135115 232.814258 
L 234.197958 233.85639 
L 238.63015 234.761523 
L 243.431692 235.513836 
L 248.971932 236.145923 
L 255.250871 236.631389 
L 263.007208 236.996488 
L 273.348989 237.240359 
L 289.600361 237.36823 
L 332.814235 237.39983 
L 416.287187 237.4 
L 416.287187 237.4 
" clip-path="url(#pdc5b62c6f6)" style="fill: none; stroke: #000000; stroke-linecap: square"/>
   </g>
   <g id="line2d_24">
    <path d="M 47.307187 234.991827 
L 52.847428 234.113599 
L 58.018319 233.071187 
L 62.81986 231.879824 
L 67.252052 230.565621 
L 71.684245 229.026293 
L 76.116437 227.246658 
L 80.548629 225.216479 
L 84.980821 222.931978 
L 89.413013 220.397294 
L 94.214555 217.384785 
L 99.385446 213.86525 
L 105.295035 209.566805 
L 115.267468 201.979717 
L 123.023804 196.20631 
L 127.825346 192.887843 
L 131.888189 190.323971 
L 135.581682 188.240358 
L 138.905826 186.601775 
L 142.22997 185.215482 
L 145.184765 184.213965 
L 148.13956 183.4438 
L 151.094355 182.91551 
L 154.049149 182.63637 
L 157.003944 182.610244 
L 159.958739 182.837494 
L 162.913534 183.314974 
L 165.868329 184.036097 
L 168.823123 184.990994 
L 171.777918 186.166732 
L 175.102062 187.733763 
L 178.795556 189.747618 
L 182.858399 192.2478 
L 187.290591 195.249122 
L 192.830831 199.284683 
L 205.01936 208.556833 
L 212.036997 213.696524 
L 217.577238 217.470009 
L 222.378779 220.475313 
L 226.810971 223.002782 
L 231.243163 225.27982 
L 235.675356 227.30254 
L 240.107548 229.074933 
L 244.53974 230.607403 
L 248.971932 231.915254 
L 253.773474 233.100399 
L 258.944365 234.136943 
L 264.484605 235.009849 
L 270.394195 235.715716 
L 277.042483 236.288822 
L 285.168168 236.752593 
L 295.140601 237.081981 
L 308.806527 237.289805 
L 332.075536 237.385566 
L 416.287187 237.399999 
L 416.287187 237.399999 
" clip-path="url(#pdc5b62c6f6)" style="fill: none; stroke: #000000; stroke-linecap: square"/>
   </g>
   <g id="line2d_25">
    <path d="M 47.307187 234.716963 
L 53.586126 233.796002 
L 59.495716 232.711005 
L 65.035956 231.475358 
L 70.576197 230.006424 
L 75.747087 228.409758 
L 80.917978 226.585833 
L 86.088869 224.531747 
L 91.629109 222.080988 
L 97.16935 219.388409 
L 103.448289 216.082618 
L 111.204625 211.721068 
L 131.14949 200.336125 
L 136.68973 197.513609 
L 141.491272 195.31871 
L 145.923464 193.549902 
L 149.986307 192.179882 
L 153.6798 191.165846 
L 157.373294 190.389089 
L 160.697438 189.90338 
L 164.021582 189.626572 
L 167.345726 189.562357 
L 170.66987 189.711594 
L 173.994014 190.072288 
L 177.318158 190.639637 
L 181.011652 191.503183 
L 184.705145 192.598579 
L 188.767988 194.050393 
L 192.830831 195.734173 
L 197.632373 197.980628 
L 202.803264 200.649743 
L 209.451552 204.346894 
L 233.828609 218.17056 
L 239.738199 221.136161 
L 245.278439 223.676765 
L 250.818679 225.963317 
L 255.98957 227.859789 
L 261.160461 229.527354 
L 266.331352 230.973296 
L 271.871592 232.290827 
L 277.781181 233.45425 
L 284.06012 234.447598 
L 290.708409 235.265646 
L 298.095396 235.942535 
L 306.590431 236.485394 
L 316.562863 236.890075 
L 329.49009 237.174779 
L 347.957558 237.337668 
L 385.631192 237.397043 
L 416.287187 237.399838 
L 416.287187 237.399838 
" clip-path="url(#pdc5b62c6f6)" style="fill: none; stroke: #000000; stroke-linecap: square"/>
   </g>
   <g id="line2d_26">
    <path d="M 47.307187 234.546759 
L 54.694174 233.557687 
L 61.342463 232.451541 
L 67.990751 231.116015 
L 74.26969 229.626378 
L 80.548629 227.90358 
L 86.827568 225.943695 
L 93.106507 223.751735 
L 99.754795 221.195316 
L 107.141782 218.110543 
L 116.375516 213.99503 
L 136.68973 204.847808 
L 143.338018 202.156793 
L 148.878259 200.147754 
L 154.049149 198.513854 
L 158.850691 197.239876 
L 163.282883 196.295573 
L 167.715075 195.591395 
L 171.777918 195.167999 
L 175.840761 194.963941 
L 179.903604 194.982424 
L 183.966447 195.223158 
L 188.02929 195.682365 
L 192.092132 196.352878 
L 196.524325 197.313075 
L 200.956517 198.494922 
L 205.758058 200.000883 
L 210.928949 201.850606 
L 216.838539 204.200727 
L 224.225526 207.394016 
L 236.783404 213.121314 
L 248.233234 218.241887 
L 255.98957 221.464525 
L 262.637858 223.997596 
L 268.916797 226.165208 
L 275.195736 228.099729 
L 281.474675 229.797187 
L 287.753614 231.262363 
L 294.032553 232.506987 
L 300.680841 233.603184 
L 307.698479 234.539039 
L 315.454815 235.345322 
L 323.94985 236.001257 
L 333.552933 236.519088 
L 345.372112 236.921061 
L 360.515436 237.194427 
L 382.676397 237.347728 
L 416.287187 237.395139 
L 416.287187 237.395139 
" clip-path="url(#pdc5b62c6f6)" style="fill: none; stroke: #000000; stroke-linecap: square"/>
   </g>
   <g id="line2d_27">
    <path d="M 47.307187 234.451481 
L 55.432873 233.473414 
L 63.18921 232.319709 
L 70.576197 230.99993 
L 77.963183 229.449704 
L 85.35017 227.661674 
L 92.737157 225.637822 
L 100.493494 223.273686 
L 108.988529 220.439766 
L 119.330311 216.736106 
L 144.076717 207.754523 
L 151.463704 205.375221 
L 157.742643 203.578687 
L 163.652233 202.124269 
L 168.823123 201.069226 
L 173.994014 200.239164 
L 178.795556 199.684471 
L 183.597097 199.347892 
L 188.398639 199.235375 
L 193.20018 199.348914 
L 198.001722 199.686495 
L 202.803264 200.242157 
L 207.974154 201.073201 
L 213.145045 202.129149 
L 218.685286 203.486383 
L 224.594875 205.158468 
L 231.243163 207.266626 
L 239.368849 210.082161 
L 252.665426 214.970467 
L 266.700701 220.061795 
L 275.565085 223.043719 
L 283.321422 225.429225 
L 290.708409 227.475453 
L 298.095396 229.286626 
L 305.482383 230.859744 
L 312.86937 232.201352 
L 320.625706 233.376182 
L 328.751392 234.373936 
L 337.246427 235.194009 
L 346.84951 235.890915 
L 357.560641 236.439183 
L 370.118519 236.854951 
L 386.000541 237.148914 
L 408.530851 237.325192 
L 416.287187 237.352161 
L 416.287187 237.352161 
" clip-path="url(#pdc5b62c6f6)" style="fill: none; stroke: #000000; stroke-linecap: square"/>
   </g>
   <g id="line2d_28">
    <path d="M 47.307187 234.408655 
L 56.540921 233.407285 
L 65.405306 232.22084 
L 73.900341 230.857483 
L 82.395376 229.260878 
L 90.890411 227.428571 
L 99.385446 225.369479 
L 108.619179 222.900434 
L 119.330311 219.7985 
L 155.526547 209.098622 
L 163.282883 207.180194 
L 169.931171 205.755929 
L 176.21011 204.632716 
L 182.1197 203.797055 
L 188.02929 203.194596 
L 193.56953 202.853362 
L 199.10977 202.73532 
L 204.65001 202.842768 
L 210.190251 203.173614 
L 215.730491 203.721442 
L 221.64008 204.533017 
L 227.919019 205.632981 
L 234.567308 207.035793 
L 241.954295 208.83797 
L 250.44933 211.157131 
L 261.52981 214.436283 
L 288.492313 222.516551 
L 298.095396 225.113209 
L 306.95978 227.283446 
L 315.454815 229.133034 
L 323.94985 230.747163 
L 332.444885 232.127522 
L 340.93992 233.285 
L 349.804305 234.274268 
L 359.407388 235.122767 
L 370.118519 235.836985 
L 381.937698 236.396918 
L 395.972973 236.830012 
L 413.332393 237.132615 
L 416.287187 237.166431 
L 416.287187 237.166431 
" clip-path="url(#pdc5b62c6f6)" style="fill: none; stroke: #000000; stroke-linecap: square"/>
   </g>
   <g id="line2d_29">
    <path d="M 47.307187 234.402116 
L 57.648969 233.392124 
L 67.621402 232.191962 
L 77.224485 230.80903 
L 86.827568 229.194778 
L 96.430651 227.351594 
L 106.403083 225.211848 
L 117.852913 222.516268 
L 132.996237 218.697467 
L 154.418499 213.305556 
L 164.390931 211.035391 
L 172.885966 209.328588 
L 180.272953 208.062997 
L 187.290591 207.082066 
L 193.938879 206.374603 
L 200.217818 205.919698 
L 206.496757 205.681658 
L 212.775696 205.665468 
L 219.054635 205.871467 
L 225.333574 206.295339 
L 231.981862 206.971746 
L 238.9995 207.92264 
L 246.386487 209.160399 
L 254.142823 210.685088 
L 263.007208 212.653915 
L 274.087688 215.350481 
L 313.238719 225.089281 
L 323.580501 227.316198 
L 333.183584 229.163426 
L 342.786667 230.781879 
L 352.38975 232.168953 
L 361.992833 233.332679 
L 371.965266 234.321961 
L 382.676397 235.1628 
L 394.495576 235.863613 
L 407.792152 236.422812 
L 416.287187 236.680117 
L 416.287187 236.680117 
" clip-path="url(#pdc5b62c6f6)" style="fill: none; stroke: #000000; stroke-linecap: square"/>
   </g>
   <g id="line2d_30">
    <path d="M 47.307187 234.420449 
L 58.757017 233.412046 
L 69.837498 232.21145 
L 80.548629 230.825737 
L 91.25976 229.213591 
L 102.340241 227.315041 
L 114.15942 225.058089 
L 128.194695 222.138806 
L 167.345726 213.836679 
L 177.318158 212.039413 
L 186.182543 210.667627 
L 194.308229 209.637167 
L 202.064565 208.884068 
L 209.451552 208.394872 
L 216.46919 208.147402 
L 223.486827 208.117293 
L 230.504465 208.305218 
L 237.522102 208.706988 
L 244.909089 209.351094 
L 252.665426 210.254645 
L 260.791111 211.425394 
L 269.655496 212.926099 
L 279.997278 214.908929 
L 293.293854 217.699154 
L 329.120741 225.334614 
L 341.30927 227.6315 
L 352.38975 229.493885 
L 363.100881 231.068953 
L 373.812012 232.417662 
L 384.892493 233.581848 
L 396.342323 234.556016 
L 408.530851 235.366418 
L 416.287187 235.776426 
L 416.287187 235.776426 
" clip-path="url(#pdc5b62c6f6)" style="fill: none; stroke: #000000; stroke-linecap: square"/>
   </g>
   <g id="patch_3">
    <path d="M 47.307187 237.4 
L 47.307187 7.2 
" style="fill: none; stroke: #000000; stroke-width: 0.8; stroke-linejoin: miter; stroke-linecap: square"/>
   </g>
   <g id="patch_4">
    <path d="M 416.287187 237.4 
L 416.287187 7.2 
" style="fill: none; stroke: #000000; stroke-width: 0.8; stroke-linejoin: miter; stroke-linecap: square"/>
   </g>
   <g id="patch_5">
    <path d="M 47.307187 237.4 
L 416.287187 237.4 
" style="fill: none; stroke: #000000; stroke-width: 0.8; stroke-linejoin: miter; stroke-linecap: square"/>
   </g>
   <g id="patch_6">
    <path d="M 47.307187 7.2 
L 416.287187 7.2 
" style="fill: none; stroke: #000000; stroke-width: 0.8; stroke-linejoin: miter; stroke-linecap: square"/>
   </g>
  </g>
 </g>
 <defs>
  <clipPath id="pdc5b62c6f6">
   <rect x="47.307187" y="7.2" width="368.98" height="230.2"/>
  </clipPath>
 </defs>
</svg>
