<?xml version="1.0" encoding="utf-8" standalone="no"?>
<!DOCTYPE svg PUBLIC "-//W3C//DTD SVG 1.1//EN"
  "http://www.w3.org/Graphics/SVG/1.1/DTD/svg11.dtd">
<svg xmlns:xlink="http://www.w3.org/1999/xlink" width="424.8175pt" height="279.051875pt" viewBox="0 0 424.8175 279.051875" xmlns="http://www.w3.org/2000/svg" version="1.1">
 <metadata>
  <rdf:RDF xmlns:dc="http://purl.org/dc/elements/1.1/" xmlns:cc="http://creativecommons.org/ns#" xmlns:rdf="http://www.w3.org/1999/02/22-rdf-syntax-ns#">
   <cc:Work>
    <dc:type rdf:resource="http://purl.org/dc/dcmitype/StillImage"/>
    <dc:date>2025-10-14T04:37:28.820658</dc:date>
    <dc:format>image/svg+xml</dc:format>
    <dc:creator>
     <cc:Agent>
      <dc:title>Matplotlib v3.10.0, https://matplotlib.org/</dc:title>
     </cc:Agent>
    </dc:creator>
   </cc:Work>
  </rdf:RDF>
 </metadata>
 <defs>
  <style type="text/css">*{stroke-linejoin: round; stroke-linecap: butt}</style>
 </defs>
 <g id="figure_1">
  <g id="patch_1">
   <path d="M 0 279.051875 
L 424.8175 279.051875 
L 424.8175 0 
L 0 0 
z
" style="fill: #ffffff"/>
  </g>
  <g id="axes_1">
   <g id="patch_2">
    <path d="M 10.38125 239.56 
L 414.43625 239.56 
L 414.43625 7.2 
L 10.38125 7.2 
z
" style="fill: #ffffff"/>
   </g>
   <g id="matplotlib.axis_1">
    <g id="xtick_1">
     <g id="line2d_1">
      <path d="M 10.38125 239.56 
L 10.38125 7.2 
" clip-path="url(#p636389c443)" style="fill: none; stroke: #b0b0b0; stroke-opacity: 0.3; stroke-width: 0.8; stroke-linecap: square"/>
     </g>
     <g id="line2d_2">
      <defs>
       <path id="m30ecde2a51" d="M 0 0 
L 0 3.5 
" style="stroke: #000000; stroke-width: 0.8"/>
      </defs>
      <g>
       <use xlink:href="#m30ecde2a51" x="10.38125" y="239.56" style="stroke: #000000; stroke-width: 0.8"/>
      </g>
     </g>
     <g id="text_1">
      <!-- 0 -->
      <g transform="translate(7.2 254.158437) scale(0.1 -0.1)">
       <defs>
        <path id="DejaVuSans-30" d="M 2034 4250 
Q 1547 4250 1301 3770 
Q 1056 3291 1056 2328 
Q 1056 1369 1301 889 
Q 1547 409 2034 409 
Q 2525 409 2770 889 
Q 3016 1369 3016 2328 
Q 3016 3291 2770 3770 
Q 2525 4250 2034 4250 
z
M 2034 4750 
Q 2819 4750 3233 4129 
Q 3647 3509 3647 2328 
Q 3647 1150 3233 529 
Q 2819 -91 2034 -91 
Q 1250 -91 836 529 
Q 422 1150 422 2328 
Q 422 3509 836 4129 
Q 1250 4750 2034 4750 
z
" transform="scale(0.015625)"/>
       </defs>
       <use xlink:href="#DejaVuSans-30"/>
      </g>
     </g>
    </g>
    <g id="xtick_2">
     <g id="line2d_3">
      <path d="M 77.72375 239.56 
L 77.72375 7.2 
" clip-path="url(#p636389c443)" style="fill: none; stroke: #b0b0b0; stroke-opacity: 0.3; stroke-width: 0.8; stroke-linecap: square"/>
     </g>
     <g id="line2d_4">
      <g>
       <use xlink:href="#m30ecde2a51" x="77.72375" y="239.56" style="stroke: #000000; stroke-width: 0.8"/>
      </g>
     </g>
     <g id="text_2">
      <!-- 1 -->
      <g transform="translate(74.5425 254.158437) scale(0.1 -0.1)">
       <defs>
        <path id="DejaVuSans-31" d="M 794 531 
L 1825 531 
L 1825 4091 
L 703 3866 
L 703 4441 
L 1819 4666 
L 2450 4666 
L 2450 531 
L 3481 531 
L 3481 0 
L 794 0 
L 794 531 
z
" transform="scale(0.015625)"/>
       </defs>
       <use xlink:href="#DejaVuSans-31"/>
      </g>
     </g>
    </g>
    <g id="xtick_3">
     <g id="line2d_5">
      <path d="M 145.06625 239.56 
L 145.06625 7.2 
" clip-path="url(#p636389c443)" style="fill: none; stroke: #b0b0b0; stroke-opacity: 0.3; stroke-width: 0.8; stroke-linecap: square"/>
     </g>
     <g id="line2d_6">
      <g>
       <use xlink:href="#m30ecde2a51" x="145.06625" y="239.56" style="stroke: #000000; stroke-width: 0.8"/>
      </g>
     </g>
     <g id="text_3">
      <!-- 2 -->
      <g transform="translate(141.885 254.158437) scale(0.1 -0.1)">
       <defs>
        <path id="DejaVuSans-32" d="M 1228 531 
L 3431 531 
L 3431 0 
L 469 0 
L 469 531 
Q 828 903 1448 1529 
Q 2069 2156 2228 2338 
Q 2531 2678 2651 2914 
Q 2772 3150 2772 3378 
Q 2772 3750 2511 3984 
Q 2250 4219 1831 4219 
Q 1534 4219 1204 4116 
Q 875 4013 500 3803 
L 500 4441 
Q 881 4594 1212 4672 
Q 1544 4750 1819 4750 
Q 2544 4750 2975 4387 
Q 3406 4025 3406 3419 
Q 3406 3131 3298 2873 
Q 3191 2616 2906 2266 
Q 2828 2175 2409 1742 
Q 1991 1309 1228 531 
z
" transform="scale(0.015625)"/>
       </defs>
       <use xlink:href="#DejaVuSans-32"/>
      </g>
     </g>
    </g>
    <g id="xtick_4">
     <g id="line2d_7">
      <path d="M 212.40875 239.56 
L 212.40875 7.2 
" clip-path="url(#p636389c443)" style="fill: none; stroke: #b0b0b0; stroke-opacity: 0.3; stroke-width: 0.8; stroke-linecap: square"/>
     </g>
     <g id="line2d_8">
      <g>
       <use xlink:href="#m30ecde2a51" x="212.40875" y="239.56" style="stroke: #000000; stroke-width: 0.8"/>
      </g>
     </g>
     <g id="text_4">
      <!-- 3 -->
      <g transform="translate(209.2275 254.158437) scale(0.1 -0.1)">
       <defs>
        <path id="DejaVuSans-33" d="M 2597 2516 
Q 3050 2419 3304 2112 
Q 3559 1806 3559 1356 
Q 3559 666 3084 287 
Q 2609 -91 1734 -91 
Q 1441 -91 1130 -33 
Q 819 25 488 141 
L 488 750 
Q 750 597 1062 519 
Q 1375 441 1716 441 
Q 2309 441 2620 675 
Q 2931 909 2931 1356 
Q 2931 1769 2642 2001 
Q 2353 2234 1838 2234 
L 1294 2234 
L 1294 2753 
L 1863 2753 
Q 2328 2753 2575 2939 
Q 2822 3125 2822 3475 
Q 2822 3834 2567 4026 
Q 2313 4219 1838 4219 
Q 1578 4219 1281 4162 
Q 984 4106 628 3988 
L 628 4550 
Q 988 4650 1302 4700 
Q 1616 4750 1894 4750 
Q 2613 4750 3031 4423 
Q 3450 4097 3450 3541 
Q 3450 3153 3228 2886 
Q 3006 2619 2597 2516 
z
" transform="scale(0.015625)"/>
       </defs>
       <use xlink:href="#DejaVuSans-33"/>
      </g>
     </g>
    </g>
    <g id="xtick_5">
     <g id="line2d_9">
      <path d="M 279.75125 239.56 
L 279.75125 7.2 
" clip-path="url(#p636389c443)" style="fill: none; stroke: #b0b0b0; stroke-opacity: 0.3; stroke-width: 0.8; stroke-linecap: square"/>
     </g>
     <g id="line2d_10">
      <g>
       <use xlink:href="#m30ecde2a51" x="279.75125" y="239.56" style="stroke: #000000; stroke-width: 0.8"/>
      </g>
     </g>
     <g id="text_5">
      <!-- 4 -->
      <g transform="translate(276.57 254.158437) scale(0.1 -0.1)">
       <defs>
        <path id="DejaVuSans-34" d="M 2419 4116 
L 825 1625 
L 2419 1625 
L 2419 4116 
z
M 2253 4666 
L 3047 4666 
L 3047 1625 
L 3713 1625 
L 3713 1100 
L 3047 1100 
L 3047 0 
L 2419 0 
L 2419 1100 
L 313 1100 
L 313 1709 
L 2253 4666 
z
" transform="scale(0.015625)"/>
       </defs>
       <use xlink:href="#DejaVuSans-34"/>
      </g>
     </g>
    </g>
    <g id="xtick_6">
     <g id="line2d_11">
      <path d="M 347.09375 239.56 
L 347.09375 7.2 
" clip-path="url(#p636389c443)" style="fill: none; stroke: #b0b0b0; stroke-opacity: 0.3; stroke-width: 0.8; stroke-linecap: square"/>
     </g>
     <g id="line2d_12">
      <g>
       <use xlink:href="#m30ecde2a51" x="347.09375" y="239.56" style="stroke: #000000; stroke-width: 0.8"/>
      </g>
     </g>
     <g id="text_6">
      <!-- 5 -->
      <g transform="translate(343.9125 254.158437) scale(0.1 -0.1)">
       <defs>
        <path id="DejaVuSans-35" d="M 691 4666 
L 3169 4666 
L 3169 4134 
L 1269 4134 
L 1269 2991 
Q 1406 3038 1543 3061 
Q 1681 3084 1819 3084 
Q 2600 3084 3056 2656 
Q 3513 2228 3513 1497 
Q 3513 744 3044 326 
Q 2575 -91 1722 -91 
Q 1428 -91 1123 -41 
Q 819 9 494 109 
L 494 744 
Q 775 591 1075 516 
Q 1375 441 1709 441 
Q 2250 441 2565 725 
Q 2881 1009 2881 1497 
Q 2881 1984 2565 2268 
Q 2250 2553 1709 2553 
Q 1456 2553 1204 2497 
Q 953 2441 691 2322 
L 691 4666 
z
" transform="scale(0.015625)"/>
       </defs>
       <use xlink:href="#DejaVuSans-35"/>
      </g>
     </g>
    </g>
    <g id="xtick_7">
     <g id="line2d_13">
      <path d="M 414.43625 239.56 
L 414.43625 7.2 
" clip-path="url(#p636389c443)" style="fill: none; stroke: #b0b0b0; stroke-opacity: 0.3; stroke-width: 0.8; stroke-linecap: square"/>
     </g>
     <g id="line2d_14">
      <g>
       <use xlink:href="#m30ecde2a51" x="414.43625" y="239.56" style="stroke: #000000; stroke-width: 0.8"/>
      </g>
     </g>
     <g id="text_7">
      <!-- 6 -->
      <g transform="translate(411.255 254.158437) scale(0.1 -0.1)">
       <defs>
        <path id="DejaVuSans-36" d="M 2113 2584 
Q 1688 2584 1439 2293 
Q 1191 2003 1191 1497 
Q 1191 994 1439 701 
Q 1688 409 2113 409 
Q 2538 409 2786 701 
Q 3034 994 3034 1497 
Q 3034 2003 2786 2293 
Q 2538 2584 2113 2584 
z
M 3366 4563 
L 3366 3988 
Q 3128 4100 2886 4159 
Q 2644 4219 2406 4219 
Q 1781 4219 1451 3797 
Q 1122 3375 1075 2522 
Q 1259 2794 1537 2939 
Q 1816 3084 2150 3084 
Q 2853 3084 3261 2657 
Q 3669 2231 3669 1497 
Q 3669 778 3244 343 
Q 2819 -91 2113 -91 
Q 1303 -91 875 529 
Q 447 1150 447 2328 
Q 447 3434 972 4092 
Q 1497 4750 2381 4750 
Q 2619 4750 2861 4703 
Q 3103 4656 3366 4563 
z
" transform="scale(0.015625)"/>
       </defs>
       <use xlink:href="#DejaVuSans-36"/>
      </g>
     </g>
    </g>
    <g id="text_8">
     <!-- z -->
     <g transform="translate(209.259687 269.35625) scale(0.12 -0.12)">
      <defs>
       <path id="DejaVuSans-7a" d="M 353 3500 
L 3084 3500 
L 3084 2975 
L 922 459 
L 3084 459 
L 3084 0 
L 275 0 
L 275 525 
L 2438 3041 
L 353 3041 
L 353 3500 
z
" transform="scale(0.015625)"/>
      </defs>
      <use xlink:href="#DejaVuSans-7a"/>
     </g>
    </g>
   </g>
   <g id="matplotlib.axis_2">
    <g id="ytick_1">
     <g id="line2d_15">
      <path d="M 10.38125 239.56 
L 414.43625 239.56 
" clip-path="url(#p636389c443)" style="fill: none; stroke: #b0b0b0; stroke-opacity: 0.3; stroke-width: 0.8; stroke-linecap: square"/>
     </g>
    </g>
    <g id="ytick_2">
     <g id="line2d_16">
      <path d="M 10.38125 193.088 
L 414.43625 193.088 
" clip-path="url(#p636389c443)" style="fill: none; stroke: #b0b0b0; stroke-opacity: 0.3; stroke-width: 0.8; stroke-linecap: square"/>
     </g>
    </g>
    <g id="ytick_3">
     <g id="line2d_17">
      <path d="M 10.38125 146.616 
L 414.43625 146.616 
" clip-path="url(#p636389c443)" style="fill: none; stroke: #b0b0b0; stroke-opacity: 0.3; stroke-width: 0.8; stroke-linecap: square"/>
     </g>
    </g>
    <g id="ytick_4">
     <g id="line2d_18">
      <path d="M 10.38125 100.144 
L 414.43625 100.144 
" clip-path="url(#p636389c443)" style="fill: none; stroke: #b0b0b0; stroke-opacity: 0.3; stroke-width: 0.8; stroke-linecap: square"/>
     </g>
    </g>
    <g id="ytick_5">
     <g id="line2d_19">
      <path d="M 10.38125 53.672 
L 414.43625 53.672 
" clip-path="url(#p636389c443)" style="fill: none; stroke: #b0b0b0; stroke-opacity: 0.3; stroke-width: 0.8; stroke-linecap: square"/>
     </g>
    </g>
    <g id="ytick_6">
     <g id="line2d_20">
      <path d="M 10.38125 7.2 
L 414.43625 7.2 
" clip-path="url(#p636389c443)" style="fill: none; stroke: #b0b0b0; stroke-opacity: 0.3; stroke-width: 0.8; stroke-linecap: square"/>
     </g>
    </g>
   </g>
   <g id="line2d_21">
    <path d="M 10.38125 54.163543 
L 12.810438 54.284123 
L 15.239627 54.645392 
L 17.668815 55.245941 
L 20.098004 56.083436 
L 22.527192 57.154625 
L 24.95638 58.455367 
L 27.385569 59.980654 
L 29.814757 61.724644 
L 33.053675 64.378589 
L 36.292593 67.391656 
L 39.531511 70.743864 
L 42.770428 74.41327 
L 46.009346 78.376205 
L 50.057993 83.704239 
L 54.106641 89.399878 
L 58.965018 96.64406 
L 64.633124 105.539628 
L 71.920689 117.445876 
L 92.973655 152.16805 
L 99.45149 162.251705 
L 105.119597 170.640838 
L 109.977973 177.454268 
L 114.83635 183.884649 
L 119.694727 189.908334 
L 123.743374 194.606224 
L 127.792022 199.006458 
L 131.840669 203.107974 
L 135.889316 206.912884 
L 139.937963 210.426126 
L 143.986611 213.6551 
L 148.035258 216.609303 
L 152.083905 219.299969 
L 156.132553 221.739718 
L 160.1812 223.942219 
L 164.229847 225.921885 
L 169.088224 228.02429 
L 173.946601 229.853249 
L 178.804977 231.434632 
L 183.663354 232.793692 
L 189.33146 234.13056 
L 194.999567 235.234049 
L 201.477402 236.252159 
L 208.764967 237.140992 
L 216.862262 237.874752 
L 225.769286 238.446369 
L 236.295769 238.892717 
L 250.06117 239.230825 
L 268.684947 239.441601 
L 300.264396 239.542444 
L 414.43625 239.559997 
L 414.43625 239.559997 
" clip-path="url(#p636389c443)" style="fill: none; stroke: #000000; stroke-width: 1.2; stroke-linecap: square"/>
   </g>
   <g id="line2d_22">
    <path d="M 146.477351 -1 
L 149.654717 21.125147 
L 152.893635 42.035681 
L 156.132553 61.357176 
L 159.37147 79.160148 
L 162.610388 95.518141 
L 165.849306 110.506781 
L 169.088224 124.202899 
L 172.327142 136.683732 
L 175.56606 148.026212 
L 177.995248 155.831786 
L 180.424436 163.07133 
L 182.853625 169.77577 
L 185.282813 175.975337 
L 187.712002 181.699478 
L 190.14119 186.976775 
L 192.570378 191.834885 
L 194.999567 196.300485 
L 197.428755 200.399232 
L 199.857943 204.155729 
L 202.287132 207.593506 
L 204.71632 210.735004 
L 207.145509 213.601571 
L 210.384426 217.030846 
L 213.623344 220.052271 
L 216.862262 222.707515 
L 220.10118 225.034987 
L 223.340098 227.069941 
L 226.579016 228.844614 
L 229.817933 230.38837 
L 233.866581 232.033689 
L 237.915228 233.406134 
L 241.963875 234.546464 
L 246.822252 235.658178 
L 251.680629 236.539141 
L 257.348735 237.333547 
L 263.826571 238.002606 
L 271.114136 238.529666 
L 280.02116 238.947961 
L 291.357372 239.252459 
L 307.551961 239.450456 
L 336.702222 239.545232 
L 414.43625 239.559972 
L 414.43625 239.559972 
" clip-path="url(#p636389c443)" style="fill: none; stroke-dasharray: 4.44,1.92; stroke-dashoffset: 0; stroke: #000000; stroke-width: 1.2"/>
   </g>
   <g id="line2d_23">
    <path d="M 208.893669 -1 
L 211.194156 22.187539 
L 213.623344 44.482706 
L 216.052533 64.718784 
L 218.481721 83.05947 
L 220.910909 99.658394 
L 223.340098 114.659411 
L 225.769286 128.196937 
L 228.198474 140.396295 
L 230.627663 151.374086 
L 233.056851 161.238574 
L 235.48604 170.090071 
L 237.915228 178.021343 
L 240.344416 185.117999 
L 242.773605 191.458898 
L 245.202793 197.11653 
L 247.631981 202.157414 
L 250.06117 206.642468 
L 252.490358 210.627377 
L 254.919547 214.162952 
L 257.348735 217.295468 
L 259.777923 220.066994 
L 262.207112 222.515709 
L 264.6363 224.676196 
L 267.065488 226.579726 
L 269.494677 228.254528 
L 272.733595 230.175394 
L 275.972513 231.787893 
L 279.21143 233.138198 
L 282.450348 234.266165 
L 286.498995 235.415239 
L 290.547643 236.326605 
L 295.40602 237.17121 
L 301.074126 237.893034 
L 307.551961 238.464565 
L 315.649256 238.92025 
L 325.36601 239.230822 
L 339.13141 239.436083 
L 363.423294 239.540043 
L 414.43625 239.559718 
L 414.43625 239.559718 
" clip-path="url(#p636389c443)" style="fill: none; stroke-dasharray: 7.68,1.92,1.2,1.92; stroke-dashoffset: 0; stroke: #000000; stroke-width: 1.2"/>
   </g>
   <g id="line2d_24">
    <path d="M 255.926541 -1 
L 258.158464 26.534573 
L 260.587653 53.133217 
L 263.016841 76.622871 
L 265.44603 97.338022 
L 267.875218 115.580962 
L 270.304406 131.624401 
L 272.733595 145.713939 
L 275.162783 158.070381 
L 277.591971 168.891899 
L 280.02116 178.35605 
L 282.450348 186.621653 
L 284.879537 193.830527 
L 287.308725 200.1091 
L 289.737913 205.569893 
L 292.167102 210.312884 
L 294.59629 214.426762 
L 297.025478 217.990069 
L 299.454667 221.072255 
L 301.883855 223.734624 
L 304.313044 226.031207 
L 306.742232 228.009549 
L 309.17142 229.711418 
L 311.600609 231.173449 
L 314.029797 232.427727 
L 317.268715 233.824891 
L 320.507633 234.959015 
L 323.746551 235.877394 
L 327.795198 236.781099 
L 331.843845 237.470602 
L 336.702222 238.083183 
L 342.370328 238.581277 
L 349.657893 238.989278 
L 359.374647 239.286977 
L 373.949777 239.473122 
L 401.480579 239.551208 
L 414.43625 239.557176 
L 414.43625 239.557176 
" clip-path="url(#p636389c443)" style="fill: none; stroke: #000000; stroke-width: 1.2; stroke-linecap: square"/>
   </g>
   <g id="line2d_25">
    <path d="M 295.29672 -1 
L 296.215749 12.550113 
L 297.835208 34.637361 
L 299.454667 54.682547 
L 301.074126 72.863377 
L 302.693585 89.343203 
L 304.313044 104.272075 
L 305.932503 117.787725 
L 307.551961 130.016493 
L 309.17142 141.074179 
L 310.790879 151.066857 
L 312.410338 160.091618 
L 314.029797 168.237269 
L 315.649256 175.584984 
L 317.268715 182.208909 
L 318.888174 188.176722 
L 320.507633 193.550155 
L 322.127092 198.385476 
L 323.746551 202.733942 
L 325.36601 206.642206 
L 326.985468 210.152706 
L 328.604927 213.304019 
L 331.034116 217.433277 
L 333.463304 220.937377 
L 335.892492 223.906932 
L 338.321681 226.420071 
L 340.750869 228.544063 
L 343.180058 230.336733 
L 345.609246 231.847716 
L 348.038434 233.119551 
L 350.467623 234.188641 
L 353.706541 235.351806 
L 356.945458 236.270705 
L 360.994106 237.150379 
L 365.042753 237.801165 
L 369.90113 238.360267 
L 375.569236 238.797224 
L 382.856801 239.138311 
L 393.383284 239.384529 
L 410.387603 239.519573 
L 414.43625 239.531764 
L 414.43625 239.531764 
" clip-path="url(#p636389c443)" style="fill: none; stroke-dasharray: 4.44,1.92; stroke-dashoffset: 0; stroke: #000000; stroke-width: 1.2"/>
   </g>
   <g id="line2d_26">
    <path d="M 329.855073 -1 
L 331.034116 18.292772 
L 332.653575 42.289393 
L 334.273034 63.785241 
L 335.892492 83.029316 
L 337.511951 100.247111 
L 339.13141 115.642696 
L 340.750869 129.400627 
L 342.370328 141.687699 
L 343.989787 152.654556 
L 345.609246 162.43716 
L 347.228705 171.158144 
L 348.848164 178.928041 
L 350.467623 185.846413 
L 352.087082 192.002879 
L 353.706541 197.478056 
L 355.325999 202.344412 
L 356.945458 206.667051 
L 358.564917 210.504418 
L 360.184376 213.908947 
L 361.803835 216.92765 
L 363.423294 219.602646 
L 365.042753 221.97165 
L 366.662212 224.068407 
L 369.0914 226.768201 
L 371.520589 229.011224 
L 373.949777 230.872248 
L 376.378965 232.414252 
L 378.808154 233.690206 
L 381.237342 234.744595 
L 384.47626 235.86937 
L 387.715178 236.737957 
L 391.763825 237.548687 
L 395.812472 238.131679 
L 400.670849 238.617309 
L 407.148685 239.022666 
L 414.43625 239.277642 
L 414.43625 239.277642 
" clip-path="url(#p636389c443)" style="fill: none; stroke-dasharray: 7.68,1.92,1.2,1.92; stroke-dashoffset: 0; stroke: #000000; stroke-width: 1.2"/>
   </g>
   <g id="line2d_27">
    <path d="M 361.01635 -1 
L 362.613565 27.016564 
L 364.233024 52.192002 
L 365.852482 74.480943 
L 367.471941 94.20252 
L 369.0914 111.642008 
L 370.710859 127.054248 
L 372.330318 140.666748 
L 373.949777 152.682476 
L 375.569236 163.282394 
L 377.188695 172.627735 
L 378.808154 180.862065 
L 380.427613 188.113128 
L 382.047072 194.494524 
L 383.666531 200.107203 
L 385.285989 205.04082 
L 386.905448 209.374944 
L 388.524907 213.180148 
L 390.144366 216.518988 
L 391.763825 219.446873 
L 393.383284 222.012854 
L 395.002743 224.260324 
L 396.622202 226.227647 
L 398.241661 227.948717 
L 400.670849 230.133089 
L 403.100038 231.916478 
L 405.529226 233.370543 
L 407.958414 234.554512 
L 410.387603 235.517265 
L 413.626521 236.525402 
L 414.43625 236.736416 
L 414.43625 236.736416 
" clip-path="url(#p636389c443)" style="fill: none; stroke: #000000; stroke-width: 1.2; stroke-linecap: square"/>
   </g>
   <g id="line2d_28">
    <path d="M 389.635391 -1 
L 390.954096 24.270933 
L 392.573555 51.682642 
L 394.193014 75.698942 
L 395.812472 96.727871 
L 397.431931 115.130056 
L 399.05139 131.224012 
L 400.670849 145.290885 
L 402.290308 157.578671 
L 403.909767 168.305988 
L 405.529226 177.665433 
L 407.148685 185.826567 
L 408.768144 192.938582 
L 410.387603 199.132655 
L 412.007062 204.524058 
L 413.626521 209.214016 
L 414.43625 211.324157 
L 414.43625 211.324157 
" clip-path="url(#p636389c443)" style="fill: none; stroke-dasharray: 4.44,1.92; stroke-dashoffset: 0; stroke: #000000; stroke-width: 1.2"/>
   </g>
   <g id="line2d_29">
    <path d="M 10.38125 239.56 
L 414.43625 239.56 
" clip-path="url(#p636389c443)" style="fill: none; stroke: #000000; stroke-opacity: 0.3; stroke-width: 1.5; stroke-linecap: square"/>
   </g>
   <g id="patch_3">
    <path d="M 10.38125 239.56 
L 10.38125 7.2 
" style="fill: none; stroke: #000000; stroke-width: 0.8; stroke-linejoin: miter; stroke-linecap: square"/>
   </g>
   <g id="patch_4">
    <path d="M 414.43625 239.56 
L 414.43625 7.2 
" style="fill: none; stroke: #000000; stroke-width: 0.8; stroke-linejoin: miter; stroke-linecap: square"/>
   </g>
   <g id="patch_5">
    <path d="M 10.38125 239.56 
L 414.43625 239.56 
" style="fill: none; stroke: #000000; stroke-width: 0.8; stroke-linejoin: miter; stroke-linecap: square"/>
   </g>
   <g id="patch_6">
    <path d="M 10.38125 7.2 
L 414.43625 7.2 
" style="fill: none; stroke: #000000; stroke-width: 0.8; stroke-linejoin: miter; stroke-linecap: square"/>
   </g>
  </g>
 </g>
 <defs>
  <clipPath id="p636389c443">
   <rect x="10.38125" y="7.2" width="404.055" height="232.36"/>
  </clipPath>
 </defs>
</svg>
