<?xml version="1.0" encoding="utf-8" standalone="no"?>
<!DOCTYPE svg PUBLIC "-//W3C//DTD SVG 1.1//EN"
  "http://www.w3.org/Graphics/SVG/1.1/DTD/svg11.dtd">
<svg xmlns:xlink="http://www.w3.org/1999/xlink" width="424.887578pt" height="280.763125pt" viewBox="0 0 424.887578 280.763125" xmlns="http://www.w3.org/2000/svg" version="1.1">
 <metadata>
  <rdf:RDF xmlns:dc="http://purl.org/dc/elements/1.1/" xmlns:cc="http://creativecommons.org/ns#" xmlns:rdf="http://www.w3.org/1999/02/22-rdf-syntax-ns#">
   <cc:Work>
    <dc:type rdf:resource="http://purl.org/dc/dcmitype/StillImage"/>
    <dc:date>2025-10-17T09:20:53.003899</dc:date>
    <dc:format>image/svg+xml</dc:format>
    <dc:creator>
     <cc:Agent>
      <dc:title>Matplotlib v3.10.0, https://matplotlib.org/</dc:title>
     </cc:Agent>
    </dc:creator>
   </cc:Work>
  </rdf:RDF>
 </metadata>
 <defs>
  <style type="text/css">*{stroke-linejoin: round; stroke-linecap: butt}</style>
 </defs>
 <g id="figure_1">
  <g id="patch_1">
   <path d="M 0 280.763125 
L 424.887578 280.763125 
L 424.887578 0 
L 0 0 
z
" style="fill: #ffffff"/>
  </g>
  <g id="axes_1">
   <g id="patch_2">
    <path d="M 15.308203 237.4 
L 414.188203 237.4 
L 414.188203 7.2 
L 15.308203 7.2 
z
" style="fill: #ffffff"/>
   </g>
   <g id="matplotlib.axis_1">
    <g id="xtick_1">
     <g id="line2d_1">
      <defs>
       <path id="mbb1b192468" d="M 0 0 
L 0 3.5 
" style="stroke: #000000; stroke-width: 0.8"/>
      </defs>
      <g>
       <use xlink:href="#mbb1b192468" x="15.308203" y="237.4" style="stroke: #000000; stroke-width: 0.8"/>
      </g>
     </g>
     <g id="text_1">
      <!-- −4 -->
      <g transform="translate(7.2 252.758281) scale(0.11 -0.11)">
       <defs>
        <path id="DejaVuSans-2212" d="M 678 2272 
L 4684 2272 
L 4684 1741 
L 678 1741 
L 678 2272 
z
" transform="scale(0.015625)"/>
        <path id="DejaVuSans-34" d="M 2419 4116 
L 825 1625 
L 2419 1625 
L 2419 4116 
z
M 2253 4666 
L 3047 4666 
L 3047 1625 
L 3713 1625 
L 3713 1100 
L 3047 1100 
L 3047 0 
L 2419 0 
L 2419 1100 
L 313 1100 
L 313 1709 
L 2253 4666 
z
" transform="scale(0.015625)"/>
       </defs>
       <use xlink:href="#DejaVuSans-2212"/>
       <use xlink:href="#DejaVuSans-34" transform="translate(83.789062 0)"/>
      </g>
     </g>
    </g>
    <g id="xtick_2">
     <g id="line2d_2">
      <g>
       <use xlink:href="#mbb1b192468" x="65.168203" y="237.4" style="stroke: #000000; stroke-width: 0.8"/>
      </g>
     </g>
     <g id="text_2">
      <!-- −3 -->
      <g transform="translate(57.06 252.758281) scale(0.11 -0.11)">
       <defs>
        <path id="DejaVuSans-33" d="M 2597 2516 
Q 3050 2419 3304 2112 
Q 3559 1806 3559 1356 
Q 3559 666 3084 287 
Q 2609 -91 1734 -91 
Q 1441 -91 1130 -33 
Q 819 25 488 141 
L 488 750 
Q 750 597 1062 519 
Q 1375 441 1716 441 
Q 2309 441 2620 675 
Q 2931 909 2931 1356 
Q 2931 1769 2642 2001 
Q 2353 2234 1838 2234 
L 1294 2234 
L 1294 2753 
L 1863 2753 
Q 2328 2753 2575 2939 
Q 2822 3125 2822 3475 
Q 2822 3834 2567 4026 
Q 2313 4219 1838 4219 
Q 1578 4219 1281 4162 
Q 984 4106 628 3988 
L 628 4550 
Q 988 4650 1302 4700 
Q 1616 4750 1894 4750 
Q 2613 4750 3031 4423 
Q 3450 4097 3450 3541 
Q 3450 3153 3228 2886 
Q 3006 2619 2597 2516 
z
" transform="scale(0.015625)"/>
       </defs>
       <use xlink:href="#DejaVuSans-2212"/>
       <use xlink:href="#DejaVuSans-33" transform="translate(83.789062 0)"/>
      </g>
     </g>
    </g>
    <g id="xtick_3">
     <g id="line2d_3">
      <g>
       <use xlink:href="#mbb1b192468" x="115.028203" y="237.4" style="stroke: #000000; stroke-width: 0.8"/>
      </g>
     </g>
     <g id="text_3">
      <!-- −2 -->
      <g transform="translate(106.92 252.758281) scale(0.11 -0.11)">
       <defs>
        <path id="DejaVuSans-32" d="M 1228 531 
L 3431 531 
L 3431 0 
L 469 0 
L 469 531 
Q 828 903 1448 1529 
Q 2069 2156 2228 2338 
Q 2531 2678 2651 2914 
Q 2772 3150 2772 3378 
Q 2772 3750 2511 3984 
Q 2250 4219 1831 4219 
Q 1534 4219 1204 4116 
Q 875 4013 500 3803 
L 500 4441 
Q 881 4594 1212 4672 
Q 1544 4750 1819 4750 
Q 2544 4750 2975 4387 
Q 3406 4025 3406 3419 
Q 3406 3131 3298 2873 
Q 3191 2616 2906 2266 
Q 2828 2175 2409 1742 
Q 1991 1309 1228 531 
z
" transform="scale(0.015625)"/>
       </defs>
       <use xlink:href="#DejaVuSans-2212"/>
       <use xlink:href="#DejaVuSans-32" transform="translate(83.789062 0)"/>
      </g>
     </g>
    </g>
    <g id="xtick_4">
     <g id="line2d_4">
      <g>
       <use xlink:href="#mbb1b192468" x="164.888203" y="237.4" style="stroke: #000000; stroke-width: 0.8"/>
      </g>
     </g>
     <g id="text_4">
      <!-- −1 -->
      <g transform="translate(156.78 252.758281) scale(0.11 -0.11)">
       <defs>
        <path id="DejaVuSans-31" d="M 794 531 
L 1825 531 
L 1825 4091 
L 703 3866 
L 703 4441 
L 1819 4666 
L 2450 4666 
L 2450 531 
L 3481 531 
L 3481 0 
L 794 0 
L 794 531 
z
" transform="scale(0.015625)"/>
       </defs>
       <use xlink:href="#DejaVuSans-2212"/>
       <use xlink:href="#DejaVuSans-31" transform="translate(83.789062 0)"/>
      </g>
     </g>
    </g>
    <g id="xtick_5">
     <g id="line2d_5">
      <g>
       <use xlink:href="#mbb1b192468" x="214.748203" y="237.4" style="stroke: #000000; stroke-width: 0.8"/>
      </g>
     </g>
     <g id="text_5">
      <!-- 0 -->
      <g transform="translate(211.248828 252.758281) scale(0.11 -0.11)">
       <defs>
        <path id="DejaVuSans-30" d="M 2034 4250 
Q 1547 4250 1301 3770 
Q 1056 3291 1056 2328 
Q 1056 1369 1301 889 
Q 1547 409 2034 409 
Q 2525 409 2770 889 
Q 3016 1369 3016 2328 
Q 3016 3291 2770 3770 
Q 2525 4250 2034 4250 
z
M 2034 4750 
Q 2819 4750 3233 4129 
Q 3647 3509 3647 2328 
Q 3647 1150 3233 529 
Q 2819 -91 2034 -91 
Q 1250 -91 836 529 
Q 422 1150 422 2328 
Q 422 3509 836 4129 
Q 1250 4750 2034 4750 
z
" transform="scale(0.015625)"/>
       </defs>
       <use xlink:href="#DejaVuSans-30"/>
      </g>
     </g>
    </g>
    <g id="xtick_6">
     <g id="line2d_6">
      <g>
       <use xlink:href="#mbb1b192468" x="264.608203" y="237.4" style="stroke: #000000; stroke-width: 0.8"/>
      </g>
     </g>
     <g id="text_6">
      <!-- 1 -->
      <g transform="translate(261.108828 252.758281) scale(0.11 -0.11)">
       <use xlink:href="#DejaVuSans-31"/>
      </g>
     </g>
    </g>
    <g id="xtick_7">
     <g id="line2d_7">
      <g>
       <use xlink:href="#mbb1b192468" x="314.468203" y="237.4" style="stroke: #000000; stroke-width: 0.8"/>
      </g>
     </g>
     <g id="text_7">
      <!-- 2 -->
      <g transform="translate(310.968828 252.758281) scale(0.11 -0.11)">
       <use xlink:href="#DejaVuSans-32"/>
      </g>
     </g>
    </g>
    <g id="xtick_8">
     <g id="line2d_8">
      <g>
       <use xlink:href="#mbb1b192468" x="364.328203" y="237.4" style="stroke: #000000; stroke-width: 0.8"/>
      </g>
     </g>
     <g id="text_8">
      <!-- 3 -->
      <g transform="translate(360.828828 252.758281) scale(0.11 -0.11)">
       <use xlink:href="#DejaVuSans-33"/>
      </g>
     </g>
    </g>
    <g id="xtick_9">
     <g id="line2d_9">
      <g>
       <use xlink:href="#mbb1b192468" x="414.188203" y="237.4" style="stroke: #000000; stroke-width: 0.8"/>
      </g>
     </g>
     <g id="text_9">
      <!-- 4 -->
      <g transform="translate(410.688828 252.758281) scale(0.11 -0.11)">
       <use xlink:href="#DejaVuSans-34"/>
      </g>
     </g>
    </g>
    <g id="text_10">
     <!-- z -->
     <g transform="translate(210.811875 270.443594) scale(0.15 -0.15)">
      <defs>
       <path id="DejaVuSans-7a" d="M 353 3500 
L 3084 3500 
L 3084 2975 
L 922 459 
L 3084 459 
L 3084 0 
L 275 0 
L 275 525 
L 2438 3041 
L 353 3041 
L 353 3500 
z
" transform="scale(0.015625)"/>
      </defs>
      <use xlink:href="#DejaVuSans-7a"/>
     </g>
    </g>
   </g>
   <g id="matplotlib.axis_2"/>
   <g id="line2d_10">
    <path d="M 15.308203 237.326452 
L 33.275771 237.108672 
L 44.455591 236.757475 
L 52.840455 236.274897 
L 59.628203 235.665575 
L 65.218113 234.957103 
L 70.408744 234.079969 
L 75.200095 233.03532 
L 79.592167 231.836619 
L 83.58496 230.509983 
L 87.178473 229.093226 
L 90.771987 227.437034 
L 94.3655 225.512543 
L 97.559735 223.552441 
L 100.753969 221.335211 
L 103.948203 218.839299 
L 107.142437 216.043439 
L 110.336672 212.927078 
L 113.530906 209.470838 
L 116.72514 205.657032 
L 119.919374 201.470205 
L 123.113609 196.897716 
L 126.307843 191.930325 
L 129.502077 186.562784 
L 132.696311 180.794422 
L 136.289825 173.831668 
L 139.883338 166.382314 
L 143.876131 157.564929 
L 148.268203 147.266362 
L 153.059554 135.417184 
L 158.649464 120.977124 
L 178.214149 69.77427 
L 182.206942 60.213193 
L 185.800455 52.161271 
L 188.99469 45.535831 
L 191.789645 40.209473 
L 194.5846 35.371079 
L 196.980275 31.644742 
L 199.375951 28.332887 
L 201.372347 25.905627 
L 203.368744 23.792918 
L 205.36514 22.004704 
L 207.361536 20.549454 
L 208.958654 19.629698 
L 210.555771 18.930317 
L 212.152888 18.453455 
L 213.750005 18.200577 
L 215.347122 18.172462 
L 216.944239 18.369195 
L 218.541356 18.790171 
L 220.138473 19.434097 
L 221.735591 20.298998 
L 223.332708 21.382225 
L 225.329104 23.038185 
L 227.3255 25.022209 
L 229.321897 27.324933 
L 231.318293 29.935564 
L 233.713969 33.457579 
L 236.109645 37.3821 
L 238.9046 42.435066 
L 241.699554 47.956603 
L 244.893789 54.779732 
L 248.487302 63.020029 
L 252.480095 72.74672 
L 257.670726 86.04295 
L 266.055591 108.281324 
L 274.440455 130.32369 
L 279.631086 143.381668 
L 284.023158 153.888789 
L 288.015951 162.921383 
L 292.008744 171.401605 
L 295.602257 178.528684 
L 299.195771 185.158189 
L 302.390005 190.626063 
L 305.584239 195.693168 
L 308.778473 200.363662 
L 311.972708 204.645842 
L 315.166942 208.551555 
L 318.361176 212.095606 
L 321.55541 215.295176 
L 324.749645 218.169272 
L 327.943879 220.738198 
L 331.138113 223.023083 
L 334.332347 225.045444 
L 337.526582 226.826809 
L 341.120095 228.569164 
L 344.713609 230.062609 
L 348.706401 231.463975 
L 352.699194 232.628393 
L 357.091266 233.674935 
L 361.882618 234.581721 
L 367.073248 235.33836 
L 373.062437 235.981906 
L 379.850185 236.488085 
L 388.23505 236.884803 
L 399.015591 237.162812 
L 414.188203 237.326452 
L 414.188203 237.326452 
" clip-path="url(#pb46a5e994d)" style="fill: none; stroke: #000000; stroke-width: 1.5; stroke-linecap: square"/>
   </g>
   <g id="line2d_11">
    <path d="M 15.308203 237.274023 
L 30.480816 237.024172 
L 40.862077 236.645443 
L 48.847663 236.145821 
L 55.63541 235.504966 
L 61.6246 234.711839 
L 66.81523 233.800392 
L 71.606582 232.729573 
L 75.998654 231.51549 
L 79.991446 230.185832 
L 83.984239 228.608934 
L 87.577753 226.951044 
L 91.171266 225.040931 
L 94.76478 222.85271 
L 97.959014 220.653003 
L 101.153248 218.194641 
L 104.347482 215.459833 
L 107.541717 212.431595 
L 110.735951 209.094139 
L 113.930185 205.433287 
L 117.124419 201.436915 
L 120.318654 197.095406 
L 123.512888 192.402117 
L 127.106401 186.697829 
L 130.699915 180.545699 
L 134.293428 173.954021 
L 138.286221 166.134052 
L 142.279014 157.824998 
L 146.671086 148.176456 
L 151.861717 136.196353 
L 158.250185 120.836418 
L 174.221356 82.100255 
L 179.012708 71.235353 
L 183.0055 62.741687 
L 186.599014 55.646881 
L 189.793248 49.85323 
L 192.588203 45.228876 
L 195.383158 41.059018 
L 197.778834 37.872533 
L 200.174509 35.064464 
L 202.170906 33.026002 
L 204.167302 31.271142 
L 206.163699 29.807488 
L 208.160095 28.641418 
L 210.156491 27.778031 
L 211.753609 27.307846 
L 213.350726 27.035153 
L 214.947843 26.960721 
L 216.54496 27.08476 
L 218.142077 27.40692 
L 219.739194 27.926293 
L 221.336311 28.641418 
L 223.332708 29.807488 
L 225.329104 31.271142 
L 227.3255 33.026002 
L 229.321897 35.064464 
L 231.717572 37.872533 
L 234.113248 41.059018 
L 236.508924 44.604525 
L 239.303879 49.166161 
L 242.098834 54.150575 
L 245.293068 60.313987 
L 248.886582 67.768412 
L 252.879374 76.588656 
L 257.670726 87.741794 
L 264.458473 104.187059 
L 277.23541 135.253207 
L 282.82532 148.176456 
L 287.616672 158.676682 
L 292.008744 167.738437 
L 296.001536 175.456133 
L 299.59505 181.951232 
L 303.188563 188.004302 
L 306.782077 193.608657 
L 310.375591 198.76441 
L 313.569825 202.975544 
L 316.764059 206.844824 
L 319.958293 210.382862 
L 323.152527 213.602604 
L 326.346762 216.518882 
L 329.540996 219.147981 
L 332.73523 221.507231 
L 335.929464 223.614632 
L 339.522978 225.707248 
L 343.116491 227.530437 
L 346.710005 229.109897 
L 350.702798 230.609234 
L 354.695591 231.870879 
L 359.087663 233.020384 
L 363.879014 234.031874 
L 369.069645 234.890646 
L 374.659554 235.593143 
L 381.048023 236.176575 
L 388.634329 236.645443 
L 398.217032 237.00289 
L 410.993969 237.240258 
L 414.188203 237.274023 
L 414.188203 237.274023 
" clip-path="url(#pb46a5e994d)" style="fill: none; stroke: #808080; stroke-linecap: square"/>
   </g>
   <g id="line2d_12">
    <path d="M 15.308203 237.238558 
L 29.682257 236.95829 
L 39.664239 236.55145 
L 47.649825 236.007653 
L 54.437572 235.318553 
L 60.027482 234.538901 
L 65.218113 233.595602 
L 70.009464 232.494944 
L 74.401536 231.25468 
L 78.394329 229.903752 
L 82.387122 228.309743 
L 85.980636 226.641682 
L 89.574149 224.728122 
L 93.167663 222.545101 
L 96.361897 220.358979 
L 99.556131 217.92429 
L 102.750365 215.224911 
L 105.9446 212.245568 
L 109.138834 208.972192 
L 112.333068 205.392291 
L 115.527302 201.495341 
L 118.721536 197.27319 
L 122.31505 192.127979 
L 125.908563 186.561652 
L 129.502077 180.577166 
L 133.095591 174.183877 
L 137.088383 166.620853 
L 141.480455 157.781948 
L 146.271807 147.588714 
L 151.462437 136.014336 
L 158.649464 119.378296 
L 171.825681 88.749148 
L 176.617032 78.192989 
L 180.609825 69.870711 
L 184.203338 62.854025 
L 187.397572 57.063746 
L 190.591807 51.752363 
L 193.386762 47.53911 
L 195.782437 44.276295 
L 198.178113 41.355053 
L 200.573789 38.792329 
L 202.570185 36.941484 
L 204.566582 35.357652 
L 206.562978 34.047362 
L 208.559374 33.016038 
L 210.555771 32.267967 
L 212.552167 31.806265 
L 214.149284 31.644426 
L 215.746401 31.667553 
L 217.343518 31.875586 
L 218.940636 32.267967 
L 220.937032 33.016038 
L 222.933428 34.047362 
L 224.929825 35.357652 
L 226.926221 36.941484 
L 228.922618 38.792329 
L 231.318293 41.355053 
L 233.713969 44.276295 
L 236.109645 47.53911 
L 238.9046 51.752363 
L 241.699554 56.37252 
L 244.893789 62.105935 
L 248.487302 69.067221 
L 252.480095 77.339023 
L 256.872167 86.95461 
L 262.861356 100.660237 
L 281.627482 144.079735 
L 286.818113 155.284162 
L 291.210185 164.262138 
L 295.202978 171.964546 
L 299.195771 179.191301 
L 302.789284 185.267678 
L 306.382798 190.927401 
L 309.976311 196.166143 
L 313.569825 200.985495 
L 316.764059 204.922702 
L 319.958293 208.541704 
L 323.152527 211.852749 
L 326.346762 214.868105 
L 329.540996 217.601666 
L 332.73523 220.068573 
L 336.328744 222.545101 
L 339.922257 224.728122 
L 343.515771 226.641682 
L 347.109284 228.309743 
L 351.102077 229.903752 
L 355.09487 231.25468 
L 359.486942 232.494944 
L 364.278293 233.595602 
L 369.468924 234.538901 
L 375.058834 235.318553 
L 381.447302 235.973646 
L 388.634329 236.484616 
L 397.418473 236.881582 
L 408.997572 237.165685 
L 414.188203 237.238558 
L 414.188203 237.238558 
" clip-path="url(#pb46a5e994d)" style="fill: none; stroke: #808080; stroke-linecap: square"/>
   </g>
   <g id="line2d_13">
    <path d="M 15.308203 237.173886 
L 28.08514 236.864412 
L 37.667843 236.417697 
L 45.254149 235.85037 
L 51.642618 235.162559 
L 57.232527 234.352391 
L 62.423158 233.381111 
L 67.214509 232.257186 
L 71.606582 231.000151 
L 75.599374 229.640084 
L 79.592167 228.045283 
L 83.185681 226.386009 
L 86.779194 224.492693 
L 90.372708 222.343994 
L 93.966221 219.918708 
L 97.559735 217.196182 
L 100.753969 214.510727 
L 103.948203 211.562102 
L 107.142437 208.338788 
L 110.336672 204.83085 
L 113.930185 200.534304 
L 117.523699 195.859453 
L 121.117212 190.802493 
L 124.710726 185.364372 
L 128.703518 178.882736 
L 132.696311 171.955225 
L 137.088383 163.851598 
L 141.879735 154.490034 
L 147.070365 143.829421 
L 153.458834 130.162913 
L 172.624239 88.734646 
L 177.415591 79.141976 
L 181.408383 71.64232 
L 185.001897 65.365512 
L 188.196131 60.22112 
L 190.991086 56.093799 
L 193.786041 52.34601 
L 196.580996 49.00445 
L 198.976672 46.481926 
L 201.372347 44.289113 
L 203.768023 42.43784 
L 205.764419 41.16332 
L 207.760816 40.137827 
L 209.757212 39.365261 
L 211.753609 38.84857 
L 213.750005 38.589729 
L 215.746401 38.589729 
L 217.742798 38.84857 
L 219.739194 39.365261 
L 221.735591 40.137827 
L 223.731987 41.16332 
L 225.728383 42.43784 
L 227.72478 43.956555 
L 230.120455 46.093219 
L 232.516131 48.561685 
L 234.911807 51.348721 
L 237.706762 54.983061 
L 240.501717 59.004808 
L 243.695951 64.038981 
L 246.890185 69.496447 
L 250.483699 76.081691 
L 254.476491 83.867247 
L 259.267843 93.721907 
L 265.656311 107.438796 
L 283.2246 145.499821 
L 288.41523 156.084925 
L 293.206582 165.360736 
L 297.598654 173.375276 
L 301.591446 180.215404 
L 305.584239 186.605551 
L 309.177753 191.959314 
L 312.771266 196.931267 
L 316.36478 201.521565 
L 319.958293 205.734992 
L 323.551807 209.58039 
L 327.14532 213.070064 
L 330.738834 216.219189 
L 334.332347 219.045221 
L 337.925861 221.567333 
L 341.519374 223.80589 
L 345.112888 225.781961 
L 348.706401 227.516885 
L 352.699194 229.187552 
L 356.691987 230.615149 
L 361.084059 231.937334 
L 365.476131 233.032731 
L 370.267482 234.006261 
L 375.458113 234.842107 
L 381.447302 235.576828 
L 388.23505 236.177676 
L 396.220636 236.652923 
L 406.202618 237.009592 
L 414.188203 237.173886 
L 414.188203 237.173886 
" clip-path="url(#pb46a5e994d)" style="fill: none; stroke: #808080; stroke-linecap: square"/>
   </g>
   <g id="line2d_14">
    <path d="M 15.308203 237.048483 
L 26.488023 236.679578 
L 35.272167 236.174575 
L 42.459194 235.547177 
L 48.847663 234.766594 
L 54.437572 233.861584 
L 59.628203 232.791867 
L 64.419554 231.570031 
L 68.811627 230.219594 
L 72.804419 228.77405 
L 76.797212 227.096101 
L 80.790005 225.161026 
L 84.383518 223.17905 
L 87.977032 220.950746 
L 91.570545 218.458798 
L 95.164059 215.686864 
L 98.757572 212.619987 
L 102.351086 209.245034 
L 105.9446 205.55115 
L 109.538113 201.530211 
L 113.131627 197.177274 
L 116.72514 192.49101 
L 120.717933 186.89652 
L 124.710726 180.903961 
L 129.102798 173.873107 
L 133.49487 166.414933 
L 138.286221 157.844249 
L 143.876131 147.368816 
L 151.063158 133.371842 
L 167.832888 100.476773 
L 173.023518 90.894371 
L 177.415591 83.243128 
L 181.408383 76.746565 
L 185.001897 71.339575 
L 188.196131 66.927987 
L 190.991086 63.401229 
L 193.786041 60.20832 
L 196.580996 57.369021 
L 198.976672 55.23028 
L 201.372347 53.374283 
L 203.768023 51.809658 
L 206.163699 50.543711 
L 208.160095 49.721237 
L 210.156491 49.113012 
L 212.152888 48.721025 
L 214.149284 48.546561 
L 216.145681 48.590191 
L 218.142077 48.851773 
L 220.138473 49.330449 
L 222.13487 50.024652 
L 224.131266 50.932111 
L 226.127663 52.049867 
L 228.523338 53.663599 
L 230.919014 55.567354 
L 233.31469 57.75229 
L 236.109645 60.64324 
L 238.9046 63.885097 
L 241.699554 67.457824 
L 244.893789 71.917988 
L 248.088023 76.746565 
L 251.681536 82.572375 
L 255.674329 89.46842 
L 260.465681 98.222101 
L 266.055591 108.915895 
L 275.239014 127.046306 
L 284.821717 145.837987 
L 290.810906 157.111671 
L 296.001536 166.414933 
L 300.792888 174.530516 
L 305.18496 181.520698 
L 309.177753 187.474102 
L 313.170545 193.028119 
L 317.163338 198.173412 
L 320.756852 202.452324 
L 324.350365 206.400038 
L 327.943879 210.022243 
L 331.537392 213.327709 
L 335.130906 216.327837 
L 338.724419 219.036204 
L 342.317933 221.468112 
L 345.911446 223.640153 
L 349.50496 225.569807 
L 353.497753 227.451464 
L 357.490545 229.080968 
L 361.483338 230.482952 
L 365.87541 231.790916 
L 370.666762 232.972567 
L 375.857392 234.005437 
L 381.447302 234.877757 
L 387.436491 235.588345 
L 394.224239 236.174575 
L 402.209825 236.643039 
L 412.191807 236.999057 
L 414.188203 237.048483 
L 414.188203 237.048483 
" clip-path="url(#pb46a5e994d)" style="fill: none; stroke: #808080; stroke-linecap: square"/>
   </g>
   <g id="line2d_15">
    <path d="M 15.308203 236.786883 
L 24.890906 236.310725 
L 32.477212 235.723828 
L 39.26496 234.978681 
L 45.254149 234.096606 
L 50.44478 233.121061 
L 55.236131 232.013021 
L 60.027482 230.67328 
L 64.419554 229.213028 
L 68.811627 227.503142 
L 72.804419 225.709232 
L 76.797212 223.666351 
L 80.790005 221.354901 
L 84.383518 219.029674 
L 87.977032 216.459593 
L 91.570545 213.633748 
L 95.164059 210.542988 
L 98.757572 207.180263 
L 102.750365 203.11939 
L 106.743158 198.714738 
L 110.735951 193.968571 
L 114.728744 188.888181 
L 119.120816 182.928968 
L 123.512888 176.605315 
L 128.304239 169.329911 
L 133.894149 160.415479 
L 140.282618 149.794212 
L 150.663879 132.019715 
L 160.246582 115.748581 
L 166.235771 106.009094 
L 171.027122 98.616494 
L 175.419194 92.242713 
L 179.411987 86.845481 
L 183.0055 82.355148 
L 186.199735 78.684993 
L 189.393969 75.340691 
L 192.588203 72.342813 
L 195.383158 70.018433 
L 198.178113 67.984465 
L 200.973068 66.250538 
L 203.368744 65.009389 
L 205.764419 63.99906 
L 208.160095 63.223071 
L 210.555771 62.684126 
L 212.951446 62.384102 
L 215.347122 62.324045 
L 217.742798 62.504164 
L 220.138473 62.923832 
L 222.534149 63.581585 
L 224.929825 64.475133 
L 227.3255 65.601362 
L 229.721176 66.95635 
L 232.516131 68.819955 
L 235.311086 70.979646 
L 238.106041 73.4252 
L 240.900996 76.145058 
L 244.09523 79.572831 
L 247.289464 83.321004 
L 250.882978 87.892027 
L 254.875771 93.369451 
L 259.267843 99.819174 
L 264.059194 107.279188 
L 269.649104 116.413235 
L 277.23541 129.276303 
L 293.206582 156.4782 
L 299.195771 166.194416 
L 304.386401 174.221601 
L 309.177753 181.239247 
L 313.569825 187.300636 
L 317.961897 192.978905 
L 321.95469 197.792667 
L 325.947482 202.265959 
L 329.940275 206.39554 
L 333.933068 210.182889 
L 337.526582 213.30356 
L 341.120095 216.158424 
L 344.713609 218.756414 
L 348.706401 221.354901 
L 352.699194 223.666351 
L 356.691987 225.709232 
L 360.68478 227.503142 
L 364.677572 229.068306 
L 369.069645 230.550136 
L 373.461717 231.806706 
L 378.253068 232.951108 
L 383.443699 233.960281 
L 389.033609 234.820801 
L 395.422077 235.569545 
L 402.609104 236.177398 
L 410.993969 236.654617 
L 414.188203 236.786883 
L 414.188203 236.786883 
" clip-path="url(#pb46a5e994d)" style="fill: none; stroke: #808080; stroke-linecap: square"/>
   </g>
   <g id="line2d_16">
    <path d="M 15.308203 236.197387 
L 22.894509 235.578079 
L 29.682257 234.804351 
L 35.671446 233.901461 
L 41.261356 232.830649 
L 46.451987 231.602745 
L 51.243338 230.238947 
L 55.63541 228.769823 
L 60.027482 227.068766 
L 64.419554 225.114385 
L 68.412347 223.100681 
L 72.40514 220.846648 
L 76.397933 218.339744 
L 80.390726 215.569446 
L 84.383518 212.527682 
L 88.376311 209.209248 
L 92.369104 205.612193 
L 96.761176 201.335687 
L 101.153248 196.731679 
L 105.54532 191.813674 
L 110.336672 186.113638 
L 115.527302 179.582519 
L 121.117212 172.195215 
L 127.90496 162.845828 
L 138.286221 148.109428 
L 149.466041 132.334254 
L 155.854509 123.689152 
L 161.444419 116.500204 
L 166.235771 110.694342 
L 170.627843 105.711362 
L 174.620636 101.496424 
L 178.613428 97.608406 
L 182.206942 94.407767 
L 185.800455 91.505304 
L 188.99469 89.186062 
L 192.188924 87.120357 
L 195.383158 85.314884 
L 198.577392 83.775297 
L 201.771627 82.506268 
L 204.566582 81.620772 
L 207.361536 80.947253 
L 210.156491 80.48717 
L 212.951446 80.241506 
L 215.746401 80.210785 
L 218.541356 80.395069 
L 221.336311 80.79397 
L 224.131266 81.406635 
L 226.926221 82.231743 
L 229.721176 83.267485 
L 232.91541 84.706109 
L 236.109645 86.412483 
L 239.303879 88.381328 
L 242.498113 90.606347 
L 246.091627 93.406477 
L 249.68514 96.509264 
L 253.278654 99.900633 
L 257.271446 103.987751 
L 261.264239 108.386578 
L 265.656311 113.552186 
L 270.447663 119.531301 
L 276.037572 126.884807 
L 282.82532 136.223098 
L 293.206582 150.959563 
L 304.386401 166.736834 
L 311.174149 175.93023 
L 316.764059 183.142448 
L 321.95469 189.479489 
L 326.746041 194.978745 
L 331.138113 199.698815 
L 335.530185 204.095595 
L 339.922257 208.159384 
L 343.91505 211.561357 
L 347.907843 214.685717 
L 351.900636 217.53673 
L 355.893428 220.12165 
L 359.886221 222.450311 
L 363.879014 224.534694 
L 368.271086 226.561757 
L 372.663158 228.329812 
L 377.05523 229.860035 
L 381.846582 231.283689 
L 386.637933 232.478457 
L 391.828563 233.546464 
L 397.418473 234.470633 
L 403.806942 235.287963 
L 410.993969 235.963861 
L 414.188203 236.197387 
L 414.188203 236.197387 
" clip-path="url(#pb46a5e994d)" style="fill: none; stroke: #808080; stroke-linecap: square"/>
   </g>
   <g id="line2d_17">
    <path d="M 15.308203 234.77945 
L 21.696672 233.836611 
L 27.286582 232.792335 
L 32.477212 231.607835 
L 37.667843 230.187116 
L 42.459194 228.641144 
L 47.250545 226.847401 
L 51.642618 224.967852 
L 56.03469 222.848525 
L 60.426762 220.477292 
L 64.818834 217.844708 
L 69.210906 214.944545 
L 73.602978 211.774292 
L 77.99505 208.335571 
L 82.786401 204.285329 
L 87.577753 199.93718 
L 92.768383 194.915015 
L 98.358293 189.184024 
L 104.746762 182.294712 
L 112.732347 173.319331 
L 136.289825 146.571004 
L 142.678293 139.792907 
L 148.268203 134.188744 
L 153.458834 129.308958 
L 158.250185 125.11381 
L 162.642257 121.548818 
L 167.034329 118.26551 
L 171.426401 115.272846 
L 175.419194 112.809098 
L 179.411987 110.591971 
L 183.40478 108.621599 
L 187.397572 106.896732 
L 191.390365 105.415128 
L 195.383158 104.173928 
L 199.375951 103.170032 
L 203.368744 102.40043 
L 207.361536 101.862495 
L 211.354329 101.554219 
L 215.347122 101.474387 
L 219.339915 101.622676 
L 223.332708 101.999684 
L 227.3255 102.606876 
L 231.318293 103.446468 
L 235.311086 104.521229 
L 239.303879 105.834229 
L 243.296672 107.388533 
L 247.289464 109.186853 
L 251.282257 111.231176 
L 255.27505 113.522376 
L 259.267843 116.059832 
L 263.659915 119.132443 
L 268.051987 122.493621 
L 272.444059 126.133376 
L 277.23541 130.40525 
L 282.026762 134.968287 
L 287.217392 140.2057 
L 293.206582 146.571004 
L 300.393609 154.554921 
L 311.573428 167.364192 
L 323.152527 180.526396 
L 329.940275 187.917399 
L 335.929464 194.115677 
L 341.120095 199.184901 
L 345.911446 203.580842 
L 350.702798 207.681907 
L 355.09487 211.168922 
L 359.486942 214.388235 
L 363.879014 217.337434 
L 368.271086 220.018308 
L 372.663158 222.436444 
L 377.05523 224.600741 
L 381.447302 226.522881 
L 385.839374 228.216772 
L 390.630726 229.822666 
L 395.422077 231.197191 
L 400.612708 232.4513 
L 406.202618 233.560767 
L 412.191807 234.510771 
L 414.188203 234.77945 
L 414.188203 234.77945 
" clip-path="url(#pb46a5e994d)" style="fill: none; stroke: #808080; stroke-linecap: square"/>
   </g>
   <g id="line2d_18">
    <path d="M 15.308203 231.283925 
L 20.498834 229.873643 
L 25.689464 228.223234 
L 30.480816 226.469236 
L 35.272167 224.479837 
L 40.063518 222.244172 
L 44.85487 219.754831 
L 49.646221 217.008488 
L 54.437572 214.006441 
L 59.228924 210.755021 
L 64.419554 206.964859 
L 70.009464 202.596497 
L 75.998654 197.627315 
L 82.786401 191.70479 
L 91.969825 183.369747 
L 110.336672 166.62143 
L 117.523699 160.419648 
L 123.512888 155.534632 
L 129.102798 151.258377 
L 134.293428 147.56293 
L 139.484059 144.152889 
L 144.27541 141.269237 
L 149.066762 138.643684 
L 153.858113 136.275843 
L 158.649464 134.161103 
L 163.440816 132.291261 
L 168.232167 130.655229 
L 173.422798 129.131352 
L 178.613428 127.847804 
L 183.804059 126.785302 
L 189.393969 125.866542 
L 195.383158 125.117311 
L 201.372347 124.58861 
L 207.760816 124.247396 
L 214.149284 124.122257 
L 220.537753 124.207761 
L 226.926221 124.507633 
L 233.31469 125.03453 
L 239.303879 125.75311 
L 244.893789 126.640238 
L 250.483699 127.758472 
L 255.674329 129.024329 
L 260.86496 130.529044 
L 265.656311 132.146165 
L 270.447663 133.996065 
L 275.239014 136.090039 
L 280.030365 138.436558 
L 284.821717 141.040559 
L 289.613068 143.9028 
L 294.404419 147.01934 
L 299.59505 150.671971 
L 304.785681 154.593901 
L 310.375591 159.089005 
L 316.764059 164.51888 
L 324.350365 171.272141 
L 337.526582 183.369747 
L 347.907843 192.768522 
L 355.09487 198.978753 
L 361.084059 203.873042 
L 366.673969 208.159599 
L 371.8646 211.865928 
L 377.05523 215.288081 
L 381.846582 218.184058 
L 386.637933 220.823198 
L 391.429284 223.206189 
L 396.220636 225.338129 
L 401.011987 227.227948 
L 405.803338 228.887757 
L 410.993969 230.443308 
L 414.188203 231.283925 
L 414.188203 231.283925 
" clip-path="url(#pb46a5e994d)" style="fill: none; stroke: #808080; stroke-linecap: square"/>
   </g>
   <g id="line2d_19">
    <path d="M 15.308203 223.208465 
L 20.498834 220.811018 
L 25.689464 218.174016 
L 31.279374 215.074765 
L 36.869284 211.722974 
L 42.858473 207.87969 
L 49.646221 203.258622 
L 58.031086 197.265372 
L 85.581356 177.321813 
L 92.369104 172.815072 
L 98.358293 169.09489 
L 103.948203 165.872442 
L 109.538113 162.912271 
L 114.728744 160.409509 
L 119.919374 158.147934 
L 125.110005 156.126319 
L 130.300636 154.338677 
L 135.491266 152.774972 
L 141.081176 151.326118 
L 146.671086 150.101817 
L 152.660275 149.014468 
L 159.048744 148.07959 
L 166.235771 147.264132 
L 174.221356 146.598095 
L 183.0055 146.09308 
L 193.386762 145.723005 
L 205.764419 145.507042 
L 220.138473 145.479617 
L 233.713969 145.664669 
L 245.293068 146.039279 
L 254.875771 146.570439 
L 262.861356 147.225279 
L 270.048383 148.028115 
L 276.836131 149.014468 
L 282.82532 150.101817 
L 288.814509 151.421912 
L 294.404419 152.887592 
L 299.59505 154.468087 
L 304.785681 156.273418 
L 309.976311 158.313335 
L 315.166942 160.593485 
L 320.357572 163.114701 
L 325.548203 165.872442 
L 331.138113 169.09489 
L 337.127302 172.815072 
L 343.515771 177.049216 
L 351.102077 182.359207 
L 361.483338 189.928141 
L 377.454509 201.572803 
L 385.040816 206.815525 
L 391.429284 210.974098 
L 397.418473 214.61091 
L 403.008383 217.747448 
L 408.199014 220.420802 
L 413.389645 222.85535 
L 414.188203 223.208465 
L 414.188203 223.208465 
" clip-path="url(#pb46a5e994d)" style="fill: none; stroke: #808080; stroke-linecap: square"/>
   </g>
   <g id="line2d_20">
    <path d="M 15.308203 208.502716 
L 25.689464 202.475 
L 44.455591 191.544912 
L 52.441176 187.180991 
L 59.228924 183.716851 
L 65.617392 180.706124 
L 71.606582 178.128413 
L 77.595771 175.801849 
L 83.185681 173.862014 
L 88.775591 172.144455 
L 94.76478 170.543405 
L 100.753969 169.176669 
L 107.142437 167.957196 
L 113.930185 166.903671 
L 121.117212 166.024793 
L 129.102798 165.287234 
L 137.886942 164.707919 
L 148.268203 164.25718 
L 161.04514 163.93758 
L 178.613428 163.738793 
L 208.559374 163.655142 
L 251.282257 163.741427 
L 270.846942 163.982785 
L 284.023158 164.35814 
L 294.404419 164.869522 
L 303.188563 165.519835 
L 310.77487 166.293049 
L 317.961897 167.248945 
L 324.350365 168.313251 
L 330.738834 169.607226 
L 336.728023 171.050294 
L 342.717212 172.732662 
L 348.307122 174.529106 
L 353.897032 176.548958 
L 359.886221 178.960252 
L 365.87541 181.619037 
L 372.263879 184.709066 
L 379.051627 188.245704 
L 387.037212 192.674605 
L 397.817753 198.942501 
L 414.188203 208.502716 
L 414.188203 208.502716 
" clip-path="url(#pb46a5e994d)" style="fill: none; stroke: #808080; stroke-linecap: square"/>
   </g>
   <g id="line2d_21">
    <path d="M 15.308203 193.480686 
L 22.095951 191.016901 
L 28.484419 188.927712 
L 34.872888 187.07074 
L 41.261356 185.447014 
L 47.649825 184.050323 
L 54.437572 182.80136 
L 61.22532 181.77462 
L 68.811627 180.860387 
L 76.797212 180.125497 
L 85.980636 179.514696 
L 96.361897 179.054392 
L 109.138834 178.719747 
L 126.307843 178.507553 
L 155.055951 178.407246 
L 258.868563 178.396057 
L 305.18496 178.523215 
L 323.551807 178.785005 
L 336.328744 179.174406 
L 346.710005 179.702293 
L 355.494149 180.358777 
L 363.479735 181.170683 
L 370.666762 182.113074 
L 377.454509 183.215653 
L 384.242257 184.548136 
L 390.630726 186.028827 
L 397.019194 187.739657 
L 403.407663 189.684253 
L 409.796131 191.858614 
L 414.188203 193.480686 
L 414.188203 193.480686 
" clip-path="url(#pb46a5e994d)" style="fill: none; stroke: #808080; stroke-linecap: square"/>
   </g>
   <g id="line2d_22">
    <path d="M 15.308203 191.813219 
L 24.890906 191.234381 
L 36.070726 190.789583 
L 50.0455 190.47202 
L 69.210906 190.28058 
L 103.548924 190.200808 
L 302.390005 190.194162 
L 365.076852 190.311507 
L 384.641536 190.566101 
L 398.217032 190.954634 
L 408.997572 191.473404 
L 414.188203 191.813219 
L 414.188203 191.813219 
" clip-path="url(#pb46a5e994d)" style="fill: none; stroke: #808080; stroke-linecap: square"/>
   </g>
   <g id="line2d_23">
    <path d="M 15.308203 199.654299 
L 109.138834 199.63442 
L 414.188203 199.654299 
L 414.188203 199.654299 
" clip-path="url(#pb46a5e994d)" style="fill: none; stroke: #808080; stroke-linecap: square"/>
   </g>
   <g id="line2d_24">
    <path d="M 15.308203 207.187537 
L 414.188203 207.187537 
L 414.188203 207.187537 
" clip-path="url(#pb46a5e994d)" style="fill: none; stroke: #808080; stroke-linecap: square"/>
   </g>
   <g id="line2d_25">
    <path d="M 15.308203 213.230026 
L 414.188203 213.230026 
L 414.188203 213.230026 
" clip-path="url(#pb46a5e994d)" style="fill: none; stroke: #808080; stroke-linecap: square"/>
   </g>
   <g id="line2d_26">
    <path d="M 15.308203 218.06402 
L 414.188203 218.06402 
L 414.188203 218.06402 
" clip-path="url(#pb46a5e994d)" style="fill: none; stroke: #808080; stroke-linecap: square"/>
   </g>
   <g id="line2d_27">
    <path d="M 15.308203 221.931216 
L 414.188203 221.931216 
L 414.188203 221.931216 
" clip-path="url(#pb46a5e994d)" style="fill: none; stroke: #808080; stroke-linecap: square"/>
   </g>
   <g id="line2d_28">
    <path d="M 15.308203 225.024973 
L 414.188203 225.024973 
L 414.188203 225.024973 
" clip-path="url(#pb46a5e994d)" style="fill: none; stroke: #808080; stroke-linecap: square"/>
   </g>
   <g id="line2d_29">
    <path d="M 15.308203 227.499978 
L 414.188203 227.499978 
L 414.188203 227.499978 
" clip-path="url(#pb46a5e994d)" style="fill: none; stroke: #808080; stroke-linecap: square"/>
   </g>
   <g id="line2d_30">
    <path d="M 15.308203 229.479983 
L 414.188203 229.479983 
L 414.188203 229.479983 
" clip-path="url(#pb46a5e994d)" style="fill: none; stroke: #808080; stroke-linecap: square"/>
   </g>
   <g id="line2d_31">
    <path d="M 15.308203 231.063986 
L 414.188203 231.063986 
L 414.188203 231.063986 
" clip-path="url(#pb46a5e994d)" style="fill: none; stroke: #808080; stroke-linecap: square"/>
   </g>
   <g id="line2d_32">
    <path d="M 15.308203 232.331189 
L 414.188203 232.331189 
L 414.188203 232.331189 
" clip-path="url(#pb46a5e994d)" style="fill: none; stroke: #808080; stroke-linecap: square"/>
   </g>
   <g id="line2d_33">
    <path d="M 15.308203 233.344951 
L 414.188203 233.344951 
L 414.188203 233.344951 
" clip-path="url(#pb46a5e994d)" style="fill: none; stroke: #808080; stroke-linecap: square"/>
   </g>
   <g id="line2d_34">
    <path d="M 15.308203 234.155961 
L 414.188203 234.155961 
L 414.188203 234.155961 
" clip-path="url(#pb46a5e994d)" style="fill: none; stroke: #808080; stroke-linecap: square"/>
   </g>
   <g id="line2d_35">
    <path d="M 15.308203 234.804769 
L 414.188203 234.804769 
L 414.188203 234.804769 
" clip-path="url(#pb46a5e994d)" style="fill: none; stroke: #808080; stroke-linecap: square"/>
   </g>
   <g id="line2d_36">
    <path d="M 15.308203 235.323815 
L 414.188203 235.323815 
L 414.188203 235.323815 
" clip-path="url(#pb46a5e994d)" style="fill: none; stroke: #808080; stroke-linecap: square"/>
   </g>
   <g id="line2d_37">
    <path d="M 15.308203 235.739052 
L 414.188203 235.739052 
L 414.188203 235.739052 
" clip-path="url(#pb46a5e994d)" style="fill: none; stroke: #808080; stroke-linecap: square"/>
   </g>
   <g id="line2d_38">
    <path d="M 15.308203 236.071242 
L 414.188203 236.071242 
L 414.188203 236.071242 
" clip-path="url(#pb46a5e994d)" style="fill: none; stroke: #808080; stroke-linecap: square"/>
   </g>
   <g id="line2d_39">
    <path d="M 15.308203 236.336993 
L 414.188203 236.336993 
L 414.188203 236.336993 
" clip-path="url(#pb46a5e994d)" style="fill: none; stroke: #808080; stroke-linecap: square"/>
   </g>
   <g id="line2d_40">
    <path d="M 15.308203 236.549595 
L 414.188203 236.549595 
L 414.188203 236.549595 
" clip-path="url(#pb46a5e994d)" style="fill: none; stroke: #808080; stroke-linecap: square"/>
   </g>
   <g id="line2d_41">
    <path d="M 15.308203 236.719676 
L 414.188203 236.719676 
L 414.188203 236.719676 
" clip-path="url(#pb46a5e994d)" style="fill: none; stroke: #808080; stroke-linecap: square"/>
   </g>
   <g id="line2d_42">
    <path d="M 15.308203 236.855741 
L 414.188203 236.855741 
L 414.188203 236.855741 
" clip-path="url(#pb46a5e994d)" style="fill: none; stroke: #808080; stroke-linecap: square"/>
   </g>
   <g id="line2d_43">
    <path d="M 15.308203 236.964592 
L 414.188203 236.964592 
L 414.188203 236.964592 
" clip-path="url(#pb46a5e994d)" style="fill: none; stroke: #808080; stroke-linecap: square"/>
   </g>
   <g id="line2d_44">
    <path d="M 15.308203 237.051674 
L 414.188203 237.051674 
L 414.188203 237.051674 
" clip-path="url(#pb46a5e994d)" style="fill: none; stroke: #808080; stroke-linecap: square"/>
   </g>
   <g id="line2d_45">
    <path d="M 15.308203 237.121339 
L 414.188203 237.121339 
L 414.188203 237.121339 
" clip-path="url(#pb46a5e994d)" style="fill: none; stroke: #808080; stroke-linecap: square"/>
   </g>
   <g id="line2d_46">
    <path d="M 15.308203 237.177071 
L 414.188203 237.177071 
L 414.188203 237.177071 
" clip-path="url(#pb46a5e994d)" style="fill: none; stroke: #808080; stroke-linecap: square"/>
   </g>
   <g id="line2d_47">
    <path d="M 15.308203 237.221657 
L 414.188203 237.221657 
L 414.188203 237.221657 
" clip-path="url(#pb46a5e994d)" style="fill: none; stroke: #808080; stroke-linecap: square"/>
   </g>
   <g id="line2d_48">
    <path d="M 15.308203 237.257326 
L 414.188203 237.257326 
L 414.188203 237.257326 
" clip-path="url(#pb46a5e994d)" style="fill: none; stroke: #808080; stroke-linecap: square"/>
   </g>
   <g id="line2d_49">
    <path d="M 15.308203 237.285861 
L 414.188203 237.285861 
L 414.188203 237.285861 
" clip-path="url(#pb46a5e994d)" style="fill: none; stroke: #808080; stroke-linecap: square"/>
   </g>
   <g id="line2d_50">
    <path d="M 15.308203 237.308688 
L 414.188203 237.308688 
L 414.188203 237.308688 
" clip-path="url(#pb46a5e994d)" style="fill: none; stroke: #808080; stroke-linecap: square"/>
   </g>
   <g id="patch_3">
    <path d="M 15.308203 237.4 
L 15.308203 7.2 
" style="fill: none; stroke: #000000; stroke-width: 0.8; stroke-linejoin: miter; stroke-linecap: square"/>
   </g>
   <g id="patch_4">
    <path d="M 414.188203 237.4 
L 414.188203 7.2 
" style="fill: none; stroke: #000000; stroke-width: 0.8; stroke-linejoin: miter; stroke-linecap: square"/>
   </g>
   <g id="patch_5">
    <path d="M 15.308203 237.4 
L 414.188203 237.4 
" style="fill: none; stroke: #000000; stroke-width: 0.8; stroke-linejoin: miter; stroke-linecap: square"/>
   </g>
   <g id="patch_6">
    <path d="M 15.308203 7.2 
L 414.188203 7.2 
" style="fill: none; stroke: #000000; stroke-width: 0.8; stroke-linejoin: miter; stroke-linecap: square"/>
   </g>
   <g id="legend_1">
    <g id="patch_7">
     <path d="M 276.788203 54.81375 
L 405.788203 54.81375 
Q 408.188203 54.81375 408.188203 52.41375 
L 408.188203 15.6 
Q 408.188203 13.2 405.788203 13.2 
L 276.788203 13.2 
Q 274.388203 13.2 274.388203 15.6 
L 274.388203 52.41375 
Q 274.388203 54.81375 276.788203 54.81375 
z
" style="fill: #ffffff; opacity: 0.8; stroke: #cccccc; stroke-linejoin: miter"/>
    </g>
    <g id="line2d_51">
     <path d="M 279.188203 22.918125 
L 291.188203 22.918125 
L 303.188203 22.918125 
" style="fill: none; stroke: #000000; stroke-width: 1.5; stroke-linecap: square"/>
    </g>
    <g id="text_11">
     <!-- $\alpha\cdot PDF(x)$ -->
     <g transform="translate(312.788203 27.118125) scale(0.12 -0.12)">
      <defs>
       <path id="DejaVuSans-Oblique-3b1" d="M 2619 1628 
L 2622 2350 
Q 2625 3088 2069 3091 
Q 1653 3094 1394 2747 
Q 1069 2319 959 1747 
Q 825 1059 994 731 
Q 1169 397 1547 397 
Q 1966 397 2319 1063 
L 2619 1628 
z
M 2166 3578 
Q 3141 3594 3128 2584 
Q 3128 2584 3616 3500 
L 4128 3500 
L 3119 1603 
L 3109 919 
Q 3109 766 3194 638 
Q 3291 488 3391 488 
L 3669 488 
L 3575 0 
L 3228 0 
Q 2934 0 2722 263 
Q 2622 394 2619 669 
Q 2416 334 2066 50 
Q 1900 -81 1453 -78 
Q 722 -72 456 397 
Q 184 884 353 1747 
Q 534 2675 1009 3097 
Q 1544 3569 2166 3578 
z
" transform="scale(0.015625)"/>
       <path id="DejaVuSans-22c5" d="M 684 2619 
L 1344 2619 
L 1344 1825 
L 684 1825 
L 684 2619 
z
" transform="scale(0.015625)"/>
       <path id="DejaVuSans-Oblique-50" d="M 1081 4666 
L 2541 4666 
Q 3178 4666 3512 4369 
Q 3847 4072 3847 3500 
Q 3847 2731 3353 2303 
Q 2859 1875 1966 1875 
L 1172 1875 
L 806 0 
L 172 0 
L 1081 4666 
z
M 1613 4147 
L 1275 2394 
L 2069 2394 
Q 2606 2394 2893 2669 
Q 3181 2944 3181 3456 
Q 3181 3784 2986 3965 
Q 2791 4147 2438 4147 
L 1613 4147 
z
" transform="scale(0.015625)"/>
       <path id="DejaVuSans-Oblique-44" d="M 1081 4666 
L 2438 4666 
Q 3519 4666 4070 4208 
Q 4622 3750 4622 2847 
Q 4622 2250 4412 1698 
Q 4203 1147 3834 769 
Q 3463 381 2891 190 
Q 2319 0 1538 0 
L 172 0 
L 1081 4666 
z
M 1613 4147 
L 909 519 
L 1734 519 
Q 2794 519 3375 1128 
Q 3956 1738 3956 2847 
Q 3956 3519 3581 3833 
Q 3206 4147 2406 4147 
L 1613 4147 
z
" transform="scale(0.015625)"/>
       <path id="DejaVuSans-Oblique-46" d="M 1081 4666 
L 3756 4666 
L 3653 4134 
L 1606 4134 
L 1338 2759 
L 3188 2759 
L 3084 2228 
L 1234 2228 
L 800 0 
L 172 0 
L 1081 4666 
z
" transform="scale(0.015625)"/>
       <path id="DejaVuSans-28" d="M 1984 4856 
Q 1566 4138 1362 3434 
Q 1159 2731 1159 2009 
Q 1159 1288 1364 580 
Q 1569 -128 1984 -844 
L 1484 -844 
Q 1016 -109 783 600 
Q 550 1309 550 2009 
Q 550 2706 781 3412 
Q 1013 4119 1484 4856 
L 1984 4856 
z
" transform="scale(0.015625)"/>
       <path id="DejaVuSans-Oblique-78" d="M 3841 3500 
L 2234 1784 
L 3219 0 
L 2559 0 
L 1819 1388 
L 531 0 
L -166 0 
L 1556 1844 
L 641 3500 
L 1300 3500 
L 1972 2234 
L 3144 3500 
L 3841 3500 
z
" transform="scale(0.015625)"/>
       <path id="DejaVuSans-29" d="M 513 4856 
L 1013 4856 
Q 1481 4119 1714 3412 
Q 1947 2706 1947 2009 
Q 1947 1309 1714 600 
Q 1481 -109 1013 -844 
L 513 -844 
Q 928 -128 1133 580 
Q 1338 1288 1338 2009 
Q 1338 2731 1133 3434 
Q 928 4138 513 4856 
z
" transform="scale(0.015625)"/>
      </defs>
      <use xlink:href="#DejaVuSans-Oblique-3b1" transform="translate(0 0.125)"/>
      <use xlink:href="#DejaVuSans-22c5" transform="translate(85.400391 0.125)"/>
      <use xlink:href="#DejaVuSans-Oblique-50" transform="translate(136.669922 0.125)"/>
      <use xlink:href="#DejaVuSans-Oblique-44" transform="translate(196.972656 0.125)"/>
      <use xlink:href="#DejaVuSans-Oblique-46" transform="translate(273.974609 0.125)"/>
      <use xlink:href="#DejaVuSans-28" transform="translate(331.494141 0.125)"/>
      <use xlink:href="#DejaVuSans-Oblique-78" transform="translate(370.507812 0.125)"/>
      <use xlink:href="#DejaVuSans-29" transform="translate(429.6875 0.125)"/>
     </g>
    </g>
    <g id="line2d_52">
     <path d="M 279.188203 42.33375 
L 291.188203 42.33375 
L 303.188203 42.33375 
" style="fill: none; stroke: #808080; stroke-linecap: square"/>
    </g>
    <g id="text_12">
     <!-- $\alpha\cdot CDF(x)|_{x-0.5}^{x+0.5}$ -->
     <g transform="translate(312.788203 46.53375) scale(0.12 -0.12)">
      <defs>
       <path id="DejaVuSans-Oblique-43" d="M 4447 4306 
L 4319 3641 
Q 4019 3944 3683 4091 
Q 3347 4238 2956 4238 
Q 2422 4238 2017 3981 
Q 1613 3725 1319 3200 
Q 1131 2863 1032 2486 
Q 934 2109 934 1728 
Q 934 1091 1264 756 
Q 1594 422 2222 422 
Q 2656 422 3056 561 
Q 3456 700 3834 978 
L 3688 231 
Q 3316 72 2936 -9 
Q 2556 -91 2175 -91 
Q 1278 -91 773 396 
Q 269 884 269 1753 
Q 269 2309 461 2846 
Q 653 3384 1013 3828 
Q 1394 4300 1883 4525 
Q 2372 4750 3022 4750 
Q 3422 4750 3780 4639 
Q 4138 4528 4447 4306 
z
" transform="scale(0.015625)"/>
       <path id="DejaVuSans-7c" d="M 1344 4891 
L 1344 -1509 
L 813 -1509 
L 813 4891 
L 1344 4891 
z
" transform="scale(0.015625)"/>
       <path id="DejaVuSans-2b" d="M 2944 4013 
L 2944 2272 
L 4684 2272 
L 4684 1741 
L 2944 1741 
L 2944 0 
L 2419 0 
L 2419 1741 
L 678 1741 
L 678 2272 
L 2419 2272 
L 2419 4013 
L 2944 4013 
z
" transform="scale(0.015625)"/>
       <path id="DejaVuSans-2e" d="M 684 794 
L 1344 794 
L 1344 0 
L 684 0 
L 684 794 
z
" transform="scale(0.015625)"/>
       <path id="DejaVuSans-35" d="M 691 4666 
L 3169 4666 
L 3169 4134 
L 1269 4134 
L 1269 2991 
Q 1406 3038 1543 3061 
Q 1681 3084 1819 3084 
Q 2600 3084 3056 2656 
Q 3513 2228 3513 1497 
Q 3513 744 3044 326 
Q 2575 -91 1722 -91 
Q 1428 -91 1123 -41 
Q 819 9 494 109 
L 494 744 
Q 775 591 1075 516 
Q 1375 441 1709 441 
Q 2250 441 2565 725 
Q 2881 1009 2881 1497 
Q 2881 1984 2565 2268 
Q 2250 2553 1709 2553 
Q 1456 2553 1204 2497 
Q 953 2441 691 2322 
L 691 4666 
z
" transform="scale(0.015625)"/>
      </defs>
      <use xlink:href="#DejaVuSans-Oblique-3b1" transform="translate(0 0.765625)"/>
      <use xlink:href="#DejaVuSans-22c5" transform="translate(85.400391 0.765625)"/>
      <use xlink:href="#DejaVuSans-Oblique-43" transform="translate(136.669922 0.765625)"/>
      <use xlink:href="#DejaVuSans-Oblique-44" transform="translate(206.494141 0.765625)"/>
      <use xlink:href="#DejaVuSans-Oblique-46" transform="translate(283.496094 0.765625)"/>
      <use xlink:href="#DejaVuSans-28" transform="translate(341.015625 0.765625)"/>
      <use xlink:href="#DejaVuSans-Oblique-78" transform="translate(380.029297 0.765625)"/>
      <use xlink:href="#DejaVuSans-29" transform="translate(439.208984 0.765625)"/>
      <use xlink:href="#DejaVuSans-7c" transform="translate(478.222656 0.765625)"/>
      <use xlink:href="#DejaVuSans-Oblique-78" transform="translate(512.871094 39.046875) scale(0.7)"/>
      <use xlink:href="#DejaVuSans-2b" transform="translate(567.93457 39.046875) scale(0.7)"/>
      <use xlink:href="#DejaVuSans-30" transform="translate(640.224609 39.046875) scale(0.7)"/>
      <use xlink:href="#DejaVuSans-2e" transform="translate(684.760742 39.046875) scale(0.7)"/>
      <use xlink:href="#DejaVuSans-35" transform="translate(707.011719 39.046875) scale(0.7)"/>
      <use xlink:href="#DejaVuSans-Oblique-78" transform="translate(512.871094 -26.578125) scale(0.7)"/>
      <use xlink:href="#DejaVuSans-2212" transform="translate(567.93457 -26.578125) scale(0.7)"/>
      <use xlink:href="#DejaVuSans-30" transform="translate(640.224609 -26.578125) scale(0.7)"/>
      <use xlink:href="#DejaVuSans-2e" transform="translate(684.760742 -26.578125) scale(0.7)"/>
      <use xlink:href="#DejaVuSans-35" transform="translate(707.011719 -26.578125) scale(0.7)"/>
     </g>
    </g>
   </g>
  </g>
 </g>
 <defs>
  <clipPath id="pb46a5e994d">
   <rect x="15.308203" y="7.2" width="398.88" height="230.2"/>
  </clipPath>
 </defs>
</svg>
