<?xml version="1.0" encoding="utf-8" standalone="no"?>
<!DOCTYPE svg PUBLIC "-//W3C//DTD SVG 1.1//EN"
  "http://www.w3.org/Graphics/SVG/1.1/DTD/svg11.dtd">
<svg xmlns:xlink="http://www.w3.org/1999/xlink" width="334.8pt" height="179.498125pt" viewBox="0 0 334.8 179.498125" xmlns="http://www.w3.org/2000/svg" version="1.1">
 <metadata>
  <rdf:RDF xmlns:dc="http://purl.org/dc/elements/1.1/" xmlns:cc="http://creativecommons.org/ns#" xmlns:rdf="http://www.w3.org/1999/02/22-rdf-syntax-ns#">
   <cc:Work>
    <dc:type rdf:resource="http://purl.org/dc/dcmitype/StillImage"/>
    <dc:date>2025-10-17T08:26:52.132414</dc:date>
    <dc:format>image/svg+xml</dc:format>
    <dc:creator>
     <cc:Agent>
      <dc:title>Matplotlib v3.10.0, https://matplotlib.org/</dc:title>
     </cc:Agent>
    </dc:creator>
   </cc:Work>
  </rdf:RDF>
 </metadata>
 <defs>
  <style type="text/css">*{stroke-linejoin: round; stroke-linecap: butt}</style>
 </defs>
 <g id="figure_1">
  <g id="patch_1">
   <path d="M 0 179.498125 
L 334.8 179.498125 
L 334.8 0 
L 0 0 
z
" style="fill: #ffffff"/>
  </g>
  <g id="axes_1">
   <g id="patch_2">
    <path d="M 0 166.32 
L 334.8 166.32 
L 334.8 0 
L 0 0 
z
" style="fill: #ffffff"/>
   </g>
   <g id="matplotlib.axis_1">
    <g id="xtick_1">
     <g id="line2d_1"/>
     <g id="text_1">
      <!-- $\mu$ -->
      <g transform="translate(164.2 177.398125) scale(0.1 -0.1)">
       <defs>
        <path id="DejaVuSans-Oblique-3bc" d="M -84 -1331 
L 856 3500 
L 1434 3500 
L 1009 1322 
Q 997 1256 987 1175 
Q 978 1094 978 1013 
Q 978 722 1161 565 
Q 1344 409 1684 409 
Q 2147 409 2431 671 
Q 2716 934 2816 1459 
L 3213 3500 
L 3788 3500 
L 3266 809 
Q 3253 750 3248 706 
Q 3244 663 3244 628 
Q 3244 531 3283 486 
Q 3322 441 3406 441 
Q 3438 441 3492 456 
Q 3547 472 3647 513 
L 3559 50 
Q 3422 -19 3297 -55 
Q 3172 -91 3053 -91 
Q 2847 -91 2730 40 
Q 2613 172 2613 403 
Q 2438 153 2195 31 
Q 1953 -91 1625 -91 
Q 1334 -91 1117 43 
Q 900 178 831 397 
L 494 -1331 
L -84 -1331 
z
" transform="scale(0.015625)"/>
       </defs>
       <use xlink:href="#DejaVuSans-Oblique-3bc" transform="translate(0 0.3125)"/>
      </g>
     </g>
    </g>
   </g>
   <g id="matplotlib.axis_2"/>
   <g id="LineCollection_1">
    <path d="M 0 166.32 
L 0 166.266863 
" clip-path="url(#p333ee8b35f)" style="fill: none; stroke: #808080; stroke-opacity: 0.6; stroke-width: 0.8"/>
   </g>
   <g id="LineCollection_2">
    <path d="M 23.914286 166.32 
L 23.914286 165.876221 
" clip-path="url(#p333ee8b35f)" style="fill: none; stroke: #808080; stroke-opacity: 0.6; stroke-width: 0.8"/>
   </g>
   <g id="LineCollection_3">
    <path d="M 47.828571 166.32 
L 47.828571 163.646226 
" clip-path="url(#p333ee8b35f)" style="fill: none; stroke: #808080; stroke-opacity: 0.6; stroke-width: 0.8"/>
   </g>
   <g id="LineCollection_4">
    <path d="M 71.742857 166.32 
L 71.742857 154.698247 
" clip-path="url(#p333ee8b35f)" style="fill: none; stroke: #808080; stroke-opacity: 0.6; stroke-width: 0.8"/>
   </g>
   <g id="LineCollection_5">
    <path d="M 95.657143 166.32 
L 95.657143 129.877498 
" clip-path="url(#p333ee8b35f)" style="fill: none; stroke: #808080; stroke-opacity: 0.6; stroke-width: 0.8"/>
   </g>
   <g id="LineCollection_6">
    <path d="M 119.571429 166.32 
L 119.571429 83.880701 
" clip-path="url(#p333ee8b35f)" style="fill: none; stroke: #808080; stroke-opacity: 0.6; stroke-width: 0.8"/>
   </g>
   <g id="LineCollection_7">
    <path d="M 143.485714 166.32 
L 143.485714 31.780455 
" clip-path="url(#p333ee8b35f)" style="fill: none; stroke: #808080; stroke-opacity: 0.6; stroke-width: 0.8"/>
   </g>
   <g id="LineCollection_8">
    <path d="M 167.4 166.32 
L 167.4 7.92 
" clip-path="url(#p333ee8b35f)" style="fill: none; stroke: #808080; stroke-opacity: 0.6; stroke-width: 0.8"/>
   </g>
   <g id="LineCollection_9">
    <path d="M 191.314286 166.32 
L 191.314286 31.780455 
" clip-path="url(#p333ee8b35f)" style="fill: none; stroke: #808080; stroke-opacity: 0.6; stroke-width: 0.8"/>
   </g>
   <g id="LineCollection_10">
    <path d="M 215.228571 166.32 
L 215.228571 83.880701 
" clip-path="url(#p333ee8b35f)" style="fill: none; stroke: #808080; stroke-opacity: 0.6; stroke-width: 0.8"/>
   </g>
   <g id="LineCollection_11">
    <path d="M 239.142857 166.32 
L 239.142857 129.877498 
" clip-path="url(#p333ee8b35f)" style="fill: none; stroke: #808080; stroke-opacity: 0.6; stroke-width: 0.8"/>
   </g>
   <g id="LineCollection_12">
    <path d="M 263.057143 166.32 
L 263.057143 154.698247 
" clip-path="url(#p333ee8b35f)" style="fill: none; stroke: #808080; stroke-opacity: 0.6; stroke-width: 0.8"/>
   </g>
   <g id="LineCollection_13">
    <path d="M 286.971429 166.32 
L 286.971429 163.646226 
" clip-path="url(#p333ee8b35f)" style="fill: none; stroke: #808080; stroke-opacity: 0.6; stroke-width: 0.8"/>
   </g>
   <g id="LineCollection_14">
    <path d="M 310.885714 166.32 
L 310.885714 165.876221 
" clip-path="url(#p333ee8b35f)" style="fill: none; stroke: #808080; stroke-opacity: 0.6; stroke-width: 0.8"/>
   </g>
   <g id="LineCollection_15">
    <path d="M 334.8 166.32 
L 334.8 166.266863 
" clip-path="url(#p333ee8b35f)" style="fill: none; stroke: #808080; stroke-opacity: 0.6; stroke-width: 0.8"/>
   </g>
   <g id="line2d_2">
    <path d="M 0 166.266863 
L 17.091892 166.069586 
L 27.145946 165.743428 
L 34.518919 165.295449 
L 40.551351 164.717526 
L 45.578378 164.030297 
L 50.27027 163.166585 
L 54.291892 162.212467 
L 57.978378 161.128521 
L 61.664865 159.809246 
L 65.016216 158.374757 
L 68.367568 156.686192 
L 71.383784 154.924366 
L 74.4 152.910175 
L 77.416216 150.621728 
L 80.432432 148.037959 
L 83.448649 145.139236 
L 86.464865 141.908038 
L 89.481081 138.329681 
L 92.497297 134.393074 
L 95.513514 130.091489 
L 98.52973 125.423328 
L 101.881081 119.811936 
L 105.232432 113.768696 
L 108.918919 106.653917 
L 112.940541 98.393181 
L 117.632432 88.216254 
L 124 73.802245 
L 134.054054 51.003455 
L 138.410811 41.707129 
L 142.097297 34.379625 
L 145.113514 28.860678 
L 147.794595 24.381747 
L 150.475676 20.357167 
L 152.821622 17.244902 
L 154.832432 14.903647 
L 156.843243 12.880266 
L 158.854054 11.188398 
L 160.52973 10.040114 
L 162.205405 9.135531 
L 163.881081 8.478966 
L 165.556757 8.073564 
L 167.232432 7.92127 
L 168.908108 8.022815 
L 170.583784 8.377713 
L 172.259459 8.984258 
L 173.935135 9.839546 
L 175.610811 10.939491 
L 177.286486 12.278862 
L 179.297297 14.193152 
L 181.308108 16.43009 
L 183.318919 18.974693 
L 185.664865 22.309661 
L 188.010811 26.010731 
L 190.691892 30.647231 
L 193.708108 36.319733 
L 197.059459 43.097771 
L 201.081081 51.740593 
L 206.778378 64.578167 
L 218.508108 91.174003 
L 223.2 101.199813 
L 227.221622 109.295031 
L 230.908108 116.236392 
L 234.259459 122.109406 
L 237.610811 127.543194 
L 240.962162 132.526539 
L 243.978378 136.624816 
L 246.994595 140.361268 
L 250.010811 143.745141 
L 253.027027 146.789619 
L 256.043243 149.511053 
L 259.059459 151.928224 
L 262.075676 154.061639 
L 265.091892 155.932895 
L 268.108108 157.564102 
L 271.459459 159.121908 
L 274.810811 160.440384 
L 278.497297 161.648278 
L 282.518919 162.716849 
L 286.875676 163.628697 
L 291.567568 164.37808 
L 296.92973 165.003052 
L 303.297297 165.50713 
L 311.005405 165.880553 
L 321.059459 166.132779 
L 334.8 166.266863 
L 334.8 166.266863 
" clip-path="url(#p333ee8b35f)" style="fill: none; stroke: #000000; stroke-width: 2; stroke-linecap: square"/>
   </g>
   <g id="patch_3">
    <path d="M 0 166.32 
L 334.8 166.32 
" style="fill: none; stroke: #000000; stroke-width: 2; stroke-linejoin: miter; stroke-linecap: square"/>
   </g>
  </g>
 </g>
 <defs>
  <clipPath id="p333ee8b35f">
   <rect x="0" y="0" width="334.8" height="166.32"/>
  </clipPath>
 </defs>
</svg>
