<?xml version="1.0" encoding="UTF-8"?>
<!DOCTYPE svg PUBLIC "-//W3C//DTD SVG 1.1//EN" "http://www.w3.org/Graphics/SVG/1.1/DTD/svg11.dtd">
<svg xmlns="http://www.w3.org/2000/svg" width="128" height="128" viewBox="42.5 -28.2 251.4 251.4">
  <!-- First Cube (back) -->
  <!-- Back square of back cube -->
  <path d="M 50 50 h 100 v 100 h -100 z" 
        fill="none" 
        stroke="black" 
        stroke-width="8"/>
  
  <!-- Front square of back cube -->
  <path d="M 120.7 120.7 h 100 v 100 h -100 z" 
        fill="none" 
        stroke="black" 
        stroke-width="8"/>
  
  <!-- Connecting lines of back cube -->
  <line x1="50" y1="50" x2="120.7" y2="120.7" 
        stroke="black" 
        stroke-width="8"/>
  <line x1="150" y1="50" x2="220.7" y2="120.7" 
        stroke="black" 
        stroke-width="8"/>
  <line x1="150" y1="150" x2="220.7" y2="220.7" 
        stroke="black" 
        stroke-width="8"/>
  <line x1="50" y1="150" x2="120.7" y2="220.7" 
        stroke="black" 
        stroke-width="8"/>

  <!-- Second Cube (front) - shifted at 45° in fourth dimension -->
  <!-- Back square of front cube -->
  <path d="M 120.7 -20.7 h 100 v 100 h -100 z" 
        fill="none" 
        stroke="black" 
        stroke-width="8"/>
  
  <!-- Front square of front cube -->
  <path d="M 191.4 50 h 100 v 100 h -100 z" 
        fill="none" 
        stroke="black" 
        stroke-width="8"/>
  
  <!-- Connecting lines of front cube -->
  <line x1="120.7" y1="-20.7" x2="191.4" y2="50" 
        stroke="black" 
        stroke-width="8"/>
  <line x1="220.7" y1="-20.7" x2="291.4" y2="50" 
        stroke="black" 
        stroke-width="8"/>
  <line x1="220.7" y1="79.3" x2="291.4" y2="150" 
        stroke="black" 
        stroke-width="8"/>
  <line x1="120.7" y1="79.3" x2="191.4" y2="150" 
        stroke="black" 
        stroke-width="8"/>

  <!-- Connecting lines between cubes -->
  <line x1="50" y1="50" x2="120.7" y2="-20.7" 
        stroke="black" 
        stroke-width="8"/>
  <line x1="150" y1="50" x2="220.7" y2="-20.7" 
        stroke="black" 
        stroke-width="8"/>
  <line x1="150" y1="150" x2="220.7" y2="79.3" 
        stroke="black" 
        stroke-width="8"/>
  <line x1="50" y1="150" x2="120.7" y2="79.3" 
        stroke="black" 
        stroke-width="8"/>
  <line x1="120.7" y1="120.7" x2="191.4" y2="50" 
        stroke="black" 
        stroke-width="8"/>
  <line x1="220.7" y1="120.7" x2="291.4" y2="50" 
        stroke="black" 
        stroke-width="8"/>
  <line x1="220.7" y1="220.7" x2="291.4" y2="150" 
        stroke="black" 
        stroke-width="8"/>
  <line x1="120.7" y1="220.7" x2="191.4" y2="150" 
        stroke="black" 
        stroke-width="8"/>
</svg>
