<?xml version="1.0" encoding="utf-8" standalone="no"?>
<!DOCTYPE svg PUBLIC "-//W3C//DTD SVG 1.1//EN"
  "http://www.w3.org/Graphics/SVG/1.1/DTD/svg11.dtd">
<svg xmlns:xlink="http://www.w3.org/1999/xlink" width="409.68pt" height="409.68pt" viewBox="0 0 409.68 409.68" xmlns="http://www.w3.org/2000/svg" version="1.1">
 <metadata>
  <rdf:RDF xmlns:dc="http://purl.org/dc/elements/1.1/" xmlns:cc="http://creativecommons.org/ns#" xmlns:rdf="http://www.w3.org/1999/02/22-rdf-syntax-ns#">
   <cc:Work>
    <dc:type rdf:resource="http://purl.org/dc/dcmitype/StillImage"/>
    <dc:date>2026-04-10T20:14:22.460186</dc:date>
    <dc:format>image/svg+xml</dc:format>
    <dc:creator>
     <cc:Agent>
      <dc:title>Matplotlib v3.10.8, https://matplotlib.org/</dc:title>
     </cc:Agent>
    </dc:creator>
   </cc:Work>
  </rdf:RDF>
 </metadata>
 <defs>
  <style type="text/css">*{stroke-linejoin: round; stroke-linecap: butt}</style>
 </defs>
 <g id="figure_1">
  <g id="patch_1">
   <path d="M 0 409.68 
L 409.68 409.68 
L 409.68 0 
L 0 0 
z
" style="fill: #ffffff"/>
  </g>
  <g id="axes_1">
   <g id="patch_2">
    <path d="M 78.530702 85.538274 
Q 123.944729 143.058801 180.412252 187.641453 
" clip-path="url(#p5018491ec5)" style="fill: none; stroke: #000000; stroke-width: 1.2; stroke-linecap: round"/>
    <path d="M 177.7521 181.973685 
L 180.412252 187.641453 
L 174.281947 186.368914 
z
" clip-path="url(#p5018491ec5)" style="stroke: #000000; stroke-width: 1.2; stroke-linecap: round"/>
   </g>
   <g id="patch_3">
    <path d="M 188.472828 181.465255 
Q 143.058801 123.944729 86.591277 79.362077 
" clip-path="url(#p5018491ec5)" style="fill: none; stroke: #000000; stroke-width: 1.2; stroke-linecap: round"/>
    <path d="M 89.251429 85.029844 
L 86.591277 79.362077 
L 92.721583 80.634615 
z
" clip-path="url(#p5018491ec5)" style="stroke: #000000; stroke-width: 1.2; stroke-linecap: round"/>
   </g>
   <g id="patch_4">
    <path d="M 319.089762 59.676515 
Q 230.455124 87.778653 202.758468 175.134392 
" clip-path="url(#p5018491ec5)" style="fill: none; stroke: #000000; stroke-width: 1.2; stroke-linecap: round"/>
    <path d="M 207.120009 170.642515 
L 202.758468 175.134392 
L 201.781891 168.950033 
z
" clip-path="url(#p5018491ec5)" style="stroke: #000000; stroke-width: 1.2; stroke-linecap: round"/>
   </g>
   <g id="patch_5">
    <path d="M 212.225478 177.277022 
Q 247.929735 105.253265 318.751446 70.144896 
" clip-path="url(#p5018491ec5)" style="fill: none; stroke: #000000; stroke-width: 1.2; stroke-linecap: round"/>
    <path d="M 312.490493 70.123467 
L 318.751446 70.144896 
L 314.977731 75.140801 
z
" clip-path="url(#p5018491ec5)" style="stroke: #000000; stroke-width: 1.2; stroke-linecap: round"/>
   </g>
   <g id="patch_6">
    <path d="M 324.141726 78.530702 
Q 266.621199 123.944729 222.038547 180.412252 
" clip-path="url(#p5018491ec5)" style="fill: none; stroke: #000000; stroke-width: 1.2; stroke-linecap: round"/>
    <path d="M 227.706315 177.7521 
L 222.038547 180.412252 
L 223.311086 174.281947 
z
" clip-path="url(#p5018491ec5)" style="stroke: #000000; stroke-width: 1.2; stroke-linecap: round"/>
   </g>
   <g id="patch_7">
    <path d="M 228.214745 188.472828 
Q 285.735271 143.058801 330.317923 86.591277 
" clip-path="url(#p5018491ec5)" style="fill: none; stroke: #000000; stroke-width: 1.2; stroke-linecap: round"/>
    <path d="M 324.650156 89.251429 
L 330.317923 86.591277 
L 329.045385 92.721583 
z
" clip-path="url(#p5018491ec5)" style="stroke: #000000; stroke-width: 1.2; stroke-linecap: round"/>
   </g>
   <g id="patch_8">
    <path d="M 340.130993 89.726507 
Q 304.426735 161.750265 233.605024 196.858633 
" clip-path="url(#p5018491ec5)" style="fill: none; stroke: #000000; stroke-width: 1.2; stroke-linecap: round"/>
    <path d="M 239.865978 196.880063 
L 233.605024 196.858633 
L 237.37874 191.862728 
z
" clip-path="url(#p5018491ec5)" style="stroke: #000000; stroke-width: 1.2; stroke-linecap: round"/>
   </g>
   <g id="patch_9">
    <path d="M 233.266709 207.327015 
Q 321.901347 179.224876 349.598003 91.869138 
" clip-path="url(#p5018491ec5)" style="fill: none; stroke: #000000; stroke-width: 1.2; stroke-linecap: round"/>
    <path d="M 345.236462 96.361015 
L 349.598003 91.869138 
L 350.57458 98.053497 
z
" clip-path="url(#p5018491ec5)" style="stroke: #000000; stroke-width: 1.2; stroke-linecap: round"/>
   </g>
   <g id="patch_10">
    <path d="M 340.130993 319.953493 
Q 304.426735 247.929735 233.605024 212.821367 
" clip-path="url(#p5018491ec5)" style="fill: none; stroke: #000000; stroke-width: 1.2; stroke-linecap: round"/>
    <path d="M 237.37874 217.817272 
L 233.605024 212.821367 
L 239.865978 212.799937 
z
" clip-path="url(#p5018491ec5)" style="stroke: #000000; stroke-width: 1.2; stroke-linecap: round"/>
   </g>
   <g id="patch_11">
    <path d="M 228.214745 221.207172 
Q 285.735271 266.621199 330.317923 323.088723 
" clip-path="url(#p5018491ec5)" style="fill: none; stroke: #000000; stroke-width: 1.2; stroke-linecap: round"/>
    <path d="M 329.045385 316.958417 
L 330.317923 323.088723 
L 324.650156 320.428571 
z
" clip-path="url(#p5018491ec5)" style="stroke: #000000; stroke-width: 1.2; stroke-linecap: round"/>
   </g>
   <g id="patch_12">
    <path d="M 324.141726 331.149298 
Q 266.621199 285.735271 222.038547 229.267748 
" clip-path="url(#p5018491ec5)" style="fill: none; stroke: #000000; stroke-width: 1.2; stroke-linecap: round"/>
    <path d="M 223.311086 235.398053 
L 222.038547 229.267748 
L 227.706315 231.9279 
z
" clip-path="url(#p5018491ec5)" style="stroke: #000000; stroke-width: 1.2; stroke-linecap: round"/>
   </g>
   <g id="patch_13">
    <path d="M 212.225478 232.402978 
Q 247.929735 304.426735 318.751446 339.535104 
" clip-path="url(#p5018491ec5)" style="fill: none; stroke: #000000; stroke-width: 1.2; stroke-linecap: round"/>
    <path d="M 314.977731 334.539199 
L 318.751446 339.535104 
L 312.490493 339.556533 
z
" clip-path="url(#p5018491ec5)" style="stroke: #000000; stroke-width: 1.2; stroke-linecap: round"/>
   </g>
   <g id="patch_14">
    <path d="M 85.538274 331.149298 
Q 143.058801 285.735271 187.641453 229.267748 
" clip-path="url(#p5018491ec5)" style="fill: none; stroke: #000000; stroke-width: 1.2; stroke-linecap: round"/>
    <path d="M 181.973685 231.9279 
L 187.641453 229.267748 
L 186.368914 235.398053 
z
" clip-path="url(#p5018491ec5)" style="stroke: #000000; stroke-width: 1.2; stroke-linecap: round"/>
   </g>
   <g id="patch_15">
    <path d="M 181.465255 221.207172 
Q 123.944729 266.621199 79.362077 323.088723 
" clip-path="url(#p5018491ec5)" style="fill: none; stroke: #000000; stroke-width: 1.2; stroke-linecap: round"/>
    <path d="M 85.029844 320.428571 
L 79.362077 323.088723 
L 80.634615 316.958417 
z
" clip-path="url(#p5018491ec5)" style="stroke: #000000; stroke-width: 1.2; stroke-linecap: round"/>
   </g>
   <g id="patch_16">
    <path d="M 62.163529 90.698824 
C 69.731178 90.698824 76.989894 87.692165 82.341029 82.341029 
C 87.692165 76.989894 90.698824 69.731178 90.698824 62.163529 
C 90.698824 54.595881 87.692165 47.337165 82.341029 41.986029 
C 76.989894 36.634894 69.731178 33.628235 62.163529 33.628235 
C 54.595881 33.628235 47.337165 36.634894 41.986029 41.986029 
C 36.634894 47.337165 33.628235 54.595881 33.628235 62.163529 
C 33.628235 69.731178 36.634894 76.989894 41.986029 82.341029 
C 47.337165 87.692165 54.595881 90.698824 62.163529 90.698824 
z
" clip-path="url(#p5018491ec5)" style="fill: #ffffff; stroke: #000000; stroke-width: 1.2; stroke-linejoin: miter"/>
   </g>
   <g id="patch_17">
    <path d="M 347.516471 90.698824 
C 355.084119 90.698824 362.342835 87.692165 367.693971 82.341029 
C 373.045106 76.989894 376.051765 69.731178 376.051765 62.163529 
C 376.051765 54.595881 373.045106 47.337165 367.693971 41.986029 
C 362.342835 36.634894 355.084119 33.628235 347.516471 33.628235 
C 339.948822 33.628235 332.690106 36.634894 327.338971 41.986029 
C 321.987835 47.337165 318.981176 54.595881 318.981176 62.163529 
C 318.981176 69.731178 321.987835 76.989894 327.338971 82.341029 
C 332.690106 87.692165 339.948822 90.698824 347.516471 90.698824 
z
" clip-path="url(#p5018491ec5)" style="fill: #ffffff; stroke: #000000; stroke-width: 1.2; stroke-linejoin: miter"/>
   </g>
   <g id="patch_18">
    <path d="M 347.516471 376.051765 
C 355.084119 376.051765 362.342835 373.045106 367.693971 367.693971 
C 373.045106 362.342835 376.051765 355.084119 376.051765 347.516471 
C 376.051765 339.948822 373.045106 332.690106 367.693971 327.338971 
C 362.342835 321.987835 355.084119 318.981176 347.516471 318.981176 
C 339.948822 318.981176 332.690106 321.987835 327.338971 327.338971 
C 321.987835 332.690106 318.981176 339.948822 318.981176 347.516471 
C 318.981176 355.084119 321.987835 362.342835 327.338971 367.693971 
C 332.690106 373.045106 339.948822 376.051765 347.516471 376.051765 
z
" clip-path="url(#p5018491ec5)" style="fill: #ffffff; stroke: #000000; stroke-width: 1.2; stroke-linejoin: miter"/>
   </g>
   <g id="patch_19">
    <path d="M 62.163529 376.051765 
C 69.731178 376.051765 76.989894 373.045106 82.341029 367.693971 
C 87.692165 362.342835 90.698824 355.084119 90.698824 347.516471 
C 90.698824 339.948822 87.692165 332.690106 82.341029 327.338971 
C 76.989894 321.987835 69.731178 318.981176 62.163529 318.981176 
C 54.595881 318.981176 47.337165 321.987835 41.986029 327.338971 
C 36.634894 332.690106 33.628235 339.948822 33.628235 347.516471 
C 33.628235 355.084119 36.634894 362.342835 41.986029 367.693971 
C 47.337165 373.045106 54.595881 376.051765 62.163529 376.051765 
z
" clip-path="url(#p5018491ec5)" style="fill: #ffffff; stroke: #000000; stroke-width: 1.2; stroke-linejoin: miter"/>
   </g>
   <g id="patch_20">
    <path d="M 204.84 233.375294 
C 212.407648 233.375294 219.666364 230.368636 225.0175 225.0175 
C 230.368636 219.666364 233.375294 212.407648 233.375294 204.84 
C 233.375294 197.272352 230.368636 190.013636 225.0175 184.6625 
C 219.666364 179.311364 212.407648 176.304706 204.84 176.304706 
C 197.272352 176.304706 190.013636 179.311364 184.6625 184.6625 
C 179.311364 190.013636 176.304706 197.272352 176.304706 204.84 
C 176.304706 212.407648 179.311364 219.666364 184.6625 225.0175 
C 190.013636 230.368636 197.272352 233.375294 204.84 233.375294 
z
" clip-path="url(#p5018491ec5)" style="fill: #ffffff; stroke: #000000; stroke-width: 1.2; stroke-linejoin: miter"/>
   </g>
   <g id="text_1">
    <!-- a -->
    <g transform="translate(56.201029 67.682279) scale(0.2 -0.2)">
     <defs>
      <path id="DejaVuSerif-Italic-61" d="M 2325 519 
Q 1909 -91 1238 -91 
Q 688 -91 409 281 
Q 216 544 216 919 
Q 216 1078 250 1256 
Q 463 2359 1231 2928 
Q 1884 3413 2675 3413 
Q 3206 3413 3388 3322 
L 2806 331 
L 3300 331 
L 3238 0 
L 2225 0 
L 2325 519 
z
M 822 938 
Q 822 269 1469 269 
Q 1863 269 2130 583 
Q 2397 897 2516 1497 
L 2806 3003 
L 2806 3003 
Q 2806 3094 2556 3094 
Q 1956 3094 1491 2625 
Q 1028 2153 863 1297 
Q 822 1097 822 938 
z
" transform="scale(0.015625)"/>
     </defs>
     <use xlink:href="#DejaVuSerif-Italic-61"/>
    </g>
   </g>
   <g id="text_2">
    <!-- b -->
    <g transform="translate(341.114908 67.682279) scale(0.2 -0.2)">
     <defs>
      <path id="DejaVuSerif-Italic-62" d="M 1153 4531 
L 600 4531 
L 666 4863 
L 1794 4863 
L 1394 2803 
Q 1622 3116 1912 3264 
Q 2203 3413 2588 3413 
Q 3200 3413 3494 2928 
Q 3688 2609 3688 2163 
Q 3688 1928 3634 1663 
Q 3481 881 3000 395 
Q 2519 -91 1906 -91 
Q 1522 -91 1289 57 
Q 1056 206 950 519 
L 850 0 
L 275 0 
L 1153 4531 
z
M 1141 1497 
Q 1091 1250 1091 1053 
Q 1091 769 1191 581 
Q 1359 269 1797 269 
Q 2238 269 2533 622 
Q 2828 975 2963 1663 
Q 3025 1978 3025 2225 
Q 3025 2513 2938 2703 
Q 2781 3053 2338 3053 
Q 1900 3053 1609 2737 
Q 1319 2422 1203 1825 
L 1141 1497 
z
" transform="scale(0.015625)"/>
     </defs>
     <use xlink:href="#DejaVuSerif-Italic-62"/>
    </g>
   </g>
   <g id="text_3">
    <!-- c -->
    <g transform="translate(341.916471 353.035221) scale(0.2 -0.2)">
     <defs>
      <path id="DejaVuSerif-Italic-63" d="M 3163 997 
Q 2938 466 2536 187 
Q 2134 -91 1584 -91 
Q 859 -91 513 388 
Q 272 722 272 1203 
Q 272 1419 319 1663 
Q 475 2459 1008 2936 
Q 1541 3413 2266 3413 
Q 2581 3413 2879 3339 
Q 3178 3266 3463 3116 
L 3300 2266 
L 2966 2266 
Q 2966 2309 2966 2347 
Q 2966 2722 2803 2903 
Q 2622 3103 2213 3103 
Q 1747 3103 1439 2742 
Q 1131 2381 991 1663 
Q 928 1334 928 1078 
Q 928 778 1016 581 
Q 1181 219 1650 219 
Q 2022 219 2281 412 
Q 2541 606 2700 997 
L 3163 997 
z
" transform="scale(0.015625)"/>
     </defs>
     <use xlink:href="#DejaVuSerif-Italic-63"/>
    </g>
   </g>
   <g id="text_4">
    <!-- d -->
    <g transform="translate(55.761967 353.035221) scale(0.2 -0.2)">
     <defs>
      <path id="DejaVuSerif-Italic-64" d="M 3841 4863 
L 2897 0 
L 2322 0 
L 2422 519 
Q 2191 206 1902 57 
Q 1613 -91 1228 -91 
Q 616 -91 322 394 
Q 125 716 125 1166 
Q 125 1397 178 1663 
Q 331 2444 812 2928 
Q 1294 3413 1909 3413 
Q 2294 3413 2525 3264 
Q 2756 3116 2866 2803 
L 3200 4531 
L 2656 4531 
L 2722 4863 
L 3841 4863 
z
M 2613 1497 
L 2675 1825 
Q 2722 2069 2722 2266 
Q 2722 2550 2622 2738 
Q 2456 3053 2019 3053 
Q 1575 3053 1279 2703 
Q 984 2353 850 1663 
Q 788 1347 788 1103 
Q 788 813 875 622 
Q 1031 269 1475 269 
Q 1913 269 2203 583 
Q 2494 897 2613 1497 
z
" transform="scale(0.015625)"/>
     </defs>
     <use xlink:href="#DejaVuSerif-Italic-64"/>
    </g>
   </g>
   <g id="text_5">
    <!-- ε -->
    <g transform="translate(199.474375 210.35875) scale(0.2 -0.2)">
     <defs>
      <path id="DejaVuSerif-Italic-3b5" d="M 3191 3156 
L 3069 2541 
L 2719 2463 
Q 2734 2741 2538 2884 
Q 2341 3025 2047 3025 
Q 1753 3025 1506 2872 
Q 1256 2716 1216 2503 
Q 1163 2228 1394 2069 
Q 1628 1906 2044 1906 
L 2194 1906 
L 2131 1578 
L 1844 1578 
Q 1425 1578 1113 1378 
Q 797 1175 731 834 
Q 681 572 909 375 
Q 1138 175 1484 175 
Q 1847 175 2142 340 
Q 2438 506 2531 825 
L 2853 747 
L 2728 103 
Q 2375 -9 2025 -66 
Q 1681 -122 1441 -122 
Q 825 -122 447 125 
Q 75 375 166 841 
Q 259 1331 609 1572 
Q 794 1694 1269 1756 
L 828 2003 
Q 597 2134 675 2531 
Q 753 2934 1100 3147 
Q 1447 3356 2059 3356 
Q 2228 3356 2544 3306 
Q 2859 3253 3191 3156 
z
" transform="scale(0.015625)"/>
     </defs>
     <use xlink:href="#DejaVuSerif-Italic-3b5"/>
    </g>
   </g>
  </g>
 </g>
 <defs>
  <clipPath id="p5018491ec5">
   <rect x="10.8" y="10.8" width="388.08" height="388.08"/>
  </clipPath>
 </defs>
</svg>
